<svg xmlns="http://www.w3.org/2000/svg" width="134" height="134" viewBox="0 0 134 134">
  <g id="Grupo_887401" data-name="Grupo 887401" transform="translate(-390 -5641)">
    <circle id="Elipse_5260" data-name="Elipse 5260" cx="67" cy="67" r="67" transform="translate(390 5641)" fill="#179587"/>
    <g id="Grupo_881841" data-name="Grupo 881841" transform="translate(20 4764.509)">
      <path id="Trazado_620566" data-name="Trazado 620566" d="M390,937.626c.226-1.6.4-3.215.687-4.807a40.27,40.27,0,0,1,11.74-22.1,39.413,39.413,0,0,1,22.713-11.332c14.791-2,27.357,2.526,37.38,13.625A39.82,39.82,0,0,1,472.6,936.1a39.393,39.393,0,0,1-.794,13.037,1.093,1.093,0,0,0,.613,1.444,16.53,16.53,0,0,1,8.429,12.454,3.128,3.128,0,0,0,.154.492V966.9c-.356,1.393-.665,2.8-1.088,4.174a13.914,13.914,0,0,1-1.024,2.253,1.382,1.382,0,0,1-1.885.8c-.731-.359-.922-1.16-.445-2.057a13.961,13.961,0,0,0,1.154-10.979,14.175,14.175,0,0,0-27.66,2.6,13.448,13.448,0,0,0,6.435,13.4c4.818,3.1,9.874,3.068,14.889.29,1.221-.676,1.925-.682,2.4.089s.139,1.5-1.071,2.224a16.792,16.792,0,0,1-20.441-2.576,1.213,1.213,0,0,0-1.78-.248,24.36,24.36,0,0,1-2.713,1.309,1.339,1.339,0,1,1-1.088-2.423c1.033-.5,2.072-.988,3.031-1.444-.783-1.96-1.533-3.837-2.273-5.692-1.649.709-3.366,1.553-5.156,2.2a32.488,32.488,0,1,1,16.9-47.527c.56.933.463,1.748-.259,2.165-.7.405-1.4.123-2-.732-1.08-1.544-2.189-3.068-3.507-4.908-.62.743-1.055,1.335-1.563,1.856a1.362,1.362,0,0,1-2.036.168,1.324,1.324,0,0,1,.151-2.03c.518-.52,1.089-.987,1.637-1.478a28.869,28.869,0,0,0-18.887-7.817c0,.689.01,1.382,0,2.076-.019,1.064-.494,1.635-1.334,1.627s-1.305-.58-1.326-1.648c-.013-.672,0-1.344,0-2.138A30.048,30.048,0,0,0,411.13,918.3c.547.477,1.07.893,1.546,1.357.8.782.9,1.563.323,2.162-.6.614-1.417.51-2.231-.314-.434-.441-.831-.918-1.339-1.483a29.825,29.825,0,0,0-7.818,17.793c.682,0,1.3-.018,1.911,0a1.332,1.332,0,0,1,1.455,1.333,1.31,1.31,0,0,1-1.454,1.319c-.618.015-1.237,0-1.849,0-.478,4.942,1.936,13.837,7.871,20,.465-.572.891-1.177,1.4-1.7a1.336,1.336,0,0,1,2.03-.176,1.369,1.369,0,0,1-.144,2.041c-.494.507-1.03.975-1.633,1.542a29.88,29.88,0,0,0,18.862,7.834c0-.787-.013-1.486,0-2.186.024-1.02.556-1.637,1.368-1.617.782.02,1.27.608,1.291,1.593.015.7,0,1.4,0,2.167a19.974,19.974,0,0,0,6.632-1.029c2.47-.869,4.837-2.027,7.253-3.051a1.057,1.057,0,0,0,.668-1.1,16.882,16.882,0,0,1,12.068-15.74c.291-.092.695-.346.748-.589.487-2.243.907-4.5,1.381-6.92-.984,0-1.713.007-2.442,0-.984-.011-1.566-.49-1.585-1.288-.02-.825.591-1.351,1.612-1.368.7-.012,1.408,0,2.312,0-.305-1.912-.589-3.707-.883-5.5-.048-.29-.15-.571-.208-.86a1.323,1.323,0,0,1,.94-1.655,1.258,1.258,0,0,1,1.621.984c.353,1.613.7,3.235.9,4.872a30.871,30.871,0,0,1-.676,11,4.424,4.424,0,0,0-.07.525l6.151.68c.188-1.011.441-2.154.608-3.309a38.78,38.78,0,1,0-30.81,32.521,5.031,5.031,0,0,1,.526-.079,1.292,1.292,0,0,1,1.581,1.051,1.265,1.265,0,0,1-1.117,1.538,51.871,51.871,0,0,1-5.355.765A41.407,41.407,0,0,1,390.331,945.3q-.163-1.264-.331-2.528Z" fill="#fff"/>
      <path id="Trazado_620567" data-name="Trazado 620567" d="M453.05,949.962a5.8,5.8,0,0,1-3.71,4.038,5.7,5.7,0,0,1-7.148-3.308,5.607,5.607,0,0,1,3.131-7.259,1.121,1.121,0,0,0,.838-1.281c-.024-4.64-.013-9.28-.012-13.92,0-.266-.012-.534.012-.8a1.362,1.362,0,0,1,1.342-1.37,1.312,1.312,0,0,1,1.3,1.4c.029,1.861.014,3.724.015,5.585,0,3.044.017,6.089-.014,9.132a1.054,1.054,0,0,0,.791,1.228,5.132,5.132,0,0,1,3.157,3.162.993.993,0,0,0,1.155.745c3.375-.024,6.751-.012,10.127-.012.236,0,.474-.01.71.005a1.365,1.365,0,0,1,1.408,1.394,1.333,1.333,0,0,1-1.439,1.256c-1.51.017-3.02.005-4.53.005Zm-5.582-4.309a2.975,2.975,0,0,0-2.987,2.966,3.015,3.015,0,1,0,2.987-2.966Z" transform="translate(-16.092 -8.427)" fill="#fff"/>
      <path id="Trazado_620568" data-name="Trazado 620568" d="M490.26,990.757c1.928-1.819,3.832-3.587,5.7-5.391a4.109,4.109,0,0,1,6.18,5.409c-2.719,2.962-5.551,5.827-8.44,8.624a4.793,4.793,0,0,1-6.555-.041c-1.725-1.618-3.383-3.314-4.986-5.052a4.044,4.044,0,0,1,.238-5.68,4.105,4.105,0,0,1,5.7,0C488.874,989.357,489.615,990.121,490.26,990.757Zm.2,7.419a8.678,8.678,0,0,0,1.781-1.053c2.578-2.566,5.108-5.18,7.638-7.794.234-.242.538-.634.485-.891a2.628,2.628,0,0,0-.7-1.475,1.305,1.305,0,0,0-1.825.3q-3.1,3.174-6.207,6.34a1.4,1.4,0,0,1-2.356.019c-.942-.94-1.858-1.906-2.8-2.847a1.493,1.493,0,0,0-2.261-.2,1.476,1.476,0,0,0,.14,2.2c1.44,1.487,2.874,2.982,4.371,4.411A8.537,8.537,0,0,0,490.465,998.177Z" transform="translate(-28.298 -26.443)" fill="#fff"/>
      <path id="Trazado_620569" data-name="Trazado 620569" d="M424.251,952.888c1.213,0,2.425-.021,3.637,0a2.252,2.252,0,0,1,2.448,2.5c.012,1.092.019,2.184,0,3.275a2.216,2.216,0,0,1-2.3,2.39q-3.856.07-7.715,0a2.161,2.161,0,0,1-2.246-2.329c-.02-1.151-.018-2.3,0-3.453a2.184,2.184,0,0,1,2.369-2.38C421.709,952.864,422.98,952.888,424.251,952.888Zm3.378,2.735H420.78v2.737h6.849Z" transform="translate(-8.715 -16.756)" fill="#fff"/>
    </g>
  </g>
</svg>
