<svg xmlns="http://www.w3.org/2000/svg" xmlns:xlink="http://www.w3.org/1999/xlink" width="208" height="208" viewBox="0 0 208 208">
  <defs>
    <clipPath id="clip-path">
      <path id="Trazado_617660" data-name="Trazado 617660" d="M298.738,171.52l-7.686-4.755q-.368-.228-.719-.482l7.686,4.755Q298.371,171.292,298.738,171.52Z" transform="translate(-290.334 -166.283)" fill="none"/>
    </clipPath>
    <clipPath id="clip-path-2">
      <path id="Trazado_617669" data-name="Trazado 617669" d="M117.4,208.8l11.713,7.245c1.355.839,2.1,2.834,2.393,6.063L119.8,214.858C119.5,211.63,118.757,209.634,117.4,208.8Z" transform="translate(-117.402 -208.796)" fill="none"/>
    </clipPath>
    <clipPath id="clip-path-3">
      <path id="Trazado_617674" data-name="Trazado 617674" d="M101.119,213.742,89.406,206.5a25.324,25.324,0,0,1-3.275-3.143L97.843,210.6A25.415,25.415,0,0,0,101.119,213.742Z" transform="translate(-86.131 -203.354)" fill="#348092"/>
    </clipPath>
    <clipPath id="clip-path-4">
      <path id="Trazado_617678" data-name="Trazado 617678" d="M191.4,35.459l-11.712-7.245A26.293,26.293,0,0,1,184.22,29l11.712,7.245A26.349,26.349,0,0,0,191.4,35.459Z" transform="translate(-179.688 -28.214)" fill="#348092"/>
    </clipPath>
    <clipPath id="clip-path-5">
      <path id="Trazado_617681" data-name="Trazado 617681" d="M84.428,176.919l11.713,7.245c2.218,1.373,2.325,4.1.555,8.632l-11.712-7.245C86.753,181.017,86.647,178.291,84.428,176.919Z" transform="translate(-84.428 -176.919)" fill="none"/>
    </clipPath>
    <clipPath id="clip-path-6">
      <path id="Trazado_617684" data-name="Trazado 617684" d="M78.967,170.458l-11.712-7.245c-.256-.8-.489-1.619-.684-2.465s-.344-1.7-.469-2.552l11.713,7.246c.124.856.274,1.706.469,2.552S78.711,169.656,78.967,170.458Z" transform="translate(-66.102 -158.195)" fill="#348092"/>
    </clipPath>
    <clipPath id="clip-path-7">
      <path id="Trazado_617687" data-name="Trazado 617687" d="M78.983,118.133l-11.712-7.245a38.758,38.758,0,0,1,1.4-5.031L80.381,113.1A38.585,38.585,0,0,0,78.983,118.133Z" transform="translate(-67.271 -105.856)" fill="#348092"/>
    </clipPath>
    <clipPath id="clip-path-8">
      <path id="Trazado_617695" data-name="Trazado 617695" d="M100.935,71.777,89.223,64.532a39.441,39.441,0,0,1,3.425-4.006l11.712,7.245A39.61,39.61,0,0,0,100.935,71.777Z" transform="translate(-89.223 -60.526)" fill="#348092"/>
    </clipPath>
    <clipPath id="clip-path-9">
      <path id="Trazado_617700" data-name="Trazado 617700" d="M141.848,41.483l-11.713-7.245c.79-.388,1.594-.764,2.419-1.1s1.647-.614,2.469-.877l11.712,7.245c-.822.263-1.644.544-2.469.878S142.637,41.095,141.848,41.483Z" transform="translate(-130.135 -32.263)" fill="#348092"/>
    </clipPath>
  </defs>
  <g id="Grupo_887391" data-name="Grupo 887391" transform="translate(-696 -875)">
    <circle id="Elipse_5375" data-name="Elipse 5375" cx="104" cy="104" r="104" transform="translate(696 875)" fill="#b0c0d2"/>
    <circle id="Elipse_5373" data-name="Elipse 5373" cx="95" cy="95" r="95" transform="translate(705 883)" fill="#f3f9ff"/>
    <g id="Grupo_878712" data-name="Grupo 878712" transform="translate(710.567 879.25)">
      <path id="Trazado_617571" data-name="Trazado 617571" d="M383.572,341.75c0,3.72-8.341,6.735-18.63,6.735s-18.629-3.016-18.629-6.735,8.341-6.736,18.629-6.736S383.572,338.03,383.572,341.75Z" transform="translate(-218.762 -206.617)" fill="#98a7d3"/>
      <g id="Grupo_878658" data-name="Grupo 878658" transform="translate(130.852 60.747)">
        <path id="Trazado_617572" data-name="Trazado 617572" d="M374.363,183.581l-2.992,8.728a2.908,2.908,0,0,1-1.106,2.879l-6.184,6.963-1.266-.9,5.248-8.733,2.417-9.936s.343-3.03,2.606-2.341C373.086,180.24,375.3,180.659,374.363,183.581Z" transform="translate(-360.727 -163.061)" fill="#f5ae80"/>
        <g id="Grupo_878647" data-name="Grupo 878647" transform="translate(0 37.749)">
          <path id="Trazado_617573" data-name="Trazado 617573" d="M358.37,247.99c-.21-.078-.519.466-1.14.126a5.6,5.6,0,0,1,.7-1.152c.2-.2.33-.152.61-.121.226.025.452.126.681.139s.7-.456.929-.6l.263.161a13.61,13.61,0,0,1-.939,1.916Z" transform="translate(-356.966 -245.421)" fill="#f7ae80"/>
          <path id="Trazado_617574" data-name="Trazado 617574" d="M356.422,245.155a9.1,9.1,0,0,1,.995-1.006l.913-.327.5-.378c.393.521.779.959.779.959-.605.6-.734.754-.734.754s-.326.306-1.137-.013l-.381-.088S356.815,245.6,356.422,245.155Z" transform="translate(-356.422 -243.444)" fill="#f7ae80"/>
          <path id="Trazado_617575" data-name="Trazado 617575" d="M359.621,250.3a.191.191,0,0,0-.106-.31.213.213,0,0,0-.329.05l.06-.1c.005-.147-.209-.2-.209-.2a.234.234,0,0,0-.315.125l.1-.193c.023-.135-.192-.215-.192-.215-.27-.113-.353.1-.353.1l-.05.08s-.408-.461-.81.216l-.188.307s.156.282.614.145a.431.431,0,0,0,.552.188.445.445,0,0,0,.49.126s.25.248.432.1Z" transform="translate(-356.966 -247.474)" fill="#f7ae80"/>
        </g>
        <path id="Trazado_617576" data-name="Trazado 617576" d="M388.26,136.538l-.735,8.706a2.85,2.85,0,0,1-2.118,2.541s7.419,1.386,7.964-2.361C393.372,145.424,393.344,136.845,388.26,136.538Z" transform="translate(-375.943 -133.698)" fill="#3e140e"/>
        <g id="Grupo_878650" data-name="Grupo 878650" transform="translate(6.408 71.194)">
          <path id="Trazado_617577" data-name="Trazado 617577" d="M381.252,345.9l.169,1.376-4.819,1.71s-.856.3-.312.682a2.7,2.7,0,0,0,2.589.016l3.295-1.482.8-.293-.042-2.043Z" transform="translate(-376.089 -345.865)" fill="#fabc99"/>
          <g id="Grupo_878649" data-name="Grupo 878649" transform="translate(0 0.212)">
            <path id="Trazado_617578" data-name="Trazado 617578" d="M383,348.289l-.848.376-3.246,1.4a2.7,2.7,0,0,1-2.587-.017c-.545-.383.245-.732.245-.732l1.17-.478,3.241-1.4-.067-.614s-.035-.259.28-.307l.932.058s.363.093.264.379l-.141.357.732-.319.025,1.3" transform="translate(-376.1 -346.514)" fill="#242931"/>
            <path id="Trazado_617579" data-name="Trazado 617579" d="M380.626,349.208l3.533-1.56.067-.34.141-.357c.1-.286-.264-.379-.264-.379l-.932-.058c-.315.048-.28.307-.28.307l.067.614-3.241,1.4-.644.263S379.534,349.726,380.626,349.208Z" transform="translate(-378.084 -346.514)" fill="#111316"/>
            <path id="Trazado_617580" data-name="Trazado 617580" d="M376.071,353.421a.7.7,0,0,0,.144.634,2.609,2.609,0,0,0,2.568.141l4.188-1.83-.025-.415-4.537,1.814A2.415,2.415,0,0,1,376.071,353.421Z" transform="translate(-376.047 -350.176)" fill="#ededed"/>
            <path id="Trazado_617581" data-name="Trazado 617581" d="M382.855,355.17a.167.167,0,1,1-.176-.157A.167.167,0,0,1,382.855,355.17Z" transform="translate(-380.407 -352.238)" fill="#8c8b8b" style="mix-blend-mode: multiply;isolation: isolate"/>
            <path id="Trazado_617582" data-name="Trazado 617582" d="M385.072,354.2a.167.167,0,1,1-.177-.156A.168.168,0,0,1,385.072,354.2Z" transform="translate(-381.901 -351.588)" fill="#8c8b8b" style="mix-blend-mode: multiply;isolation: isolate"/>
            <path id="Trazado_617583" data-name="Trazado 617583" d="M386.963,353.319a.167.167,0,1,1-.177-.156A.167.167,0,0,1,386.963,353.319Z" transform="translate(-383.174 -350.992)" fill="#8c8b8b" style="mix-blend-mode: multiply;isolation: isolate"/>
            <path id="Trazado_617584" data-name="Trazado 617584" d="M388.869,352.4a.167.167,0,1,1-.177-.156A.167.167,0,0,1,388.869,352.4Z" transform="translate(-384.458 -350.375)" fill="#8c8b8b" style="mix-blend-mode: multiply;isolation: isolate"/>
            <path id="Trazado_617585" data-name="Trazado 617585" d="M391.105,351.45a.167.167,0,1,1-.177-.155A.167.167,0,0,1,391.105,351.45Z" transform="translate(-385.964 -349.733)" fill="#8c8b8b" style="mix-blend-mode: multiply;isolation: isolate"/>
            <path id="Trazado_617586" data-name="Trazado 617586" d="M392.916,350.554a.167.167,0,1,1-.177-.156A.167.167,0,0,1,392.916,350.554Z" transform="translate(-387.183 -349.129)" fill="#8c8b8b" style="mix-blend-mode: multiply;isolation: isolate"/>
            <g id="Grupo_878648" data-name="Grupo 878648" transform="translate(1.473 0.899)">
              <path id="Trazado_617587" data-name="Trazado 617587" d="M382.771,352.809a1.048,1.048,0,0,1,.806.525" transform="translate(-382.048 -351.652)" fill="none" stroke="#fff" stroke-linecap="round" stroke-linejoin="round" stroke-width="0.844"/>
              <path id="Trazado_617588" data-name="Trazado 617588" d="M384.664,351.945a1.05,1.05,0,0,1,.806.525" transform="translate(-383.323 -351.07)" fill="none" stroke="#fff" stroke-linecap="round" stroke-linejoin="round" stroke-width="0.844"/>
              <path id="Trazado_617589" data-name="Trazado 617589" d="M386.492,350.949a1.051,1.051,0,0,1,.807.526" transform="translate(-384.554 -350.399)" fill="none" stroke="#fff" stroke-linecap="round" stroke-linejoin="round" stroke-width="0.844"/>
              <path id="Trazado_617590" data-name="Trazado 617590" d="M388.813,350.141a1.049,1.049,0,0,1,.806.525" transform="translate(-386.117 -349.855)" fill="none" stroke="#fff" stroke-linecap="round" stroke-linejoin="round" stroke-width="0.844"/>
              <path id="Trazado_617591" data-name="Trazado 617591" d="M390.547,349.266a1.049,1.049,0,0,1,.806.525" transform="translate(-387.285 -349.266)" fill="none" stroke="#fff" stroke-linecap="round" stroke-linejoin="round" stroke-width="0.844"/>
              <path id="Trazado_617592" data-name="Trazado 617592" d="M380.557,353.828a1.047,1.047,0,0,1,.807.525" transform="translate(-380.557 -352.338)" fill="none" stroke="#fff" stroke-linecap="round" stroke-linejoin="round" stroke-width="0.844"/>
            </g>
          </g>
        </g>
        <path id="Trazado_617593" data-name="Trazado 617593" d="M390.146,270.873a3.3,3.3,0,0,1-2.563.053L386.6,250.6l-.175-16.108,7.625-.784c-.778,3.995-1.446,7.815-2,11.847-.288,2.09-.9,4.587-1.051,6.818a57.56,57.56,0,0,1-.251,12.4l-.5,6.06" transform="translate(-376.631 -199.137)" fill="#18223f"/>
        <g id="Grupo_878653" data-name="Grupo 878653" transform="translate(13.481 71.821)">
          <path id="Trazado_617594" data-name="Trazado 617594" d="M402.908,347.822l.17,1.375-4.82,1.71s-.856.3-.312.682a2.7,2.7,0,0,0,2.589.016l3.295-1.482.8-.292-.042-2.043Z" transform="translate(-397.746 -347.787)" fill="#fabc99"/>
          <g id="Grupo_878652" data-name="Grupo 878652" transform="translate(0 0.211)">
            <path id="Trazado_617595" data-name="Trazado 617595" d="M404.654,350.209l-.848.377-3.245,1.4a2.7,2.7,0,0,1-2.59-.017c-.545-.383.246-.733.246-.733l1.17-.478,3.241-1.4-.067-.614s-.036-.259.28-.307l.932.058s.363.094.265.38l-.142.356.732-.319.026,1.3" transform="translate(-397.756 -348.434)" fill="#de2e34"/>
            <path id="Trazado_617596" data-name="Trazado 617596" d="M402.283,351.129l3.533-1.56.066-.341.142-.356c.1-.286-.264-.38-.264-.38l-.932-.058c-.315.048-.28.307-.28.307l.067.614-3.241,1.4-.645.263S401.191,351.646,402.283,351.129Z" transform="translate(-399.741 -348.434)" fill="#8c8b8b" style="mix-blend-mode: multiply;isolation: isolate"/>
            <path id="Trazado_617597" data-name="Trazado 617597" d="M397.729,355.34a.7.7,0,0,0,.144.635,2.61,2.61,0,0,0,2.568.14l4.187-1.83-.025-.415-4.537,1.814A2.414,2.414,0,0,1,397.729,355.34Z" transform="translate(-397.705 -352.096)" fill="#ededed"/>
            <path id="Trazado_617598" data-name="Trazado 617598" d="M404.513,357.091a.166.166,0,1,1-.176-.157A.166.166,0,0,1,404.513,357.091Z" transform="translate(-402.066 -354.158)" fill="#8c8b8b" style="mix-blend-mode: multiply;isolation: isolate"/>
            <path id="Trazado_617599" data-name="Trazado 617599" d="M406.729,356.126a.167.167,0,0,1-.333.021.167.167,0,0,1,.333-.021Z" transform="translate(-403.558 -353.509)" fill="#8c8b8b" style="mix-blend-mode: multiply;isolation: isolate"/>
            <path id="Trazado_617600" data-name="Trazado 617600" d="M408.621,355.239a.167.167,0,1,1-.177-.156A.167.167,0,0,1,408.621,355.239Z" transform="translate(-404.832 -352.912)" fill="#8c8b8b" style="mix-blend-mode: multiply;isolation: isolate"/>
            <path id="Trazado_617601" data-name="Trazado 617601" d="M410.527,354.324a.167.167,0,1,1-.177-.157A.167.167,0,0,1,410.527,354.324Z" transform="translate(-406.116 -352.295)" fill="#8c8b8b" style="mix-blend-mode: multiply;isolation: isolate"/>
            <path id="Trazado_617602" data-name="Trazado 617602" d="M412.763,353.37a.167.167,0,0,1-.155.177.167.167,0,1,1-.021-.333A.167.167,0,0,1,412.763,353.37Z" transform="translate(-407.621 -351.653)" fill="#8c8b8b" style="mix-blend-mode: multiply;isolation: isolate"/>
            <path id="Trazado_617603" data-name="Trazado 617603" d="M414.574,352.476a.167.167,0,1,1-.177-.156A.167.167,0,0,1,414.574,352.476Z" transform="translate(-408.841 -351.05)" fill="#8c8b8b" style="mix-blend-mode: multiply;isolation: isolate"/>
            <g id="Grupo_878651" data-name="Grupo 878651" transform="translate(1.473 0.899)">
              <path id="Trazado_617604" data-name="Trazado 617604" d="M404.428,354.728a1.049,1.049,0,0,1,.807.526" transform="translate(-403.705 -353.572)" fill="none" stroke="#fff" stroke-linecap="round" stroke-linejoin="round" stroke-width="0.844"/>
              <path id="Trazado_617605" data-name="Trazado 617605" d="M406.32,353.865a1.048,1.048,0,0,1,.806.525" transform="translate(-404.98 -352.991)" fill="none" stroke="#fff" stroke-linecap="round" stroke-linejoin="round" stroke-width="0.844"/>
              <path id="Trazado_617606" data-name="Trazado 617606" d="M408.15,352.869a1.051,1.051,0,0,1,.807.525" transform="translate(-406.212 -352.32)" fill="none" stroke="#fff" stroke-linecap="round" stroke-linejoin="round" stroke-width="0.844"/>
              <path id="Trazado_617607" data-name="Trazado 617607" d="M410.469,352.061a1.05,1.05,0,0,1,.807.525" transform="translate(-407.774 -351.776)" fill="none" stroke="#fff" stroke-linecap="round" stroke-linejoin="round" stroke-width="0.844"/>
              <path id="Trazado_617608" data-name="Trazado 617608" d="M412.2,351.188a1.049,1.049,0,0,1,.806.525" transform="translate(-408.942 -351.188)" fill="none" stroke="#fff" stroke-linecap="round" stroke-linejoin="round" stroke-width="0.844"/>
              <path id="Trazado_617609" data-name="Trazado 617609" d="M402.215,355.748a1.051,1.051,0,0,1,.807.525" transform="translate(-402.215 -354.259)" fill="none" stroke="#fff" stroke-linecap="round" stroke-linejoin="round" stroke-width="0.844"/>
            </g>
          </g>
        </g>
        <g id="Grupo_878656" data-name="Grupo 878656" transform="translate(6.408 71.194)">
          <path id="Trazado_617610" data-name="Trazado 617610" d="M381.252,345.9l.169,1.376-4.819,1.71s-.856.3-.312.682a2.7,2.7,0,0,0,2.589.016l3.295-1.482.8-.293-.042-2.043Z" transform="translate(-376.089 -345.865)" fill="#fabc99"/>
          <g id="Grupo_878655" data-name="Grupo 878655" transform="translate(0 0.212)">
            <path id="Trazado_617611" data-name="Trazado 617611" d="M383,348.289l-.848.376-3.246,1.4a2.7,2.7,0,0,1-2.587-.017c-.545-.383.245-.732.245-.732l1.17-.478,3.241-1.4-.067-.614s-.035-.259.28-.307l.932.058s.363.093.264.379l-.141.357.732-.319.025,1.3" transform="translate(-376.1 -346.514)" fill="#de2e34"/>
            <path id="Trazado_617612" data-name="Trazado 617612" d="M380.626,349.208l3.533-1.56.067-.34.141-.357c.1-.286-.264-.379-.264-.379l-.932-.058c-.315.048-.28.307-.28.307l.067.614-3.241,1.4-.644.263S379.534,349.726,380.626,349.208Z" transform="translate(-378.084 -346.514)" fill="#8c8b8b" style="mix-blend-mode: multiply;isolation: isolate"/>
            <path id="Trazado_617613" data-name="Trazado 617613" d="M376.071,353.421a.7.7,0,0,0,.144.634,2.609,2.609,0,0,0,2.568.141l4.188-1.83-.025-.415-4.537,1.814A2.415,2.415,0,0,1,376.071,353.421Z" transform="translate(-376.047 -350.176)" fill="#ededed"/>
            <path id="Trazado_617614" data-name="Trazado 617614" d="M382.855,355.17a.167.167,0,1,1-.176-.157A.167.167,0,0,1,382.855,355.17Z" transform="translate(-380.407 -352.238)" fill="#8c8b8b" style="mix-blend-mode: multiply;isolation: isolate"/>
            <path id="Trazado_617615" data-name="Trazado 617615" d="M385.072,354.2a.167.167,0,1,1-.177-.156A.168.168,0,0,1,385.072,354.2Z" transform="translate(-381.901 -351.588)" fill="#8c8b8b" style="mix-blend-mode: multiply;isolation: isolate"/>
            <path id="Trazado_617616" data-name="Trazado 617616" d="M386.963,353.319a.167.167,0,1,1-.177-.156A.167.167,0,0,1,386.963,353.319Z" transform="translate(-383.174 -350.992)" fill="#8c8b8b" style="mix-blend-mode: multiply;isolation: isolate"/>
            <path id="Trazado_617617" data-name="Trazado 617617" d="M388.869,352.4a.167.167,0,1,1-.177-.156A.167.167,0,0,1,388.869,352.4Z" transform="translate(-384.458 -350.375)" fill="#8c8b8b" style="mix-blend-mode: multiply;isolation: isolate"/>
            <path id="Trazado_617618" data-name="Trazado 617618" d="M391.105,351.45a.167.167,0,1,1-.177-.155A.167.167,0,0,1,391.105,351.45Z" transform="translate(-385.964 -349.733)" fill="#8c8b8b" style="mix-blend-mode: multiply;isolation: isolate"/>
            <path id="Trazado_617619" data-name="Trazado 617619" d="M392.916,350.554a.167.167,0,1,1-.177-.156A.167.167,0,0,1,392.916,350.554Z" transform="translate(-387.183 -349.129)" fill="#8c8b8b" style="mix-blend-mode: multiply;isolation: isolate"/>
            <g id="Grupo_878654" data-name="Grupo 878654" transform="translate(1.473 0.899)">
              <path id="Trazado_617620" data-name="Trazado 617620" d="M382.771,352.809a1.048,1.048,0,0,1,.806.525" transform="translate(-382.048 -351.652)" fill="none" stroke="#fff" stroke-linecap="round" stroke-linejoin="round" stroke-width="0.844"/>
              <path id="Trazado_617621" data-name="Trazado 617621" d="M384.664,351.945a1.05,1.05,0,0,1,.806.525" transform="translate(-383.323 -351.07)" fill="none" stroke="#fff" stroke-linecap="round" stroke-linejoin="round" stroke-width="0.844"/>
              <path id="Trazado_617622" data-name="Trazado 617622" d="M386.492,350.949a1.051,1.051,0,0,1,.807.526" transform="translate(-384.554 -350.399)" fill="none" stroke="#fff" stroke-linecap="round" stroke-linejoin="round" stroke-width="0.844"/>
              <path id="Trazado_617623" data-name="Trazado 617623" d="M388.813,350.141a1.049,1.049,0,0,1,.806.525" transform="translate(-386.117 -349.855)" fill="none" stroke="#fff" stroke-linecap="round" stroke-linejoin="round" stroke-width="0.844"/>
              <path id="Trazado_617624" data-name="Trazado 617624" d="M390.547,349.266a1.049,1.049,0,0,1,.806.525" transform="translate(-387.285 -349.266)" fill="none" stroke="#fff" stroke-linecap="round" stroke-linejoin="round" stroke-width="0.844"/>
              <path id="Trazado_617625" data-name="Trazado 617625" d="M380.557,353.828a1.047,1.047,0,0,1,.807.525" transform="translate(-380.557 -352.338)" fill="none" stroke="#fff" stroke-linecap="round" stroke-linejoin="round" stroke-width="0.844"/>
            </g>
          </g>
        </g>
        <path id="Trazado_617626" data-name="Trazado 617626" d="M389.507,343.406s-.138-.008-.124.169l.082.9s-.024.184.106.235a3.072,3.072,0,0,0,2.667-.1.241.241,0,0,0,.171-.25l-.017-.855s.055-.253-.162-.241A4.425,4.425,0,0,1,389.507,343.406Z" transform="translate(-378.619 -272.925)" fill="#27557b"/>
        <path id="Trazado_617627" data-name="Trazado 617627" d="M391.039,244.912c-.431-3-.21-1.927-.526-3.817-.665-3.973-2.363-2.411-3.988-5.7l7.5-.674L391.9,247.57A7.745,7.745,0,0,1,391.039,244.912Z" transform="translate(-376.695 -199.824)" fill="#d2d1d1" style="mix-blend-mode: multiply;isolation: isolate"/>
        <path id="Trazado_617628" data-name="Trazado 617628" d="M389.507,343.406s-.138-.008-.124.169l.082.9s-.024.184.106.235a3.072,3.072,0,0,0,2.667-.1.241.241,0,0,0,.171-.25l-.017-.855s.055-.253-.162-.241A4.425,4.425,0,0,1,389.507,343.406Z" transform="translate(-378.619 -272.925)" fill="#27557b"/>
        <g id="Grupo_878657" data-name="Grupo 878657" transform="translate(13.942 32.13)">
          <path id="Trazado_617629" data-name="Trazado 617629" d="M405.717,267.118c.167-2.02.343-3.595.511-5.615a35.515,35.515,0,0,0-1.105-13.264l.076-2.627,2.066-12.336a11.284,11.284,0,0,0-.779-7.039l-7.368.151,1.394,18.446.233,2.526,2.306,19.855a3.308,3.308,0,0,0,2.563-.053" transform="translate(-399.117 -226.237)" fill="#18223f"/>
          <path id="Trazado_617630" data-name="Trazado 617630" d="M410.708,347.441s-.139-.008-.124.169l.082.9s-.024.184.105.236a3.072,3.072,0,0,0,2.667-.1.242.242,0,0,0,.172-.25l-.017-.855s.055-.253-.162-.241A4.427,4.427,0,0,1,410.708,347.441Z" transform="translate(-406.839 -307.773)" fill="#27557b"/>
        </g>
        <path id="Trazado_617631" data-name="Trazado 617631" d="M391.272,168.463a13.618,13.618,0,0,0-1.753-.7,4.387,4.387,0,0,0-1.174-.2c-.926-.012-1.222.965-1.374,1.708-.087.43-.132.868-.208,1.3-.085.488-.45.958-.508,1.414,0,0-1.58,2.8-.42,4.743l1.466,1.886-1.225,10.394a19.5,19.5,0,0,0,11.773,1.053c.675-2.432-1.488-7.792-.935-6.211a9.168,9.168,0,0,1-.45-2.477c.2-1.72,1.672-4.933,1.813-6.7.111-1.386.4-2.04-.407-2.65a17.993,17.993,0,0,0-3.331-1.99Z" transform="translate(-375.943 -154.593)" fill="#f5ae80"/>
        <path id="Trazado_617632" data-name="Trazado 617632" d="M386.443,167.559s-1.567-.2-2.337,2.959l-1.52,5.878s-.071,1.465,3.5,1.776C386.082,178.172,388.836,168.49,386.443,167.559Z" transform="translate(-374.042 -154.588)" fill="#452136"/>
        <rect id="Rectángulo_294020" data-name="Rectángulo 294020" width="3.267" height="6.582" transform="translate(15.328 10.611)" fill="#f5ae80"/>
        <path id="Trazado_617633" data-name="Trazado 617633" d="M403.363,163.83v-3.492h3.267v1.988A27.788,27.788,0,0,1,403.363,163.83Z" transform="translate(-388.035 -149.727)" fill="#f5ae80" opacity="0.5" style="mix-blend-mode: multiply;isolation: isolate"/>
        <path id="Trazado_617634" data-name="Trazado 617634" d="M402.711,140.693c2.364-1.647,3.379-8.266-1.05-9.948-3.209-1.219-6.809,1.336-6.1,4.833a7.666,7.666,0,0,1-.327,2.272,7.783,7.783,0,0,0,.807,4c.538,1.267,2.572.466,3.646.195A9.218,9.218,0,0,0,402.711,140.693Z" transform="translate(-382.54 -129.589)" fill="#f5ae80"/>
        <path id="Trazado_617635" data-name="Trazado 617635" d="M397.87,172.022c.806.61.517,1.264.407,2.65-.141,1.769-1.617,4.981-1.813,6.7a9.168,9.168,0,0,0,.45,2.477c-.553-1.58,2.441,5.182,1.767,7.615,0,0-8.725,3.013-12.938-1.519l1.411-11.218-1.318-2c-1.161-1.938.42-4.742.42-4.743.059-.456.424-.926.508-1.414.076-.432.121-.87.208-1.3.152-.743.447-1.72,1.374-1.708a4.387,4.387,0,0,1,1.174.2,9.584,9.584,0,0,1,1.6.634,1.426,1.426,0,0,0,.792,2.136s1.8,1.059,2.837-.406A14.387,14.387,0,0,1,397.87,172.022Z" transform="translate(-375.943 -154.593)" fill="#452136"/>
        <path id="Trazado_617636" data-name="Trazado 617636" d="M413.044,139.427a1.688,1.688,0,0,1-.4-.384,10.758,10.758,0,0,1-1.03-3.738l2.691-1.867s3.849,2.6,1.08,7.5l-1.284,1.683a3.883,3.883,0,0,1-1.021.538c-.314-2.1-.108-.934.122-2.685A1.057,1.057,0,0,0,413.044,139.427Z" transform="translate(-393.589 -131.611)" fill="#3e140e"/>
        <path id="Trazado_617637" data-name="Trazado 617637" d="M394.635,135.274s-.778-3.383-.374-4.873c1.209-2.806,4.8-2.553,4.8-2.553,3.032.2,3.479,1.822,3.479,1.822l-2.691,1.867c-.233-.776-1.189-1.031-1.876-1.145-1.814-.3-1.533,1.167-3.15,2.49,0,0,.06,1.424.06,1.424A5.65,5.65,0,0,1,394.635,135.274Z" transform="translate(-381.826 -127.842)" fill="#3e140e"/>
        <path id="Trazado_617638" data-name="Trazado 617638" d="M387.207,180.468l-1.315-2c-1.16-1.934.417-4.733.417-4.733.059-.457.424-.925.509-1.412.075-.432.121-.868.207-1.3a4.161,4.161,0,0,1,.281-.922,8.217,8.217,0,0,1-.284,3.227,10.228,10.228,0,0,0-.749,3.283,2.138,2.138,0,0,0,.99,2.075c.873.388,1.854.6,2.756.925,1.8.645,4.265,1.542,6.04.342a6.87,6.87,0,0,0,2.268-3.734c-.007.064-.011.128-.017.195-.142,1.765-1.613,4.971-1.808,6.689a8.262,8.262,0,0,0,.474,2.55c-.007-.021-.015-.045-.027-.078-.551-1.577,2.438,5.172,1.764,7.6,0,0-8.726,3-12.931-1.519Z" transform="translate(-375.982 -156.306)" fill="#d2d1d1" style="mix-blend-mode: multiply;isolation: isolate"/>
        <path id="Trazado_617639" data-name="Trazado 617639" d="M405.018,137.557l-.735,8.707a4.16,4.16,0,0,1-2.452,3.632s7.753.294,8.3-3.453c0,0,.678-4.913-.932-8.75C408.681,136.463,406.523,137.648,405.018,137.557Z" transform="translate(-387.004 -134.098)" fill="#3e140e"/>
      </g>
      <g id="Grupo_878699" data-name="Grupo 878699" transform="translate(36.05 28.214)">
        <g id="Grupo_878662" data-name="Grupo 878662" transform="translate(40.804 45.449)">
          <g id="Grupo_878659" data-name="Grupo 878659" transform="translate(0 0.263)">
            <path id="Trazado_617640" data-name="Trazado 617640" d="M225.561,305.939l-13.893-8.593c2.471,1.527,3.252,4.353,2.656,8.932l13.891,8.594C228.812,310.291,228.03,307.467,225.561,305.939Z" transform="translate(-204.938 -255.176)" fill="#37326e"/>
            <path id="Trazado_617641" data-name="Trazado 617641" d="M294.4,178.746c.239-.159.48-.329.727-.512l.029-.02c.031-.023.062-.051.094-.074.21-.158.422-.327.636-.5.069-.056.138-.112.207-.171.254-.212.511-.432.773-.668L282.969,168.2c-.261.236-.517.456-.77.667-.071.059-.141.117-.211.174q-.32.263-.634.5l-.122.094c-.246.184-.489.354-.73.514-.057.039-.115.074-.172.111q-.3.194-.594.364c-.051.029-.1.061-.152.089-.135.075-.269.144-.4.211-.056.029-.113.06-.17.087-.188.091-.375.175-.559.249s-.382.139-.571.2c-.13.041-.258.077-.386.11s-.23.058-.345.081-.252.044-.377.061-.224.03-.335.039-.248.012-.371.013-.219,0-.328,0-.246-.021-.367-.036-.22-.026-.328-.047c-.092-.017-.182-.039-.272-.061-.122-.029-.244-.062-.366-.1-.09-.029-.18-.06-.27-.094-.134-.05-.266-.1-.4-.164-.059-.027-.118-.053-.177-.082-.2-.1-.391-.2-.586-.321l13.892,8.593c.194.12.391.225.587.322.059.029.117.055.176.082.074.034.149.072.224.1.059.024.119.04.178.062.089.033.177.065.266.093.124.039.249.072.375.1.087.021.175.043.262.059.038.006.076.019.114.025.074.012.149.013.224.022.12.014.24.029.36.035s.221,0,.332,0,.244,0,.368-.012.225-.024.338-.039.249-.036.375-.061.23-.051.346-.081.255-.068.384-.108c.05-.016.1-.025.149-.043q.21-.071.422-.157.275-.112.557-.248c.062-.031.127-.066.191-.1.124-.063.249-.128.375-.2.019-.011.039-.019.059-.03.036-.021.075-.047.111-.069q.286-.165.578-.353C294.277,178.824,294.337,178.787,294.4,178.746Z" transform="translate(-246.225 -168.204)" fill="#37326e"/>
            <path id="Trazado_617642" data-name="Trazado 617642" d="M194.425,229.025c.025.048.047.1.072.146.127.254.242.506.346.755.014.033.03.067.044.1.108.266.2.53.281.792l.052.171c.076.262.143.521.194.778.006.031.009.061.015.093.045.24.076.479.1.717,0,.047.009.092.013.139a7.308,7.308,0,0,1,.015.751c0,.052,0,.1-.008.157a7.251,7.251,0,0,1-.075.76.049.049,0,0,1,0,.009,7.5,7.5,0,0,1-.167.762c-.014.053-.028.106-.043.158q-.106.367-.25.734c-.022.056-.048.112-.072.169-.085.2-.18.41-.284.615-.033.066-.066.133-.1.2-.132.248-.275.5-.433.747-.028.044-.06.089-.089.133-.135.209-.282.418-.436.628-.064.087-.129.175-.2.263-.156.2-.321.408-.494.613-.053.062-.1.123-.155.186-.165.191-.347.385-.527.579-.092.1-.177.2-.272.3q-.423.438-.895.885l13.891,8.594q.473-.448.895-.885c.1-.1.182-.2.275-.3.163-.175.33-.35.481-.523.016-.018.029-.036.044-.054.053-.06.1-.121.151-.182q.263-.312.5-.621c.065-.084.127-.169.189-.254s.12-.156.174-.233c.1-.137.184-.273.273-.409.026-.04.054-.079.078-.118.134-.211.26-.42.374-.629.023-.042.041-.084.064-.126.034-.064.065-.127.1-.191q.158-.313.288-.626c.023-.054.047-.107.068-.161.01-.026.024-.053.033-.079.085-.22.155-.44.219-.661.014-.051.028-.1.041-.151a7.651,7.651,0,0,0,.168-.767h0a7.269,7.269,0,0,0,.076-.77c0-.051.006-.1.007-.153a7.1,7.1,0,0,0-.015-.753c0-.045-.009-.09-.013-.136-.022-.238-.054-.479-.1-.721-.006-.03-.01-.06-.015-.09-.051-.258-.118-.517-.193-.779-.017-.057-.035-.115-.053-.171-.082-.262-.174-.525-.281-.791-.014-.034-.031-.069-.044-.1-.1-.248-.219-.5-.344-.75-.025-.051-.049-.1-.074-.15q-.207-.406-.452-.82c-.036-.059-.071-.118-.108-.177-.173-.286-.356-.575-.555-.868l-13.891-8.593c.2.294.383.582.556.869.035.058.072.117.106.175Q194.217,228.618,194.425,229.025Z" transform="translate(-191.059 -207.908)" fill="#37326e"/>
            <path id="Trazado_617643" data-name="Trazado 617643" d="M233.094,187.5c.056-.182.11-.368.163-.557.031-.11.061-.219.091-.332.054-.206.1-.419.154-.633.023-.1.048-.2.071-.3.07-.321.138-.649.2-.99l-13.891-8.593c-.062.34-.13.669-.2.99-.023.1-.048.2-.072.306-.05.213-.1.424-.153.628-.03.116-.062.228-.093.341q-.077.278-.159.544c-.035.111-.07.221-.106.33-.058.175-.119.346-.181.515-.035.1-.071.2-.108.292-.075.191-.154.374-.233.555-.027.063-.054.13-.083.191-.11.239-.225.469-.346.691-.014.026-.029.05-.044.075-.153.276-.316.535-.485.784-.034.049-.067.1-.1.149-.153.214-.312.419-.479.613-.032.037-.066.07-.1.107q-.2.219-.406.421c-.055.053-.111.1-.167.154q-.208.187-.425.357c-.05.038-.1.078-.147.115a7.548,7.548,0,0,1-.7.457l-.151.083a8.084,8.084,0,0,1-.84.4c-.26.1-.538.188-.817.271-.142.043-.284.086-.432.122-.223.056-.457.1-.694.145-.146.026-.289.056-.44.079-.267.039-.548.064-.831.088-.134.011-.262.029-.4.037-.427.025-.868.037-1.329.03l13.892,8.594c.461.006.9-.005,1.329-.03.139-.008.27-.025.406-.038.28-.023.557-.049.823-.088.154-.022.3-.052.447-.079.234-.043.466-.088.688-.144.149-.037.291-.08.435-.122.121-.036.249-.063.365-.1.153-.052.3-.108.45-.168a7.8,7.8,0,0,0,.837-.4c.031-.017.065-.028.1-.045s.04-.027.061-.039a7.69,7.69,0,0,0,.7-.454c.015-.011.032-.019.047-.03.038-.028.07-.062.107-.091.144-.112.285-.23.421-.352.031-.029.066-.052.1-.082s.047-.05.071-.073c.14-.134.274-.274.406-.421.026-.029.054-.054.08-.083.007-.008.012-.017.019-.024.167-.193.325-.4.478-.613.013-.018.029-.034.042-.054s.039-.066.06-.1c.168-.246.329-.5.482-.777.011-.021.024-.037.035-.057l.013-.026c.121-.221.236-.452.347-.691.025-.056.049-.116.074-.174.084-.187.165-.379.242-.577.011-.027.023-.051.033-.079.025-.062.045-.13.068-.194.065-.174.128-.351.187-.534C233.027,187.717,233.06,187.611,233.094,187.5Z" transform="translate(-203.248 -173.518)" fill="#37326e"/>
          </g>
          <path id="Trazado_617644" data-name="Trazado 617644" d="M283.037,335.088l-13.892-8.594a12.894,12.894,0,0,1,3.027,2.769l13.892,8.594A12.913,12.913,0,0,0,283.037,335.088Z" transform="translate(-243.647 -274.542)" fill="#37326e"/>
          <path id="Trazado_617645" data-name="Trazado 617645" d="M345.247,213.95c.306.08.625.151.964.207l.02,0c.028,0,.061.006.089.011.281.044.573.08.875.11l.272.025c.344.028.7.05,1.068.061l-13.892-8.594c-.372-.01-.725-.032-1.07-.06l-.268-.024c-.3-.029-.59-.064-.868-.108l-.12-.017c-.338-.056-.656-.128-.963-.207l-.2-.053a8.433,8.433,0,0,1-.851-.284c-.12-.048-.234-.1-.348-.154-.056-.026-.117-.05-.173-.078q-.246-.122-.472-.262l-.015-.009h0l13.891,8.593.017.009c.151.093.307.179.471.262.058.029.12.054.181.082.1.047.2.1.308.14.01,0,.022.006.032.01a8.289,8.289,0,0,0,.852.284C345.112,213.915,345.179,213.933,345.247,213.95Z" transform="translate(-284.154 -192.396)" fill="#37326e"/>
          <path id="Trazado_617646" data-name="Trazado 617646" d="M281.211,235c.1-.333.193-.67.274-1.008.016-.066.029-.132.044-.2q.109-.482.191-.967c.006-.04.015-.079.021-.12.056-.347.1-.7.131-1.045.006-.076.014-.152.02-.23.028-.349.047-.7.053-1.049,0-.045,0-.09,0-.135,0-.325-.007-.651-.024-.976,0-.062-.006-.126-.011-.189-.023-.346-.06-.691-.108-1.035-.009-.073-.022-.146-.033-.219-.054-.355-.117-.709-.2-1.059a12.2,12.2,0,0,0-5.4-7.8l-13.892-8.593a12.194,12.194,0,0,1,5.4,7.8c.08.352.143.706.2,1.06.011.073.023.145.033.218q.072.516.108,1.035c0,.063.006.126.01.189.018.325.026.65.024.976,0,.045,0,.09,0,.136-.006.349-.025.7-.054,1.049-.006.076-.013.153-.02.23-.033.349-.075.7-.13,1.045-.006.04-.015.08-.022.12q-.081.486-.191.966c-.015.066-.029.133-.044.2q-.121.507-.274,1.007c-.022.072-.045.143-.068.215-.1.33-.216.657-.339.98-.006.016-.011.032-.018.048-.131.339-.275.675-.426,1.007-.031.068-.062.136-.094.2-.152.322-.311.64-.482.953-.038.07-.078.138-.116.207q-.17.3-.351.6l-.144.234c-.157.248-.317.494-.486.734l-.035.052c-.159.226-.325.448-.495.667-.058.075-.119.149-.179.224-.122.153-.247.3-.375.454-.067.079-.135.157-.2.235-.124.141-.253.281-.383.418-.066.07-.131.141-.2.209q-.249.256-.509.5c-.032.03-.062.062-.094.092-.21.2-.428.388-.649.575-.065.055-.133.108-.2.161-.16.132-.323.262-.488.386-.075.058-.151.114-.228.17q-.325.239-.661.463c-.044.028-.086.059-.13.087q-.4.257-.807.49c-.075.043-.152.084-.228.124-.2.11-.4.215-.605.317-.081.039-.161.08-.243.119-.277.132-.556.257-.841.373q-.4.161-.8.3c-.1.033-.193.059-.29.09-.169.055-.34.109-.509.157-.112.031-.224.056-.335.084-.155.039-.309.08-.462.113-.117.025-.233.045-.35.068-.147.028-.3.056-.442.08-.12.018-.239.032-.357.048-.144.019-.287.038-.43.051-.12.012-.239.02-.359.028-.141.01-.281.019-.421.024-.119,0-.237.006-.356.007-.139,0-.278,0-.417,0q-.174,0-.348-.014c-.138-.007-.276-.016-.413-.027-.114-.01-.228-.022-.342-.034-.136-.015-.272-.034-.408-.054-.117-.018-.234-.036-.351-.056s-.206-.039-.308-.059c-.125-.026-.249-.054-.373-.083-.1-.024-.2-.049-.3-.076q-.184-.049-.365-.1c-.1-.029-.2-.059-.293-.092-.122-.04-.242-.084-.361-.127-.094-.035-.189-.07-.283-.106s-.159-.068-.239-.1q-.3-.127-.591-.27c-.074-.036-.148-.072-.22-.11-.253-.131-.5-.269-.745-.418l0,0,13.892,8.594c.243.151.493.288.747.42.073.038.146.073.219.109.194.1.391.186.589.27.048.02.094.045.141.065l.1.038c.091.036.185.07.277.1.122.045.244.089.367.13.1.031.191.06.287.089.124.038.248.073.373.107.1.025.2.051.294.074.127.03.254.059.382.085.1.02.2.04.3.057.055.01.109.023.164.032s.129.016.193.025c.135.02.269.038.4.053.114.013.228.024.342.034.138.012.276.022.415.029.114.006.229.011.345.014.141,0,.282,0,.425,0,.115,0,.23,0,.346-.006.145-.006.29-.015.436-.025.114-.008.228-.015.343-.026.149-.015.3-.035.45-.054.113-.014.224-.027.337-.045.155-.024.312-.054.468-.085.108-.02.216-.039.325-.062.167-.036.334-.08.5-.122.1-.025.2-.047.294-.074.2-.054.391-.117.586-.18.066-.021.131-.038.2-.06l.018-.007q.4-.136.8-.3c.286-.115.566-.241.843-.372.079-.038.158-.078.236-.117q.309-.152.611-.318c.049-.027.1-.05.148-.077h0l.075-.046c.276-.158.548-.321.814-.494.038-.025.075-.052.113-.076.232-.153.458-.312.681-.476.035-.025.072-.049.107-.075s.072-.058.109-.086c.17-.129.339-.263.5-.4.062-.05.124-.1.184-.15.222-.187.44-.379.652-.577l.013-.012c.029-.026.055-.056.084-.082.173-.163.342-.33.508-.5l.2-.207c.13-.138.259-.278.383-.42.035-.039.072-.076.106-.115s.065-.08.1-.12c.13-.152.256-.305.381-.462.056-.07.114-.139.169-.211.175-.226.347-.456.511-.69l0,0,.01-.017c.172-.246.336-.5.5-.749.048-.076.094-.152.14-.229.123-.2.241-.4.357-.608.026-.047.056-.093.082-.14l.031-.061q.257-.472.484-.958c.031-.065.061-.131.091-.2.152-.333.3-.67.428-1.011l0-.009c0-.011.007-.024.012-.034.124-.325.236-.654.341-.986C281.167,235.144,281.19,235.073,281.211,235Z" transform="translate(-227.911 -196.341)" fill="#37326e"/>
          <g id="Grupo_878660" data-name="Grupo 878660" transform="translate(13.891 8.594)">
            <path id="Trazado_617647" data-name="Trazado 617647" d="M284.09,207.093a25.389,25.389,0,0,1,1.137,3.669,27.959,27.959,0,0,1,.563,3.523c-5.294,5.248-5.92,9.34-2.114,14.4a34.139,34.139,0,0,1-3.6,6.8,14.107,14.107,0,0,0-4.928.884c-3.291,1.33-5.077,4.226-5.931,9.207a29.52,29.52,0,0,1-3.48,1.686,27.846,27.846,0,0,1-3.607,1.178c-2.876-3.449-5.593-4.519-8.845-3.206A16.266,16.266,0,0,0,248.9,248.1a21.576,21.576,0,0,1-5.919-3.021c.9-6.9-1.33-9.816-7.749-10.316a25.1,25.1,0,0,1-1.035-3.387,27.369,27.369,0,0,1-.6-3.947c5.187-4.9,5.834-8.948,2.25-14.2a34.542,34.542,0,0,1,3.661-6.8,12.682,12.682,0,0,0,4.943-.771c3.129-1.264,4.875-4.143,5.78-9.1a30.317,30.317,0,0,1,3.466-1.675,28.052,28.052,0,0,1,3.563-1.164c2.765,3.49,5.4,4.6,8.566,3.325a16,16,0,0,0,4.517-3.062,21.659,21.659,0,0,1,5.855,2.909C275.3,204.021,277.547,206.912,284.09,207.093Zm-21.153,27.991c7.537-3.045,12.209-11.793,10.432-19.53s-9.335-11.545-16.872-8.5-12.209,11.793-10.432,19.53,9.33,11.547,16.871,8.5" transform="translate(-233.6 -193.716)" fill="#453d8b"/>
          </g>
          <g id="Grupo_878661" data-name="Grupo 878661">
            <path id="Trazado_617648" data-name="Trazado 617648" d="M319.345,177.5q.561.239,1.109.508c.139.07.28.137.418.209.471.246.936.5,1.388.781l.013.007v0l-4.006-2.477-9.885-6.115c-.456-.282-.925-.541-1.4-.789-.137-.071-.277-.138-.415-.207q-.55-.272-1.114-.511c-.089-.038-.172-.083-.262-.12-.047-.019-.1-.034-.145-.053-.478-.191-.962-.372-1.456-.53l13.893,8.594c.493.157.976.337,1.454.529C319.071,177.383,319.207,177.443,319.345,177.5Z" transform="translate(-266.841 -167.941)" fill="#4a4390"/>
            <path id="Trazado_617649" data-name="Trazado 617649" d="M204.95,279.244l-13.891-8.594a27.325,27.325,0,0,0,.6,3.947,25.061,25.061,0,0,0,1.034,3.387l13.892,8.594a25.1,25.1,0,0,1-1.035-3.387A27.376,27.376,0,0,1,204.95,279.244Z" transform="translate(-191.059 -236.934)" fill="#4a4390"/>
            <path id="Trazado_617650" data-name="Trazado 617650" d="M261.606,176.364c.106-.032.212-.066.319-.1.331-.1.663-.189.993-.274L249.026,167.4c-.329.084-.661.177-.993.274-.1.031-.21.065-.314.1-.23.07-.46.143-.691.22-.055.019-.109.034-.165.053s-.1.038-.148.055c-.417.145-.834.3-1.251.466A30.152,30.152,0,0,0,242,170.238l13.891,8.593a30.32,30.32,0,0,1,3.466-1.675c.415-.168.832-.319,1.248-.465l.319-.109C261.151,176.506,261.379,176.434,261.606,176.364Z" transform="translate(-225.364 -167.398)" fill="#4a4390"/>
            <path id="Trazado_617651" data-name="Trazado 617651" d="M213.551,218.093c.2-.363.407-.719.617-1.075.105-.178.2-.359.312-.535q.49-.8,1.021-1.567l-13.892-8.594q-.532.769-1.02,1.566c-.11.179-.209.362-.316.542-.185.315-.376.627-.552.947-.022.04-.04.081-.062.12-.214.394-.412.8-.611,1.2-.1.2-.2.393-.3.593q-.428.908-.8,1.837l13.891,8.593q.373-.93.8-1.838c.094-.2.2-.394.3-.592C213.138,218.888,213.337,218.486,213.551,218.093Z" transform="translate(-195.699 -193.612)" fill="#4a4390"/>
          </g>
        </g>
        <g id="Grupo_878670" data-name="Grupo 878670" transform="translate(68.028 16.664)">
          <g id="Grupo_878669" data-name="Grupo 878669" transform="translate(0)" style="isolation: isolate">
            <g id="Grupo_878663" data-name="Grupo 878663" transform="translate(0 0.146)">
              <path id="Trazado_617652" data-name="Trazado 617652" d="M293.519,155.9l-7.687-4.755c1.367.845,1.8,2.408,1.47,4.942l7.686,4.755C295.318,158.311,294.885,156.748,293.519,155.9Z" transform="translate(-282.109 -127.815)" fill="#422651"/>
              <path id="Trazado_617653" data-name="Trazado 617653" d="M331.608,85.526c.132-.088.266-.182.4-.283l.016-.011c.017-.013.035-.028.052-.041.117-.088.233-.181.353-.278l.114-.095c.141-.118.282-.24.428-.37l-7.687-4.755c-.144.131-.286.252-.426.369l-.117.1q-.177.145-.351.277l-.068.052c-.137.1-.27.2-.4.284l-.1.062q-.166.107-.33.2l-.084.049c-.074.042-.149.079-.222.117l-.094.049c-.1.05-.208.1-.309.138s-.211.077-.316.111c-.071.023-.142.042-.213.06s-.128.032-.191.045-.139.024-.209.033-.124.017-.185.022-.137.007-.205.007-.121,0-.182,0-.136-.012-.2-.02-.122-.014-.182-.025-.1-.023-.151-.034c-.068-.016-.135-.034-.2-.055-.05-.016-.1-.033-.149-.052-.074-.027-.148-.057-.221-.091-.033-.015-.066-.029-.1-.045-.108-.053-.217-.112-.324-.178l7.686,4.754c.108.067.216.125.325.178l.1.045c.041.019.082.04.124.057s.066.022.1.034c.049.018.1.036.147.051.068.022.138.04.207.057.048.011.1.023.145.032.021,0,.041.011.062.014.041.007.083.008.124.012.066.008.133.016.2.019s.122,0,.184,0,.135,0,.2-.007.124-.013.187-.022.138-.02.208-.034.128-.028.191-.045.141-.037.212-.06c.028-.009.055-.014.083-.024q.116-.039.234-.087c.1-.041.2-.087.309-.137l.106-.055c.068-.034.137-.07.207-.109l.032-.017c.021-.011.041-.026.061-.038.106-.06.212-.126.32-.2Z" transform="translate(-304.954 -79.693)" fill="#422651"/>
              <path id="Trazado_617654" data-name="Trazado 617654" d="M276.293,113.346l.039.081c.07.14.134.28.191.418.008.019.017.037.024.056.06.147.11.293.156.438.01.032.02.063.029.094.042.145.079.288.107.431,0,.017,0,.034.008.051.025.133.042.265.054.4,0,.026.006.051.008.077a3.842,3.842,0,0,1,.008.415c0,.029,0,.058,0,.088a3.948,3.948,0,0,1-.042.42v0a4.1,4.1,0,0,1-.092.422c-.008.029-.015.058-.023.088-.04.135-.086.271-.138.406-.012.031-.027.062-.039.093-.048.113-.1.227-.158.341-.018.036-.036.073-.056.11-.073.137-.152.275-.239.413l-.049.074c-.075.115-.156.231-.241.347-.036.048-.071.1-.109.145-.086.113-.178.226-.274.34-.029.034-.055.068-.085.1-.091.106-.192.214-.292.32-.051.055-.1.109-.151.164q-.233.242-.495.49l7.686,4.755c.175-.165.339-.329.5-.49.054-.055.1-.11.152-.165.089-.1.182-.194.265-.29l.025-.029c.029-.034.055-.067.084-.1.1-.115.189-.23.277-.343l.105-.141c.03-.043.066-.087.1-.129.054-.075.1-.151.151-.227.014-.022.03-.043.043-.065.074-.117.144-.232.207-.348.013-.024.023-.047.035-.07s.036-.071.054-.106c.058-.115.111-.231.16-.346l.038-.089c.006-.014.013-.029.019-.043.046-.122.085-.244.121-.365.008-.028.016-.056.023-.084a4.241,4.241,0,0,0,.093-.425h0a3.889,3.889,0,0,0,.041-.425c0-.028,0-.056,0-.085a4.145,4.145,0,0,0-.008-.417c0-.025-.005-.05-.008-.075-.012-.132-.029-.265-.054-.4,0-.017,0-.034-.008-.05-.029-.143-.065-.286-.108-.431-.009-.031-.019-.063-.029-.094-.045-.145-.1-.291-.156-.438l-.025-.057q-.085-.205-.19-.415l-.04-.083q-.115-.224-.251-.454l-.059-.1c-.1-.159-.2-.318-.308-.48l-7.686-4.754c.111.162.212.322.308.48l.058.1C276.132,113.044,276.216,113.2,276.293,113.346Z" transform="translate(-274.43 -101.662)" fill="#422651"/>
              <path id="Trazado_617655" data-name="Trazado 617655" d="M297.689,90.373c.031-.1.061-.2.09-.309.017-.061.034-.121.05-.184.03-.114.058-.231.086-.35.013-.056.027-.111.039-.168.039-.178.076-.36.11-.548l-7.686-4.754c-.035.188-.072.37-.111.547-.013.058-.026.113-.039.169-.027.118-.056.235-.085.347-.017.064-.035.127-.052.189-.028.1-.057.2-.088.3q-.029.093-.059.183c-.032.1-.065.191-.1.285-.019.054-.039.108-.06.161-.041.106-.085.207-.129.307-.015.035-.03.072-.046.106-.061.132-.124.26-.191.382-.008.014-.017.027-.024.042-.085.152-.175.3-.269.433-.019.027-.038.056-.057.083-.084.119-.172.232-.265.339-.017.02-.036.039-.055.059-.072.08-.147.159-.224.233-.03.029-.061.057-.092.085q-.115.1-.235.2l-.082.064a4.128,4.128,0,0,1-.388.252l-.084.046a4.455,4.455,0,0,1-.465.223c-.143.058-.3.1-.451.151-.079.024-.158.047-.24.067-.123.03-.253.056-.383.08-.082.015-.16.031-.244.044-.148.021-.3.035-.459.048-.075.006-.145.016-.221.02-.236.014-.48.021-.735.017l7.686,4.755c.255,0,.5,0,.735-.017.077,0,.149-.014.225-.021.155-.013.309-.027.455-.048.085-.012.165-.029.247-.045.13-.023.258-.048.381-.079.082-.021.161-.044.241-.068s.137-.035.2-.057c.084-.029.168-.06.249-.093a4.387,4.387,0,0,0,.463-.222c.017-.009.036-.016.053-.025s.022-.015.034-.022a4.068,4.068,0,0,0,.385-.252l.026-.016c.021-.015.039-.034.059-.05q.12-.093.233-.195c.017-.016.036-.029.053-.045s.026-.027.04-.041c.077-.074.152-.152.225-.233.014-.016.03-.03.044-.046s.006-.009.01-.013c.092-.107.18-.221.265-.339.007-.01.016-.019.023-.029s.022-.037.034-.054c.093-.136.183-.279.267-.43.006-.011.013-.021.019-.032l.007-.015c.067-.122.131-.249.192-.382.014-.031.027-.064.041-.1.046-.1.091-.209.134-.319.006-.015.013-.028.018-.043.013-.034.025-.072.038-.107.036-.1.07-.194.1-.3C297.652,90.491,297.67,90.431,297.689,90.373Z" transform="translate(-281.175 -82.634)" fill="#422651"/>
            </g>
            <path id="Trazado_617656" data-name="Trazado 617656" d="M325.321,172.03l-7.686-4.755a7.154,7.154,0,0,1,1.675,1.532L327,173.562A7.141,7.141,0,0,0,325.321,172.03Z" transform="translate(-303.527 -138.53)" fill="#422651"/>
            <path id="Trazado_617657" data-name="Trazado 617657" d="M359.743,105c.17.044.346.083.534.114l.011,0,.049.006c.155.025.317.045.484.061l.151.014c.19.016.385.028.591.034l-7.687-4.755c-.206-.006-.4-.018-.592-.034l-.148-.014c-.166-.016-.327-.036-.481-.06l-.066-.009c-.187-.032-.363-.071-.533-.115l-.11-.029a4.768,4.768,0,0,1-.471-.157c-.066-.027-.129-.056-.192-.085-.032-.014-.065-.028-.1-.043-.09-.045-.178-.093-.261-.144l-.009,0h0l7.686,4.755.01,0q.125.077.261.145c.032.016.067.03.1.045.056.027.112.053.17.078l.017.006a4.645,4.645,0,0,0,.472.158Z" transform="translate(-325.94 -93.078)" fill="#512f65"/>
            <path id="Trazado_617658" data-name="Trazado 617658" d="M324.312,116.651q.084-.277.152-.557l.024-.11c.04-.177.076-.355.106-.535,0-.022.008-.044.011-.066.031-.193.054-.385.072-.578,0-.042.008-.085.011-.127.016-.193.027-.387.03-.58,0-.025,0-.05,0-.075,0-.18,0-.36-.013-.54,0-.035,0-.07-.006-.1-.013-.192-.034-.382-.06-.573,0-.04-.012-.081-.018-.121-.03-.2-.065-.392-.11-.586a6.746,6.746,0,0,0-2.99-4.319l-7.686-4.755a6.747,6.747,0,0,1,2.99,4.319c.044.194.079.39.109.586.007.04.012.081.018.121q.04.286.06.573c0,.034,0,.07,0,.1.011.18.015.36.014.54,0,.025,0,.05,0,.075,0,.194-.014.388-.029.58,0,.042-.007.085-.011.127-.018.193-.041.387-.072.579,0,.022-.008.044-.012.066-.03.179-.066.357-.106.534-.008.037-.016.074-.025.11q-.067.281-.151.557l-.037.12c-.058.182-.119.363-.188.542,0,.009-.007.018-.01.027-.072.188-.152.373-.235.557l-.052.113c-.084.178-.173.355-.266.527-.021.039-.043.077-.064.115-.063.112-.128.222-.195.332-.026.043-.052.087-.079.129-.087.138-.176.273-.269.406l-.02.028c-.088.125-.18.248-.274.369-.032.041-.066.082-.1.123-.068.085-.137.169-.207.252l-.113.129c-.069.078-.14.155-.212.231l-.11.117c-.092.094-.186.187-.281.278l-.052.051c-.117.109-.237.215-.359.318-.035.03-.073.06-.109.089-.089.073-.179.144-.27.214l-.126.094c-.12.088-.242.173-.366.256l-.072.049c-.146.094-.295.184-.446.271l-.126.069q-.166.092-.335.175l-.135.066c-.153.072-.308.142-.465.205s-.294.114-.441.164c-.054.018-.106.032-.16.05-.094.03-.188.06-.282.087l-.186.047c-.086.022-.171.044-.256.063-.064.014-.129.024-.193.037-.082.016-.163.032-.245.044-.066.01-.131.018-.2.026s-.159.021-.238.028l-.2.016c-.078,0-.156.01-.233.013l-.2,0c-.077,0-.154,0-.231,0s-.128,0-.192-.008-.153-.008-.229-.016l-.189-.019c-.075-.008-.151-.019-.226-.03s-.13-.02-.193-.031-.114-.021-.17-.033-.138-.03-.206-.046l-.168-.042c-.068-.018-.135-.038-.2-.058l-.163-.051c-.067-.022-.133-.047-.2-.071l-.157-.059c-.044-.017-.087-.037-.132-.056-.11-.047-.219-.1-.327-.15L305.12,118c-.14-.072-.278-.149-.412-.231h0l7.686,4.755c.135.083.274.16.414.232.04.022.08.041.121.061.108.053.216.1.327.15.026.011.052.025.078.036l.056.021c.051.02.1.039.154.057q.1.037.2.072l.159.049c.069.021.138.041.207.059l.163.041q.105.025.211.047l.166.032c.031.006.061.013.091.018s.071.008.106.014c.074.011.149.021.224.029l.189.019c.077.007.153.012.23.015s.127.007.191.008.156,0,.234,0,.128,0,.191,0q.12,0,.241-.013c.063,0,.126-.008.19-.014.083-.008.166-.019.249-.03.063-.008.124-.016.187-.025.086-.013.173-.03.259-.046.06-.012.119-.022.18-.035.092-.02.185-.044.278-.068.054-.014.108-.026.163-.041.108-.03.217-.065.325-.1.036-.012.072-.021.108-.033l.009,0q.222-.075.445-.165c.157-.063.313-.133.466-.206l.131-.064c.114-.057.227-.115.338-.176.027-.015.055-.027.082-.043h0c.014-.008.027-.017.041-.025.153-.087.3-.178.45-.273l.062-.042q.192-.126.377-.263c.019-.015.04-.027.059-.042s.04-.032.06-.047c.094-.072.187-.146.279-.221l.1-.083c.122-.1.243-.21.361-.32l.007-.007c.016-.014.03-.03.046-.045.1-.091.189-.183.281-.278.037-.038.072-.076.108-.114q.108-.115.212-.232c.019-.022.039-.042.059-.064l.054-.066c.072-.084.142-.169.212-.256l.093-.117c.1-.125.192-.252.283-.382v0l.006-.009q.143-.2.274-.414c.027-.042.053-.084.078-.127.068-.111.134-.223.2-.337.015-.026.031-.052.046-.078.006-.011.011-.023.017-.034q.143-.262.268-.53c.017-.036.033-.072.05-.109.084-.184.165-.371.237-.56a.015.015,0,0,0,0,0l.007-.02q.1-.27.188-.545C324.287,116.731,324.3,116.691,324.312,116.651Z" transform="translate(-294.82 -95.26)" fill="#502e63"/>
            <g id="Grupo_878666" data-name="Grupo 878666" transform="translate(5.193 28.421)" style="isolation: isolate">
              <g id="Grupo_878665" data-name="Grupo 878665" clip-path="url(#clip-path)">
                <g id="Grupo_878664" data-name="Grupo 878664" style="isolation: isolate">
                  <path id="Trazado_617659" data-name="Trazado 617659" d="M298.738,171.52l-7.686-4.755q-.368-.228-.719-.482l7.686,4.755q.351.254.719.482" transform="translate(-290.334 -166.283)" fill="#422651"/>
                </g>
              </g>
            </g>
            <g id="Grupo_878667" data-name="Grupo 878667" transform="translate(7.686 4.755)">
              <path id="Trazado_617661" data-name="Trazado 617661" d="M325.9,101.211a14.078,14.078,0,0,1,.629,2.03,15.582,15.582,0,0,1,.311,1.949c-2.929,2.9-3.276,5.168-1.17,7.967a18.866,18.866,0,0,1-1.993,3.761,7.8,7.8,0,0,0-2.727.489c-1.821.736-2.809,2.338-3.282,5.094a16.3,16.3,0,0,1-1.926.932,15.37,15.37,0,0,1-2,.652c-1.591-1.908-3.1-2.5-4.894-1.773a8.973,8.973,0,0,0-2.422,1.589,11.946,11.946,0,0,1-3.275-1.671c.5-3.818-.736-5.432-4.288-5.708a14.086,14.086,0,0,1-.573-1.874,15.318,15.318,0,0,1-.333-2.183c2.871-2.714,3.229-4.952,1.245-7.859a19.178,19.178,0,0,1,2.026-3.764,7.021,7.021,0,0,0,2.735-.427c1.731-.7,2.7-2.293,3.2-5.035a16.9,16.9,0,0,1,1.918-.927,15.5,15.5,0,0,1,1.972-.644c1.53,1.932,2.99,2.547,4.74,1.839a8.852,8.852,0,0,0,2.5-1.694,12.011,12.011,0,0,1,3.239,1.61C321.038,99.51,322.284,101.11,325.9,101.211ZM314.2,116.7a9.754,9.754,0,0,0,5.772-10.806,6.654,6.654,0,0,0-9.335-4.7A9.75,9.75,0,0,0,304.865,112a6.652,6.652,0,0,0,9.335,4.7" transform="translate(-297.967 -93.809)" fill="#62397b"/>
            </g>
            <g id="Grupo_878668" data-name="Grupo 878668">
              <path id="Trazado_617662" data-name="Trazado 617662" d="M345.41,84.838c.208.089.412.182.614.281.077.038.155.075.231.115.26.136.518.278.768.432l.007,0h0l-2.216-1.37-5.47-3.385c-.252-.156-.512-.3-.776-.436-.076-.039-.152-.077-.23-.115-.2-.1-.408-.194-.616-.282-.049-.022-.1-.047-.145-.067-.027-.011-.054-.019-.081-.029-.264-.106-.532-.206-.806-.294l7.687,4.755c.272.087.54.187.8.293C345.259,84.771,345.334,84.805,345.41,84.838Z" transform="translate(-316.36 -79.547)" fill="#523066"/>
              <path id="Trazado_617663" data-name="Trazado 617663" d="M282.116,141.132l-7.686-4.755a15.047,15.047,0,0,0,.333,2.184,13.817,13.817,0,0,0,.572,1.874l7.686,4.755a14.086,14.086,0,0,1-.573-1.874A15.313,15.313,0,0,1,282.116,141.132Z" transform="translate(-274.43 -117.722)" fill="#523066"/>
              <path id="Trazado_617664" data-name="Trazado 617664" d="M313.464,84.208c.059-.018.117-.037.177-.054.183-.054.367-.105.549-.152L306.5,79.247c-.182.047-.366.1-.55.152l-.173.053c-.128.039-.255.079-.383.122l-.091.029-.083.031c-.23.081-.461.165-.691.258a16.63,16.63,0,0,0-1.918.927l7.686,4.754a16.9,16.9,0,0,1,1.918-.927c.23-.093.461-.177.691-.257l.176-.06C313.212,84.287,313.338,84.247,313.464,84.208Z" transform="translate(-293.411 -79.247)" fill="#523066"/>
              <path id="Trazado_617665" data-name="Trazado 617665" d="M286.874,107.3c.109-.2.225-.4.342-.595.058-.1.113-.2.173-.3q.271-.441.565-.867l-7.686-4.755q-.294.425-.565.867c-.061.1-.116.2-.175.3-.1.174-.208.347-.306.524-.012.022-.022.045-.034.067-.119.218-.229.441-.338.662-.054.11-.113.217-.164.329q-.238.5-.444,1.017l7.686,4.754c.138-.343.287-.681.444-1.017.052-.11.111-.218.165-.328C286.646,107.737,286.756,107.514,286.874,107.3Z" transform="translate(-276.997 -93.751)" fill="#523066"/>
            </g>
          </g>
        </g>
        <g id="Grupo_878698" data-name="Grupo 878698" transform="translate(0)">
          <g id="Grupo_878697" data-name="Grupo 878697" style="isolation: isolate">
            <path id="Trazado_617666" data-name="Trazado 617666" d="M176.064,224.444,164.352,217.2a11.721,11.721,0,0,1,2.887,2.787l11.713,7.246A11.7,11.7,0,0,0,176.064,224.444Z" transform="translate(-132.269 -155.487)" fill="#2b6977"/>
            <path id="Trazado_617667" data-name="Trazado 617667" d="M246.92,88.919c.061.019.123.038.186.056.118.034.24.064.364.094.059.014.116.029.176.042.179.039.364.075.556.108l.021,0h0l.014,0c.285.046.589.083.9.114l.244.023c.325.027.66.051,1.015.063l-11.712-7.245c-.355-.012-.69-.035-1.016-.063l-.243-.022c-.311-.031-.612-.066-.894-.113-.209-.034-.409-.072-.6-.115-.061-.013-.118-.028-.177-.042-.124-.029-.246-.061-.364-.094l-.186-.056q-.167-.052-.326-.109l-.162-.059c-.111-.044-.216-.09-.32-.138-.043-.02-.089-.038-.13-.059-.144-.071-.282-.146-.411-.226l11.712,7.245.015.009c.125.076.258.148.4.217.042.021.089.04.133.06.08.037.159.075.243.11.024.01.05.018.075.027.053.021.108.04.163.06C246.7,88.848,246.808,88.885,246.92,88.919Z" transform="translate(-179.079 -63.818)" fill="#2b6977"/>
            <g id="Grupo_878673" data-name="Grupo 878673" transform="translate(16.752 58.968)" style="isolation: isolate">
              <g id="Grupo_878672" data-name="Grupo 878672" clip-path="url(#clip-path-2)">
                <g id="Grupo_878671" data-name="Grupo 878671" style="isolation: isolate">
                  <path id="Trazado_617668" data-name="Trazado 617668" d="M131.508,222.1,119.8,214.858c-.291-3.228-1.038-5.224-2.394-6.062l11.713,7.245c1.355.839,2.1,2.834,2.393,6.063" transform="translate(-117.402 -208.796)" fill="#2b6977"/>
                </g>
              </g>
            </g>
            <path id="Trazado_617670" data-name="Trazado 617670" d="M166.364,106.584c.113-.365.213-.734.305-1.1.023-.089.046-.179.067-.269.091-.387.173-.776.242-1.167.012-.068.022-.136.033-.2q.086-.525.145-1.054c.01-.08.02-.161.028-.242q.058-.59.08-1.184c0-.086,0-.172.007-.258q.013-.542,0-1.084c0-.056,0-.111,0-.167-.016-.4-.05-.8-.092-1.193q-.015-.139-.032-.278c-.051-.4-.109-.808-.186-1.21a14.769,14.769,0,0,0-6.626-9.978l-11.712-7.246a14.77,14.77,0,0,1,6.625,9.978c.078.4.136.806.185,1.21.012.092.023.184.033.276.043.4.075.8.092,1.194,0,.055,0,.109,0,.164.012.363.013.726,0,1.089,0,.085,0,.169-.006.253q-.023.6-.081,1.188c-.008.079-.018.157-.027.235q-.059.533-.147,1.063c-.011.066-.02.131-.031.2q-.1.589-.243,1.172c-.02.088-.043.176-.065.264-.093.373-.195.743-.308,1.111-.007.026-.014.053-.022.078-.122.388-.257.77-.4,1.151-.032.084-.063.168-.1.251-.157.4-.324.8-.506,1.194-.026.057-.055.113-.082.169q-.268.571-.568,1.126c-.023.041-.043.083-.066.123-.176.32-.361.634-.553.945-.048.079-.1.157-.149.235q-.231.364-.476.72c-.057.083-.114.167-.172.25q-.265.371-.543.732c-.026.033-.049.066-.075.1-.212.27-.43.534-.655.794-.068.079-.138.155-.206.232q-.236.266-.479.524c-.082.086-.164.171-.248.256q-.246.251-.5.492c-.077.074-.154.15-.233.222-.253.235-.51.464-.774.686l-.085.068c-.239.2-.484.391-.73.579-.079.059-.159.117-.239.176q-.378.277-.769.537c-.067.045-.132.09-.2.135q-.472.306-.962.584c-.08.046-.162.089-.243.133-.246.136-.5.265-.746.39-.094.046-.189.093-.283.138-.33.156-.663.307-1,.444-.2.078-.39.154-.588.226s-.418.142-.626.21q-.277.09-.553.169c-.135.039-.268.077-.4.112-.186.049-.371.093-.556.135-.131.029-.263.06-.393.087-.191.039-.382.072-.573.1-.122.021-.245.043-.368.061-.209.03-.418.052-.626.074-.1.01-.2.025-.3.033-.309.026-.616.044-.921.052h-.012c-.3.007-.6,0-.9-.006-.1,0-.194-.012-.292-.017-.2-.011-.4-.023-.6-.042-.115-.011-.228-.027-.342-.04-.181-.022-.362-.044-.541-.072-.137-.022-.275-.046-.411-.072s-.25-.046-.374-.073c-.141-.03-.279-.064-.419-.1-.122-.03-.244-.059-.365-.092-.139-.038-.276-.081-.414-.123-.119-.037-.237-.072-.354-.111-.136-.046-.27-.1-.4-.147-.116-.043-.232-.084-.346-.13-.064-.026-.124-.055-.187-.081q-.393-.166-.774-.354c-.083-.041-.167-.082-.248-.124-.3-.155-.592-.317-.877-.493l-.021-.012,11.712,7.245.01.007.02.011c.282.174.573.334.868.487.083.043.167.085.251.126q.375.185.761.347c.047.02.092.045.14.064.021.009.044.016.065.024.105.043.213.08.319.12.142.054.284.107.428.156.113.038.227.071.341.106.142.044.284.088.427.127.117.032.236.061.354.089.143.036.286.071.429.1.122.026.246.049.371.072.1.018.191.04.288.056.041.007.083.01.125.017.18.028.361.051.544.072.113.013.225.029.339.04.2.019.405.031.609.042.1.005.192.014.288.017.3.011.6.013.907.006h0c.3-.008.613-.025.922-.052.1-.008.2-.023.3-.033.21-.022.42-.044.631-.075.121-.017.242-.04.364-.06.192-.032.384-.065.576-.1.13-.026.26-.057.39-.086.186-.043.372-.087.558-.136.135-.035.268-.073.4-.112.184-.053.368-.109.553-.169.074-.024.149-.043.223-.068.135-.046.269-.093.4-.143q.3-.108.587-.226c.341-.137.674-.288,1-.444.094-.044.186-.09.279-.136q.383-.19.757-.4c.054-.029.11-.056.163-.086l.07-.042q.492-.28.968-.587c.064-.042.128-.087.193-.13q.4-.262.777-.543c.045-.033.093-.063.139-.1s.062-.05.094-.074q.377-.285.741-.587l.075-.06q.4-.336.78-.691c.022-.02.045-.04.068-.06.051-.049.1-.1.151-.149q.262-.249.515-.507c.079-.082.158-.163.237-.246.166-.174.329-.352.487-.532.049-.054.1-.106.148-.161.02-.022.038-.046.056-.069q.335-.388.653-.792c.03-.038.057-.077.087-.115q.272-.352.529-.714c.024-.034.05-.067.075-.1.036-.052.069-.106.105-.159q.241-.35.469-.709c.051-.081.1-.161.154-.242.191-.31.375-.623.551-.942l.021-.037c.017-.03.03-.06.046-.089q.3-.554.567-1.123c.027-.057.055-.113.082-.17.181-.393.347-.79.5-1.192.016-.041.035-.08.051-.12s.031-.091.047-.136c.142-.379.278-.761.4-1.146C166.348,106.64,166.355,106.612,166.364,106.584Z" transform="translate(-108.319 -63.055)" fill="#2b6977"/>
            <path id="Trazado_617671" data-name="Trazado 617671" d="M218.29,52.927c.122-.06.248-.127.374-.191.078-.04.152-.077.231-.119.118-.062.24-.131.361-.2.087-.048.173-.093.263-.144l.016-.009-11.711-7.246q-.294.166-.577.316l-.056.031c-.179.1-.353.183-.526.269l-.081.042c-.171.085-.339.162-.5.238l-.076.036c-.189.086-.375.165-.555.238-.231.093-.454.175-.672.248-.253.086-.5.159-.735.217-.043.01-.081.015-.123.025-.192.045-.38.082-.561.108-.076.011-.148.015-.221.023-.141.014-.281.026-.414.029-.078,0-.154,0-.23,0-.123,0-.244-.013-.361-.028-.091-.011-.183-.023-.27-.041-.041-.009-.082-.017-.123-.027a3.148,3.148,0,0,1-.415-.131,2.944,2.944,0,0,1-.34-.173c-.031-.017-.064-.029-.094-.047h0L212.6,53.635c.041.025.087.042.129.066a2.885,2.885,0,0,0,.3.153l0,0a3.1,3.1,0,0,0,.413.13c.041.01.083.018.124.027s.1.024.147.032.082,0,.121.009c.119.015.24.024.364.028.075,0,.15.006.227,0,.135,0,.276-.014.419-.029.073-.008.142-.012.217-.022.184-.027.375-.064.57-.11.039-.009.074-.013.113-.024q.356-.088.738-.218l.036-.01q.308-.106.634-.237c.181-.073.364-.152.553-.237.139-.063.282-.132.427-.2Z" transform="translate(-156.874 -39.533)" fill="#2b6977"/>
            <g id="Grupo_878676" data-name="Grupo 878676" transform="translate(6.54 57.191)">
              <path id="Trazado_617672" data-name="Trazado 617672" d="M101.119,213.742,89.406,206.5a25.324,25.324,0,0,1-3.275-3.143L97.843,210.6A25.415,25.415,0,0,0,101.119,213.742Z" transform="translate(-86.131 -203.354)" fill="#348092"/>
              <g id="Grupo_878675" data-name="Grupo 878675" clip-path="url(#clip-path-3)">
                <g id="Grupo_878674" data-name="Grupo 878674" style="isolation: isolate">
                  <path id="Trazado_617673" data-name="Trazado 617673" d="M101.119,213.742,89.406,206.5a25.324,25.324,0,0,1-3.275-3.143L97.843,210.6a25.415,25.415,0,0,0,3.276,3.143" transform="translate(-86.131 -203.354)" fill="#348092"/>
                </g>
              </g>
            </g>
            <g id="Grupo_878679" data-name="Grupo 878679" transform="translate(37.091)">
              <path id="Trazado_617675" data-name="Trazado 617675" d="M191.4,35.459l-11.712-7.245A26.293,26.293,0,0,1,184.22,29l11.712,7.245A26.349,26.349,0,0,0,191.4,35.459Z" transform="translate(-179.688 -28.214)" fill="#348092"/>
              <g id="Grupo_878678" data-name="Grupo 878678" clip-path="url(#clip-path-4)">
                <g id="Grupo_878677" data-name="Grupo 878677" style="isolation: isolate">
                  <path id="Trazado_617676" data-name="Trazado 617676" d="M191.4,35.459l-11.712-7.245q1.07.092,2.118.268l11.713,7.246q-1.048-.176-2.119-.268" transform="translate(-179.688 -28.214)" fill="#348092"/>
                  <path id="Trazado_617677" data-name="Trazado 617677" d="M197.887,36.28l-11.713-7.246q1.226.206,2.414.523L200.3,36.8q-1.187-.316-2.413-.522" transform="translate(-184.056 -28.766)" fill="#348092"/>
                </g>
              </g>
            </g>
            <g id="Grupo_878682" data-name="Grupo 878682" transform="translate(5.984 48.558)" style="isolation: isolate">
              <g id="Grupo_878681" data-name="Grupo 878681" clip-path="url(#clip-path-5)">
                <g id="Grupo_878680" data-name="Grupo 878680" style="isolation: isolate">
                  <path id="Trazado_617679" data-name="Trazado 617679" d="M97.843,210.316,86.131,203.07l.053-.137L97.9,210.178l-.054.138" transform="translate(-85.575 -194.438)" fill="#2c6d7b"/>
                  <path id="Trazado_617680" data-name="Trazado 617680" d="M96.75,192.659l-11.713-7.245c1.714-4.451,1.587-7.136-.609-8.495l11.713,7.245c2.2,1.359,2.323,4.044.609,8.495" transform="translate(-84.428 -176.919)" fill="#2b6977"/>
                </g>
              </g>
            </g>
            <g id="Grupo_878685" data-name="Grupo 878685" transform="translate(0 42.444)">
              <path id="Trazado_617682" data-name="Trazado 617682" d="M78.967,170.458l-11.712-7.245c-.256-.8-.489-1.619-.684-2.465s-.344-1.7-.469-2.552l11.713,7.246c.124.856.274,1.706.469,2.552S78.711,169.656,78.967,170.458Z" transform="translate(-66.102 -158.195)" fill="#348092"/>
              <g id="Grupo_878684" data-name="Grupo 878684" clip-path="url(#clip-path-6)">
                <g id="Grupo_878683" data-name="Grupo 878683" style="isolation: isolate">
                  <path id="Trazado_617683" data-name="Trazado 617683" d="M78.967,170.458l-11.712-7.245c-.256-.8-.489-1.619-.684-2.465s-.344-1.7-.469-2.552l11.713,7.246c.124.856.274,1.706.469,2.552s.427,1.663.684,2.465" transform="translate(-66.102 -158.195)" fill="#348092"/>
                </g>
              </g>
            </g>
            <g id="Grupo_878688" data-name="Grupo 878688" transform="translate(0.382 25.353)">
              <path id="Trazado_617685" data-name="Trazado 617685" d="M78.983,118.133l-11.712-7.245a38.758,38.758,0,0,1,1.4-5.031L80.381,113.1A38.585,38.585,0,0,0,78.983,118.133Z" transform="translate(-67.271 -105.856)" fill="#348092"/>
              <g id="Grupo_878687" data-name="Grupo 878687" clip-path="url(#clip-path-7)">
                <g id="Grupo_878686" data-name="Grupo 878686" style="isolation: isolate">
                  <path id="Trazado_617686" data-name="Trazado 617686" d="M78.983,118.133l-11.712-7.245a38.758,38.758,0,0,1,1.4-5.031L80.381,113.1a38.585,38.585,0,0,0-1.4,5.031" transform="translate(-67.271 -105.856)" fill="#348092"/>
                </g>
              </g>
            </g>
            <g id="Grupo_878689" data-name="Grupo 878689">
              <path id="Trazado_617688" data-name="Trazado 617688" d="M173.383,36.4l.108-.143c.165-.22.329-.445.5-.683.026-.036.052-.073.077-.11l-11.712-7.245c-.193.278-.384.539-.573.792l-.11.147c-.182.24-.363.472-.541.69l-.045.053c-.152.185-.3.358-.455.526-.07.078-.139.155-.208.23-.12.128-.239.25-.357.368-.066.065-.131.132-.2.194-.168.161-.336.314-.5.454-.021.018-.042.033-.064.05-.152.126-.3.242-.455.349l-.117.082c-.163.111-.325.214-.487.3a5.2,5.2,0,0,1-.581.282c-.119.048-.238.085-.357.122-.073.022-.146.042-.219.06s-.16.037-.241.051-.145.024-.219.033-.159.016-.239.02-.147.006-.219.006-.158,0-.237-.011-.147-.012-.221-.023-.16-.026-.24-.042-.139-.029-.209-.047-.163-.048-.244-.074-.139-.046-.209-.073c-.1-.037-.191-.079-.286-.124-.047-.022-.093-.041-.14-.065-.144-.073-.288-.152-.433-.241l11.713,7.245c.145.089.288.169.432.241.048.024.1.044.143.067.07.032.138.068.207.1.025.01.05.016.075.026.071.027.141.05.212.073s.161.052.242.074.14.033.211.048c.047.009.095.024.141.032s.064,0,.1.009c.075.01.149.017.224.023s.156.01.234.011.148,0,.221-.006.158-.01.238-.02.146-.02.219-.033.159-.031.239-.051.147-.038.221-.061c.04-.012.078-.019.117-.032.08-.027.159-.056.239-.089a5.163,5.163,0,0,0,.581-.281l.022-.011c.154-.087.309-.187.465-.294.038-.025.076-.053.114-.08s.1-.067.149-.1c.1-.076.2-.16.307-.245.022-.018.044-.034.066-.053.14-.117.28-.24.421-.372.027-.025.054-.055.081-.08.065-.062.13-.129.2-.194.119-.118.237-.239.357-.368.07-.075.139-.152.21-.231.053-.058.1-.111.156-.171.1-.114.2-.235.3-.356l.041-.05C173.019,36.871,173.2,36.637,173.383,36.4Z" transform="translate(-125.262 -28.214)" fill="#2b6977"/>
              <path id="Trazado_617689" data-name="Trazado 617689" d="M81.876,133.755c0-.119-.013-.238-.027-.356,0-.021,0-.041-.006-.062-.019-.137-.045-.274-.077-.41-.009-.039-.021-.077-.031-.116-.026-.1-.055-.2-.089-.3-.016-.046-.032-.092-.049-.137q-.055-.145-.12-.291c-.017-.039-.034-.078-.053-.117-.064-.133-.133-.267-.21-.4-.01-.018-.023-.036-.034-.055-.069-.115-.143-.23-.222-.345-.03-.043-.061-.086-.093-.129-.067-.092-.136-.185-.211-.278l-.106-.132q-.131-.156-.274-.312c-.026-.028-.05-.057-.076-.085q-.185-.2-.391-.394c-.035-.034-.073-.068-.11-.1-.106-.1-.214-.2-.327-.3-.05-.044-.1-.089-.155-.134q-.165-.14-.341-.281l-.153-.122c-.169-.132-.343-.265-.525-.4l-11.712-7.245c.183.133.357.265.526.4l.151.121c.118.094.233.189.344.283l.153.132c.114.1.224.2.33.3.035.033.073.066.107.1q.206.2.391.395c.025.027.049.055.074.083q.145.157.276.315c.036.043.07.086.1.129.075.094.147.189.214.282.03.041.061.083.089.124.082.118.157.236.229.355.008.015.019.03.028.045.078.133.148.267.212.4.017.037.033.075.05.112q.067.148.122.3c.016.045.032.089.047.133.034.1.064.2.09.3.01.037.021.075.03.112.032.137.058.274.077.412,0,.02,0,.04.006.058.015.119.023.238.027.358,0,.045,0,.089,0,.135,0,.1,0,.2-.009.3,0,.047-.006.093-.01.139-.011.114-.027.228-.047.343-.005.029-.008.058-.013.087-.027.143-.062.287-.1.432-.011.04-.025.08-.037.12-.033.107-.069.215-.109.324-.02.053-.041.107-.062.161-.035.087-.072.175-.112.263-.024.055-.049.11-.076.166-.044.093-.092.187-.142.281-.027.051-.052.1-.08.152-.081.146-.167.293-.261.442l-.005.008c-.092.147-.192.3-.3.444-.027.039-.056.078-.084.117-.1.146-.215.294-.331.442l-.108.139c-.144.181-.295.363-.455.548l-.046.052q-.352.4-.756.82l-.03.03q-.418.429-.888.873l11.713,7.246q.475-.448.893-.878l.024-.023c.271-.279.523-.553.759-.823l.03-.033a.084.084,0,0,0,.013-.016c.162-.184.313-.367.456-.548.038-.047.073-.093.109-.14q.172-.221.329-.438c.019-.028.043-.056.062-.084.009-.013.017-.025.025-.039.1-.145.2-.29.288-.432l.016-.025c.092-.147.178-.293.258-.438l.021-.035c.02-.036.036-.071.054-.107.052-.1.1-.2.149-.292.025-.053.049-.105.073-.158q.062-.137.116-.274c.011-.028.025-.056.036-.084s.013-.043.022-.065q.063-.17.114-.339c.011-.036.024-.072.034-.108q.062-.219.1-.436c.005-.027.008-.053.012-.079.021-.117.036-.234.048-.35,0-.045.007-.091.01-.137q.009-.15.009-.3C81.877,133.844,81.877,133.8,81.876,133.755Z" transform="translate(-66.102 -90.879)" fill="#2b6977"/>
              <path id="Trazado_617690" data-name="Trazado 617690" d="M120.7,48.492c.08-.26.155-.53.228-.811.013-.053.025-.11.039-.164q.088-.359.169-.742c.018-.084.035-.168.052-.254.062-.313.122-.632.176-.966l-11.713-7.245c-.054.334-.114.653-.175.966-.017.086-.035.17-.052.254q-.08.381-.167.739c-.013.055-.027.112-.04.167-.071.281-.147.549-.227.808-.02.066-.041.129-.062.195q-.1.3-.2.588c-.025.066-.049.134-.074.2-.057.147-.117.286-.178.425-.024.053-.046.109-.07.161q-.129.281-.269.537l-.03.051c-.114.2-.233.394-.357.576l-.088.129c-.1.136-.2.266-.3.389-.015.017-.029.037-.043.054-.113.13-.23.251-.351.365-.035.033-.072.063-.108.094-.088.079-.177.154-.269.225-.043.033-.087.064-.131.1-.107.076-.216.147-.329.214-.045.026-.09.055-.137.079a4.459,4.459,0,0,1-.473.227c-.12.049-.248.085-.375.124-.155.049-.316.089-.481.123-.076.016-.151.034-.229.046a6.283,6.283,0,0,1-.673.072c-.027,0-.052.006-.078.007a7.9,7.9,0,0,1-.811-.014c-.084,0-.172-.016-.258-.024-.2-.019-.41-.043-.625-.076-.1-.016-.208-.034-.314-.053-.212-.039-.431-.085-.654-.137-.1-.023-.2-.043-.3-.069-.325-.082-.656-.174-1-.283l11.712,7.245c.346.109.677.2,1,.283.1.025.2.046.3.069.224.052.443.1.657.137.053.009.111.025.163.034s.1.01.148.018c.216.033.426.058.631.077.084.008.17.018.253.024a7.855,7.855,0,0,0,.813.014l.07-.007a6.2,6.2,0,0,0,.682-.073c.077-.013.151-.03.226-.046.165-.034.327-.075.483-.124.042-.013.088-.019.13-.034.082-.028.164-.058.244-.09a4.5,4.5,0,0,0,.474-.228c.017-.009.036-.016.052-.025s.053-.036.08-.052c.114-.067.225-.14.334-.217.025-.018.054-.033.08-.053s.031-.027.048-.04c.094-.072.184-.149.273-.23.028-.024.058-.045.086-.071l.019-.019q.182-.172.352-.366l.007-.008c.012-.014.022-.03.034-.044.1-.123.207-.253.3-.39.013-.018.028-.034.042-.054s.032-.054.048-.078c.122-.18.241-.368.354-.57.007-.015.017-.026.024-.04s.005-.011.008-.016c.094-.171.183-.351.269-.538.022-.048.043-.1.064-.149.063-.143.126-.289.185-.441.009-.023.019-.043.028-.066s.026-.079.04-.116c.072-.195.142-.4.209-.6C120.658,48.615,120.677,48.555,120.7,48.492Z" transform="translate(-88.738 -35.013)" fill="#2b6977"/>
              <path id="Trazado_617691" data-name="Trazado 617691" d="M89.925,85.815c.025-.119.043-.243.061-.367.014-.1.031-.207.04-.314.011-.129.013-.262.017-.4,0-.11.008-.218,0-.332,0-.138-.015-.282-.025-.426-.009-.116-.014-.229-.028-.348-.017-.15-.044-.307-.07-.463-.02-.12-.035-.236-.059-.36-.033-.167-.077-.341-.118-.513-.028-.12-.053-.236-.086-.359-.052-.2-.117-.4-.18-.6-.034-.108-.061-.211-.1-.322-.1-.317-.221-.642-.35-.977L77.322,72.793q.193.5.35.977c.036.108.062.211.1.317.063.2.128.409.181.606.032.122.056.237.085.356.041.173.086.348.12.516.024.123.039.239.058.359.025.156.053.313.07.464.014.119.019.232.027.347.011.144.024.288.026.427,0,.113,0,.222-.006.331,0,.133-.007.267-.018.395-.009.108-.025.211-.04.315-.018.124-.035.248-.06.367-.021.1-.049.2-.076.3-.032.115-.064.23-.1.34s-.074.193-.115.287-.087.2-.136.3-.117.216-.182.32c-.036.059-.07.118-.108.174a4.866,4.866,0,0,1-.316.416c-.014.017-.026.035-.041.052a5.481,5.481,0,0,1-.432.441c-.085.079-.181.152-.272.228s-.179.152-.277.225c-.031.023-.067.045-.1.069q-.221.157-.466.306l-.15.09c-.148.086-.306.169-.465.25-.074.037-.144.076-.221.113-.234.113-.479.223-.738.327-.228.092-.468.18-.714.265l-.216.072c-.171.057-.349.114-.53.168-.073.022-.145.045-.221.066-.253.073-.513.145-.783.213l11.713,7.246c.269-.068.527-.139.779-.212l.232-.07c.176-.053.347-.107.515-.163.045-.015.1-.029.139-.045s.058-.022.088-.033c.245-.085.484-.172.711-.264q.387-.157.738-.328c.075-.036.144-.075.216-.112.12-.061.245-.121.359-.185.038-.021.072-.044.108-.066.052-.029.1-.06.15-.09.163-.1.32-.2.468-.307.033-.023.067-.045.1-.068l.043-.031h0c.084-.062.155-.13.233-.194s.187-.149.272-.227c.01-.009.023-.018.033-.027a5.522,5.522,0,0,0,.395-.409L88.849,88c.014-.016.026-.034.04-.051.1-.115.191-.231.275-.351.015-.022.027-.045.042-.068.038-.056.071-.114.107-.172s.091-.139.132-.211c.019-.036.032-.075.05-.11.05-.1.093-.2.136-.3.025-.06.058-.116.082-.177.013-.035.021-.073.033-.109.039-.111.072-.226.1-.341C89.876,86.014,89.9,85.916,89.925,85.815Z" transform="translate(-69.772 -58.236)" fill="#2b6977"/>
            </g>
            <g id="Grupo_878692" data-name="Grupo 878692" transform="translate(7.55 10.551)">
              <path id="Trazado_617692" data-name="Trazado 617692" d="M100.935,71.777,89.223,64.532a39.441,39.441,0,0,1,3.425-4.006l11.712,7.245A39.61,39.61,0,0,0,100.935,71.777Z" transform="translate(-89.223 -60.526)" fill="#348092"/>
              <g id="Grupo_878691" data-name="Grupo 878691" clip-path="url(#clip-path-8)">
                <g id="Grupo_878690" data-name="Grupo 878690" style="isolation: isolate">
                  <path id="Trazado_617693" data-name="Trazado 617693" d="M100.935,75.265,89.223,68.02q.89-1.193,1.866-2.315L102.8,72.951q-.974,1.121-1.865,2.314" transform="translate(-89.223 -64.014)" fill="#348092"/>
                  <path id="Trazado_617694" data-name="Trazado 617694" d="M106.647,69.463,94.936,62.217q.754-.868,1.56-1.691l11.712,7.245q-.8.822-1.561,1.691" transform="translate(-93.07 -60.526)" fill="#348092"/>
                </g>
              </g>
            </g>
            <g id="Grupo_878693" data-name="Grupo 878693" transform="translate(11.713 7.245)">
              <path id="Trazado_617696" data-name="Trazado 617696" d="M162.734,73.779c-5.294,4.987-5.416,8.4-.381,12.06a38.714,38.714,0,0,1-1.4,5.031,19.167,19.167,0,0,0-2.457.784c-4.413,1.783-5.332,4.775-3.31,10.011a39.238,39.238,0,0,1-3.434,4.008c-2.416-.763-4.311-.881-5.79-.284-2.18.881-3.452,3.319-4.137,7.535-.792.394-1.594.765-2.418,1.1s-1.65.621-2.469.878c-2.344-2.993-4.423-4.077-6.6-3.2-1.478.6-3,2.1-4.689,4.518a26.064,26.064,0,0,1-4.532-.79c-.525-5.839-2.545-7.647-6.956-5.865a20.418,20.418,0,0,0-2.374,1.168,25.415,25.415,0,0,1-3.276-3.143c2.639-6.762,1.1-9.5-5.387-9.729-.256-.8-.49-1.619-.684-2.465s-.345-1.7-.469-2.552c5.294-4.987,5.415-8.4.381-12.06a38.585,38.585,0,0,1,1.4-5.031,19.213,19.213,0,0,0,2.465-.786c4.408-1.781,5.324-4.772,3.3-10.011a39.61,39.61,0,0,1,3.425-4.006c2.42.762,4.318.88,5.8.282,2.181-.881,3.451-3.318,4.137-7.537.789-.388,1.594-.764,2.418-1.1s1.647-.615,2.469-.878c2.342,3,4.421,4.079,6.6,3.2,1.479-.6,3-2.1,4.691-4.52a26.348,26.348,0,0,1,4.532.791c.523,5.843,2.541,7.649,6.949,5.868a20.671,20.671,0,0,0,2.376-1.17,25.308,25.308,0,0,1,3.276,3.143c-2.639,6.762-1.1,9.5,5.388,9.729.257.8.489,1.619.684,2.465S162.609,72.924,162.734,73.779Zm-13.842,3.494c-1.823-9.426-10.7-14.365-19.832-11.031q-.3.108-.587.226c-8.8,3.555-14.438,13.661-12.654,22.883,1.819,9.427,10.695,14.367,19.832,11.031q.3-.108.587-.226c8.8-3.554,14.434-13.659,12.655-22.883" transform="translate(-101.971 -50.402)" fill="#3fa1b8"/>
            </g>
            <g id="Grupo_878696" data-name="Grupo 878696" transform="translate(20.909 1.322)">
              <path id="Trazado_617697" data-name="Trazado 617697" d="M141.848,41.483l-11.713-7.245c.79-.388,1.594-.764,2.419-1.1s1.647-.614,2.469-.877l11.712,7.245c-.822.263-1.644.544-2.469.878S142.637,41.095,141.848,41.483Z" transform="translate(-130.135 -32.263)" fill="#348092"/>
              <g id="Grupo_878695" data-name="Grupo 878695" clip-path="url(#clip-path-9)">
                <g id="Grupo_878694" data-name="Grupo 878694" style="isolation: isolate">
                  <path id="Trazado_617698" data-name="Trazado 617698" d="M141.848,42.1l-11.713-7.245c.79-.388,1.594-.764,2.419-1.1.52-.21,1.039-.4,1.558-.576l11.712,7.245c-.519.177-1.038.367-1.558.577-.824.332-1.629.709-2.418,1.1" transform="translate(-130.135 -32.883)" fill="#348092"/>
                  <path id="Trazado_617699" data-name="Trazado 617699" d="M154.025,39.809l-11.712-7.245c.3-.1.608-.2.911-.3l11.712,7.245q-.456.145-.911.3" transform="translate(-138.336 -32.263)" fill="#348092"/>
                </g>
              </g>
            </g>
          </g>
        </g>
      </g>
      <g id="Grupo_878709" data-name="Grupo 878709" transform="translate(21.479 75.632)">
        <path id="Trazado_617701" data-name="Trazado 617701" d="M58.738,395.807c0,3.72-8.341,6.735-18.63,6.735s-18.629-3.015-18.629-6.735,8.342-6.736,18.629-6.736S58.738,392.087,58.738,395.807Z" transform="translate(-21.479 -318.654)" fill="#98a7d3"/>
        <g id="Grupo_878708" data-name="Grupo 878708" transform="translate(11.081)">
          <g id="Grupo_878702" data-name="Grupo 878702" transform="translate(9.621 74.946)">
            <g id="Grupo_878701" data-name="Grupo 878701">
              <g id="Grupo_878700" data-name="Grupo 878700" transform="translate(0.109)">
                <path id="Trazado_617702" data-name="Trazado 617702" d="M85.43,406.862l-.221-3.924H87.86l-.219,3.924Z" transform="translate(-85.209 -402.938)" fill="#f7ae80"/>
              </g>
              <path id="Trazado_617703" data-name="Trazado 617703" d="M84.912,411.643a3.888,3.888,0,0,0,2.723-.027l4.632-1.855c1-.645-.3-1.1-.3-1.1a3.3,3.3,0,0,0-2.01.081l-2.471.569c-.831.888-2.341.289-2.341.289A3.51,3.51,0,0,0,84.912,411.643Z" transform="translate(-84.876 -406.698)" fill="#5b2d2b"/>
              <path id="Trazado_617704" data-name="Trazado 617704" d="M84.986,412.557a4.405,4.405,0,0,0,2.723-.027l4.547-1.821s.673-.327.306-.83c0,0,.353.111.157,1.23a4.255,4.255,0,0,1-1.375.794,18.591,18.591,0,0,1-4.428,1.663,3.146,3.146,0,0,1-1.326-.037c-.082-.021-.605-.171-.605-.278Z" transform="translate(-84.95 -407.612)" fill="#ededed"/>
              <path id="Trazado_617705" data-name="Trazado 617705" d="M84.986,411.929l.235.071.237.052a3.4,3.4,0,0,0,.48.053,4.129,4.129,0,0,0,.48-.015,4.342,4.342,0,0,0,.474-.069,4.67,4.67,0,0,0,.463-.118,3.073,3.073,0,0,0,.442-.171l.893-.4.9-.389c.3-.129.6-.257.9-.381q.9-.378,1.811-.737l-.016.008a.831.831,0,0,0,.255-.192.207.207,0,0,0,.036-.245.757.757,0,0,0-.222-.253,2.532,2.532,0,0,0-.307-.2,1.476,1.476,0,0,1,.353.127.835.835,0,0,1,.313.245.393.393,0,0,1,.072.221.434.434,0,0,1-.07.226,1.039,1.039,0,0,1-.3.286l0,0-.012.005q-.893.4-1.791.785-.449.193-.9.379l-.9.372-.907.362a3.369,3.369,0,0,1-.478.157,3.876,3.876,0,0,1-.491.093,4.614,4.614,0,0,1-.5.037,4.008,4.008,0,0,1-.5-.033,3.573,3.573,0,0,1-.485-.1c-.079-.026-.158-.051-.233-.08Z" transform="translate(-84.95 -406.984)" fill="#471f1f"/>
            </g>
          </g>
          <g id="Grupo_878705" data-name="Grupo 878705" transform="translate(0.191 72.79)">
            <g id="Grupo_878704" data-name="Grupo 878704">
              <g id="Grupo_878703" data-name="Grupo 878703" transform="translate(0.108)">
                <path id="Trazado_617706" data-name="Trazado 617706" d="M56.551,400.261l-.221-3.924h2.65l-.219,3.924Z" transform="translate(-56.33 -396.337)" fill="#f7ae80"/>
              </g>
              <path id="Trazado_617707" data-name="Trazado 617707" d="M56.034,405.041a3.885,3.885,0,0,0,2.722-.027l4.632-1.855c1-.645-.3-1.1-.3-1.1a3.3,3.3,0,0,0-2.01.082l-2.47.569c-.832.888-2.341.29-2.341.29A3.506,3.506,0,0,0,56.034,405.041Z" transform="translate(-55.998 -400.097)" fill="#5b2d2b"/>
              <path id="Trazado_617708" data-name="Trazado 617708" d="M56.108,405.955a4.4,4.4,0,0,0,2.722-.027l4.547-1.821s.674-.327.307-.83c0,0,.353.112.157,1.229a4.248,4.248,0,0,1-1.376.795,18.62,18.62,0,0,1-4.428,1.663,3.135,3.135,0,0,1-1.326-.037c-.082-.021-.605-.171-.605-.278Z" transform="translate(-56.072 -401.01)" fill="#ededed"/>
              <path id="Trazado_617709" data-name="Trazado 617709" d="M56.108,405.328l.234.07.237.052a3.429,3.429,0,0,0,.48.053,4.126,4.126,0,0,0,.48-.015,4.456,4.456,0,0,0,.474-.068c.157-.03.311-.073.463-.118a3.02,3.02,0,0,0,.442-.171l.893-.4.9-.388q.449-.194.9-.381c.6-.253,1.206-.5,1.811-.737l-.017.008a.835.835,0,0,0,.256-.192.209.209,0,0,0,.036-.245.767.767,0,0,0-.222-.253,2.5,2.5,0,0,0-.307-.2,1.481,1.481,0,0,1,.354.127.832.832,0,0,1,.312.246.393.393,0,0,1,.072.221.435.435,0,0,1-.07.226,1.056,1.056,0,0,1-.3.286l0,0-.011.006q-.892.4-1.791.784c-.3.13-.6.256-.9.38l-.9.372-.908.362a3.327,3.327,0,0,1-.478.157,3.91,3.91,0,0,1-.491.093,4.561,4.561,0,0,1-.5.036,4.069,4.069,0,0,1-.5-.033,3.569,3.569,0,0,1-.485-.1c-.078-.026-.157-.05-.233-.081Z" transform="translate(-56.072 -400.383)" fill="#471f1f"/>
            </g>
          </g>
          <path id="Trazado_617710" data-name="Trazado 617710" d="M58.672,289.8a10.736,10.736,0,0,0,.477,4.534c.82,2.825,4.964,4.466,7.477,4.939,0,0,4.675.273,4.453-6.588Z" transform="translate(-57.544 -251.799)" fill="#13233e"/>
          <path id="Trazado_617711" data-name="Trazado 617711" d="M83.2,226.189a61.807,61.807,0,0,1,5.2-10.033l1.257.688s-1.435,8.448-3.774,11.4Z" transform="translate(-74.127 -202.203)" fill="#f5ae80"/>
          <path id="Trazado_617712" data-name="Trazado 617712" d="M83.054,240.7s2.346,2.339,2,3.893c0,0-.218.854-.9.818,0,0-.944.342-4.147-2.457Z" transform="translate(-71.973 -218.735)" fill="#f5ae80"/>
          <path id="Trazado_617713" data-name="Trazado 617713" d="M59.177,217.837a2.879,2.879,0,0,0,.69,3.2l6.232,6.171s2.113.252,3.694-3.313l-5.718-5.619S60.8,216.015,59.177,217.837Z" transform="translate(-57.8 -202.857)" fill="#d5d54d"/>
          <path id="Trazado_617714" data-name="Trazado 617714" d="M66.022,226.976a3.052,3.052,0,0,0,2.441-1.276,1.763,1.763,0,0,0,.571-1.452c-.24-.809-1.756-1.117-2.426-1.383-1.114-.443-2.233-.872-3.37-1.253a9.214,9.214,0,0,1-3.021-1.352,3.022,3.022,0,0,1-1.023-1.984,2.346,2.346,0,0,1,.142-.439c1.627-1.822,4.9.441,4.9.441l5.718,5.619c-1.58,3.565-3.694,3.313-3.694,3.313Z" transform="translate(-57.959 -202.857)" fill="#d2d1d1" style="mix-blend-mode: multiply;isolation: isolate"/>
          <path id="Trazado_617715" data-name="Trazado 617715" d="M83.1,301.766l.068,12.751-.64,21.636a3.8,3.8,0,0,1-3.771.591l-1.837-21.649L76.531,300.6Z" transform="translate(-69.635 -259.074)" fill="#13233e"/>
          <path id="Trazado_617716" data-name="Trazado 617716" d="M62.735,297.835,56.893,294.7l.176,14.693-1.024,21.387c1.358,1.144,3.33-.093,3.33-.093l3.119-19.8Z" transform="translate(-55.839 -255.097)" fill="#13233e"/>
          <path id="Trazado_617717" data-name="Trazado 617717" d="M79.938,213.978l-1,4.6-3.234-1.718.75-3.9Z" transform="translate(-69.079 -200.052)" fill="#f5ae80"/>
          <path id="Trazado_617718" data-name="Trazado 617718" d="M73.528,189.651a17.752,17.752,0,0,1-2.543-.4c-1.135-.274-2.04-2.042-2.844-2.879a8.842,8.842,0,0,1-1.178-1.96,5.779,5.779,0,0,1,.349-6.255,4.832,4.832,0,0,1,3.163-2.011,6.779,6.779,0,0,1,6.363,3.179c.742,1.352-.287,3.081.881,4.26,0,0,1.052.646.149,1.3,0,0-.941.463-1.045,1.129a9.662,9.662,0,0,0-.156,1.394c-.065.412.033,1.287-.246,1.632a2.756,2.756,0,0,1-2.422.644C73.842,189.678,73.685,189.666,73.528,189.651Z" transform="translate(-62.682 -175.24)" fill="#f5ae80"/>
          <path id="Trazado_617719" data-name="Trazado 617719" d="M84.551,203.63c.05.84.4,1.942,1.328,2.169a2.84,2.84,0,0,0,.471.038,2.756,2.756,0,0,0,2.422-.644c.279-.345.181-1.22.246-1.632.044-.282.1-1.058.127-1.238a3.306,3.306,0,0,0-.885-.083,2.449,2.449,0,0,0-.93.205c-.255.119-.594.315-.864.128a1.076,1.076,0,0,1-.346-.6c-.136-.487-.385-1.376-.471-1.872l-.366.078s-.377,1.7-.378,1.7A5.858,5.858,0,0,0,84.551,203.63Z" transform="translate(-75.034 -191.388)" fill="#4d433c"/>
          <path id="Trazado_617720" data-name="Trazado 617720" d="M71.12,245.92l-.05-21.128a2.532,2.532,0,0,0-.769-2.54,34.187,34.187,0,0,0-3.269-1.96s-.522.2-2.009-.482c0,0-1.085-.422-1.346-1.065a27.667,27.667,0,0,0-3.617-1.1c-1.729-.29-1.817,1.331-2.008,2.608,0,0-.766,11.554-.412,21.819A17.578,17.578,0,0,0,71.12,245.92Z" transform="translate(-56.85 -203.181)" fill="#d5d54d"/>
          <path id="Trazado_617721" data-name="Trazado 617721" d="M80.469,232.826a2.532,2.532,0,0,0-.769-2.54,11.341,11.341,0,0,0-1.136-.747,1.874,1.874,0,0,1-.248,1.825c-.291.472-.632.92-.878,1.418a5.426,5.426,0,0,0-.452,2.057,34.726,34.726,0,0,0-.039,4.949c.149,2.277.82,4.507.8,6.8a5.5,5.5,0,0,1-2.8,5.181,10.477,10.477,0,0,1-3.447,1.007,17.619,17.619,0,0,0,9.017,1.18Z" transform="translate(-66.249 -211.215)" fill="#d2d1d1" style="mix-blend-mode: multiply;isolation: isolate"/>
          <path id="Trazado_617722" data-name="Trazado 617722" d="M86.729,406a4.235,4.235,0,0,1-3.909.7.442.442,0,0,1-.226-.337l-.09-1.627s-.009-.424.24-.318a4.464,4.464,0,0,0,3.787-.468s.226-.2.306.174l.024,1.439S86.9,405.872,86.729,406Z" transform="translate(-73.658 -328.64)" fill="#6e92bd"/>
          <path id="Trazado_617723" data-name="Trazado 617723" d="M59.183,400.592a2.986,2.986,0,0,1-3.544.448.442.442,0,0,1-.226-.337l.126-1.4s-.008-.424.241-.317c0,0,1.25.937,3.432-.255,0,0,.226-.2.306.174l-.1,1.224A.916.916,0,0,1,59.183,400.592Z" transform="translate(-55.414 -325.125)" fill="#6e92bd"/>
          <g id="Grupo_878706" data-name="Grupo 878706" transform="translate(16.607 5.607)">
            <path id="Trazado_617724" data-name="Trazado 617724" d="M124.535,215.915a55.715,55.715,0,0,1,1.014-10.207l1.364.087s2.186,7.9.557,11.176Z" transform="translate(-118.568 -200.773)" fill="#f5ae80"/>
            <path id="Trazado_617725" data-name="Trazado 617725" d="M106.8,232.143l6.7.521s1.758.415,1.79,1.864c0,0-.123,1.372-2.366,1.4l-6.646-.017Z" transform="translate(-106.27 -218.576)" fill="#f5ae80"/>
            <path id="Trazado_617726" data-name="Trazado 617726" d="M125.66,195.617a25.874,25.874,0,0,0,.579-3.093c.284-1.487-.678-1.551-.678-1.551-.295-.793-.909-.092-.909-.092a.518.518,0,0,0-.443.411l.032,2.209c-.109.375-.374.07-.374.07l-.641-.957c-.349-.43-.555.07-.555.07l1.6,2.97Z" transform="translate(-117.315 -190.595)" fill="#f5ae80"/>
          </g>
          <path id="Trazado_617727" data-name="Trazado 617727" d="M87.078,229.156s.334-2.364,4.97-1.535l5.081,1.156s1.4,2.875-.533,4.853l-8.263-.528A3.021,3.021,0,0,1,87.078,229.156Z" transform="translate(-76.521 -209.805)" fill="#d5d54d"/>
          <path id="Trazado_617728" data-name="Trazado 617728" d="M73.784,217.169l-1.653.8a7.456,7.456,0,0,0,5.586,2.514c.054,0-.562-1.945-.562-1.945Z" transform="translate(-66.672 -202.885)" fill="#fff"/>
          <path id="Trazado_617729" data-name="Trazado 617729" d="M63.841,178.63a7.1,7.1,0,0,0,2.252,6.554l2.09,1.918,1.473-.394.215-3.1c.034-.264-.254-.6-.349-.831a2.088,2.088,0,0,1-.155-.86c0-.588.192-1.266.932-1.116.61.124.832.881.959,1.41l.366-.078a2.252,2.252,0,0,1,1.057-2.427,1.323,1.323,0,0,1,1.395-1.759s2.165-.048,1.9-2.043c0,0,.134-1.17-1.707-2.263a18.526,18.526,0,0,0-5.111-.106,7.933,7.933,0,0,0-2.309.7,5.079,5.079,0,0,0-1.777,1.352,1.415,1.415,0,0,0,.113,1.542S64.021,177.127,63.841,178.63Z" transform="translate(-61.007 -173.425)" fill="#4d433c"/>
          <path id="Trazado_617730" data-name="Trazado 617730" d="M63.841,178.63a7.1,7.1,0,0,0,2.252,6.554l2.09,1.918,1.473-.394.215-3.1c.034-.264-.254-.6-.349-.831a2.088,2.088,0,0,1-.155-.86c0-.588.192-1.266.932-1.116.61.124.832.881.959,1.41l.366-.078a2.252,2.252,0,0,1,1.057-2.427,1.323,1.323,0,0,1,1.395-1.759s2.165-.048,1.9-2.043c0,0,.134-1.17-1.707-2.263a18.526,18.526,0,0,0-5.111-.106,7.933,7.933,0,0,0-2.309.7,5.079,5.079,0,0,0-1.777,1.352,1.415,1.415,0,0,0,.113,1.542S64.021,177.127,63.841,178.63Z" transform="translate(-61.007 -173.425)" fill="#4d433c"/>
          <g id="Grupo_878707" data-name="Grupo 878707" transform="translate(8.028 7.232)">
            <path id="Trazado_617731" data-name="Trazado 617731" d="M81.961,198.481a1.635,1.635,0,1,1,.358-1.93A1.416,1.416,0,0,1,81.961,198.481Z" transform="translate(-80 -195.573)" fill="#f5ae80"/>
            <path id="Trazado_617732" data-name="Trazado 617732" d="M82.861,198.442c-.2-.05-.173-.143-.191-.31a.568.568,0,0,0-.147-.308.214.214,0,0,0-.254-.08.9.9,0,0,0-.22.015c-.234.038-.322-.05-.288-.308.039-.295.351-.431.641-.472.124-.018.176-.111.008-.17a.73.73,0,0,0-.936.763.452.452,0,0,0,.246.45.239.239,0,0,0,.045.007c.1.151.25.242.346.4a.135.135,0,0,0,.054.048.9.9,0,0,0,.1.184c.129.168.356.017.522.055A.14.14,0,0,0,82.861,198.442Z" transform="translate(-80.993 -196.378)" fill="#db896e"/>
          </g>
        </g>
      </g>
      <g id="Grupo_878711" data-name="Grupo 878711" transform="translate(141.44 77.488)">
        <path id="Trazado_617733" data-name="Trazado 617733" d="M422.483,197.77a5.153,5.153,0,0,0,.276-3.362l-1.252-9.143c-.474-3.032-2.643-2.41-2.643-2.41-2.331.4-1.275,3.262-1.275,3.262l2.308,9.962S420,198.743,422.483,197.77Z" transform="translate(-408.044 -181.597)" fill="#f5ae80"/>
        <g id="Grupo_878710" data-name="Grupo 878710" transform="translate(0 20.343)">
          <path id="Trazado_617734" data-name="Trazado 617734" d="M389.975,245.625c-.179-.135-.63.3-1.128-.208a5.6,5.6,0,0,1,1.006-.9c.246-.134.359-.05.619.061.21.089.4.25.612.329s.8-.234,1.063-.309l.205.23a13.636,13.636,0,0,1-1.451,1.564Z" transform="translate(-388.848 -243.456)" fill="#f7ae80"/>
          <path id="Trazado_617735" data-name="Trazado 617735" d="M388.941,242.352a9.142,9.142,0,0,1,1.243-.677l.968-.049.589-.217c.225.612.469,1.142.469,1.142-.751.4-.92.51-.92.51s-.4.2-1.086-.339l-.339-.195S389.188,242.9,388.941,242.352Z" transform="translate(-388.911 -241.409)" fill="#f7ae80"/>
          <path id="Trazado_617736" data-name="Trazado 617736" d="M391.1,247.263a.191.191,0,0,0-.013-.327.213.213,0,0,0-.328-.046l.086-.079c.047-.139-.143-.249-.143-.249a.234.234,0,0,0-.338.029l.152-.156c.061-.123-.122-.261-.122-.261-.226-.186-.367,0-.367,0l-.071.063s-.257-.559-.839-.027l-.268.24s.068.315.546.316a.431.431,0,0,0,.473.339.446.446,0,0,0,.433.262s.169.311.385.22Z" transform="translate(-388.848 -244.487)" fill="#f7ae80"/>
        </g>
        <path id="Trazado_617737" data-name="Trazado 617737" d="M417.661,179.11s-1.789.851-1.082,3.57a35.908,35.908,0,0,0,.965,5.484s3.065.135,4.445-1.86C421.989,186.3,421.529,179.961,417.661,179.11Z" transform="translate(-407.412 -179.11)" fill="#452136"/>
        <path id="Trazado_617738" data-name="Trazado 617738" d="M408.01,223.529l-11.184,5.562-.812-1.326,9.75-6.674s1.1-.871,1.811.108A1.881,1.881,0,0,1,408.01,223.529Z" transform="translate(-393.674 -207.142)" fill="#f5ae80"/>
      </g>
    </g>
  </g>
</svg>
