<svg xmlns="http://www.w3.org/2000/svg" width="135" height="135" viewBox="0 0 135 135">
  <g id="Grupo_887408" data-name="Grupo 887408" transform="translate(-390 -8985.63)">
    <circle id="Elipse_5384" data-name="Elipse 5384" cx="67.5" cy="67.5" r="67.5" transform="translate(390 8985.63)" fill="#222b5a"/>
    <g id="Grupo_887384" data-name="Grupo 887384" transform="translate(420.681 9013.144)">
      <path id="Trazado_621741" data-name="Trazado 621741" d="M507.8,1065.674a1.611,1.611,0,0,1-1.486.709q-34.43-.017-68.86-.01c-.093,0-.187,0-.28,0-.714-.042-1.169-.451-1.172-1.051a1.061,1.061,0,0,1,1.169-1.044c1.612-.017,3.226-.007,4.838-.008h2.918v-6.882h-3.761c-.538,0-1.075.012-1.612,0-1.013-.029-1.437-.562-1.224-1.554q2.787-13.043,5.581-26.085c.342-1.6.7-3.191,1.03-4.791.131-.638.394-1.131,1.109-1.13s.963.529,1.1,1.151q1.636,7.668,3.285,15.335c.048.225.107.448.18.751.711-.473,1.38-.893,2.016-1.357a.751.751,0,0,0,.209-.541c.014-2.385.017-4.768-.007-7.152a.737.737,0,0,0-.353-.539,1.038,1.038,0,0,1-.707-1.151,1,1,0,0,1,1.088-.888c1.309-.016,2.618-.01,3.927-.012,1.169,0,2.337,0,3.506,0,.62,0,1.209.1,1.356.821a1.011,1.011,0,0,1-.816,1.264c-.125.039-.245.314-.251.485-.027.746-.012,1.494-.012,2.364.24-.128.415-.205.573-.309,1.383-.916,2.768-1.829,4.141-2.758a3.479,3.479,0,0,1,4.237,0c3.548,2.385,7.109,4.749,10.666,7.12.231.154.466.3.707.457a7.047,7.047,0,0,0,1.238-4.517,10.012,10.012,0,0,1,13.283-9.963,9.614,9.614,0,0,1,6.635,8.047,7.729,7.729,0,0,1,.1,1.883,7.445,7.445,0,0,0,.863,4.041,12.262,12.262,0,0,1-9.352,17.792c-.115.016-.23.033-.406.06v3.666a4.576,4.576,0,0,1,5.591,4.4h.807c2.221,0,4.442.017,6.662-.01a1.561,1.561,0,0,1,1.483.714Zm-24.575-1.435v-.918c0-4.51-.032-9.021.023-13.53a2.221,2.221,0,0,0-1.183-2.259c-3.133-1.945-6.164-4.055-9.233-6.1a3.38,3.38,0,0,1-.5-.378.988.988,0,0,1-.152-1.337.973.973,0,0,1,1.238-.368,3.1,3.1,0,0,1,.662.388q3.208,2.135,6.413,4.273c1.03.686,2.053,1.385,3.1,2.046a1.17,1.17,0,0,0,1.623-.259,1.206,1.206,0,0,0-.276-1.682,2.854,2.854,0,0,0-.285-.2q-8.189-5.46-16.377-10.924a1.416,1.416,0,0,0-1.75,0c-.771.529-1.553,1.039-2.33,1.557q-6.3,4.2-12.583,8.407a1.007,1.007,0,0,0-.436.731,19.509,19.509,0,0,0,.44,2.111c.287-.184.52-.329.748-.481q7.054-4.7,14.1-9.407c.469-.314.937-.578,1.482-.234.77.487,1.534.984,2.272,1.516a1.034,1.034,0,0,1-1.136,1.727,7.671,7.671,0,0,1-1.17-.766.744.744,0,0,0-1.047.007q-7.125,4.782-14.28,9.523a.763.763,0,0,0-.382.968c.538,2.366,1.028,4.743,1.534,7.116.231,1.085-.18,1.6-1.286,1.628-.271.005-.544,0-.826,0v6.852Zm9.97-10.213a3.952,3.952,0,0,0,.406,0,10.227,10.227,0,0,0,8.3-7.21,9.855,9.855,0,0,0-.734-7.477,9.45,9.45,0,0,1-1.144-4.906,9.525,9.525,0,0,0-.306-2.837,7.8,7.8,0,0,0-6.5-5.613,7.908,7.908,0,0,0-8.084,4.125,7.429,7.429,0,0,0-.912,4.047,9,9,0,0,1-1.135,5.185c-.133.235-.231.491-.352.752,1.155.777,2.282,1.486,3.357,2.267a3.285,3.285,0,0,1-.347,5.679.89.89,0,0,0-.4.613c-.047.815-.03,1.635-.01,2.452a.825.825,0,0,0,.186.556,9.834,9.834,0,0,0,5.567,2.407c0-.308,0-.558,0-.808,0-1.192-.012-2.384.007-3.576a1.028,1.028,0,0,1,1-1.126,1.044,1.044,0,0,1,1.089,1.045,7.137,7.137,0,0,1,.013.771C493.193,1051.581,493.193,1052.792,493.193,1054.025Zm-41.719,1.219-5.371-25.063-.137.019-5.362,25.036h4.376c0-.742-.018-1.44,0-2.136.026-.762.457-1.2,1.1-1.177.608.025.979.462.992,1.2.014.694,0,1.388,0,2.118Zm33.9,8.989h11.3a2.261,2.261,0,0,0-3.237-2.114c-1.293.608-1.293.608-2.326-.4a3.387,3.387,0,0,0-3.7-.677A3.322,3.322,0,0,0,485.372,1064.233Zm0-4.454a5.754,5.754,0,0,1,5.713-.626c0-.939.021-1.772-.02-2.6-.007-.14-.26-.342-.433-.388-.673-.178-1.385-.233-2.035-.466-1.082-.388-2.128-.878-3.225-1.341Zm-30.425-21.616a22.8,22.8,0,0,1,2.3-1.5,2.043,2.043,0,0,0,1.236-2.341,25.314,25.314,0,0,1-.021-2.8c-1.1,0-2.083-.02-3.061.02a.625.625,0,0,0-.433.429C454.939,1033.978,454.949,1035.98,454.949,1038.164Zm-5.526,26.069v-6.788h-2.306v6.788Z" transform="translate(-436 -997.956)" fill="#fff"/>
      <path id="Trazado_621742" data-name="Trazado 621742" d="M469.916,1013.973a5.056,5.056,0,0,1-3.216,4.149,4.021,4.021,0,0,1-1.079.278,1.026,1.026,0,0,1-.466-1.983c.173-.067.357-.1.535-.157a2.86,2.86,0,0,0,2.1-2.882c-.032-1.389.259-1.692,1.608-1.565a4.5,4.5,0,0,0,4.436-2.1c.507-.743.79-.828,1.808-.493a6.688,6.688,0,0,0,5.485-.472,7.265,7.265,0,0,0,.818-.536c1.052-.768,1.151-.788,2.233-.087a9.038,9.038,0,0,0,13.979-7.881,9.057,9.057,0,0,0-15.123-6.386,10.434,10.434,0,0,0-1.453,1.7c-.654.879-.825.968-1.878.706a6.666,6.666,0,0,0-7.621,3.023,8.431,8.431,0,0,0-.879,2.264,1.374,1.374,0,0,1-1.376,1.2,4.442,4.442,0,0,0-4.358,4.285,5.34,5.34,0,0,0,.251,1.781c.314,1.161.071,1.614-1.087,1.827a2.834,2.834,0,0,0-2.353,3.932c.24.791.028,1.377-.57,1.57-.627.2-1.121-.113-1.407-.9a4.9,4.9,0,0,1,2.647-6.3.636.636,0,0,0,.451-.783,6.583,6.583,0,0,1,5.29-7.375.84.84,0,0,0,.7-.645,8.605,8.605,0,0,1,6.679-6.023,12.2,12.2,0,0,1,3.262-.074,1.039,1.039,0,0,0,1.051-.409,10.763,10.763,0,0,1,9.179-4.229,11.161,11.161,0,0,1,1.764,22.089,10.714,10.714,0,0,1-7.583-1.2.989.989,0,0,0-1.19.029,8.665,8.665,0,0,1-6.718,1.149.938.938,0,0,0-.748.107A6.832,6.832,0,0,1,469.916,1013.973Z" transform="translate(-441.971 -989.4)" fill="#fff"/>
      <path id="Trazado_621743" data-name="Trazado 621743" d="M474.489,1065.227c-2.127,0-4.255-.005-6.381.006a1.443,1.443,0,0,0-.87.153,1.715,1.715,0,0,0-.637,1.05c.007.354.394.723.668,1.04.1.116.347.107.529.148.709.159,1.05.6.945,1.231a1.072,1.072,0,0,1-1.257.846,3.328,3.328,0,0,1-2.949-2.508,3.2,3.2,0,0,1,1.542-3.594,1.024,1.024,0,0,0,.6-1.093c-.024-1.916-.013-3.833-.007-5.75,0-1.169.333-1.5,1.5-1.5q6.311,0,12.622,0c1.169,0,1.478.315,1.481,1.513.006,1.986-.013,3.974.022,5.959a1.027,1.027,0,0,0,.432.734,3.37,3.37,0,0,1,1.691,3.745,3.31,3.31,0,0,1-3.247,2.5c-1.659.029-3.319.008-4.979.008q-1.753,0-3.506,0c-1,0-1.505-.368-1.492-1.074.013-.682.5-1.028,1.459-1.029q4.032,0,8.064,0a3.479,3.479,0,0,0,.7-.044,1.133,1.133,0,0,0,.965-1.256,1.115,1.115,0,0,0-1.1-1.072,8.575,8.575,0,0,0-.911-.016Zm1.1-7.836v5.691h4.538v-5.691Zm-6.754,0v5.69h4.523v-5.69Z" transform="translate(-443.083 -1005.797)" fill="#fff"/>
    </g>
  </g>
</svg>
