<svg xmlns="http://www.w3.org/2000/svg" width="135" height="135" viewBox="0 0 135 135">
  <g id="Grupo_887410" data-name="Grupo 887410" transform="translate(-1095 -8985.63)">
    <circle id="Elipse_5386" data-name="Elipse 5386" cx="67.5" cy="67.5" r="67.5" transform="translate(1095 8985.63)" fill="#222b5a"/>
    <g id="Grupo_887386" data-name="Grupo 887386" transform="translate(1008.227 8093.328)">
      <path id="Trazado_621722" data-name="Trazado 621722" d="M118,985.105c.555-1.332,1.013-2.715,1.681-3.988a20.9,20.9,0,0,1,12.2-10.414c.279-.094.558-.185.836-.281a.383.383,0,0,0,.1-.074,2.412,2.412,0,0,0-2.118-2.278c-.187-.026-.378-.036-.561-.079a1.238,1.238,0,0,1,.31-2.455,4.962,4.962,0,0,1,3.175,1.209c.173.148.342.3.545.477a5.293,5.293,0,0,1,3.074-1.631c.167-.023.335-.043.5-.052a1.266,1.266,0,0,1,1.457,1.081,1.24,1.24,0,0,1-1.2,1.4,2.683,2.683,0,0,0-1.976.963,9.68,9.68,0,0,0-.522.82c.589-.05,1.059-.119,1.53-.123,1.114-.009,2.227.03,3.341.009a.94.94,0,0,0,.676-.291,11.1,11.1,0,0,1,7.667-4.835c.1-.016.2-.044.317-.07v-7.779c-.944.081-1.857.2-2.773.231-6.277.2-11.225-2.431-15.115-7.207a16.852,16.852,0,0,1-3.9-11.134,34.635,34.635,0,0,1,.5-4.184,1.516,1.516,0,0,1,1.331-1.323,17.637,17.637,0,0,1,16,4.013,24.149,24.149,0,0,1,3.99,4.461c0-.213,0-.427,0-.641.04-2.459-.048-4.929.153-7.376.267-3.261,1.3-6.259,3.9-8.477a12.329,12.329,0,0,1,6.552-2.708,34.509,34.509,0,0,1,4.087-.22,1.261,1.261,0,0,1,1.428,1.279,17.631,17.631,0,0,1-1.24,8.523c-1.518,3.405-4.311,5.174-7.829,5.9-1.452.3-2.948.384-4.483.573v22.73c.474-.471.893-.886,1.309-1.3.535-.536,1.3-.989,1.537-1.635a5.563,5.563,0,0,0-.135-2.2,18.68,18.68,0,0,1,6.43-16.176,28.782,28.782,0,0,1,2.519-1.993,1.3,1.3,0,0,1,1.955.14c.46.627.285,1.369-.529,1.929a19.124,19.124,0,0,0-5.143,5.056,15.966,15.966,0,0,0-2.738,10.523c.007.082.031.163.07.361.205-.2.364-.339.515-.49q4.152-4.15,8.305-8.3a4.044,4.044,0,0,1,.67-.568,1.229,1.229,0,0,1,1.673,1.7,3.864,3.864,0,0,1-.532.62q-4.147,4.154-8.3,8.3c-.158.158-.3.328-.519.561a12.86,12.86,0,0,0,4.842-.166,17.079,17.079,0,0,0,13.109-12.145,14.906,14.906,0,0,0,.326-7.242c-.062-.352-.186-.505-.547-.536-.858-.073-1.713-.178-2.568-.275-1-.115-1.524-.618-1.458-1.382s.68-1.232,1.66-1.126c1.292.14,2.577.348,3.864.536a1.48,1.48,0,0,1,1.3,1.272,18.169,18.169,0,0,1-1.634,13.15,19.891,19.891,0,0,1-9.646,8.995,17.671,17.671,0,0,1-10.724,1.258,1.273,1.273,0,0,0-1.328.4c-1.161,1.219-2.371,2.39-3.56,3.581-.143.143-.276.3-.459.5.562.14,1.051.244,1.53.383a10.766,10.766,0,0,1,6.055,4.377.9.9,0,0,0,.877.438c1.552-.029,3.1-.011,4.637-.011a2.361,2.361,0,0,0-1.933-1.631c-.124-.019-.253-.012-.377-.031a1.293,1.293,0,0,1-1.248-1.381,1.268,1.268,0,0,1,1.483-1.121,5.061,5.061,0,0,1,3.424,1.561c.871-.468,1.67-.955,2.518-1.328a3.869,3.869,0,0,1,1.419-.23,1.205,1.205,0,0,1,1.247,1.1,1.226,1.226,0,0,1-.982,1.338,3.915,3.915,0,0,1-.5.081,2.456,2.456,0,0,0-2.243,2.26c1.105.436,2.246.8,3.314,1.32A21.177,21.177,0,0,1,182.579,985.1c.206.679-.024,1.1-.815,1.647H118Zm61.594-.9c-.047-.147-.074-.267-.122-.378A18.63,18.63,0,0,0,167.5,972.96a17.638,17.638,0,0,0-7.919-.635,1.482,1.482,0,0,1-1.679-.818c-.108-.2-.236-.4-.357-.594a8.617,8.617,0,0,0-8.846-3.775,8.374,8.374,0,0,0-5.846,4.2,1.743,1.743,0,0,1-2.031.962,13.089,13.089,0,0,0-2.453-.156,18.683,18.683,0,0,0-14.319,6.87,17.43,17.43,0,0,0-3.027,5.207c1.13,0,2.2-.062,3.259.021.785.062,1.1-.227,1.4-.932a13.592,13.592,0,0,1,7.09-7.189,1.256,1.256,0,0,1,1.852.89c.111.573-.218,1.019-.887,1.442a29.011,29.011,0,0,0-3.158,2.163,9.26,9.26,0,0,0-2.545,3.583Zm-30.819-31.6.217-.195a15.624,15.624,0,0,0-.49-5.667A16.041,16.041,0,0,0,143.41,939a15.089,15.089,0,0,0-12.831-3.644c-.327.052-.52.15-.586.521a14.232,14.232,0,0,0,.592,7.7c2.234,5.773,6.352,9.444,12.488,10.651a30.026,30.026,0,0,0,3.973.265l.193-.358a2.658,2.658,0,0,1-.6-.346q-3.225-3.2-6.428-6.422a3.7,3.7,0,0,1-.526-.624,1.207,1.207,0,0,1,.173-1.5,1.222,1.222,0,0,1,1.5-.19,3.593,3.593,0,0,1,.625.525q3.218,3.207,6.423,6.427A3.064,3.064,0,0,1,148.775,952.6Zm4.655-16.919c7.054-.432,9.513-4.849,9.212-11.116-1.188.152-2.383.225-3.544.467-4.5.942-6.937,3.716-7.344,8.713.189-.17.344-.3.487-.441q1.432-1.425,2.86-2.853c.768-.764,1.517-.869,2.085-.3s.458,1.318-.3,2.086q-.511.515-1.026,1.027Z" transform="translate(0 0)" fill="#fff"/>
      <path id="Trazado_621723" data-name="Trazado 621723" d="M211.654,947.835a1.284,1.284,0,0,1-1.252,1.313,1.253,1.253,0,1,1-.016-2.505A1.187,1.187,0,0,1,211.654,947.835Z" transform="translate(-41.608 -11.185)" fill="#fff"/>
      <path id="Trazado_621724" data-name="Trazado 621724" d="M155.982,1020.483a1.289,1.289,0,0,1-2.576-.083,1.29,1.29,0,0,1,2.576.083Z" transform="translate(-16.17 -44.325)" fill="#fff"/>
    </g>
  </g>
</svg>
