<svg xmlns="http://www.w3.org/2000/svg" xmlns:xlink="http://www.w3.org/1999/xlink" width="95" height="95" viewBox="0 0 95 95">
  <defs>
    <clipPath id="clip-path">
      <circle id="Elipse_5296" data-name="Elipse 5296" cx="47.5" cy="47.5" r="47.5" transform="translate(753 927)" fill="#e8e8e8"/>
    </clipPath>
    <clipPath id="clip-path-2">
      <rect id="Rect치ngulo_294296" data-name="Rect치ngulo 294296" width="117.169" height="107.385" transform="translate(0 -19.04)" fill="none"/>
    </clipPath>
    <clipPath id="clip-path-3">
      <rect id="Rect치ngulo_294295" data-name="Rect치ngulo 294295" width="117.169" height="68.345" fill="none"/>
    </clipPath>
  </defs>
  <g id="Enmascarar_grupo_90" data-name="Enmascarar grupo 90" transform="translate(-753 -927)" clip-path="url(#clip-path)">
    <g id="BRAZIL" transform="translate(280.91 798.161)">
      <g id="Grupo_882200" data-name="Grupo 882200" transform="translate(460.506 141.686)">
        <g id="Grupo_882199" data-name="Grupo 882199">
          <g id="Grupo_882198" data-name="Grupo 882198" clip-path="url(#clip-path-2)">
            <path id="Trazado_622272" data-name="Trazado 622272" d="M0-19.04S87.877-43.2,117.169-16.3s0,104.874,0,104.874H0V-19.04Z" fill="#3c9242"/>
            <path id="Trazado_621979" data-name="Trazado 621979" d="M465.682,169.936,506.2,195.812l40.536-25.876L506.2,144.063Z" transform="translate(-447.613 -135.765)" fill="#edc226"/>
            <g id="Grupo_882197" data-name="Grupo 882197">
              <g id="Grupo_882196" data-name="Grupo 882196" clip-path="url(#clip-path-3)">
                <path id="Trazado_621980" data-name="Trazado 621980" d="M506.55,163.671a17.077,17.077,0,1,1-17.082-17.092,17.081,17.081,0,0,1,17.082,17.092" transform="translate(-430.884 -129.499)" fill="#2d146e"/>
                <path id="Trazado_621981" data-name="Trazado 621981" d="M479.332,149.376a42.718,42.718,0,0,0-5.876.415,17.488,17.488,0,0,0-.908,2.611,40.139,40.139,0,0,1,6.783-.583A38.9,38.9,0,0,1,505.4,161.8a15.694,15.694,0,0,0,.607-2.7,41.3,41.3,0,0,0-26.675-9.726" transform="translate(-430.506 -122.531)" fill="#fff"/>
                <path id="Trazado_621982" data-name="Trazado 621982" d="M473.7,151.2a.816.816,0,0,0-.2-1.609.751.751,0,0,0-.622.894.76.76,0,0,0,.817.716m-.035-.3a.492.492,0,0,0,.363-.562.467.467,0,0,0-.492-.454.472.472,0,0,0-.367.559.486.486,0,0,0,.5.457" transform="translate(-429.691 -122.022)" fill="#3c9242" fill-rule="evenodd"/>
                <path id="Trazado_621983" data-name="Trazado 621983" d="M473.566,151.212l.293-.028-.042-.6.663-.045a.53.53,0,0,0,.471-.548.521.521,0,0,0-.548-.471l-.939.063Zm.23-.929.628-.038a.224.224,0,0,0,.192-.23.2.2,0,0,0-.213-.192l-.632.035Z" transform="translate(-428.224 -122.179)" fill="#3c9242" fill-rule="evenodd"/>
                <path id="Trazado_621984" data-name="Trazado 621984" d="M474.485,150.491c-.014-.234-.042-.74-.4-.723l-.44.028c.5-.028.545.485.569.712" transform="translate(-427.77 -121.555)" fill="#3c9242"/>
                <path id="Trazado_621985" data-name="Trazado 621985" d="M474.106,151.142l.758-.017a.7.7,0,0,0,.695-.712l-.014-.234a.7.7,0,0,0-.709-.684l-.758.017Zm.286-.311.443-.01a.431.431,0,0,0,.429-.447v-.147a.437.437,0,0,0-.436-.426l-.45.011Z" transform="translate(-426.697 -122.237)" fill="#3c9242" fill-rule="evenodd"/>
                <path id="Trazado_621986" data-name="Trazado 621986" d="M474.672,151.125l1.473.051.013-.307-1.18-.041.014-.413.934.024v-.276l-.921-.034v-.321l1.125.038v-.307l-1.391-.048Z" transform="translate(-425.217 -122.242)" fill="#3c9242"/>
                <path id="Trazado_621987" data-name="Trazado 621987" d="M475.268,151.142l.28.024.1-1.111.218,1.138.266.024.416-1.084-.1,1.112.273.027.143-1.626-.4-.034-.429,1.084-.225-1.142-.409-.034Z" transform="translate(-423.733 -122.174)" fill="#3c9242"/>
                <path id="Trazado_621988" data-name="Trazado 621988" d="M476.23,151.124l1.221.2.034-.273-.92-.157.062-.365.763.13.034-.279-.743-.126.034-.256.9.157.034-.276-1.159-.2Z" transform="translate(-421.335 -121.777)" fill="#3c9242"/>
                <path id="Trazado_621989" data-name="Trazado 621989" d="M477.117,151.39l.286.077.164-.583.622.157a.513.513,0,0,0,.632-.363.532.532,0,0,0-.367-.628l-.9-.234Zm.534-.806.6.161a.2.2,0,0,0,.248-.15.21.21,0,0,0-.143-.255l-.607-.157Z" transform="translate(-419.126 -121.435)" fill="#3c9242" fill-rule="evenodd"/>
                <path id="Trazado_621990" data-name="Trazado 621990" d="M477.69,151.52l.29.087.185-.573.607.2a.516.516,0,0,0,.646-.332.5.5,0,0,0-.325-.639l-.9-.283Zm.566-.775.6.192a.214.214,0,0,0,.262-.14.2.2,0,0,0-.136-.258l-.593-.192Z" transform="translate(-417.699 -121.034)" fill="#3c9242" fill-rule="evenodd"/>
                <path id="Trazado_621991" data-name="Trazado 621991" d="M478.435,151.213c.077-.22.227-.705-.1-.81l-.415-.136c.478.154.328.639.251.866" transform="translate(-417.131 -120.312)" fill="#3c9242"/>
                <path id="Trazado_621992" data-name="Trazado 621992" d="M478.777,151.8a.78.78,0,0,0,.97-.506.737.737,0,1,0-1.372-.52.784.784,0,0,0,.4,1.026m.1-.286a.522.522,0,0,0,.37-.96.5.5,0,0,0-.593.332.485.485,0,0,0,.223.628" transform="translate(-416.137 -120.413)" fill="#3c9242" fill-rule="evenodd"/>
                <path id="Trazado_621993" data-name="Trazado 621993" d="M479.294,152a.794.794,0,0,0,1-.454.784.784,0,0,0-.353-1.04.766.766,0,0,0-.991.454.785.785,0,0,0,.342,1.04m.122-.283a.458.458,0,0,0,.594-.3.479.479,0,0,0-.185-.642.471.471,0,0,0-.593.3.465.465,0,0,0,.185.639" transform="translate(-414.737 -119.846)" fill="#3c9242" fill-rule="evenodd"/>
                <path id="Trazado_621994" data-name="Trazado 621994" d="M479.184,150.7l.573.249-.109.211-.552-.252Z" transform="translate(-414.197 -119.242)" fill="#3c9242"/>
                <path id="Trazado_621995" data-name="Trazado 621995" d="M479.447,150.739l.218.1-.334.743-.2-.1Z" transform="translate(-414.105 -119.135)" fill="#3c9242"/>
                <path id="Trazado_621996" data-name="Trazado 621996" d="M479.35,152.085l.265.133.265-.548.579.3a.51.51,0,0,0,.681-.23.5.5,0,0,0-.223-.684l-.824-.415Zm.667-.677.559.279a.207.207,0,0,0,.279-.094.21.21,0,0,0-.087-.279l-.573-.279Z" transform="translate(-413.564 -119.383)" fill="#3c9242" fill-rule="evenodd"/>
                <path id="Trazado_621997" data-name="Trazado 621997" d="M479.972,151.962c.1-.206.328-.663.021-.82l-.4-.206c.471.237.237.695.143.9" transform="translate(-412.961 -118.645)" fill="#3c9242"/>
                <path id="Trazado_621998" data-name="Trazado 621998" d="M479.875,152.337l1.282.719.137-.263-1.023-.583.2-.365.811.46.136-.252-.8-.45.164-.29.961.552.164-.263-1.227-.689Z" transform="translate(-412.256 -118.698)" fill="#3c9242"/>
                <path id="Trazado_621999" data-name="Trazado 621999" d="M480.835,152.217c-.091.133,0,.29.188.415s.328.115.391.035c.175-.286-.848-.695-.534-1.177.269-.419.737-.094.915.017a.532.532,0,0,1,.237.74l-.3-.2c.1-.14,0-.286-.171-.374-.15-.112-.272-.154-.363,0-.157.22.859.642.538,1.135-.21.356-.611.2-.873.031-.238-.143-.566-.485-.353-.824Z" transform="translate(-410.835 -117.782)" fill="#3c9242"/>
                <path id="Trazado_622000" data-name="Trazado 622000" d="M481.337,152.529c-.1.129-.028.29.161.426s.335.143.4.056c.185-.269-.827-.733-.471-1.2.293-.4.751-.056.915.059a.527.527,0,0,1,.189.754l-.279-.206c.091-.14,0-.283-.157-.4s-.251-.154-.353-.014c-.164.216.81.7.482,1.17-.251.346-.646.168-.883-.017-.227-.154-.548-.51-.307-.841Z" transform="translate(-409.592 -116.943)" fill="#3c9242"/>
                <path id="Trazado_622001" data-name="Trazado 622001" d="M481.707,153.43a.818.818,0,0,0,1.016-1.271.764.764,0,0,0-1.075.182.778.778,0,0,0,.059,1.089m.192-.241a.472.472,0,0,0,.663-.133.479.479,0,0,0-.028-.663.461.461,0,0,0-.649.129.455.455,0,0,0,.014.667" transform="translate(-408.321 -115.969)" fill="#3c9242" fill-rule="evenodd"/>
                <path id="Trazado_622002" data-name="Trazado 622002" d="M473.451,150.386l-.225.7.354.116Z" transform="translate(-428.818 -120.016)" fill="#fff"/>
                <path id="Trazado_622003" data-name="Trazado 622003" d="M473.374,150.386l.232.7-.348.116Z" transform="translate(-428.74 -120.016)" fill="#fff"/>
                <path id="Trazado_622004" data-name="Trazado 622004" d="M474.01,150.531h-.729v.358Z" transform="translate(-428.681 -119.653)" fill="#fff"/>
                <path id="Trazado_622005" data-name="Trazado 622005" d="M474.069,150.531l-.58.426-.232-.293Z" transform="translate(-428.74 -119.653)" fill="#fff"/>
                <path id="Trazado_622006" data-name="Trazado 622006" d="M473.092,150.531l.593.426.218-.293Z" transform="translate(-429.153 -119.653)" fill="#fff"/>
                <path id="Trazado_622007" data-name="Trazado 622007" d="M473.092,150.531h.736v.358Z" transform="translate(-429.153 -119.653)" fill="#fff"/>
                <path id="Trazado_622008" data-name="Trazado 622008" d="M473.818,151.261l-.225-.7-.341.116Z" transform="translate(-428.754 -119.568)" fill="#fff"/>
                <path id="Trazado_622009" data-name="Trazado 622009" d="M473.837,151.285l-.593-.433.218-.3Z" transform="translate(-428.774 -119.593)" fill="#fff"/>
                <path id="Trazado_622010" data-name="Trazado 622010" d="M473.168,151.285l.593-.433-.211-.3Z" transform="translate(-428.964 -119.593)" fill="#fff"/>
                <path id="Trazado_622011" data-name="Trazado 622011" d="M473.168,151.261l.232-.7.354.116Z" transform="translate(-428.964 -119.568)" fill="#fff"/>
                <path id="Trazado_622012" data-name="Trazado 622012" d="M473.892,152.443l-.232.692.354.112Z" transform="translate(-427.737 -114.89)" fill="#fff"/>
                <path id="Trazado_622013" data-name="Trazado 622013" d="M473.814,152.443l.218.692-.341.112Z" transform="translate(-427.66 -114.89)" fill="#fff"/>
                <path id="Trazado_622014" data-name="Trazado 622014" d="M474.438,152.588h-.723v.368Z" transform="translate(-427.601 -114.53)" fill="#fff"/>
                <path id="Trazado_622015" data-name="Trazado 622015" d="M474.491,152.588l-.58.433-.218-.3Z" transform="translate(-427.655 -114.53)" fill="#fff"/>
                <path id="Trazado_622016" data-name="Trazado 622016" d="M473.527,152.588l.58.433.232-.3Z" transform="translate(-428.068 -114.53)" fill="#fff"/>
                <path id="Trazado_622017" data-name="Trazado 622017" d="M473.527,152.588h.737v.368Z" transform="translate(-428.068 -114.53)" fill="#fff"/>
                <path id="Trazado_622018" data-name="Trazado 622018" d="M474.263,153.319l-.225-.7-.355.113Z" transform="translate(-427.679 -114.44)" fill="#fff"/>
                <path id="Trazado_622019" data-name="Trazado 622019" d="M474.273,153.341l-.593-.436.211-.29Z" transform="translate(-427.689 -114.462)" fill="#fff"/>
                <path id="Trazado_622020" data-name="Trazado 622020" d="M473.6,153.341l.607-.436-.225-.29Z" transform="translate(-427.888 -114.462)" fill="#fff"/>
                <path id="Trazado_622021" data-name="Trazado 622021" d="M473.6,153.319l.225-.7.354.113Z" transform="translate(-427.888 -114.44)" fill="#fff"/>
                <path id="Trazado_622022" data-name="Trazado 622022" d="M473.222,152.951l-.136.47.225.075Z" transform="translate(-429.168 -113.625)" fill="#fff"/>
                <path id="Trazado_622023" data-name="Trazado 622023" d="M473.178,152.951l.15.47-.225.075Z" transform="translate(-429.124 -113.625)" fill="#fff"/>
                <path id="Trazado_622024" data-name="Trazado 622024" d="M473.608,153.049h-.491v.245Z" transform="translate(-429.09 -113.382)" fill="#fff"/>
                <path id="Trazado_622025" data-name="Trazado 622025" d="M473.637,153.049l-.389.29-.143-.2Z" transform="translate(-429.119 -113.382)" fill="#fff"/>
                <path id="Trazado_622026" data-name="Trazado 622026" d="M472.994,153.049l.389.29.143-.2Z" transform="translate(-429.397 -113.382)" fill="#fff"/>
                <path id="Trazado_622027" data-name="Trazado 622027" d="M472.994,153.049h.484v.245Z" transform="translate(-429.397 -113.382)" fill="#fff"/>
                <path id="Trazado_622028" data-name="Trazado 622028" d="M473.474,153.536l-.15-.464-.225.078Z" transform="translate(-429.134 -113.324)" fill="#fff"/>
                <path id="Trazado_622029" data-name="Trazado 622029" d="M473.484,153.553l-.389-.287.143-.2Z" transform="translate(-429.144 -113.341)" fill="#fff"/>
                <path id="Trazado_622030" data-name="Trazado 622030" d="M473.045,153.553l.389-.287-.137-.2Z" transform="translate(-429.27 -113.341)" fill="#fff"/>
                <path id="Trazado_622031" data-name="Trazado 622031" d="M473.045,153.536l.143-.464.225.078Z" transform="translate(-429.27 -113.324)" fill="#fff"/>
                <path id="Trazado_622032" data-name="Trazado 622032" d="M474.288,152.253l-.116.327.164.061Z" transform="translate(-426.463 -115.365)" fill="#fff"/>
                <path id="Trazado_622033" data-name="Trazado 622033" d="M474.249,152.253l.1.327-.164.061Z" transform="translate(-426.424 -115.365)" fill="#fff"/>
                <path id="Trazado_622034" data-name="Trazado 622034" d="M474.542,152.323H474.2v.171Z" transform="translate(-426.39 -115.19)" fill="#fff"/>
                <path id="Trazado_622035" data-name="Trazado 622035" d="M474.566,152.323l-.279.2-.1-.143Z" transform="translate(-426.414 -115.19)" fill="#fff"/>
                <path id="Trazado_622036" data-name="Trazado 622036" d="M474.107,152.323l.293.2.1-.143Z" transform="translate(-426.623 -115.19)" fill="#fff"/>
                <path id="Trazado_622037" data-name="Trazado 622037" d="M474.107,152.323h.355v.171Z" transform="translate(-426.623 -115.19)" fill="#fff"/>
                <path id="Trazado_622038" data-name="Trazado 622038" d="M474.453,152.675l-.116-.338-.15.058Z" transform="translate(-426.424 -115.153)" fill="#fff"/>
                <path id="Trazado_622039" data-name="Trazado 622039" d="M474.463,152.685l-.28-.208.1-.143Z" transform="translate(-426.434 -115.163)" fill="#fff"/>
                <path id="Trazado_622040" data-name="Trazado 622040" d="M474.146,152.685l.28-.208-.1-.143Z" transform="translate(-426.526 -115.163)" fill="#fff"/>
                <path id="Trazado_622041" data-name="Trazado 622041" d="M474.146,152.675l.1-.338.164.058Z" transform="translate(-426.526 -115.153)" fill="#fff"/>
                <path id="Trazado_622042" data-name="Trazado 622042" d="M474.882,152.964l-.191.583.273.1Z" transform="translate(-425.169 -113.594)" fill="#fff"/>
                <path id="Trazado_622043" data-name="Trazado 622043" d="M474.819,152.964l.177.583-.28.1Z" transform="translate(-425.105 -113.594)" fill="#fff"/>
                <path id="Trazado_622044" data-name="Trazado 622044" d="M475.341,153.086h-.607v.3Z" transform="translate(-425.061 -113.29)" fill="#fff"/>
                <path id="Trazado_622045" data-name="Trazado 622045" d="M475.385,153.086l-.491.358-.177-.252Z" transform="translate(-425.105 -113.29)" fill="#fff"/>
                <path id="Trazado_622046" data-name="Trazado 622046" d="M474.578,153.086l.491.358.177-.252Z" transform="translate(-425.451 -113.29)" fill="#fff"/>
                <path id="Trazado_622047" data-name="Trazado 622047" d="M474.578,153.086h.607v.3Z" transform="translate(-425.451 -113.29)" fill="#fff"/>
                <path id="Trazado_622048" data-name="Trazado 622048" d="M475.193,153.687l-.191-.573-.293.1Z" transform="translate(-425.125 -113.219)" fill="#fff"/>
                <path id="Trazado_622049" data-name="Trazado 622049" d="M475.2,153.7l-.5-.354.177-.242Z" transform="translate(-425.134 -113.236)" fill="#fff"/>
                <path id="Trazado_622050" data-name="Trazado 622050" d="M474.644,153.7l.478-.354-.177-.242Z" transform="translate(-425.285 -113.236)" fill="#fff"/>
                <path id="Trazado_622051" data-name="Trazado 622051" d="M474.644,153.687l.177-.573.286.1Z" transform="translate(-425.285 -113.219)" fill="#fff"/>
                <path id="Trazado_622052" data-name="Trazado 622052" d="M474.734,153.45l-.191.583.286.1Z" transform="translate(-425.538 -112.382)" fill="#fff"/>
                <path id="Trazado_622053" data-name="Trazado 622053" d="M474.671,153.45l.184.583-.286.1Z" transform="translate(-425.475 -112.382)" fill="#fff"/>
                <path id="Trazado_622054" data-name="Trazado 622054" d="M475.2,153.572h-.607v.3Z" transform="translate(-425.422 -112.078)" fill="#fff"/>
                <path id="Trazado_622055" data-name="Trazado 622055" d="M475.245,153.572l-.5.358-.177-.249Z" transform="translate(-425.47 -112.078)" fill="#fff"/>
                <path id="Trazado_622056" data-name="Trazado 622056" d="M474.434,153.572l.491.358.177-.249Z" transform="translate(-425.811 -112.078)" fill="#fff"/>
                <path id="Trazado_622057" data-name="Trazado 622057" d="M474.434,153.572h.607v.3Z" transform="translate(-425.811 -112.078)" fill="#fff"/>
                <path id="Trazado_622058" data-name="Trazado 622058" d="M475.035,154.183l-.177-.583-.293.1Z" transform="translate(-425.485 -112.01)" fill="#fff"/>
                <path id="Trazado_622059" data-name="Trazado 622059" d="M475.054,154.2l-.5-.365.191-.238Z" transform="translate(-425.504 -112.024)" fill="#fff"/>
                <path id="Trazado_622060" data-name="Trazado 622060" d="M474.5,154.2l.491-.365-.177-.238Z" transform="translate(-425.655 -112.024)" fill="#fff"/>
                <path id="Trazado_622061" data-name="Trazado 622061" d="M474.5,154.183l.184-.583.293.1Z" transform="translate(-425.655 -112.01)" fill="#fff"/>
                <path id="Trazado_622062" data-name="Trazado 622062" d="M478.965,149.746l-.225.7.355.109Z" transform="translate(-415.083 -121.609)" fill="#fff"/>
                <path id="Trazado_622063" data-name="Trazado 622063" d="M478.892,149.746l.232.7-.355.109Z" transform="translate(-415.01 -121.609)" fill="#fff"/>
                <path id="Trazado_622064" data-name="Trazado 622064" d="M479.525,149.891h-.73v.372Z" transform="translate(-414.947 -121.249)" fill="#fff"/>
                <path id="Trazado_622065" data-name="Trazado 622065" d="M479.578,149.891l-.593.433-.212-.3Z" transform="translate(-415 -121.249)" fill="#fff"/>
                <path id="Trazado_622066" data-name="Trazado 622066" d="M478.605,149.891l.6.433.211-.3Z" transform="translate(-415.418 -121.249)" fill="#fff"/>
                <path id="Trazado_622067" data-name="Trazado 622067" d="M478.605,149.891h.736v.372Z" transform="translate(-415.418 -121.249)" fill="#fff"/>
                <path id="Trazado_622068" data-name="Trazado 622068" d="M479.338,150.626l-.232-.7-.341.116Z" transform="translate(-415.02 -121.159)" fill="#fff"/>
                <path id="Trazado_622069" data-name="Trazado 622069" d="M479.358,150.65l-.6-.433.218-.3Z" transform="translate(-415.039 -121.184)" fill="#fff"/>
                <path id="Trazado_622070" data-name="Trazado 622070" d="M478.682,150.65l.593-.433-.212-.3Z" transform="translate(-415.229 -121.184)" fill="#fff"/>
                <path id="Trazado_622071" data-name="Trazado 622071" d="M478.682,150.626l.232-.7.355.116Z" transform="translate(-415.229 -121.159)" fill="#fff"/>
                <path id="Trazado_622072" data-name="Trazado 622072" d="M480.875,152.983l-.225.7.355.116Z" transform="translate(-410.324 -113.545)" fill="#fff"/>
                <path id="Trazado_622073" data-name="Trazado 622073" d="M480.792,152.983l.232.7-.341.116Z" transform="translate(-410.242 -113.545)" fill="#fff"/>
                <path id="Trazado_622074" data-name="Trazado 622074" d="M481.441,153.128H480.7v.361Z" transform="translate(-410.188 -113.185)" fill="#fff"/>
                <path id="Trazado_622075" data-name="Trazado 622075" d="M481.495,153.128l-.586.43-.225-.3Z" transform="translate(-410.242 -113.185)" fill="#fff"/>
                <path id="Trazado_622076" data-name="Trazado 622076" d="M480.516,153.128l.6.43.211-.3Z" transform="translate(-410.66 -113.185)" fill="#fff"/>
                <path id="Trazado_622077" data-name="Trazado 622077" d="M480.516,153.128h.737v.361Z" transform="translate(-410.66 -113.185)" fill="#fff"/>
                <path id="Trazado_622078" data-name="Trazado 622078" d="M481.262,153.859l-.232-.7-.354.109Z" transform="translate(-410.261 -113.097)" fill="#fff"/>
                <path id="Trazado_622079" data-name="Trazado 622079" d="M481.272,153.883l-.6-.429.218-.3Z" transform="translate(-410.271 -113.122)" fill="#fff"/>
                <path id="Trazado_622080" data-name="Trazado 622080" d="M480.594,153.883l.593-.429-.218-.3Z" transform="translate(-410.465 -113.122)" fill="#fff"/>
                <path id="Trazado_622081" data-name="Trazado 622081" d="M480.594,153.859l.225-.7.355.109Z" transform="translate(-410.465 -113.097)" fill="#fff"/>
                <path id="Trazado_622082" data-name="Trazado 622082" d="M481.515,153.1l-.163.46.245.075Z" transform="translate(-408.578 -113.256)" fill="#fff"/>
                <path id="Trazado_622083" data-name="Trazado 622083" d="M481.466,153.1l.15.46-.245.075Z" transform="translate(-408.529 -113.256)" fill="#fff"/>
                <path id="Trazado_622084" data-name="Trazado 622084" d="M481.868,153.2h-.477v.238Z" transform="translate(-408.48 -113.015)" fill="#fff"/>
                <path id="Trazado_622085" data-name="Trazado 622085" d="M481.907,153.2l-.389.286-.143-.2Z" transform="translate(-408.519 -113.015)" fill="#fff"/>
                <path id="Trazado_622086" data-name="Trazado 622086" d="M481.264,153.2l.389.286.157-.2Z" transform="translate(-408.797 -113.015)" fill="#fff"/>
                <path id="Trazado_622087" data-name="Trazado 622087" d="M481.264,153.2h.491v.238Z" transform="translate(-408.797 -113.015)" fill="#fff"/>
                <path id="Trazado_622088" data-name="Trazado 622088" d="M481.744,153.685l-.136-.467-.239.082Z" transform="translate(-408.534 -112.961)" fill="#fff"/>
                <path id="Trazado_622089" data-name="Trazado 622089" d="M481.754,153.7l-.389-.287.15-.2Z" transform="translate(-408.544 -112.976)" fill="#fff"/>
                <path id="Trazado_622090" data-name="Trazado 622090" d="M481.314,153.7l.389-.287-.137-.2Z" transform="translate(-408.67 -112.976)" fill="#fff"/>
                <path id="Trazado_622091" data-name="Trazado 622091" d="M481.314,153.685l.15-.467.225.082Z" transform="translate(-408.67 -112.961)" fill="#fff"/>
                <path id="Trazado_622092" data-name="Trazado 622092" d="M481.042,153.45l-.177.583.28.1Z" transform="translate(-409.789 -112.382)" fill="#fff"/>
                <path id="Trazado_622093" data-name="Trazado 622093" d="M480.979,153.45l.184.583-.273.1Z" transform="translate(-409.726 -112.382)" fill="#fff"/>
                <path id="Trazado_622094" data-name="Trazado 622094" d="M481.515,153.572h-.607v.3Z" transform="translate(-409.682 -112.078)" fill="#fff"/>
                <path id="Trazado_622095" data-name="Trazado 622095" d="M481.559,153.572l-.477.358-.191-.249Z" transform="translate(-409.726 -112.078)" fill="#fff"/>
                <path id="Trazado_622096" data-name="Trazado 622096" d="M480.752,153.572l.5.358.177-.249Z" transform="translate(-410.071 -112.078)" fill="#fff"/>
                <path id="Trazado_622097" data-name="Trazado 622097" d="M480.752,153.572h.607v.3Z" transform="translate(-410.071 -112.078)" fill="#fff"/>
                <path id="Trazado_622098" data-name="Trazado 622098" d="M481.36,154.183l-.184-.583-.293.1Z" transform="translate(-409.745 -112.01)" fill="#fff"/>
                <path id="Trazado_622099" data-name="Trazado 622099" d="M481.37,154.2l-.491-.365.177-.238Z" transform="translate(-409.755 -112.024)" fill="#fff"/>
                <path id="Trazado_622100" data-name="Trazado 622100" d="M480.814,154.2l.491-.365-.177-.238Z" transform="translate(-409.916 -112.024)" fill="#fff"/>
                <path id="Trazado_622101" data-name="Trazado 622101" d="M480.814,154.183,481,153.6l.293.1Z" transform="translate(-409.916 -112.01)" fill="#fff"/>
                <path id="Trazado_622102" data-name="Trazado 622102" d="M479.875,154.476l-.191.576.286.1Z" transform="translate(-412.733 -109.828)" fill="#fff"/>
                <path id="Trazado_622103" data-name="Trazado 622103" d="M479.816,154.476l.184.576-.293.1Z" transform="translate(-412.674 -109.828)" fill="#fff"/>
                <path id="Trazado_622104" data-name="Trazado 622104" d="M480.337,154.6h-.607v.307Z" transform="translate(-412.616 -109.524)" fill="#fff"/>
                <path id="Trazado_622105" data-name="Trazado 622105" d="M480.386,154.6l-.5.354-.177-.249Z" transform="translate(-412.665 -109.524)" fill="#fff"/>
                <path id="Trazado_622106" data-name="Trazado 622106" d="M479.574,154.6l.491.354.164-.249Z" transform="translate(-413.005 -109.524)" fill="#fff"/>
                <path id="Trazado_622107" data-name="Trazado 622107" d="M479.574,154.6h.607v.307Z" transform="translate(-413.005 -109.524)" fill="#fff"/>
                <path id="Trazado_622108" data-name="Trazado 622108" d="M480.178,155.205l-.17-.579-.307.092Z" transform="translate(-412.689 -109.453)" fill="#fff"/>
                <path id="Trazado_622109" data-name="Trazado 622109" d="M480.188,155.223l-.491-.361.177-.242Z" transform="translate(-412.699 -109.47)" fill="#fff"/>
                <path id="Trazado_622110" data-name="Trazado 622110" d="M479.637,155.223l.491-.361-.177-.242Z" transform="translate(-412.85 -109.47)" fill="#fff"/>
                <path id="Trazado_622111" data-name="Trazado 622111" d="M479.637,155.205l.184-.579.293.092Z" transform="translate(-412.85 -109.453)" fill="#fff"/>
                <path id="Trazado_622112" data-name="Trazado 622112" d="M479.833,155l-.143.457.232.079Z" transform="translate(-412.718 -108.509)" fill="#fff"/>
                <path id="Trazado_622113" data-name="Trazado 622113" d="M479.789,155l.15.457-.232.079Z" transform="translate(-412.674 -108.509)" fill="#fff"/>
                <path id="Trazado_622114" data-name="Trazado 622114" d="M480.2,155.1h-.477v.242Z" transform="translate(-412.626 -108.268)" fill="#fff"/>
                <path id="Trazado_622115" data-name="Trazado 622115" d="M480.253,155.1l-.4.279-.143-.194Z" transform="translate(-412.674 -108.268)" fill="#fff"/>
                <path id="Trazado_622116" data-name="Trazado 622116" d="M479.6,155.1l.389.279.144-.194Z" transform="translate(-412.942 -108.268)" fill="#fff"/>
                <path id="Trazado_622117" data-name="Trazado 622117" d="M479.6,155.1h.484v.242Z" transform="translate(-412.942 -108.268)" fill="#fff"/>
                <path id="Trazado_622118" data-name="Trazado 622118" d="M480.09,155.578l-.15-.453-.238.068Z" transform="translate(-412.689 -108.21)" fill="#fff"/>
                <path id="Trazado_622119" data-name="Trazado 622119" d="M480.1,155.6l-.4-.28.15-.2Z" transform="translate(-412.699 -108.227)" fill="#fff"/>
                <path id="Trazado_622120" data-name="Trazado 622120" d="M479.65,155.6l.389-.28-.15-.2Z" transform="translate(-412.815 -108.227)" fill="#fff"/>
                <path id="Trazado_622121" data-name="Trazado 622121" d="M479.65,155.578l.15-.453.225.068Z" transform="translate(-412.815 -108.21)" fill="#fff"/>
                <path id="Trazado_622122" data-name="Trazado 622122" d="M480.343,154.124l-.164.467.225.075Z" transform="translate(-411.497 -110.704)" fill="#fff"/>
                <path id="Trazado_622123" data-name="Trazado 622123" d="M480.29,154.124l.136.467-.225.075Z" transform="translate(-411.443 -110.704)" fill="#fff"/>
                <path id="Trazado_622124" data-name="Trazado 622124" d="M480.713,154.221h-.5v.245Z" transform="translate(-411.409 -110.463)" fill="#fff"/>
                <path id="Trazado_622125" data-name="Trazado 622125" d="M480.746,154.221l-.4.293-.15-.194Z" transform="translate(-411.443 -110.463)" fill="#fff"/>
                <path id="Trazado_622126" data-name="Trazado 622126" d="M480.092,154.221l.4.293.136-.194Z" transform="translate(-411.716 -110.463)" fill="#fff"/>
                <path id="Trazado_622127" data-name="Trazado 622127" d="M480.092,154.221h.5v.245Z" transform="translate(-411.716 -110.463)" fill="#fff"/>
                <path id="Trazado_622128" data-name="Trazado 622128" d="M480.579,154.706l-.157-.46-.225.075Z" transform="translate(-411.453 -110.402)" fill="#fff"/>
                <path id="Trazado_622129" data-name="Trazado 622129" d="M480.589,154.72l-.4-.283.157-.2Z" transform="translate(-411.463 -110.416)" fill="#fff"/>
                <path id="Trazado_622130" data-name="Trazado 622130" d="M480.143,154.72l.4-.283-.143-.2Z" transform="translate(-411.589 -110.416)" fill="#fff"/>
                <path id="Trazado_622131" data-name="Trazado 622131" d="M480.143,154.706l.157-.46.225.075Z" transform="translate(-411.589 -110.402)" fill="#fff"/>
                <path id="Trazado_622132" data-name="Trazado 622132" d="M480.748,153.844l-.184.576.279.1Z" transform="translate(-410.538 -111.402)" fill="#fff"/>
                <path id="Trazado_622133" data-name="Trazado 622133" d="M480.7,153.844l.191.576-.3.1Z" transform="translate(-410.485 -111.402)" fill="#fff"/>
                <path id="Trazado_622134" data-name="Trazado 622134" d="M481.214,153.965h-.607v.3Z" transform="translate(-410.431 -111.1)" fill="#fff"/>
                <path id="Trazado_622135" data-name="Trazado 622135" d="M481.248,153.965l-.478.358-.177-.252Z" transform="translate(-410.465 -111.1)" fill="#fff"/>
                <path id="Trazado_622136" data-name="Trazado 622136" d="M480.451,153.965l.5.358.177-.252Z" transform="translate(-410.82 -111.1)" fill="#fff"/>
                <path id="Trazado_622137" data-name="Trazado 622137" d="M480.451,153.965h.607v.3Z" transform="translate(-410.82 -111.1)" fill="#fff"/>
                <path id="Trazado_622138" data-name="Trazado 622138" d="M481.06,154.563l-.177-.569-.3.092Z" transform="translate(-410.495 -111.027)" fill="#fff"/>
                <path id="Trazado_622139" data-name="Trazado 622139" d="M481.069,154.585l-.491-.354.177-.245Z" transform="translate(-410.504 -111.049)" fill="#fff"/>
                <path id="Trazado_622140" data-name="Trazado 622140" d="M480.514,154.585l.5-.354-.191-.245Z" transform="translate(-410.665 -111.049)" fill="#fff"/>
                <path id="Trazado_622141" data-name="Trazado 622141" d="M480.514,154.563l.2-.569.28.092Z" transform="translate(-410.665 -111.027)" fill="#fff"/>
                <path id="Trazado_622142" data-name="Trazado 622142" d="M479.812,154.031l-.136.464.225.078Z" transform="translate(-412.752 -110.935)" fill="#fff"/>
                <path id="Trazado_622143" data-name="Trazado 622143" d="M479.768,154.031l.164.464-.238.078Z" transform="translate(-412.708 -110.935)" fill="#fff"/>
                <path id="Trazado_622144" data-name="Trazado 622144" d="M480.209,154.129h-.5v.242Z" transform="translate(-412.665 -110.691)" fill="#fff"/>
                <path id="Trazado_622145" data-name="Trazado 622145" d="M480.242,154.129l-.4.283-.143-.2Z" transform="translate(-412.699 -110.691)" fill="#fff"/>
                <path id="Trazado_622146" data-name="Trazado 622146" d="M479.586,154.129l.389.283.143-.2Z" transform="translate(-412.976 -110.691)" fill="#fff"/>
                <path id="Trazado_622147" data-name="Trazado 622147" d="M479.586,154.129h.491v.242Z" transform="translate(-412.976 -110.691)" fill="#fff"/>
                <path id="Trazado_622148" data-name="Trazado 622148" d="M480.085,154.622l-.157-.47-.238.072Z" transform="translate(-412.718 -110.635)" fill="#fff"/>
                <path id="Trazado_622149" data-name="Trazado 622149" d="M480.09,154.631l-.4-.3.136-.187Z" transform="translate(-412.723 -110.645)" fill="#fff"/>
                <path id="Trazado_622150" data-name="Trazado 622150" d="M479.637,154.631l.389-.3-.143-.187Z" transform="translate(-412.85 -110.645)" fill="#fff"/>
                <path id="Trazado_622151" data-name="Trazado 622151" d="M479.637,154.622l.15-.47.238.072Z" transform="translate(-412.85 -110.635)" fill="#fff"/>
                <path id="Trazado_622152" data-name="Trazado 622152" d="M475.56,151.5l-.191.576.293.092Z" transform="translate(-423.48 -117.24)" fill="#fff"/>
                <path id="Trazado_622153" data-name="Trazado 622153" d="M475.5,151.5l.184.576-.287.092Z" transform="translate(-423.417 -117.24)" fill="#fff"/>
                <path id="Trazado_622154" data-name="Trazado 622154" d="M476.023,151.62h-.607v.3Z" transform="translate(-423.364 -116.941)" fill="#fff"/>
                <path id="Trazado_622155" data-name="Trazado 622155" d="M476.067,151.62l-.491.365-.177-.252Z" transform="translate(-423.407 -116.941)" fill="#fff"/>
                <path id="Trazado_622156" data-name="Trazado 622156" d="M475.256,151.62l.5.365.177-.252Z" transform="translate(-423.763 -116.941)" fill="#fff"/>
                <path id="Trazado_622157" data-name="Trazado 622157" d="M475.256,151.62h.607v.3Z" transform="translate(-423.763 -116.941)" fill="#fff"/>
                <path id="Trazado_622158" data-name="Trazado 622158" d="M475.861,152.226l-.177-.576-.293.092Z" transform="translate(-423.427 -116.866)" fill="#fff"/>
                <path id="Trazado_622159" data-name="Trazado 622159" d="M475.881,152.248l-.5-.358.177-.249Z" transform="translate(-423.446 -116.888)" fill="#fff"/>
                <path id="Trazado_622160" data-name="Trazado 622160" d="M475.318,152.248l.5-.358-.177-.249Z" transform="translate(-423.607 -116.888)" fill="#fff"/>
                <path id="Trazado_622161" data-name="Trazado 622161" d="M475.318,152.226l.2-.576.28.092Z" transform="translate(-423.607 -116.866)" fill="#fff"/>
                <path id="Trazado_622162" data-name="Trazado 622162" d="M478.715,151.087l-.137.467.225.072Z" transform="translate(-415.487 -118.269)" fill="#fff"/>
                <path id="Trazado_622163" data-name="Trazado 622163" d="M478.671,151.087l.164.467-.239.072Z" transform="translate(-415.443 -118.269)" fill="#fff"/>
                <path id="Trazado_622164" data-name="Trazado 622164" d="M479.1,151.185h-.491v.239Z" transform="translate(-415.399 -118.024)" fill="#fff"/>
                <path id="Trazado_622165" data-name="Trazado 622165" d="M479.138,151.185l-.4.287-.136-.2Z" transform="translate(-415.433 -118.024)" fill="#fff"/>
                <path id="Trazado_622166" data-name="Trazado 622166" d="M478.486,151.185l.4.287.137-.2Z" transform="translate(-415.715 -118.024)" fill="#fff"/>
                <path id="Trazado_622167" data-name="Trazado 622167" d="M478.486,151.185h.5v.239Z" transform="translate(-415.715 -118.024)" fill="#fff"/>
                <path id="Trazado_622168" data-name="Trazado 622168" d="M478.98,151.675l-.163-.467-.225.079Z" transform="translate(-415.452 -117.968)" fill="#fff"/>
                <path id="Trazado_622169" data-name="Trazado 622169" d="M478.99,151.692l-.4-.293.143-.2Z" transform="translate(-415.462 -117.985)" fill="#fff"/>
                <path id="Trazado_622170" data-name="Trazado 622170" d="M478.537,151.692l.4-.293-.143-.2Z" transform="translate(-415.589 -117.985)" fill="#fff"/>
                <path id="Trazado_622171" data-name="Trazado 622171" d="M478.537,151.675l.15-.467.232.079Z" transform="translate(-415.589 -117.968)" fill="#fff"/>
                <path id="Trazado_622172" data-name="Trazado 622172" d="M477.452,153.462l-.232.7.355.116Z" transform="translate(-418.868 -112.353)" fill="#fff"/>
                <path id="Trazado_622173" data-name="Trazado 622173" d="M477.37,153.462l.225.7-.341.116Z" transform="translate(-418.785 -112.353)" fill="#fff"/>
                <path id="Trazado_622174" data-name="Trazado 622174" d="M478,153.606h-.723v.368Z" transform="translate(-418.722 -111.993)" fill="#fff"/>
                <path id="Trazado_622175" data-name="Trazado 622175" d="M478.055,153.606l-.586.436-.211-.3Z" transform="translate(-418.776 -111.993)" fill="#fff"/>
                <path id="Trazado_622176" data-name="Trazado 622176" d="M477.088,153.606l.607.436.2-.3Z" transform="translate(-419.199 -111.993)" fill="#fff"/>
                <path id="Trazado_622177" data-name="Trazado 622177" d="M477.088,153.606h.73v.368Z" transform="translate(-419.199 -111.993)" fill="#fff"/>
                <path id="Trazado_622178" data-name="Trazado 622178" d="M477.819,154.335l-.218-.692-.355.109Z" transform="translate(-418.805 -111.9)" fill="#fff"/>
                <path id="Trazado_622179" data-name="Trazado 622179" d="M477.829,154.36l-.586-.433.2-.293Z" transform="translate(-418.815 -111.925)" fill="#fff"/>
                <path id="Trazado_622180" data-name="Trazado 622180" d="M477.164,154.36l.593-.433-.218-.293Z" transform="translate(-419.009 -111.925)" fill="#fff"/>
                <path id="Trazado_622181" data-name="Trazado 622181" d="M477.164,154.335l.225-.692.355.109Z" transform="translate(-419.009 -111.9)" fill="#fff"/>
                <path id="Trazado_622182" data-name="Trazado 622182" d="M477.992,152.525l-.191.58.293.089Z" transform="translate(-417.423 -114.686)" fill="#fff"/>
                <path id="Trazado_622183" data-name="Trazado 622183" d="M477.928,152.525l.191.58-.293.089Z" transform="translate(-417.36 -114.686)" fill="#fff"/>
                <path id="Trazado_622184" data-name="Trazado 622184" d="M478.457,152.646h-.613v.3Z" transform="translate(-417.316 -114.384)" fill="#fff"/>
                <path id="Trazado_622185" data-name="Trazado 622185" d="M478.5,152.646,478,153l-.177-.245Z" transform="translate(-417.36 -114.384)" fill="#fff"/>
                <path id="Trazado_622186" data-name="Trazado 622186" d="M477.689,152.646l.491.354.177-.245Z" transform="translate(-417.7 -114.384)" fill="#fff"/>
                <path id="Trazado_622187" data-name="Trazado 622187" d="M477.689,152.646h.607v.3Z" transform="translate(-417.7 -114.384)" fill="#fff"/>
                <path id="Trazado_622188" data-name="Trazado 622188" d="M478.3,153.257l-.191-.583-.286.1Z" transform="translate(-417.374 -114.316)" fill="#fff"/>
                <path id="Trazado_622189" data-name="Trazado 622189" d="M478.307,153.276l-.491-.361.177-.249Z" transform="translate(-417.384 -114.336)" fill="#fff"/>
                <path id="Trazado_622190" data-name="Trazado 622190" d="M477.75,153.276l.5-.361-.177-.249Z" transform="translate(-417.549 -114.336)" fill="#fff"/>
                <path id="Trazado_622191" data-name="Trazado 622191" d="M477.75,153.257l.191-.583.293.1Z" transform="translate(-417.549 -114.316)" fill="#fff"/>
                <path id="Trazado_622192" data-name="Trazado 622192" d="M477.423,152.087l-.191.573.293.1Z" transform="translate(-418.839 -115.778)" fill="#fff"/>
                <path id="Trazado_622193" data-name="Trazado 622193" d="M477.35,152.087l.184.573-.273.1Z" transform="translate(-418.766 -115.778)" fill="#fff"/>
                <path id="Trazado_622194" data-name="Trazado 622194" d="M477.886,152.206h-.607v.307Z" transform="translate(-418.722 -115.481)" fill="#fff"/>
                <path id="Trazado_622195" data-name="Trazado 622195" d="M477.93,152.206l-.491.354-.177-.242Z" transform="translate(-418.766 -115.481)" fill="#fff"/>
                <path id="Trazado_622196" data-name="Trazado 622196" d="M477.123,152.206l.5.354.164-.242Z" transform="translate(-419.111 -115.481)" fill="#fff"/>
                <path id="Trazado_622197" data-name="Trazado 622197" d="M477.123,152.206h.607v.307Z" transform="translate(-419.111 -115.481)" fill="#fff"/>
                <path id="Trazado_622198" data-name="Trazado 622198" d="M477.731,152.815l-.184-.58-.293.088Z" transform="translate(-418.785 -115.408)" fill="#fff"/>
                <path id="Trazado_622199" data-name="Trazado 622199" d="M477.741,152.835l-.491-.358.177-.249Z" transform="translate(-418.795 -115.428)" fill="#fff"/>
                <path id="Trazado_622200" data-name="Trazado 622200" d="M477.185,152.835l.491-.358-.177-.249Z" transform="translate(-418.956 -115.428)" fill="#fff"/>
                <path id="Trazado_622201" data-name="Trazado 622201" d="M477.185,152.815l.184-.58.293.088Z" transform="translate(-418.956 -115.408)" fill="#fff"/>
                <path id="Trazado_622202" data-name="Trazado 622202" d="M476.9,152.56l-.15.467.239.075Z" transform="translate(-420.04 -114.601)" fill="#fff"/>
                <path id="Trazado_622203" data-name="Trazado 622203" d="M476.846,152.56l.163.467-.238.075Z" transform="translate(-419.987 -114.601)" fill="#fff"/>
                <path id="Trazado_622204" data-name="Trazado 622204" d="M477.273,152.656h-.484v.238Z" transform="translate(-419.943 -114.36)" fill="#fff"/>
                <path id="Trazado_622205" data-name="Trazado 622205" d="M477.317,152.656l-.4.286-.15-.2Z" transform="translate(-419.987 -114.36)" fill="#fff"/>
                <path id="Trazado_622206" data-name="Trazado 622206" d="M476.664,152.656l.389.286.137-.2Z" transform="translate(-420.254 -114.36)" fill="#fff"/>
                <path id="Trazado_622207" data-name="Trazado 622207" d="M476.664,152.656h.477v.238Z" transform="translate(-420.254 -114.36)" fill="#fff"/>
                <path id="Trazado_622208" data-name="Trazado 622208" d="M477.149,153.143l-.144-.464-.238.075Z" transform="translate(-419.997 -114.302)" fill="#fff"/>
                <path id="Trazado_622209" data-name="Trazado 622209" d="M477.154,153.158l-.389-.286.15-.2Z" transform="translate(-420.002 -114.316)" fill="#fff"/>
                <path id="Trazado_622210" data-name="Trazado 622210" d="M476.715,153.158l.389-.286-.143-.2Z" transform="translate(-420.128 -114.316)" fill="#fff"/>
                <path id="Trazado_622211" data-name="Trazado 622211" d="M476.715,153.143l.15-.464.225.075Z" transform="translate(-420.128 -114.302)" fill="#fff"/>
                <path id="Trazado_622212" data-name="Trazado 622212" d="M477.121,152.939l-.109.331.164.051Z" transform="translate(-419.389 -113.654)" fill="#fff"/>
                <path id="Trazado_622213" data-name="Trazado 622213" d="M477.087,152.939l.1.331-.164.051Z" transform="translate(-419.354 -113.654)" fill="#fff"/>
                <path id="Trazado_622214" data-name="Trazado 622214" d="M477.385,153.008h-.348v.174Z" transform="translate(-419.325 -113.484)" fill="#fff"/>
                <path id="Trazado_622215" data-name="Trazado 622215" d="M477.4,153.008l-.273.208-.1-.143Z" transform="translate(-419.345 -113.484)" fill="#fff"/>
                <path id="Trazado_622216" data-name="Trazado 622216" d="M476.945,153.008l.293.208.1-.143Z" transform="translate(-419.554 -113.484)" fill="#fff"/>
                <path id="Trazado_622217" data-name="Trazado 622217" d="M476.945,153.008h.355v.174Z" transform="translate(-419.554 -113.484)" fill="#fff"/>
                <path id="Trazado_622218" data-name="Trazado 622218" d="M477.287,153.359l-.1-.334-.164.051Z" transform="translate(-419.364 -113.44)" fill="#fff"/>
                <path id="Trazado_622219" data-name="Trazado 622219" d="M477.3,153.372l-.28-.208.116-.143Z" transform="translate(-419.374 -113.453)" fill="#fff"/>
                <path id="Trazado_622220" data-name="Trazado 622220" d="M476.982,153.372l.28-.208-.1-.143Z" transform="translate(-419.462 -113.453)" fill="#fff"/>
                <path id="Trazado_622221" data-name="Trazado 622221" d="M476.982,153.359l.116-.334.164.051Z" transform="translate(-419.462 -113.44)" fill="#fff"/>
                <path id="Trazado_622222" data-name="Trazado 622222" d="M478.89,154.595l-.191.583.293.1Z" transform="translate(-415.185 -109.531)" fill="#fff"/>
                <path id="Trazado_622223" data-name="Trazado 622223" d="M478.832,154.595l.191.583-.3.1Z" transform="translate(-415.126 -109.531)" fill="#fff"/>
                <path id="Trazado_622224" data-name="Trazado 622224" d="M479.351,154.715h-.607v.314Z" transform="translate(-415.073 -109.232)" fill="#fff"/>
                <path id="Trazado_622225" data-name="Trazado 622225" d="M479.395,154.715l-.491.365-.177-.252Z" transform="translate(-415.117 -109.232)" fill="#fff"/>
                <path id="Trazado_622226" data-name="Trazado 622226" d="M478.588,154.715l.484.365.191-.252Z" transform="translate(-415.462 -109.232)" fill="#fff"/>
                <path id="Trazado_622227" data-name="Trazado 622227" d="M478.588,154.715h.607v.314Z" transform="translate(-415.462 -109.232)" fill="#fff"/>
                <path id="Trazado_622228" data-name="Trazado 622228" d="M479.2,155.328l-.191-.583-.286.1Z" transform="translate(-415.136 -109.157)" fill="#fff"/>
                <path id="Trazado_622229" data-name="Trazado 622229" d="M479.206,155.343l-.491-.358.177-.245Z" transform="translate(-415.146 -109.171)" fill="#fff"/>
                <path id="Trazado_622230" data-name="Trazado 622230" d="M478.65,155.343l.491-.358-.177-.245Z" transform="translate(-415.307 -109.171)" fill="#fff"/>
                <path id="Trazado_622231" data-name="Trazado 622231" d="M478.65,155.328l.184-.583.293.1Z" transform="translate(-415.307 -109.157)" fill="#fff"/>
                <path id="Trazado_622232" data-name="Trazado 622232" d="M479.279,154.2l-.15.464.225.078Z" transform="translate(-414.115 -110.519)" fill="#fff"/>
                <path id="Trazado_622233" data-name="Trazado 622233" d="M479.235,154.2l.15.464-.238.078Z" transform="translate(-414.071 -110.519)" fill="#fff"/>
                <path id="Trazado_622234" data-name="Trazado 622234" d="M479.655,154.3h-.491v.232Z" transform="translate(-414.027 -110.276)" fill="#fff"/>
                <path id="Trazado_622235" data-name="Trazado 622235" d="M479.689,154.3l-.389.28-.15-.191Z" transform="translate(-414.061 -110.276)" fill="#fff"/>
                <path id="Trazado_622236" data-name="Trazado 622236" d="M479.037,154.3l.4.28.15-.191Z" transform="translate(-414.343 -110.276)" fill="#fff"/>
                <path id="Trazado_622237" data-name="Trazado 622237" d="M479.037,154.3h.5v.232Z" transform="translate(-414.343 -110.276)" fill="#fff"/>
                <path id="Trazado_622238" data-name="Trazado 622238" d="M479.521,154.781l-.15-.464-.225.078Z" transform="translate(-414.071 -110.222)" fill="#fff"/>
                <path id="Trazado_622239" data-name="Trazado 622239" d="M479.531,154.8l-.389-.286.143-.2Z" transform="translate(-414.08 -110.237)" fill="#fff"/>
                <path id="Trazado_622240" data-name="Trazado 622240" d="M479.092,154.8l.389-.286-.15-.2Z" transform="translate(-414.207 -110.237)" fill="#fff"/>
                <path id="Trazado_622241" data-name="Trazado 622241" d="M479.092,154.781l.15-.464.232.078Z" transform="translate(-414.207 -110.222)" fill="#fff"/>
                <path id="Trazado_622242" data-name="Trazado 622242" d="M478.474,154.078l-.15.46.225.082Z" transform="translate(-416.119 -110.818)" fill="#fff"/>
                <path id="Trazado_622243" data-name="Trazado 622243" d="M478.421,154.078l.15.46-.225.082Z" transform="translate(-416.065 -110.818)" fill="#fff"/>
                <path id="Trazado_622244" data-name="Trazado 622244" d="M478.843,154.174h-.484v.249Z" transform="translate(-416.031 -110.58)" fill="#fff"/>
                <path id="Trazado_622245" data-name="Trazado 622245" d="M478.877,154.174l-.4.293-.136-.2Z" transform="translate(-416.065 -110.58)" fill="#fff"/>
                <path id="Trazado_622246" data-name="Trazado 622246" d="M478.232,154.174l.4.293.137-.2Z" transform="translate(-416.348 -110.58)" fill="#fff"/>
                <path id="Trazado_622247" data-name="Trazado 622247" d="M478.232,154.174h.5v.249Z" transform="translate(-416.348 -110.58)" fill="#fff"/>
                <path id="Trazado_622248" data-name="Trazado 622248" d="M478.726,154.662l-.15-.464-.239.079Z" transform="translate(-416.085 -110.519)" fill="#fff"/>
                <path id="Trazado_622249" data-name="Trazado 622249" d="M478.736,154.674l-.4-.287.15-.194Z" transform="translate(-416.095 -110.531)" fill="#fff"/>
                <path id="Trazado_622250" data-name="Trazado 622250" d="M478.283,154.674l.4-.287-.143-.194Z" transform="translate(-416.221 -110.531)" fill="#fff"/>
                <path id="Trazado_622251" data-name="Trazado 622251" d="M478.283,154.662l.15-.464.245.079Z" transform="translate(-416.221 -110.519)" fill="#fff"/>
                <path id="Trazado_622252" data-name="Trazado 622252" d="M475.478,153.861l-.218.692.341.116Z" transform="translate(-423.753 -111.358)" fill="#fff"/>
                <path id="Trazado_622253" data-name="Trazado 622253" d="M475.4,153.861l.225.692-.341.116Z" transform="translate(-423.68 -111.358)" fill="#fff"/>
                <path id="Trazado_622254" data-name="Trazado 622254" d="M476.051,154.008h-.736v.365Z" transform="translate(-423.616 -110.993)" fill="#fff"/>
                <path id="Trazado_622255" data-name="Trazado 622255" d="M476.1,154.008l-.607.426-.2-.3Z" transform="translate(-423.67 -110.993)" fill="#fff"/>
                <path id="Trazado_622256" data-name="Trazado 622256" d="M475.121,154.008l.614.426.2-.3Z" transform="translate(-424.098 -110.993)" fill="#fff"/>
                <path id="Trazado_622257" data-name="Trazado 622257" d="M475.121,154.008h.736v.365Z" transform="translate(-424.098 -110.993)" fill="#fff"/>
                <path id="Trazado_622258" data-name="Trazado 622258" d="M475.844,154.735l-.218-.692-.341.109Z" transform="translate(-423.689 -110.905)" fill="#fff"/>
                <path id="Trazado_622259" data-name="Trazado 622259" d="M475.864,154.759l-.586-.429.2-.3Z" transform="translate(-423.709 -110.93)" fill="#fff"/>
                <path id="Trazado_622260" data-name="Trazado 622260" d="M475.2,154.759l.593-.429-.218-.3Z" transform="translate(-423.904 -110.93)" fill="#fff"/>
                <path id="Trazado_622261" data-name="Trazado 622261" d="M475.2,154.735l.239-.692.341.109Z" transform="translate(-423.904 -110.905)" fill="#fff"/>
                <path id="Trazado_622262" data-name="Trazado 622262" d="M477.341,155.232l-.075.235.109.037Z" transform="translate(-418.756 -107.943)" fill="#fff"/>
                <path id="Trazado_622263" data-name="Trazado 622263" d="M477.306,155.232l.075.235-.1.037Z" transform="translate(-418.722 -107.943)" fill="#fff"/>
                <path id="Trazado_622264" data-name="Trazado 622264" d="M477.535,155.282h-.252v.119Z" transform="translate(-418.712 -107.819)" fill="#fff"/>
                <path id="Trazado_622265" data-name="Trazado 622265" d="M477.545,155.282l-.2.143-.061-.1Z" transform="translate(-418.722 -107.819)" fill="#fff"/>
                <path id="Trazado_622266" data-name="Trazado 622266" d="M477.221,155.282l.2.143.061-.1Z" transform="translate(-418.868 -107.819)" fill="#fff"/>
                <path id="Trazado_622267" data-name="Trazado 622267" d="M477.221,155.282h.239v.119Z" transform="translate(-418.868 -107.819)" fill="#fff"/>
                <path id="Trazado_622268" data-name="Trazado 622268" d="M477.453,155.525l-.062-.232-.116.041Z" transform="translate(-418.732 -107.792)" fill="#fff"/>
                <path id="Trazado_622269" data-name="Trazado 622269" d="M477.462,155.527l-.191-.14.061-.1Z" transform="translate(-418.741 -107.794)" fill="#fff"/>
                <path id="Trazado_622270" data-name="Trazado 622270" d="M477.246,155.527l.191-.14-.061-.1Z" transform="translate(-418.805 -107.794)" fill="#fff"/>
                <path id="Trazado_622271" data-name="Trazado 622271" d="M477.246,155.525l.082-.232.109.041Z" transform="translate(-418.805 -107.792)" fill="#fff"/>
              </g>
            </g>
          </g>
        </g>
      </g>
    </g>
  </g>
</svg>
