<svg xmlns="http://www.w3.org/2000/svg" width="135" height="135" viewBox="0 0 135 135">
  <g id="Grupo_887407" data-name="Grupo 887407" transform="translate(-1095 -8560)">
    <circle id="Elipse_5383" data-name="Elipse 5383" cx="67.5" cy="67.5" r="67.5" transform="translate(1095 8560)" fill="#222b5a"/>
    <g id="Grupo_882083" data-name="Grupo 882083" transform="translate(711.629 7676.931)">
      <path id="Trazado_621739" data-name="Trazado 621739" d="M483.583,984.135H424.9a2.511,2.511,0,0,0-.391-.123,11.742,11.742,0,0,1-9.751-8.706c-.147-.561-.26-1.132-.388-1.7v-2.527c.044-.155.1-.309.13-.467a11.657,11.657,0,0,1,7.453-9.279c.182-.075.358-.161.593-.267l-.437-.361a8.9,8.9,0,0,1-2.245-10.989,8.71,8.71,0,0,1,7.808-4.871c1.534-.062,3.072-.01,4.626-.01.02-.166.039-.255.039-.344,0-4.35-.006-8.7.014-13.05,0-.44-.231-.538-.547-.664q-5.791-2.307-11.577-4.628c-.272-.109-.537-.235-.92-.4.292-.135.468-.226.652-.3q14.892-5.959,29.791-11.9a1.656,1.656,0,0,1,1.117-.006q14.94,5.939,29.862,11.925c.172.069.333.166.609.307l-9.214,3.692c.859.332,1.588.644,2.339.891a.692.692,0,0,1,.567.794c-.033,1.262,0,2.526-.02,3.788a.665.665,0,0,0,.473.721,3.893,3.893,0,0,1,1.535,5.954,1.6,1.6,0,0,0-.272,1.065c.311,2.079.685,4.148,1.031,6.222.269,1.61.528,3.221.808,4.927h-3.566c0,.692.022,1.3-.008,1.9a.7.7,0,0,0,.448.749,3.226,3.226,0,0,1,1.793,2.817,8.89,8.89,0,0,1-.1,1.254c1.919,0,3.789-.008,5.658,0a3.33,3.33,0,0,1,3.339,2.568,3.372,3.372,0,0,1-1.72,3.792.937.937,0,0,0-.4.673c-.026,3.157-.009,6.315-.028,9.472a.782.782,0,0,0,.5.784,3.18,3.18,0,0,1,1.729,3.2,3.241,3.241,0,0,1-2.148,2.869C483.912,983.982,483.748,984.061,483.583,984.135Zm-22.006-14.623h20.146v-2.221h-50.2c-1.9,0-3.791-.039-5.685.016a4.818,4.818,0,0,0-4.354,2.723,5.039,5.039,0,0,0,4.658,7.363q27.513.012,55.026,0c.179,0,.359-.023.539-.035v-5.594H461.576Zm13.749-43.753c-.318-.146-.458-.219-.6-.277q-11.967-4.786-23.941-9.554a1.464,1.464,0,0,0-.985.02q-11.913,4.736-23.811,9.512c-.178.071-.344.171-.6.3.256.116.4.188.548.247q11.936,4.777,23.878,9.534a1.666,1.666,0,0,0,1.114-.04c4.388-1.73,8.763-3.49,13.142-5.243l1.846-.741-15.991-6.1.784-2.074c.294.1.513.168.727.25q8.477,3.227,16.956,6.449a1.375,1.375,0,0,0,.852.123C471.221,927.416,473.185,926.615,475.326,925.76ZM434.587,931.9c0,4.514-.007,8.91.019,13.307a1.2,1.2,0,0,0,.433.733,14.717,14.717,0,0,0,5.285,2.958,32.454,32.454,0,0,0,17.983.6,16.327,16.327,0,0,0,7.284-3.582,1.45,1.45,0,0,0,.422-.943c.045-1.426.02-2.853.02-4.28v-8.765c-.266.1-.483.166-.7.25q-7.189,2.873-14.375,5.757a1.63,1.63,0,0,1-1.335-.011c-2.377-.975-4.763-1.925-7.148-2.88C439.883,934,437.282,932.972,434.587,931.9ZM454.1,981.89h28.212a3.944,3.944,0,0,0,.7-.018,1.113,1.113,0,0,0,.005-2.208,4.472,4.472,0,0,0-.77-.018H426.6c-.328,0-.655,0-.982-.011a7.3,7.3,0,0,1,.635-14.584q28-.005,56,0a4.341,4.341,0,0,0,.77-.02,1.113,1.113,0,0,0-.011-2.208,4.066,4.066,0,0,0-.7-.017H456.556c-10.152,0-20.3-.021-30.457.008a9.538,9.538,0,0,0,.073,19.076Q440.138,981.909,454.1,981.89Zm15.453-30.319h-.815c-2.831,0-5.662-.012-8.493.01a8.441,8.441,0,0,0-1.8.214,36.152,36.152,0,0,1-13.45.515,31.391,31.391,0,0,0-3.851-.7c-4.467-.089-8.937-.043-13.406-.025a2.158,2.158,0,0,0-2.01,1.494,2.263,2.263,0,0,0,2.394,2.986q21.97,0,43.939,0c.224,0,.448-.02.669-.03v-2.212h-3.516Zm-33.894-2.246c-.893-.733-1.679-1.391-2.484-2.028a.977.977,0,0,0-.557-.208c-1.731-.011-3.464-.058-5.192.016a6.732,6.732,0,0,0,.648,13.447q22.7.01,45.4,0a2.914,2.914,0,0,0,.56-.018,1.114,1.114,0,0,0-.014-2.21,4.639,4.639,0,0,0-.77-.017q-22.631,0-45.263,0a4.491,4.491,0,1,1-.02-8.979c1.169-.008,2.339,0,3.509,0Zm35.033-4.514c.107-.637.18-1.239.313-1.828a1.7,1.7,0,0,0-.31-1.541,3.634,3.634,0,0,1,.884-5.294,2.194,2.194,0,0,0,1.194-2.5,4.586,4.586,0,0,1,0-.98c.052-.434-.153-.611-.533-.744-.9-.315-1.779-.711-2.691-.989a4.317,4.317,0,0,0-1.23-.02v13.9Zm5.234,6.722-1.393-8.362h-1.285l-1.387,8.362ZM473.87,940.9a1.68,1.68,0,1,0-1.656-1.722A1.695,1.695,0,0,0,473.87,940.9Zm-3.556,6.181c-.734,0-1.4-.008-2.075,0a1.207,1.207,0,0,0-.662.106c-.865.672-1.7,1.383-2.574,2.107h4.947Z" transform="translate(0 0)" fill="#fff"/>
      <path id="Trazado_621740" data-name="Trazado 621740" d="M433.17,1014.924v-2.157h31.383v2.157Z" transform="translate(-7.538 -39.823)" fill="#fff"/>
    </g>
  </g>
</svg>
