<svg xmlns="http://www.w3.org/2000/svg" xmlns:xlink="http://www.w3.org/1999/xlink" width="95" height="95" viewBox="0 0 95 95">
  <defs>
    <clipPath id="clip-path">
      <circle id="Elipse_5295" data-name="Elipse 5295" cx="47.5" cy="47.5" r="47.5" transform="translate(753 765)" fill="#e8e8e8"/>
    </clipPath>
    <clipPath id="clip-path-2">
      <rect id="Rectángulo_294293" data-name="Rectángulo 294293" width="168.379" height="98.216" fill="none"/>
    </clipPath>
  </defs>
  <g id="Enmascarar_grupo_89" data-name="Enmascarar grupo 89" transform="translate(-753 -765)" clip-path="url(#clip-path)">
    <g id="SLOVENIA" transform="translate(129.742 505.679)">
      <g id="Grupo_882195" data-name="Grupo 882195" transform="translate(616.879 256.105)">
        <g id="Grupo_882194" data-name="Grupo 882194">
          <g id="Grupo_882193" data-name="Grupo 882193" clip-path="url(#clip-path-2)">
            <rect id="Rectángulo_294289" data-name="Rectángulo 294289" width="168.379" height="98.216" fill="#fff"/>
            <rect id="Rectángulo_294290" data-name="Rectángulo 294290" width="168.379" height="32.742" transform="translate(0 65.474)" fill="#ea0020"/>
            <rect id="Rectángulo_294291" data-name="Rectángulo 294291" width="168.379" height="32.737" transform="translate(0 32.737)" fill="#3555e2"/>
            <g id="Grupo_882192" data-name="Grupo 882192">
              <g id="Grupo_882191" data-name="Grupo 882191" clip-path="url(#clip-path-2)">
                <path id="Trazado_621971" data-name="Trazado 621971" d="M625.032,259.868c-.316.135-.607.271-.913.411l.953,14.855A16.741,16.741,0,0,0,636.947,290.1h0a16.749,16.749,0,0,0,11.885-14.965l.928-14.855c-.291-.141-.587-.276-.9-.411h0l-.963,15.206a15.84,15.84,0,0,1-10.952,14.057h0a16.079,16.079,0,0,1-6.371-3.878,15.845,15.845,0,0,1-4.586-10.179l-.958-15.206h0" transform="translate(-587.796 -240.992)" fill="#ea0020"/>
                <path id="Trazado_621972" data-name="Trazado 621972" d="M648.147,261.88a29.546,29.546,0,0,0-23.85,0l.978,15.206a15.845,15.845,0,0,0,4.586,10.179,16.079,16.079,0,0,0,6.371,3.878h0a15.84,15.84,0,0,0,10.952-14.057" transform="translate(-587.081 -243.004)" fill="#3555e2"/>
                <path id="Trazado_621973" data-name="Trazado 621973" d="M628.378,261.942l.549-.72-.892.093-.362-.818-.362.818-.882-.093.52.72-.52.72.882-.093.362.813.362-.813.892.093" transform="translate(-578.523 -238.465)" fill="#f8e72a"/>
                <path id="Trazado_621974" data-name="Trazado 621974" d="M627.735,261.049l.519-.725-.882.1L627,259.6l-.343.818-.9-.1.529.725-.529.725.9-.108.343.814.372-.814.882.108" transform="translate(-581.221 -242.054)" fill="#f8e72a"/>
                <path id="Trazado_621975" data-name="Trazado 621975" d="M629.057,261.049l.539-.725-.891.1-.353-.818-.373.818-.881-.1.529.725-.529.725.881-.108.373.814.353-.814.891.108" transform="translate(-575.831 -242.054)" fill="#f8e72a"/>
                <path id="Trazado_621976" data-name="Trazado 621976" d="M644,271.035l-4.811-6.4L637.27,267.2l-2.89-5.774-2.89,5.774-1.911-2.559-4.821,6.4a3.246,3.246,0,0,0,3.211,3.216,3.279,3.279,0,0,0,1.611-.432h0a3.1,3.1,0,0,1,.773-.326,3.165,3.165,0,0,1,2.418.326,3.322,3.322,0,0,0,1.61.432h0a3.252,3.252,0,0,0,1.6-.432,3.211,3.211,0,0,1,2.438-.326,3.312,3.312,0,0,1,.778.326h0a3.177,3.177,0,0,0,3.858-.512,3.221,3.221,0,0,0,.953-2.273" transform="translate(-585.229 -234.746)" fill="#fff"/>
                <path id="Trazado_621977" data-name="Trazado 621977" d="M624.986,264.2a10.676,10.676,0,0,0,.737,1.274h0a3.143,3.143,0,0,0,2.157.2,3.943,3.943,0,0,0,.783-.321h0a3.178,3.178,0,0,1,1.585-.436h0a3.136,3.136,0,0,1,1.605.436,3.227,3.227,0,0,0,2.433.321,3.334,3.334,0,0,0,.773-.321h0a3.26,3.26,0,0,1,1.615-.436h-.015a3.213,3.213,0,0,1,1.616.436,3.174,3.174,0,0,0,2.418.321,1.94,1.94,0,0,0,.512-.2,13.238,13.238,0,0,0,.732-1.274h0a3,3,0,0,0-.461.221h0a3.751,3.751,0,0,1-.783.331,3.247,3.247,0,0,1-2.418-.331,3.206,3.206,0,0,0-1.616-.432h.015a3.254,3.254,0,0,0-1.615.432h.01a3.626,3.626,0,0,1-.782.331,3.3,3.3,0,0,1-2.433-.331,3.13,3.13,0,0,0-1.605-.432h0a3.172,3.172,0,0,0-1.585.432h0a3.979,3.979,0,0,1-.783.331,3.3,3.3,0,0,1-2.433-.331,2.613,2.613,0,0,0-.461-.221h0" transform="translate(-584.314 -224.426)" fill="#fff"/>
                <path id="Trazado_621978" data-name="Trazado 621978" d="M639.144,265.174a17.952,17.952,0,0,1-1.214,1.38,14.98,14.98,0,0,1-5.714,3.552h0a14.943,14.943,0,0,1-5.714-3.552,15.841,15.841,0,0,1-1.2-1.38h0a3.143,3.143,0,0,0,1.334-.06,3.223,3.223,0,0,0,.783-.326h0a3.218,3.218,0,0,1,1.585-.427h0a3.175,3.175,0,0,1,1.605.427,3.183,3.183,0,0,0,2.433.326,2.8,2.8,0,0,0,.773-.326h0a3.3,3.3,0,0,1,1.615-.427h-.015a3.254,3.254,0,0,1,1.616.427,3.135,3.135,0,0,0,2.117.386h0" transform="translate(-583.064 -222.944)" fill="#fff"/>
              </g>
            </g>
          </g>
        </g>
      </g>
    </g>
  </g>
</svg>
