<svg xmlns="http://www.w3.org/2000/svg" width="134" height="134" viewBox="0 0 134 134">
  <g id="Grupo_887402" data-name="Grupo 887402" transform="translate(-733 -5641)">
    <circle id="Elipse_5258" data-name="Elipse 5258" cx="67" cy="67" r="67" transform="translate(733 5641)" fill="#179587"/>
    <g id="Grupo_881840" data-name="Grupo 881840" transform="translate(416 4827.316)">
      <path id="Trazado_620564" data-name="Trazado 620564" d="M346,908.269c.454-1.973.952-3.938,1.346-5.923a6.739,6.739,0,0,1,1.341-2.933c1.535-1.957,3.011-3.961,4.52-5.959a5.621,5.621,0,0,1-1.018-1.238,7.753,7.753,0,0,1-.818-2.718c-.078-5.031-.058-10.064-.027-15.1a8.645,8.645,0,0,1,2.812-6.373c.641-.615,1.336-1.173,2.027-1.734a1.145,1.145,0,0,1,1.693.08,1.118,1.118,0,0,1-.189,1.627c-.6.548-1.245,1.047-1.844,1.6a6.434,6.434,0,0,0-2.207,4.849c-.029,5.006-.017,10.013-.008,15.019a2.527,2.527,0,0,0,1.925,2.525,2.5,2.5,0,0,0,2.825-1.137,4.211,4.211,0,0,0,.328-1,7.048,7.048,0,0,1,.664-2.233c.935-1.262.948-2.686,1.1-4.105q.426-4.016.806-8.036a1.756,1.756,0,0,1,1.02-1.479q4.571-2.514,9.111-5.082a2.673,2.673,0,0,0,.82-.649q3.447-4.511,6.858-9.05c.074-.1.128-.209.277-.455a5.523,5.523,0,0,0-1.315-.366c-2.592-.031-5.184-.011-7.777-.016a3.315,3.315,0,0,0-2.218.861c-2.109,1.795-4.218,3.59-6.356,5.352a1.636,1.636,0,0,1-1.142.411,1.26,1.26,0,0,1-.865-.794,1.612,1.612,0,0,1,.452-1.24c1.783-1.588,3.626-3.109,5.45-4.651.407-.344.812-.692,1.229-1.026a5.26,5.26,0,0,1,3.376-1.2c2.694,0,5.39-.054,8.081.032a11.77,11.77,0,0,1,2.583.707c.035-.043.2-.229.347-.425,1.519-2,3.029-4.016,4.557-6.014a3.451,3.451,0,0,1,5.145-.723c.674.5,1.347,1,2,1.519a3.422,3.422,0,0,1,.683,4.931c-1.281,1.739-2.6,3.448-3.9,5.172-.091.121-.172.248-.317.457l2.382,1.34c.244.137.5.257.73.41a1.137,1.137,0,1,1-1.086,2c-.861-.433-1.693-.925-2.538-1.39-.286-.157-.575-.308-.922-.494-1.038,1.371-2.063,2.723-3.087,4.076-1.578,2.087-3.12,4.2-4.753,6.247a7.857,7.857,0,0,1-2.036,1.788q-3.325,2.005-6.756,3.831a17.077,17.077,0,0,0-4.346,3.281c-1.533,1.592-3.146,3.107-4.717,4.662a3.6,3.6,0,0,0,4.5,5.619c2.1-1.377,4.182-2.793,6.3-4.152a2.666,2.666,0,0,1,1.339-.409c3.2-.034,6.407-.1,9.605.017,1.4.05,2.781.578,4.188.733,2.543.28,5.1.445,7.651.651.252.02.508-.015.762-.012.785.01,1.259.426,1.27,1.107a1.11,1.11,0,0,1-1.223,1.168c-2-.03-4.02-.01-6.009-.222-1.937-.207-3.846-.679-5.767-1.03a5.181,5.181,0,0,0-.9-.124c-3.049-.009-6.1-.016-9.149.009a1.938,1.938,0,0,0-.971.334q-2.844,1.847-5.653,3.743a6.441,6.441,0,0,1-4.241,1.174,1.246,1.246,0,0,0-.9.469c-2.168,2.819-4.33,5.644-6.435,8.51a6.3,6.3,0,0,1-2.819,2.342,2.193,2.193,0,0,0-.887.632h34.342c1.3,0,1.87.354,1.852,1.158-.017.778-.583,1.129-1.821,1.13q-19.556.006-39.111.022a2.076,2.076,0,0,1-2.17-1.192Zm19.968-27.886.072.076a16.58,16.58,0,0,1,2.038-1.661c2.912-1.706,5.876-3.326,8.8-5.018a5.035,5.035,0,0,0,1.419-1.23c1.809-2.326,3.57-4.689,5.345-7.042.134-.178.25-.37.407-.6l-4.08-3.039Zm-11.62,23.873,6.855-9.07-1.679-1.843a7.979,7.979,0,0,1-2.648.93,2.916,2.916,0,0,0-2.719,1.721c-.32.487-.7.937-1.048,1.4l-2.575,3.408ZM384.93,855.3l4.116,3.059c.959-1.273,1.872-2.459,2.753-3.668a1.091,1.091,0,0,0-.227-1.622c-.708-.578-1.439-1.13-2.184-1.659a1.122,1.122,0,0,0-1.683.234C386.781,852.823,385.893,854.028,384.93,855.3Zm.536,7.79,2.192-2.9-4.112-3.062-2.191,2.9Zm-17.151,10.384-.109-.124c-1.454.812-2.912,1.616-4.354,2.449a.8.8,0,0,0-.318.532c-.155,1.251-.277,2.506-.41,3.76l.129.074Zm-15.939,32.094-2.816-2.546-.956,4.441Z" transform="translate(0 0)" fill="#fff"/>
      <path id="Trazado_620565" data-name="Trazado 620565" d="M461.285,887.48h-1.306c-2.414,0-4.828.022-7.241-.018a3.691,3.691,0,0,1-1.51-.392c-1.024-.5-2.01-1.083-3.005-1.643-.79-.444-1.029-1.047-.684-1.675s.981-.75,1.775-.336a.485.485,0,0,1,.069.033,9.7,9.7,0,0,0,6.952,1.766c1.515-.122,3.047-.034,4.572-.015a.733.733,0,0,0,.805-.5,3.3,3.3,0,0,1,3.3-2.11c3.252.027,6.5.007,9.757.01a3.4,3.4,0,0,1,.682.041,1.115,1.115,0,0,1,.045,2.178,3.6,3.6,0,0,1-.832.064q-4.612.006-9.223,0c-1.45,0-1.785.325-1.786,1.8q-.008,8.232,0,16.464c0,1.321-.011,2.643,0,3.964.014,1.34.361,1.68,1.666,1.68q4.65,0,9.3,0a3.644,3.644,0,0,1,.905.082,1.029,1.029,0,0,1,.822,1.129,1.042,1.042,0,0,1-.928,1.046,5.049,5.049,0,0,1-.836.041c-2.972,0-5.947-.068-8.917.024-2.311.071-3.763-.717-4.4-3.563-1.043.131-2.121.2-3.17.416-1.29.263-2.552.663-3.835.967a1.14,1.14,0,1,1-.543-2.2c1.562-.437,3.108-.954,4.694-1.272a15.134,15.134,0,0,1,2.871-.033Z" transform="translate(-52.28 -17.403)" fill="#fff"/>
    </g>
  </g>
</svg>
