<svg xmlns="http://www.w3.org/2000/svg" width="208" height="208" viewBox="0 0 208 208">
  <g id="Grupo_887392" data-name="Grupo 887392" transform="translate(-1116 -874)">
    <circle id="Elipse_5377" data-name="Elipse 5377" cx="104" cy="104" r="104" transform="translate(1116 874)" fill="#b0c0d2"/>
    <circle id="Elipse_5372" data-name="Elipse 5372" cx="95" cy="95" r="95" transform="translate(1125 883)" fill="#f3f9ff"/>
    <g id="Grupo_878731" data-name="Grupo 878731" transform="translate(1124 810.602)">
      <path id="Trazado_617779" data-name="Trazado 617779" d="M190,595.281h0Z" transform="translate(0 -337.293)" fill="#a87b50"/>
      <g id="Grupo_878713" data-name="Grupo 878713" transform="translate(65.598 134.168)">
        <path id="Trazado_617739" data-name="Trazado 617739" d="M219.36,230.357l-13.838-17.786s.317-3.225,9.25-2.914,21.87-2.1,30.233-2.295a105.711,105.711,0,0,1,19.265,1.595l-14.462,21.4Z" transform="translate(-205.522 -207.344)" fill="#bbbdbf"/>
      </g>
      <g id="Grupo_878716" data-name="Grupo 878716" transform="translate(78.823 102.801)">
        <path id="Trazado_617740" data-name="Trazado 617740" d="M292.235,119.6c-8.728,15.022-17.227,30.222-21.985,46.285-7.746-2.3-15.481-4.591-23.293-6.895,4.013-16.229,5.238-32.665,8.7-49.922A159.935,159.935,0,0,1,292.235,119.6Z" transform="translate(-246.957 -109.071)" fill="#8bc543" stroke="#006738" stroke-miterlimit="10" stroke-width="9.57"/>
        <path id="Trazado_617741" data-name="Trazado 617741" d="M284.588,169.23c6.929,1.985,10.451,7.9,8.076,12.819a12.076,12.076,0,0,1-13.986,6.089c-5.477-1.608-9.368-7.134-8.539-12.447C270.988,170.4,277.654,167.289,284.588,169.23Z" transform="translate(-262.664 -149.633)" fill="#006738"/>
        <path id="Trazado_617742" data-name="Trazado 617742" d="M246.957,252.21q3.119.92,6.215,1.837a6.621,6.621,0,0,0-4.773-8.059C247.968,248.07,247.493,250.144,246.957,252.21Z" transform="translate(-246.957 -202.287)" fill="#006738"/>
        <g id="Grupo_878715" data-name="Grupo 878715" transform="translate(9.995 23.671)">
          <g id="Grupo_878714" data-name="Grupo 878714" transform="translate(2.269)">
            <path id="Trazado_617743" data-name="Trazado 617743" d="M289.546,185.824c-.889-.177-1.5.379-1.837,1.653s-.108,2.03.68,2.249a1.147,1.147,0,0,0,1.221-.324,12.91,12.91,0,0,0,1.48-2.267,5.18,5.18,0,0,1,2.286-2.33,4.224,4.224,0,0,1,2.968-.1,3.3,3.3,0,0,1,2.436,2.256,5.122,5.122,0,0,1-.2,3.432c-1.116,2.825-2.96,4.062-5.557,3.746q.281-1.221.566-2.439c1.388.212,2.349-.434,2.907-1.945.523-1.416.2-2.3-.977-2.647a1.446,1.446,0,0,0-1.336.186,8.445,8.445,0,0,0-1.62,2.214,6.149,6.149,0,0,1-2.188,2.405,3.183,3.183,0,0,1-2.441.24,3.343,3.343,0,0,1-2.117-1.775,4.981,4.981,0,0,1-.226-3.51c.659-2.818,2.2-4.012,4.542-3.525Q289.835,184.583,289.546,185.824Z" transform="translate(-285.381 -183.235)" fill="#8bc543"/>
          </g>
          <path id="Trazado_617744" data-name="Trazado 617744" d="M281.327,189.472c-.187.771-.375,1.542-.559,2.31q-1.242-.331-2.5-.655.249-1.159.494-2.32Q280.06,189.138,281.327,189.472Z" transform="translate(-278.272 -187.029)" fill="#8bc543"/>
          <path id="Trazado_617745" data-name="Trazado 617745" d="M327.2,202.6q-.467,1.107-.925,2.213-1.214-.37-2.42-.727.425-1.12.863-2.239Q325.959,202.217,327.2,202.6Z" transform="translate(-309.308 -195.905)" fill="#8bc543"/>
        </g>
        <path id="Trazado_617746" data-name="Trazado 617746" d="M305.614,273.1q.945-3.076,2.022-6.114a6.551,6.551,0,0,0-8.2,4.283Z" transform="translate(-282.688 -216.391)" fill="#006738"/>
        <path id="Trazado_617747" data-name="Trazado 617747" d="M365.927,133.667q-4.725-1.942-9.477-3.6c-1.534,3.483,1.221,7.544,6.209,9.4C363.75,137.53,364.847,135.6,365.927,133.667Z" transform="translate(-321.214 -123.367)" fill="#006738"/>
        <path id="Trazado_617748" data-name="Trazado 617748" d="M271.652,109.071q-.63,3.315-1.2,6.581c5.272.956,10.138-.967,11.227-4.64Q276.734,109.878,271.652,109.071Z" transform="translate(-262.955 -109.071)" fill="#006738"/>
        <path id="Trazado_617749" data-name="Trazado 617749" d="M287.237,242.257a2.217,2.217,0,0,1,1.567,2.751,2.28,2.28,0,0,1-4.373-1.282A2.221,2.221,0,0,1,287.237,242.257Z" transform="translate(-272.418 -199.681)" fill="#006738"/>
        <path id="Trazado_617750" data-name="Trazado 617750" d="M316.605,143.391c1.7.486,2.683,1.87,2.222,3.059s-2.133,1.755-3.743,1.3-2.624-1.785-2.255-3.005S314.9,142.906,316.605,143.391Z" transform="translate(-291.752 -132.325)" fill="#006738"/>
      </g>
      <g id="Grupo_878719" data-name="Grupo 878719" transform="translate(79.351 99.862)">
        <path id="Trazado_617751" data-name="Trazado 617751" d="M287.778,105.044c-6.483,16.118-12.719,32.379-15.127,48.96-8-1.164-15.98-2.329-24.04-3.489,1.647-16.636.5-33.08,1.458-50.654A159.941,159.941,0,0,1,287.778,105.044Z" transform="translate(-248.611 -99.862)" fill="#8bc543" stroke="#006738" stroke-miterlimit="10" stroke-width="9.57"/>
        <path id="Trazado_617752" data-name="Trazado 617752" d="M274.448,154.411c7.145.969,11.473,6.321,9.828,11.528a12.071,12.071,0,0,1-12.968,8.03c-5.651-.806-10.3-5.72-10.236-11.1C261.155,157.519,267.306,153.482,274.448,154.411Z" transform="translate(-257.095 -136.909)" fill="#006738"/>
        <path id="Trazado_617753" data-name="Trazado 617753" d="M248.611,244.988l6.412.926a6.623,6.623,0,0,0-5.877-7.291C249.017,240.745,248.845,242.866,248.611,244.988Z" transform="translate(-248.611 -194.334)" fill="#006738"/>
        <g id="Grupo_878718" data-name="Grupo 878718" transform="translate(6.72 22.33)">
          <g id="Grupo_878717" data-name="Grupo 878717" transform="translate(2.347)">
            <path id="Trazado_617754" data-name="Trazado 617754" d="M280.823,172.372c-.9-.046-1.435.592-1.583,1.9s.186,2.022,1,2.127a1.149,1.149,0,0,0,1.161-.5,12.665,12.665,0,0,0,1.137-2.455,5.2,5.2,0,0,1,1.932-2.632,4.22,4.22,0,0,1,2.921-.524,3.3,3.3,0,0,1,2.736,1.883,5.119,5.119,0,0,1,.289,3.426c-.7,2.957-2.349,4.444-4.965,4.5q.1-1.246.21-2.494c1.406.011,2.266-.767,2.6-2.343.314-1.474-.13-2.308-1.343-2.48a1.447,1.447,0,0,0-1.3.375,8.476,8.476,0,0,0-1.287,2.423,6.131,6.131,0,0,1-1.822,2.7,3.173,3.173,0,0,1-2.38.586,3.335,3.335,0,0,1-2.349-1.453,4.984,4.984,0,0,1-.725-3.444c.246-2.882,1.6-4.284,3.988-4.139C280.968,170.682,280.893,171.529,280.823,172.372Z" transform="translate(-277.021 -169.823)" fill="#8bc543"/>
          </g>
          <path id="Trazado_617755" data-name="Trazado 617755" d="M272.45,178.265q-.113,1.186-.224,2.365-1.271-.15-2.56-.291.076-1.18.158-2.365Q271.143,178.116,272.45,178.265Z" transform="translate(-269.666 -175.372)" fill="#8bc543"/>
          <path id="Trazado_617756" data-name="Trazado 617756" d="M319.7,184.57q-.3,1.162-.6,2.323-1.252-.191-2.5-.375.262-1.168.535-2.337C317.991,184.308,318.844,184.436,319.7,184.57Z" transform="translate(-301.622 -179.598)" fill="#8bc543"/>
        </g>
        <path id="Trazado_617757" data-name="Trazado 617757" d="M309.147,255.642q.5-3.179,1.127-6.34a6.549,6.549,0,0,0-7.5,5.412Q305.96,255.177,309.147,255.642Z" transform="translate(-285.487 -201.555)" fill="#006738"/>
        <path id="Trazado_617758" data-name="Trazado 617758" d="M347.976,110.936q-4.954-1.245-9.894-2.2c-1.021,3.67,2.288,7.292,7.491,8.408C346.375,115.069,347.182,113,347.976,110.936Z" transform="translate(-309.399 -105.902)" fill="#006738"/>
        <path id="Trazado_617759" data-name="Trazado 617759" d="M252.656,99.862q-.155,3.371-.244,6.684c5.356.191,9.894-2.408,10.448-6.2Q257.8,99.933,252.656,99.862Z" transform="translate(-251.199 -99.862)" fill="#006738"/>
        <path id="Trazado_617760" data-name="Trazado 617760" d="M285.751,229.081a2.215,2.215,0,0,1,1.944,2.5,2.28,2.28,0,0,1-4.512-.642A2.223,2.223,0,0,1,285.751,229.081Z" transform="translate(-272.137 -187.821)" fill="#006738"/>
        <path id="Trazado_617761" data-name="Trazado 617761" d="M300.631,126.842c1.756.237,2.925,1.467,2.637,2.708s-1.859,2.044-3.518,1.824-2.852-1.392-2.661-2.649S298.878,126.606,300.631,126.842Z" transform="translate(-281.602 -118.204)" fill="#006738"/>
      </g>
      <path id="Trazado_617762" data-name="Trazado 617762" d="M251.834,493.058c0,2.767-20.119,5.008-42.3,5.008s-38.034-2.241-38.034-5.008,15.85-5.006,38.034-5.006S251.834,490.295,251.834,493.058Z" transform="translate(-116.76 -264.289)" fill="#221f1f" opacity="0.3"/>
      <g id="Grupo_878722" data-name="Grupo 878722" transform="translate(56.583 134.188)">
        <path id="Trazado_617763" data-name="Trazado 617763" d="M219.36,230.4l-13.838-17.786s.317-5.5,9.25-5.194,18.457,4.155,26.813,4.546A70.969,70.969,0,0,0,264.271,209L249.81,230.4Z" transform="translate(-196.507 -207.407)" fill="#e6e6e7"/>
        <path id="Trazado_617764" data-name="Trazado 617764" d="M248.166,312.144c-4.446-10.931-11.283-22.354-17.586-32.7H200.132a336.163,336.163,0,0,0-17.446,32.7c-10.5,23.016-4.518,30.6,7.809,36.038,9.145,4.033,40.717,4.033,49.861,0C252.685,342.745,255.794,330.9,248.166,312.144Z" transform="translate(-177.278 -256.452)" fill="#e6e6e7"/>
        <g id="Grupo_878721" data-name="Grupo 878721" transform="translate(22.955 38.863)">
          <g id="Grupo_878720" data-name="Grupo 878720" transform="translate(0 5.664)">
            <path id="Trazado_617765" data-name="Trazado 617765" d="M269.879,355.64q-.276-3.285-6.07-3.3-5.817-.022-5.83,3.081a2.857,2.857,0,0,0,1.864,2.759,39.022,39.022,0,0,0,7.533,1.968q5.663,1.108,8.306,3.661a8.748,8.748,0,0,1,2.635,6.632,8.155,8.155,0,0,1-4.281,7.336,18.352,18.352,0,0,1-9.753,2.558q-13.262-.049-15.084-10.216l7.324-.566q.791,5.335,7.827,5.358,6.593.023,6.607-4.445a3.207,3.207,0,0,0-1.591-2.951q-1.593-.976-7.5-2.148t-8.516-3.551a7.645,7.645,0,0,1-2.6-5.908,7.885,7.885,0,0,1,3.393-6.4q3.382-2.614,9.814-2.589,12.745.044,13.331,8.488Z" transform="translate(-249.197 -346.913)" fill="#e2a540"/>
          </g>
          <path id="Trazado_617766" data-name="Trazado 617766" d="M292.456,335.537l-6.97-.027.018-6.342,6.976.023Z" transform="translate(-273.904 -329.169)" fill="#e2a540"/>
          <path id="Trazado_617767" data-name="Trazado 617767" d="M292.054,454.136l-6.976-.026.018-6.343,6.973.025Z" transform="translate(-273.626 -409.913)" fill="#e2a540"/>
        </g>
        <path id="Trazado_617768" data-name="Trazado 617768" d="M275.2,277.233a1.251,1.251,0,0,1-1.359,1.1h-33.8a1.251,1.251,0,0,1-1.361-1.1v-.9a1.251,1.251,0,0,1,1.361-1.1h33.8a1.251,1.251,0,0,1,1.359,1.1Z" transform="translate(-219.078 -253.581)" fill="#744c29"/>
        <path id="Trazado_617769" data-name="Trazado 617769" d="M318.586,420.451c5.627,4.052,15.67.607,19.389-2.029,5.171-3.667,7.538-10.977,6.943-16.206a42.838,42.838,0,0,0-3.527-13.644c-.75-1.731,2.565,5.279-1.464,14.725-3.005,7.05-11.7,8.848-17.466,9.5C318.429,413.251,312.987,416.42,318.586,420.451Z" transform="translate(-271.853 -330.57)" fill="#d0d2d3"/>
        <path id="Trazado_617770" data-name="Trazado 617770" d="M312.973,249.434s10.648-3.869,15.907-9.28c5.939-6.11-5.842,9.28-5.842,9.28Z" transform="translate(-269.662 -228.726)" fill="#d0d2d3"/>
        <path id="Trazado_617771" data-name="Trazado 617771" d="M218.309,227.774s.2.155.528.446.783.715,1.306,1.241a43.848,43.848,0,0,1,3.521,4.1,43.364,43.364,0,0,1,3.012,4.49c.367.645.655,1.2.846,1.591s.288.628.288.628-.2-.155-.528-.445-.784-.714-1.307-1.241a40.91,40.91,0,0,1-3.52-4.1,43.675,43.675,0,0,1-3.01-4.49c-.368-.644-.656-1.2-.847-1.59S218.309,227.774,218.309,227.774Z" transform="translate(-205.213 -221.273)" fill="#f7f7f7"/>
        <path id="Trazado_617772" data-name="Trazado 617772" d="M218.412,291.932s-.17.518-.5,1.407-.818,2.153-1.448,3.645c-1.236,3-3.048,6.912-4.993,10.758s-4.03,7.623-5.716,10.391c-.83,1.392-1.562,2.531-2.083,3.324s-.838,1.237-.838,1.237.169-.518.5-1.407.816-2.153,1.447-3.646c1.235-3,3.049-6.911,5-10.757s4.033-7.621,5.718-10.39c.83-1.391,1.561-2.531,2.082-3.324S218.412,291.932,218.412,291.932Z" transform="translate(-194.676 -264.954)" fill="#f7f7f7"/>
      </g>
      <g id="Grupo_878730" data-name="Grupo 878730" transform="translate(48.852 199.918)">
        <g id="Grupo_878725" data-name="Grupo 878725" transform="translate(1.373)">
          <path id="Trazado_617773" data-name="Trazado 617773" d="M185.961,432.09a14.6,14.6,0,1,1-9.854-18.143A14.6,14.6,0,0,1,185.961,432.09Z" transform="translate(-157.36 -413.343)" fill="#e8af2e"/>
          <path id="Trazado_617774" data-name="Trazado 617774" d="M189.06,436.967a11.96,11.96,0,1,1-8.073-14.864A11.96,11.96,0,0,1,189.06,436.967Z" transform="translate(-162.989 -418.969)" fill="#f9ca35"/>
          <g id="Grupo_878724" data-name="Grupo 878724" transform="translate(7.802 5.222)">
            <g id="Grupo_878723" data-name="Grupo 878723" transform="translate(0 2.264)">
              <path id="Trazado_617775" data-name="Trazado 617775" d="M192.032,441.5c.189-.916-.5-1.609-2.077-2.081s-2.5-.289-2.752.553a1.216,1.216,0,0,0,.427,1.351,16.669,16.669,0,0,0,2.836,1.714,6.915,6.915,0,0,1,2.947,2.5,3.721,3.721,0,0,1,.273,3.024,3.469,3.469,0,0,1-2.632,2.477,7.808,7.808,0,0,1-4.288-.135q-5.406-1.623-4.92-5.991l3.056.653q-.321,2.273,2.547,3.133,2.686.805,3.232-1.016a1.367,1.367,0,0,0-.293-1.4,12.07,12.07,0,0,0-2.8-1.782,7.636,7.636,0,0,1-3.046-2.478,3.252,3.252,0,0,1-.348-2.724,3.359,3.359,0,0,1,2.158-2.2,6.689,6.689,0,0,1,4.318.13q5.195,1.557,4.414,5.074Z" transform="translate(-181.806 -436.798)" fill="#c38728"/>
            </g>
            <rect id="Rect치ngulo_294022" data-name="Rect치ngulo 294022" width="2.699" height="2.967" transform="matrix(0.287, -0.958, 0.958, 0.287, 7.486, 2.585)" fill="#c38728"/>
            <rect id="Rect치ngulo_294023" data-name="Rect치ngulo 294023" width="2.699" height="2.968" transform="translate(2.859 18.014) rotate(-73.286)" fill="#c38728"/>
          </g>
        </g>
        <g id="Grupo_878729" data-name="Grupo 878729" transform="translate(0 3.169)">
          <g id="Grupo_878726" data-name="Grupo 878726" transform="translate(0.538)">
            <path id="Trazado_617776" data-name="Trazado 617776" d="M158.895,431.58a6.739,6.739,0,0,1,.885-3.269,6.8,6.8,0,0,1,3.268-.885,6.321,6.321,0,0,1-3.268-.884,6.185,6.185,0,0,1-.885-3.269,6.047,6.047,0,0,1-.942,3.325,5.713,5.713,0,0,1-3.211.829,6.349,6.349,0,0,1,3.268.885A6.312,6.312,0,0,1,158.895,431.58Z" transform="translate(-154.742 -423.272)" fill="#fff"/>
          </g>
          <g id="Grupo_878727" data-name="Grupo 878727" transform="translate(5.985 5.994)">
            <path id="Trazado_617777" data-name="Trazado 617777" d="M173.287,445.008a1.211,1.211,0,0,1,1.478-1.479,2.248,2.248,0,0,1-1.163-.315,2.2,2.2,0,0,1-.315-1.163,2.161,2.161,0,0,1-.335,1.184,2.037,2.037,0,0,1-1.143.295,1.211,1.211,0,0,1,1.478,1.479Z" transform="translate(-171.809 -442.051)" fill="#fff"/>
          </g>
          <g id="Grupo_878728" data-name="Grupo 878728" transform="translate(0 7.975)">
            <path id="Trazado_617778" data-name="Trazado 617778" d="M155.109,452.361a1.681,1.681,0,0,1,2.051-2.052,3.123,3.123,0,0,1-1.614-.437,3.054,3.054,0,0,1-.437-1.615,2.987,2.987,0,0,1-.465,1.643,2.822,2.822,0,0,1-1.587.409,1.681,1.681,0,0,1,2.052,2.052Z" transform="translate(-153.057 -448.257)" fill="#fff"/>
          </g>
        </g>
      </g>
    </g>
  </g>
</svg>
