<svg xmlns="http://www.w3.org/2000/svg" width="134" height="134" viewBox="0 0 134 134">
  <g id="Grupo_887398" data-name="Grupo 887398" transform="translate(-390 -5128)">
    <circle id="Elipse_5255" data-name="Elipse 5255" cx="67" cy="67" r="67" transform="translate(390 5128)" fill="#179587"/>
    <g id="Grupo_881838" data-name="Grupo 881838" transform="translate(7.833 4264.567)">
      <path id="Trazado_620559" data-name="Trazado 620559" d="M421.522,929.073a9.093,9.093,0,0,1-5.12-1.366,8.246,8.246,0,0,1-4.043-7.066q-.128-9.383-.009-18.767a8.6,8.6,0,0,1,8.612-8.418q13.618-.021,27.236,0a8.64,8.64,0,0,1,9,8.945c.02,4.319,0,8.639,0,12.958v.983h1.012c6.268,0,12.536-.012,18.8,0A9.937,9.937,0,0,1,487,924.386a11.859,11.859,0,0,1,.209,2.366q.024,10.5.009,21a10.043,10.043,0,0,1-10.31,10.475c-.2,0-.39.024-.679.042v.825c0,1.837.014,3.674-.006,5.511a4.5,4.5,0,0,1-7.72,3.178c-3.063-3.016-6.1-6.063-9.17-9.068a1.824,1.824,0,0,0-1.154-.468c-4.576-.033-9.153,0-13.729-.026a9.993,9.993,0,0,1-9.97-8.082,11.666,11.666,0,0,1-.2-2.293c-.017-5.213-.009-10.426-.009-15.639v-.938c-.3.272-.476.426-.645.593q-2.541,2.518-5.079,5.041a4.068,4.068,0,0,1-7.023-2.9C421.516,932.4,421.522,930.788,421.522,929.073Zm39.254-9.157q-8.059,0-16.118,0a6.43,6.43,0,0,0-6.8,6.766q-.01,10.576.007,21.151a8.2,8.2,0,0,0,.207,1.916,6.438,6.438,0,0,0,6.56,4.9c4.8.015,9.6.02,14.4-.009a2.91,2.91,0,0,1,2.249.915c3.152,3.173,6.34,6.312,9.51,9.467.364.362.725.717,1.294.481s.569-.745.568-1.257q-.008-3.686,0-7.373c0-1.583.635-2.192,2.212-2.225a21.474,21.474,0,0,0,3.714-.191,6.353,6.353,0,0,0,5.058-6.487c.011-7.026-.064-14.052.029-21.076a6.693,6.693,0,0,0-6.994-7C471.373,920,466.074,919.916,460.776,919.916Zm-7.243-3.575a1.923,1.923,0,0,0,.076-.322c0-4.692.064-9.385-.024-14.075a4.924,4.924,0,0,0-5.061-4.909q-13.767-.035-27.534,0a4.962,4.962,0,0,0-5.055,4.922q-.083,9.271,0,18.544a4.941,4.941,0,0,0,4.291,4.881,17.893,17.893,0,0,0,2.6.1c1.659.015,2.275.628,2.278,2.31,0,1.961-.012,3.922.015,5.883a3.129,3.129,0,0,0,.308.905,3.2,3.2,0,0,0,.8-.427c2.411-2.369,4.787-4.771,7.214-7.123a2.994,2.994,0,0,0,.961-1.98,9.841,9.841,0,0,1,9.034-8.642c2.307-.125,4.624-.05,6.937-.062C451.412,916.336,452.453,916.34,453.533,916.34Z" fill="#fff"/>
      <path id="Trazado_620560" data-name="Trazado 620560" d="M475.207,952.678a2.628,2.628,0,1,1,5.257.044,2.628,2.628,0,0,1-5.257-.044Z" transform="translate(-17.09 -15.379)" fill="#fff"/>
      <path id="Trazado_620561" data-name="Trazado 620561" d="M462.577,955.317a2.636,2.636,0,0,1-2.6-2.69,2.6,2.6,0,0,1,2.706-2.565,2.632,2.632,0,0,1,2.571,2.638A2.66,2.66,0,0,1,462.577,955.317Z" transform="translate(-12.953 -15.379)" fill="#fff"/>
      <path id="Trazado_620562" data-name="Trazado 620562" d="M493.045,955.316a2.629,2.629,0,1,1,.047-5.256,2.605,2.605,0,0,1,2.593,2.608A2.641,2.641,0,0,1,493.045,955.316Z" transform="translate(-21.219 -15.379)" fill="#fff"/>
    </g>
  </g>
</svg>
