<svg xmlns="http://www.w3.org/2000/svg" width="419.492" height="378.596" viewBox="0 0 419.492 378.596">
  <g id="Grupo_878633" data-name="Grupo 878633" transform="translate(-40.254 -60.702)">
    <g id="Grupo_878565" data-name="Grupo 878565">
      <path id="Trazado_617409" data-name="Trazado 617409" d="M95.814,136.419c-1.039-20.973,8.292-46.772,32.4-47.6,43.708-1.5,67.658,50.264,106.978,59.851,26.987,6.58,43.687-12.473,63.586-26.52,21.492-15.172,44.4-35.805,73.2-29.332,18.6,4.181,29.13,23.126,30.731,40.578,1.715,18.7-7.281,33.726-5.74,51.672C398.6,204.1,418.731,212.3,428.678,228c12.287,19.4,16.443,41.781,10.483,64.018-5.748,21.447-21.964,42.66-42.883,51.013-28.342,11.32-49.466-5.732-75.808-13.365-37.617-10.9-55.5,9.138-81.729,31.687-16.226,13.95-36.751,26.3-59.3,22.892-31.614-4.776-41.438-47.65-41.7-74.161-.165-16.9,7.428-36.488-5.029-49.463-11.918-12.411-23.558-10.709-39.763-11.7-12.888-.792-28.044-5.653-32.376-19.035-2.015-6.223-1.831-14.382,2.12-19.823,9.821-13.517,32.887-13.822,36.267-30.661C101.816,165.2,96.514,150.546,95.814,136.419Z" fill="#bbe7f2"/>
      <path id="Trazado_617410" data-name="Trazado 617410" d="M218.611,92.033c6.037-24.513-49.482-44.546-51.154-20.469-.891,12.845,18,28.558,29.445,30.685C207.436,104.207,215.948,102.849,218.611,92.033Z" fill="#bbe7f2"/>
    </g>
    <g id="Grupo_878632" data-name="Grupo 878632">
      <g id="Grupo_878587" data-name="Grupo 878587">
        <g id="Grupo_878567" data-name="Grupo 878567">
          <g id="Grupo_878566" data-name="Grupo 878566">
            <path id="Trazado_617411" data-name="Trazado 617411" d="M176.816,343.374c-4.321-9.978-6.176-20.711-12.062-29.888a34.415,34.415,0,0,0-7.952-9.3c-4.225-3.254-8.9-2.727-13.55-4.682-8.533-3.586-13.306-13.358-21.444-18.189a38.045,38.045,0,0,0-27.026-4.428c-8.536,1.761-14.4,2.771-22.623-.789-6.287-2.722-19.41-7.194-14.963,4.762,2.62,7.046,11.337,10.451,15.6,16.955,4.564,6.969,5.705,17.178,11.877,23.081,5.85,5.6,13.772-.6,20.061,4.6,6.517,5.388,8.5,12.77,16.6,17.2,8.746,4.781,19.087,6.263,28.863,6.823,6.946.4,20.332,1.114,28.237-1.951C177.941,346.161,177.42,344.765,176.816,343.374Z" fill="#3b8b58"/>
          </g>
        </g>
        <path id="Trazado_617412" data-name="Trazado 617412" d="M103.389,301.878c21.047,22.335,46.127,37.637,73.939,42.754-.168-.42-.33-.84-.512-1.258-4.321-9.978-6.176-20.711-12.062-29.888a34.415,34.415,0,0,0-7.952-9.3c-4.225-3.254-8.9-2.727-13.55-4.682-8.533-3.586-13.306-13.358-21.444-18.189a38.045,38.045,0,0,0-27.026-4.428,72.953,72.953,0,0,1-9.513,1.519C91.037,286.878,96.908,295,103.389,301.878Z" fill="#307147"/>
        <g id="Grupo_878569" data-name="Grupo 878569">
          <g id="Grupo_878568" data-name="Grupo 878568">
            <path id="Trazado_617413" data-name="Trazado 617413" d="M394.074,161.861c-6.794-1.374,6.862-12.823,8.815-14.726,5.021-4.893,14.578-13.282,13.413-21.31-1.153-7.941-9.641-2.127-14.357-3.364.918-5.574,8.678-10.983,12.115-15.14,2.636-3.189,5.25-6.629,6.116-10.835,1.818-8.821-3.945-10.475-10.594-6.538-.973-1.41-.653-3.459-.479-5.219.455-4.6,4.161-20.381-3.655-21.644-4.126-.668-7.6,7.874-8.89,10.664-1.451,3.12-3.347,11.4-6.2,13.328-3.1,2.089-3.149-3.213-6.535-2.821-3.664.423-4.544,7.977-5.02,10.836-.848,5.086-.232,10.327.317,15.383.31,2.865,1.54,6.672-.16,9.265-1.895-1.473-3.819-3.874-5.911-5.183-5.1-3.2-6.15,2.382-7.183,6.747-1.745,7.372-.555,15.376-.525,22.907.011,2.726,1.131,9.652-.772,11.482-4.448-3.366-11.491-10.313-13.779-.637-1.5,6.344-.934,13.884.353,20.2a259.577,259.577,0,0,0,8.153,28.757q.954-.669,1.879-1.339c5.381-3.9,11.23-6.821,16.757-10.557,7.624-5.154,16.1-12.026,20.8-20,1.183-2,4.486-8.426,3.124-10.645C400,158.461,396.136,162.279,394.074,161.861Z" fill="#3b8b58"/>
          </g>
        </g>
        <path id="Trazado_617414" data-name="Trazado 617414" d="M401.853,161.473c-1.853-3.012-5.717.806-7.779.388a3.647,3.647,0,0,1-.757-.24c-11.444,9.233-22.136,19.417-30.574,31.421q-2.508,3.568-4.747,7.239c.428,1.285.861,2.537,1.3,3.728q.954-.669,1.879-1.339c5.381-3.9,11.23-6.821,16.757-10.557,7.624-5.154,16.1-12.026,20.8-20C399.912,170.113,403.215,163.692,401.853,161.473Z" fill="#307147"/>
        <g id="Grupo_878572" data-name="Grupo 878572">
          <g id="Grupo_878571" data-name="Grupo 878571">
            <g id="Grupo_878570" data-name="Grupo 878570">
              <path id="Trazado_617415" data-name="Trazado 617415" d="M161.334,242.093c3.1-11.173,7.032-22.745,8.876-34.1,1.5-9.245-2.159-19.14-6.744-26.968-3.774-6.438-11.716-10.792-15.284-17.322-4.565-8.358-1.989-19.814-4.758-28.925-3.02-9.928-8.963-16.507-16.884-22.79-6.969-5.53-12.122-7.518-16.4-15.59-3.87-7.3-8.018-16.187-16.285-19.513-19.2-7.722-4.989,32.029-4.248,39.366.849,8.4-2.534,13.623-6.278,20.662-5.5,10.341-5.569,20.268,2.482,29.738,7.029,8.266,14.136,10.584,12.393,22.68-1.26,8.745-2.612,18.412.039,27.188,3.077,10.187,8.849,19.728,17.923,24.991a120.264,120.264,0,0,0,12.556,6.215c3.478,1.5,17.131,3.762,28.128,5.391A55.563,55.563,0,0,0,161.334,242.093Z" fill="#59a960"/>
            </g>
          </g>
        </g>
        <path id="Trazado_617416" data-name="Trazado 617416" d="M128.725,247.725c3.478,1.5,17.131,3.762,28.128,5.391a60.139,60.139,0,0,0,3.638-8.314,117.606,117.606,0,0,0-31.683-37.311A153.134,153.134,0,0,0,98.323,188.4c-.034.306-.07.614-.116.934-1.26,8.745-2.612,18.412.039,27.188,3.077,10.187,8.849,19.728,17.923,24.991A120.264,120.264,0,0,0,128.725,247.725Z" fill="#3b8b58"/>
        <g id="Grupo_878574" data-name="Grupo 878574">
          <g id="Grupo_878573" data-name="Grupo 878573">
            <path id="Trazado_617417" data-name="Trazado 617417" d="M427.371,208.1a181.045,181.045,0,0,0,6.759-62.02,118.037,118.037,0,0,1,.858-24.836c-2.746,2.757-5.874,5.328-7.513,7.09-5.641,6.063-11.713,11.851-17.25,18.124-15.086,17.086-30.153,35.351-38.791,56.719-5.669,14.023-8.877,28.357-8.147,43.282a92.155,92.155,0,0,0,3.462,20.462c.616,2.2,1.363,5.278,2.313,8.407C398.289,262.357,418.514,238.756,427.371,208.1Z" fill="#59a960"/>
          </g>
        </g>
        <path id="Trazado_617418" data-name="Trazado 617418" d="M374.147,197.038c-.956,2.022-1.873,4.062-2.713,6.14-5.669,14.023-8.877,28.357-8.147,43.282a92.155,92.155,0,0,0,3.462,20.462c.616,2.2,1.363,5.278,2.313,8.407a106.83,106.83,0,0,0,24.124-14.712A130.234,130.234,0,0,0,374.147,197.038Z" fill="#3b8b58"/>
        <path id="Trazado_617419" data-name="Trazado 617419" d="M423.978,218.085c-18.482,4.258-34.545,12.755-49.575,23.92a123.668,123.668,0,0,0-10.761,8.971,95.6,95.6,0,0,0,3.107,15.946c.616,2.2,1.363,5.278,2.313,8.407C395.029,263.8,413.882,243.883,423.978,218.085Z" fill="#3b8b58"/>
        <g id="Grupo_878576" data-name="Grupo 878576">
          <g id="Grupo_878575" data-name="Grupo 878575">
            <path id="Trazado_617420" data-name="Trazado 617420" d="M121.945,215.776c-16.355-12.909-33.87-22.634-54.183-27.188-5.919-1.327-17.428-1.076-27.508-2.779,20.275,21.789,29.771,56.321,46.588,80,21.422,30.17,50.051,51.038,84.412,56.781C167.531,280.721,158.46,244.59,121.945,215.776Z" fill="#73c078"/>
          </g>
        </g>
        <g id="Grupo_878578" data-name="Grupo 878578">
          <g id="Grupo_878577" data-name="Grupo 878577">
            <path id="Trazado_617421" data-name="Trazado 617421" d="M374.4,251.074c15.59-11.581,32.283-20.306,51.645-24.392,5.642-1.19,16.611-.965,26.219-2.493-19.326,19.548-28.376,50.529-44.4,71.777-20.419,27.066-47.706,45.788-80.457,50.94C330.953,309.339,339.6,276.924,374.4,251.074Z" fill="#73c078"/>
          </g>
        </g>
        <path id="Trazado_617422" data-name="Trazado 617422" d="M327.4,346.906a116.042,116.042,0,0,0,51.4-21.8,131.373,131.373,0,0,0,12.082-84.851,162.676,162.676,0,0,0-16.487,10.82C339.6,276.924,330.953,309.339,327.4,346.906Z" fill="#59a960"/>
        <g id="Grupo_878580" data-name="Grupo 878580">
          <g id="Grupo_878579" data-name="Grupo 878579">
            <path id="Trazado_617423" data-name="Trazado 617423" d="M191.591,326.94c-8.1-3.879-16.54-10.681-22.186-15.46-20.131-17.04-36.246-38.247-51.831-58.755q-2.886-3.8-5.78-7.59a207.117,207.117,0,0,0-22.563-25.626c-.763-.721-1.559-1.481-2.383-2.268-6.466-6.174-14.514-13.859-22.109-17.162l.371-.855c7.747,3.37,15.862,11.117,22.381,17.343.823.786,1.618,1.545,2.38,2.264a208.057,208.057,0,0,1,22.663,25.737q2.9,3.791,5.782,7.593c15.555,20.468,31.639,41.634,51.692,58.608,5.605,4.746,13.985,11.5,21.986,15.33Z" fill="#59a960"/>
          </g>
        </g>
        <g id="Grupo_878582" data-name="Grupo 878582">
          <g id="Grupo_878581" data-name="Grupo 878581">
            <path id="Trazado_617424" data-name="Trazado 617424" d="M154.861,244.394A78.465,78.465,0,0,0,148.7,221c-5.434-12.1-11.6-21.552-19.392-29.753-6.808-7.162-12.444-13.983-12.455-24.951,0-2.427.055-4.872.111-7.236.18-7.539.348-14.661-1.24-21.957-2.779-12.76-9.313-23.186-16.23-34.223l.362-.3.394-.247-.394.247.428-.193c6.962,11.109,13.537,21.6,16.351,34.519,1.612,7.406,1.433,14.915,1.262,22.178-.057,2.358-.115,4.8-.113,7.214.012,10.624,5.533,17.294,12.2,24.308,7.872,8.28,14.089,17.817,19.568,30.014a79.363,79.363,0,0,1,6.239,23.669Z" fill="#3b8b58"/>
          </g>
        </g>
        <g id="Grupo_878583" data-name="Grupo 878583">
          <path id="Trazado_617425" data-name="Trazado 617425" d="M354.558,233.133l-.914-.19c.817-3.93,1.253-7.851,1.675-11.642a85.935,85.935,0,0,1,2.858-16.137c.885-2.865,1.7-5.462,2.7-8.239,1.155-3.2,2.24-6.522,3.291-9.735,1.615-4.943,3.287-10.055,5.306-15.048,1.832-4.53,4.116-9.144,6.325-13.6,2.339-4.726,4.758-9.612,6.641-14.4,1.723-4.381,3.039-8.968,4.312-13.4a114.168,114.168,0,0,1,6.113-17.594c3.117-6.574,4.519-12.887,6-19.57.618-2.786,1.258-5.666,2.034-8.574l.9.24c-.771,2.889-1.409,5.76-2.025,8.536-1.5,6.736-2.909,13.1-6.071,19.768a113.377,113.377,0,0,0-6.059,17.451c-1.279,4.457-2.6,9.066-4.341,13.489-1.9,4.828-4.326,9.732-6.673,14.475-2.2,4.446-4.478,9.044-6.3,13.542-2.007,4.963-3.673,10.06-5.284,14.988-1.052,3.219-2.14,6.548-3.3,9.762-.995,2.757-1.807,5.344-2.69,8.2-1.634,5.282-2.211,10.471-2.822,15.964C355.821,225.217,355.383,229.16,354.558,233.133Z" fill="#307147"/>
        </g>
        <g id="Grupo_878584" data-name="Grupo 878584">
          <path id="Trazado_617426" data-name="Trazado 617426" d="M355.251,287.544l-.6-.717c2.835-2.347,4.495-5.782,6.1-9.105a38.752,38.752,0,0,1,3.925-6.884c.826-1.072,1.628-2.023,2.4-2.942a34.53,34.53,0,0,0,4.867-6.885,89.108,89.108,0,0,0,6.632-18.844c.522-2.044,1.028-4.119,1.537-6.205,1.967-8.066,4-16.407,7.188-23.684l1.309-3c4.383-10.073,8.915-20.49,15.689-29.123a122.815,122.815,0,0,0,15.48-25.547l.842.4a123.613,123.613,0,0,1-15.589,25.723c-6.7,8.538-11.207,18.9-15.566,28.919l-1.31,3c-3.155,7.2-5.18,15.5-7.138,23.531-.509,2.089-1.015,4.167-1.539,6.214a89.971,89.971,0,0,1-6.7,19.039A35.273,35.273,0,0,1,367.8,268.5c-.77.91-1.565,1.852-2.379,2.908a38.2,38.2,0,0,0-3.824,6.721C359.948,281.54,358.242,285.069,355.251,287.544Z" fill="#3b8b58"/>
        </g>
        <g id="Grupo_878585" data-name="Grupo 878585">
          <path id="Trazado_617427" data-name="Trazado 617427" d="M312.936,365.892l-.487-.8a10.355,10.355,0,0,0,3.516-3.909,25.163,25.163,0,0,1,1.482-2.208c4.9-6.363,9.641-12.864,14.222-19.151,6.9-9.472,14.037-19.265,21.821-28.687,4.226-5.116,9.381-9.25,14.367-13.247,4.924-3.949,10.017-8.032,14.082-12.994l2.19-2.674c9.345-11.416,18.171-22.2,28.289-32.655l.67.648c-10.091,10.429-18.9,21.2-28.237,32.6l-2.191,2.675c-4.127,5.036-9.258,9.151-14.219,13.128s-10.067,8.072-14.232,13.114c-7.766,9.4-14.894,19.183-21.787,28.643-4.585,6.292-9.325,12.8-14.236,19.172a24.323,24.323,0,0,0-1.429,2.129A11.236,11.236,0,0,1,312.936,365.892Z" fill="#59a960"/>
        </g>
        <g id="Grupo_878586" data-name="Grupo 878586">
          <path id="Trazado_617428" data-name="Trazado 617428" d="M202.364,357.13c-1.338-1.278-2.613-2.516-3.843-3.709-10.029-9.732-17.274-16.763-32.14-19.619-1.764-.34-3.642-.621-5.458-.894a63.828,63.828,0,0,1-11.843-2.54c-4.894-1.748-8.532-5.245-12.052-8.628-3.294-3.167-6.4-6.157-10.487-7.886a60.777,60.777,0,0,0-8.34-2.708c-5.577-1.5-10.392-2.793-15.771-8.86-1.042-1.175-2.146-2.633-3.315-4.175-4.911-6.484-11.02-14.554-19.307-11.118l-.357-.861c8.95-3.713,15.3,4.677,20.408,11.416,1.158,1.528,2.25,2.972,3.268,4.119,5.193,5.858,9.884,7.12,15.315,8.579A61.3,61.3,0,0,1,126.9,313c4.24,1.8,7.561,4.986,10.771,8.072,3.448,3.315,7.014,6.741,11.719,8.423a63.156,63.156,0,0,0,11.667,2.495c1.826.275,3.713.558,5.5.9,15.139,2.91,22.468,10.022,32.613,19.866,1.229,1.192,2.5,2.428,3.838,3.7Z" fill="#307147"/>
        </g>
      </g>
      <g id="Grupo_878595" data-name="Grupo 878595">
        <g id="Grupo_878594" data-name="Grupo 878594">
          <g id="Grupo_878590" data-name="Grupo 878590">
            <circle id="Elipse_5153" data-name="Elipse 5153" cx="130.967" cy="130.967" r="130.967" transform="translate(104.183 356.277) rotate(-82.705)" fill="#4d7abb"/>
            <g id="Grupo_878589" data-name="Grupo 878589">
              <g id="Grupo_878588" data-name="Grupo 878588">
                <path id="Trazado_617429" data-name="Trazado 617429" d="M244.954,131.253c-1.034,2.172-4.092,1.426-4.95,3.16-1.4,2.853.149,5.52.662,8.232,1.148,6.125,2.89,8.568-3.328,12.213-5.9,3.458-7.608,1.034-7.327,9.313.093,2.871,2.74,3,1.053,6.125-.532.978-4.68,1.426-5.808,3.02-3.328,4.736,1.8,10.936.513,16.119-1.529,6.134-5.958,5.155-9.994,8.315-7.775,6.079-5.444,21.051-14.589,25.479-3.618,1.752-12.418-.243-14.945-3.1-3.868-4.363-1.072-9.453.849-13.742,2.536-5.677,3.113-6.851.149-12.361-1.082-2.005-2.769-2.62-3.561-5.277-.839-2.824.764-6.041-.494-8.837-1.007-2.219-3.9-2.387-4.764-4.2-1.277-2.638-.308-5.518-1.51-8.008-.569-1.174-2.462-4.632-4.037-4.931-4.549-.848-1.827,2.582-3.412,4.931-6.628,9.817-13.471-1.016-23.092,2.536a48.08,48.08,0,0,0-6.945,3.683,130.991,130.991,0,0,1,94.026-60.774C238.447,118.77,249.383,121.95,244.954,131.253Z" fill="#79c0c4"/>
                <path id="Trazado_617430" data-name="Trazado 617430" d="M277.512,274.247c-5.512-14.474-13.987-2.334-22.925-9.579-2.549-2.065-2.212-6.026-5.909-7.22-3.979-1.286-9.248,2.176-13.92,1.719-11.82-1.158-17.05,4.549-20.358,16.605-1.689,6.16-2.506,8.979,2.566,13.252,2,1.684,5.209,2.147,6.949,4.056,2.075,2.272,1.592,5.475,3.231,7.663,2.623,3.51,7.858,4.037,11.021,7.946,1.408,1.739,1.308,4.616,3.042,6.458,1.854,1.97,4.918,1.7,7.139,3.886,5.773,5.692,6.741,13.82,6.453,21.056-.391,9.807,5.969,12.97,15.638,12.1,2.166-7.627,5.48-3.925,11.012-6.669,4.617-2.29,7.145-8.918,8.107-13.573,1.2-5.788.455-6.548,4.752-11.685,3.377-4.044,6.425-8.027,6.786-13.422.558-8.392-2.76-7.2-7.463-10.826-3.255-2.508-5.746-6.309-8.826-8.855-2.606-2.155-3.208-1.5-4.9-4.749C278.707,280.1,278.493,276.823,277.512,274.247Z" fill="#79c0c4"/>
                <path id="Trazado_617431" data-name="Trazado 617431" d="M381.687,243A130.642,130.642,0,0,1,370.3,296.493c-1.781-.017-3.375-.046-4.522,0-5.555.215-11.2-1.92-14.291-6.749-1.65-2.564-.364-5.63-3.393-8.045-2.014-1.6-5.072-.727-7.421-1.492-8.129-2.666-4.242-5.509-5.435-11.541-1.016-5.1-7.859-7.97-12.893-6.255-4.606,1.575-5.631,7.933-10.861,7.653-6.088-.326-6.889-7.429-8.138-11.568-2.164-7.16-1.455-8.1-8.316-5.6a58.544,58.544,0,0,0-5.92,2.872c-1.734,2.144.084,5.388-1.361,7.5-3.207,4.679-8.642-2.033-10.04-6.163-.867-2.535-.009-5.537-.82-8.12-.7-2.246-3.282-3.132-3.944-5.416-2.508-8.6,4.056-6.861,7.831-11.009,6.423-7.058-2.517-6.881-7.309-4.093-2.582,1.51-3.132,3.515-6.1,4.242-2.517.615-5.416-.989-8.157-.69-2.7.289-3.692,2.153-6.769,2.05-4.017-.13-2.992-1.743-5.919-2.88-6.451-2.508-9.369,1.128-15.689.065-1.362-5.528,4.754-9.518,8.865-11.271,2.732-1.165,5.416-1,7.821-2.377,2.564-1.473,2.891-3.99,6.284-5.1,5.482-1.8,11.234-2.144,16.287-4.9,3.97-2.172,7.607-8.633-.56-9.621,1.473-9.546-10.171-2.4-13.667-2.563-10.544-.513-2.219-8.092,2.657-11.057,2.713-1.66,5.687-3.048,8.325-4.428,3.4-1.79,4.334-2.974,7.141-5.072,9.285-6.926,5.557,2.658,13.639,2.975-1.138,10.021,5.417,6.86,10.31,2.619,1.222-1.063,1.921-3.943,3.506-4.615,1.678-.708,2.74,1.231,3.393,1.091a67.668,67.668,0,0,1,8.6-1.324c-.428-3.263-3.048-8.987-1.127-12,.81-1.286,4.614-.82,5.966-2.144,2.527-2.47,2.088-3.039,2.712-6.116,1.119-5.435-.876-6.684,3.375-10.692a36.971,36.971,0,0,1,7.02-4.829A130.716,130.716,0,0,1,381.687,243Z" fill="#79c0c4"/>
                <path id="Trazado_617432" data-name="Trazado 617432" d="M202.2,322.97c.7,10.8-5.518,4.912-12.277,7.738a27.3,27.3,0,0,1-.913,8.585c-7.291,3.6-6.47,9.6-5.715,16.007a131.1,131.1,0,0,1-24.342-18.869c-.121-1.277-.251-2.564-.419-3.84-.139-1.072,1.864-1.38,1.3-3.227-.187-.6-2.312-1.611-2.777-2.713-1.241-2.955-2.35-3.355-2.565-6.935-.316-5.445,4.158-9.938,4.8-14.916.335-2.648-1.558-4.7-1.39-7.467.15-2.4,1.576-4.177,1.93-6.666-4.278-1.557-7.635-2.451-10.618-5.444-3.319,3.086-10.945-1.473-14.422-2.144-5.268-1-9.686-1.641-10.935-8.707-.131-.075-.261-.14-.383-.2v-.009a131.919,131.919,0,0,1,2.453-71.047c5.639.709,3.9-.158,6.824-3.542,2.032-2.349,13.293-16.762,15.083-5.51,4.558-.214,13.5.513,11.438,7.579-1.267,4.317-9.425,3.906-12.417,8.838-3.393,5.594-.549,7.551,3.58,11.523,6.106,5.873,6.05,5.975,8.669-1.2,1.092-2.992-2.049-3.487,2.192-4.9,2.843-.951,4.735.439,6.619,2.173,2.6,2.4,1.538,4.931,4.95,7.15,2.237,1.464,4.95.783,7.431,1.5,4.11,1.193,13.9,7.038,10.039,12.79-3.216,4.782-12.24-2.144-14.841.765-.177.055-.354.1-.523.149.383,5.612,7.888,5.882,7.253,11.336-4.772.242-12.249-1.557-15.353,2.126-2.61,3.095-.2,13.6-2.321,15.484-3.412,3.021-10.479-1.008-13.612-2.415-2.274-1.026-3.757-2.964-6.609-2.89a48.669,48.669,0,0,0-6.312,3.207c-1.836,4.577,5.119,9.994,9.174,10.888,4.5.989,7.8-3.113,13.276-.363,5.061,2.545,4.278,6.862,11.008,8,3.9.652,12.586-1.128,15.607,1.492,3.067,2.656.978,5.788,3.225,8.865,1.762,2.4,5.314,2.481,7.672,3.18,5.772,1.7,11.206,3.122,11.374,10.777C199.386,311.765,201.689,314.943,202.2,322.97Z" fill="#79c0c4"/>
              </g>
            </g>
            <path id="Trazado_617433" data-name="Trazado 617433" d="M345.318,152.431A130.982,130.982,0,0,1,128.6,290.4,130.981,130.981,0,1,0,345.318,152.431Z" fill="#0bf" opacity="0.5" style="mix-blend-mode: multiply;isolation: isolate"/>
          </g>
          <g id="Grupo_878591" data-name="Grupo 878591">
            <path id="Trazado_617434" data-name="Trazado 617434" d="M406.766,195.745C401.644,167.878,381.8,180.4,381.8,180.4c-27.847-26.247-32.65,7.683-32.65,7.683-12.8-4.8-16.324,7.682-16.324,7.682-17.673-4.279-23.127,4.956-24.6,13.443H426.34C423.047,188.908,406.766,195.745,406.766,195.745Z" fill="#fff"/>
          </g>
          <g id="Grupo_878592" data-name="Grupo 878592">
            <path id="Trazado_617435" data-name="Trazado 617435" d="M147.839,215.742c-3.219-17.516-15.694-9.646-15.694-9.646-17.5-16.5-20.522,4.829-20.522,4.829-8.048-3.018-10.261,4.828-10.261,4.828-11.108-2.689-14.536,3.116-15.461,8.451h74.241C158.072,211.444,147.839,215.742,147.839,215.742Z" fill="#fff"/>
          </g>
          <g id="Grupo_878593" data-name="Grupo 878593">
            <path id="Trazado_617436" data-name="Trazado 617436" d="M191.285,140.9c-4.1-22.3-19.978-12.281-19.978-12.281-22.284-21-26.127,6.148-26.127,6.148-10.246-3.842-13.063,6.147-13.063,6.147-14.141-3.423-18.506,3.967-19.682,10.759h94.513C204.314,135.432,191.285,140.9,191.285,140.9Z" fill="#fff"/>
          </g>
        </g>
        <path id="Trazado_617437" data-name="Trazado 617437" d="M202.88,204.654c-17.962,23.03-41.857,34.423-53.368,25.444s-6.282-34.928,11.682-57.959,41.858-34.421,53.37-25.443S220.844,181.623,202.88,204.654Z" fill="#fff" opacity="0.3"/>
      </g>
      <g id="Grupo_878631" data-name="Grupo 878631">
        <g id="Grupo_878600" data-name="Grupo 878600">
          <path id="Trazado_617438" data-name="Trazado 617438" d="M459.746,386.035c0,3.755-15.437,6.8-34.481,6.8s-34.48-3.045-34.48-6.8,15.438-6.8,34.48-6.8S459.746,382.279,459.746,386.035Z" fill="#bbe7f2"/>
          <g id="Grupo_878599" data-name="Grupo 878599">
            <g id="Grupo_878596" data-name="Grupo 878596">
              <path id="Trazado_617439" data-name="Trazado 617439" d="M401.63,353.168l7.8-17.644-10.1-8.142-8.312,22.774s-2.021,4.35,5.9,9.944l15.643,15.216,4.864-2.327S406.861,358.3,401.63,353.168Z" fill="#0a3c5f"/>
              <path id="Trazado_617440" data-name="Trazado 617440" d="M412.563,375.316l1.288,1.591L402.1,383.632l-.341,1.451,20.65-2.9-2.952-6.864-2.028-2.327Z" fill="#fdb18d"/>
              <path id="Trazado_617441" data-name="Trazado 617441" d="M413.022,375.884l.828,1.023,5.6-1.591-1.343-1.541Z" fill="#fff"/>
              <path id="Trazado_617442" data-name="Trazado 617442" d="M402.1,383.632l-.341,1.451,20.65-2.9-2.952-6.864-5.6,1.591Z" fill="#0d134f"/>
              <path id="Trazado_617443" data-name="Trazado 617443" d="M422.406,382.181l-.729-1.693L402.1,383.632l-.341,1.451Z" fill="#62c1c5"/>
            </g>
            <path id="Trazado_617444" data-name="Trazado 617444" d="M399.086,328.833l6,16.517,4.342-9.826-9.8-7.906Z" fill="#0d134f"/>
            <path id="Trazado_617445" data-name="Trazado 617445" d="M350.623,273.309s-.509-1.246,0-4.413c0,0-.849-6.787.962-4.524v-1.415s-1.471-2.488-.594-3.846l.594.622a2.813,2.813,0,0,1,0-1.923,12.335,12.335,0,0,1,1.075,2.149l.4,2.6.17,3s.4,5.487.793,6.336c0,0,10.351,5.882,13.349,6.618l.567,4.978Z" fill="#f09474"/>
            <path id="Trazado_617446" data-name="Trazado 617446" d="M367.935,283.491l-.567-4.978c-3-.736-13.349-6.618-13.349-6.618l-1.552,2.5Z" fill="#fff"/>
            <path id="Trazado_617447" data-name="Trazado 617447" d="M353.844,275.2l14.451,8.51L368,278.775c-2.4-.587-10.139-4.733-12.883-6.261Z" fill="#f8a510"/>
            <g id="Grupo_878598" data-name="Grupo 878598">
              <path id="Trazado_617448" data-name="Trazado 617448" d="M378.061,287.945a13.03,13.03,0,0,1,5.909,1.753l2.818-3.166-3.759-3.869-4.67,1.368Z" fill="#f09474"/>
              <path id="Trazado_617449" data-name="Trazado 617449" d="M385.2,284.9l-.941-1.184-3.962,4.157.815,1.32,3.781-2.219Z" fill="#fff"/>
              <g id="Grupo_878597" data-name="Grupo 878597">
                <path id="Trazado_617450" data-name="Trazado 617450" d="M383.995,279.9s-1.718-11.878-11.469-8.3c0,0-9.341,2.59-2.4,16.806l1.716-.847s2.311,3.743,4.285,2.664l7.332-7.1Z" fill="#fdb18d"/>
                <path id="Trazado_617451" data-name="Trazado 617451" d="M380.831,277.6l-5.034-4.106-7.642,2.347c-.839,2.16-.97,5.346.847,10.007Z" fill="#f09474"/>
                <path id="Trazado_617452" data-name="Trazado 617452" d="M383.995,279.9s-1.718-11.878-11.469-8.3c0,0-6.37,1.766-4.677,10.389.006,0,1.066.69,4.362-.682a5.289,5.289,0,0,1,3.25,2.9l1.176-.711s-1.5-3.631.021-4.8l1.963.421s1.291,3.063,3.558,3.163l1.487-.389Z" fill="#0a3c5f"/>
                <path id="Trazado_617453" data-name="Trazado 617453" d="M375.461,284.211l1.176-.711s-1.5-3.631.021-4.8l1.963.421s1.291,3.063,3.558,3.163l1.487-.389.329-2s-.843-5.792-4.673-8.065a16.092,16.092,0,0,1-11.69,8.688c.047.466.115.955.217,1.469.006,0,1.066.69,4.362-.682A5.289,5.289,0,0,1,375.461,284.211Z" fill="#0d134f"/>
                <path id="Trazado_617454" data-name="Trazado 617454" d="M378.8,279.495c.549,1.342.312,2.709-.528,3.051s-1.965-.465-2.513-1.806-.314-2.709.526-3.052S378.249,278.152,378.8,279.495Z" fill="#fdb18d"/>
              </g>
            </g>
            <path id="Trazado_617455" data-name="Trazado 617455" d="M377.009,294.7l42.115,65.111,23.306,17.869,5.127-3.107-19.266-19.267L412.283,317.86l-21.36-29.676L385.2,284.9Z" fill="#0a3c5f"/>
            <path id="Trazado_617456" data-name="Trazado 617456" d="M385.2,284.9l-8.193,9.8,22.077,34.133h0a23.43,23.43,0,0,0,13.2-10.973l-21.36-29.676Z" fill="#fdd247"/>
            <path id="Trazado_617457" data-name="Trazado 617457" d="M384.273,296.426a7.469,7.469,0,0,0-4.153-5.448l-3.111,3.722,1.809,2.8A14.009,14.009,0,0,0,384.273,296.426Z" fill="#f8a510"/>
            <path id="Trazado_617458" data-name="Trazado 617458" d="M347.576,271.168s16.63,6.552,17.974,10.247c0,0,10.919,4.7,16.967,4.7,0,0,6.55.672,4.367,8.4,0,0-1.68,5.041-11.759-.838l-13.774-7.393s-13.439-9.741-16.63-13.773c0,0-2.356-2.145-1-8.084,0,0,0-5.94,1.018-5.2,0,0-.452-2.8.736-2.8A27.807,27.807,0,0,1,347,259.847l.112,2.206a12.206,12.206,0,0,1,.737,3.224A34.857,34.857,0,0,1,347.576,271.168Z" fill="#fdb18d"/>
            <path id="Trazado_617459" data-name="Trazado 617459" d="M386.884,294.517c2.183-7.727-4.367-8.4-4.367-8.4-6.048,0-16.967-4.7-16.967-4.7-1.344-3.7-17.974-10.247-17.974-10.247l-1.849,2.468c4.341,4.47,15.624,12.65,15.624,12.65l13.774,7.393C385.2,299.558,386.884,294.517,386.884,294.517Z" fill="#fff"/>
            <path id="Trazado_617460" data-name="Trazado 617460" d="M346.822,274.707c4.886,4.587,14.529,11.579,14.529,11.579l13.774,7.393c10.079,5.879,11.759.838,11.759.838,2.183-7.727-4.367-8.4-4.367-8.4-6.048,0-16.967-4.7-16.967-4.7-1.142-3.14-13.317-8.341-16.95-9.832Z" fill="#fdd247"/>
            <path id="Trazado_617461" data-name="Trazado 617461" d="M442.43,377.681l1.389,1.348-11.591,6.224-.207,1.348,19.96-1.348L453,380.016l-5.441-5.442Z" fill="#fdb18d"/>
            <path id="Trazado_617462" data-name="Trazado 617462" d="M442.975,378.209l.844.819,6.846-1.348-2.534-2.534Z" fill="#fff"/>
            <path id="Trazado_617463" data-name="Trazado 617463" d="M450.664,377.681l-6.846,1.348-11.591,6.224-.207,1.348,19.96-1.348L453,380.016Z" fill="#0d134f"/>
            <path id="Trazado_617464" data-name="Trazado 617464" d="M451.98,385.252l.327-1.685v0l-20.08,1.688-.207,1.348Z" fill="#62c1c5"/>
          </g>
        </g>
        <g id="Grupo_878608" data-name="Grupo 878608">
          <path id="Trazado_617465" data-name="Trazado 617465" d="M274.858,419.122c0,3.756-24.063,6.8-53.749,6.8s-53.746-3.044-53.746-6.8,24.064-6.8,53.746-6.8S274.858,415.367,274.858,419.122Z" fill="#bbe7f2"/>
          <g id="Grupo_878607" data-name="Grupo 878607">
            <rect id="Rectángulo_294007" data-name="Rectángulo 294007" width="51.723" height="2.742" transform="translate(192.605 384.664)" fill="#f8a510"/>
            <path id="Trazado_617466" data-name="Trazado 617466" d="M243.449,384.664h-4.105l1.277,2.742h3.707v-.857Z" fill="#0d134f"/>
            <rect id="Rectángulo_294008" data-name="Rectángulo 294008" width="25.463" height="2.742" transform="translate(196.005 334.646)" fill="#0d134f"/>
            <g id="Grupo_878601" data-name="Grupo 878601">
              <path id="Trazado_617467" data-name="Trazado 617467" d="M212.839,314.552l-1.3,5.014-25.824,99.556H181.86l27.2-104.859.167-.643a1.877,1.877,0,0,1,2.275-1.344,1.911,1.911,0,0,1,1.166.9c.046.093.093.2.131.3A1.91,1.91,0,0,1,212.839,314.552Z" fill="#fdd247"/>
            </g>
            <path id="Trazado_617468" data-name="Trazado 617468" d="M210.9,313.479c-.037-.1-.084-.205-.129-.3l-.39-.833a1.866,1.866,0,0,0-1.146,1.272l-.167.643-.68,2.62,1.255,2.683,1.223,2.628.682-2.628.781-3.024Z" fill="#f8a510"/>
            <rect id="Rectángulo_294009" data-name="Rectángulo 294009" width="16.524" height="1.833" transform="translate(217.77 342.77)" fill="#0d134f"/>
            <rect id="Rectángulo_294010" data-name="Rectángulo 294010" width="16.523" height="1.833" transform="translate(223.2 354.714)" fill="#0d134f"/>
            <rect id="Rectángulo_294011" data-name="Rectángulo 294011" width="16.523" height="1.833" transform="translate(228.63 366.658)" fill="#0d134f"/>
            <rect id="Rectángulo_294012" data-name="Rectángulo 294012" width="16.523" height="1.833" transform="translate(234.06 378.603)" fill="#0d134f"/>
            <rect id="Rectángulo_294013" data-name="Rectángulo 294013" width="16.524" height="1.834" transform="translate(239.488 390.547)" fill="#0d134f"/>
            <rect id="Rectángulo_294014" data-name="Rectángulo 294014" width="16.524" height="1.834" transform="translate(244.918 402.491)" fill="#0d134f"/>
            <path id="Trazado_617469" data-name="Trazado 617469" d="M237.033,247.2c.153-1.012-.758-3.774-2.2-3.231-.422.159-.5.548-.489.961a4.034,4.034,0,0,0,1.124,2.626C236.089,248.1,236.9,248.108,237.033,247.2Z" fill="#f09474"/>
            <path id="Trazado_617470" data-name="Trazado 617470" d="M246.315,247.2c-.152-1.012.759-3.774,2.2-3.231.422.159.5.548.49.961a4.044,4.044,0,0,1-1.124,2.626C247.261,248.1,246.452,248.108,246.315,247.2Z" fill="#f09474"/>
            <path id="Trazado_617471" data-name="Trazado 617471" d="M249.009,241.354a7.309,7.309,0,1,0-13.534,3.815h-.005a18.7,18.7,0,0,1,2.237,7.265h7.376a53.7,53.7,0,0,1,2.848-7.265h-.005A7.273,7.273,0,0,0,249.009,241.354Z" fill="#fdb18d"/>
            <path id="Trazado_617472" data-name="Trazado 617472" d="M274.858,256.092s.6-2.822.9-3.649a8.744,8.744,0,0,1,2.827-2.742l.74,2.643S276.932,256.337,274.858,256.092Z" fill="#fdb18d"/>
            <g id="Grupo_878603" data-name="Grupo 878603">
              <g id="Grupo_878602" data-name="Grupo 878602">
                <path id="Trazado_617473" data-name="Trazado 617473" d="M279.052,259.643h-.933v-17.26l16.176-9.7V228.2h-15.71v-.933h16.643v5.951l-16.176,9.7Z" fill="#fdd247"/>
              </g>
            </g>
            <g id="Grupo_878604" data-name="Grupo 878604">
              <path id="Trazado_617474" data-name="Trazado 617474" d="M278.585,259.646a1.4,1.4,0,0,1-1.4-1.4V247.336a1.4,1.4,0,1,1,2.8,0v10.911A1.4,1.4,0,0,1,278.585,259.646Z" fill="#f8a510"/>
            </g>
            <path id="Trazado_617475" data-name="Trazado 617475" d="M218.838,271.364s1.924,4.936,8.751,6C227.589,277.362,226.959,267.774,218.838,271.364Z" fill="#0a3c5f"/>
            <path id="Trazado_617476" data-name="Trazado 617476" d="M252.561,291.291s-2.952,60.081-4.04,70.719h-6.055l-6.37-71.7S245.1,283.523,252.561,291.291Z" fill="#0a3c5f"/>
            <path id="Trazado_617477" data-name="Trazado 617477" d="M237.066,301.369l.989,11.247a42.7,42.7,0,0,0,9.654-12.013Z" fill="#0d134f"/>
            <path id="Trazado_617478" data-name="Trazado 617478" d="M229.566,253.07l6.836-2.33s7.436-1.251,10.877,0l9.323,4.506a69.57,69.57,0,0,0,2.019,12.9l-6.06,23.149-20.82-1.241-3.418-24.084Z" fill="#fdd247"/>
            <path id="Trazado_617479" data-name="Trazado 617479" d="M233,263.035l-4.569,1.843-.1,1.088,1.979,13.94C234.152,272.4,233,263.035,233,263.035Z" fill="#f8a510"/>
            <path id="Trazado_617480" data-name="Trazado 617480" d="M252.561,291.291s1.916,13.531-27.148,18.088l5.221,28.742H224.5l-12.65-34.293,19.751-9.714.138-4.064Z" fill="#0a3c5f"/>
            <path id="Trazado_617481" data-name="Trazado 617481" d="M224.5,338.121l-10.485,2.985v1.663H230.99l-.356-4.648Z" fill="#0d134f"/>
            <path id="Trazado_617482" data-name="Trazado 617482" d="M230.99,342.77l-.128-1.663H214.017v1.663Z" fill="#fff"/>
            <path id="Trazado_617483" data-name="Trazado 617483" d="M242.466,362.01,231.9,365v1.662h16.975l-.357-4.648Z" fill="#0d134f"/>
            <path id="Trazado_617484" data-name="Trazado 617484" d="M248.879,366.658,248.751,365H231.9v1.662Z" fill="#fff"/>
            <path id="Trazado_617485" data-name="Trazado 617485" d="M229.566,253.07s3.93,3.975,1.424,13.772l-6.777,15.067-13.366,19.746H198.862a13.114,13.114,0,0,1,10.277-4.2S224.693,256.586,229.566,253.07Z" fill="#fdb18d"/>
            <path id="Trazado_617486" data-name="Trazado 617486" d="M218.838,271.364a8.6,8.6,0,0,1,8.751,6s11.008-17.53,1.977-24.292C229.566,253.07,224.818,254.43,218.838,271.364Z" fill="#fdd247"/>
            <path id="Trazado_617487" data-name="Trazado 617487" d="M263.632,259.186l5.432.9,5.794-3.991s1.97-4.669,5.125-6.793c0,0,2.7,1.514,1.125,6.914l-3.944,2.428-6.486,7.767s-8.259.3-8.2.484S263.632,259.186,263.632,259.186Z" fill="#fdb18d"/>
            <path id="Trazado_617488" data-name="Trazado 617488" d="M256.6,255.246l8.545,3.729s2.476,5.947-.476,9.054l-6.05.113S252.561,261.46,256.6,255.246Z" fill="#fdd247"/>
            <path id="Trazado_617489" data-name="Trazado 617489" d="M255.976,278.251c-7.34,7.217-19.97,8.851-24.6,9.211l.367,2.588,20.82,1.241Z" fill="#f8a510"/>
            <path id="Trazado_617490" data-name="Trazado 617490" d="M265.994,265.277a23.238,23.238,0,0,1-6.54-1.151c-.345,1.266-.833,4.016-.833,4.016l6.05-.113A5.258,5.258,0,0,0,265.994,265.277Z" fill="#f8a510"/>
            <path id="Trazado_617491" data-name="Trazado 617491" d="M291.053,229.462a1.909,1.909,0,0,1-1.909,1.908H268.026a1.908,1.908,0,0,1-1.907-1.908V226a2.793,2.793,0,0,1,1.205-2.116h21.118c1.756.208,2.611,1.062,2.611,2.116Z" fill="#e9f9f9"/>
            <path id="Trazado_617492" data-name="Trazado 617492" d="M289.144,228.765H268.026a1.908,1.908,0,0,1-1.907-1.909v2.606a1.908,1.908,0,0,0,1.907,1.908h21.118a1.909,1.909,0,0,0,1.909-1.908v-2.606A1.909,1.909,0,0,1,289.144,228.765Z" fill="#adcccc"/>
            <path id="Trazado_617493" data-name="Trazado 617493" d="M247.926,245.169a7.31,7.31,0,1,0-12.451,0h-.005s.213.349.507.974a17.167,17.167,0,0,1,2.171,2.52h6.958c.678-.592,2.3-2.438,2.3-2.44.174-.377.349-.734.523-1.054Z" fill="#0a3c5f"/>
            <path id="Trazado_617494" data-name="Trazado 617494" d="M247.414,236.8a25.626,25.626,0,0,1-.644,2.618,6.924,6.924,0,0,1-2.165,2.59,9.062,9.062,0,0,1-6.121,1.39,8.071,8.071,0,0,1-4.07-1.731,7.264,7.264,0,0,0,1.061,3.5h-.005s.213.349.507.974a17.167,17.167,0,0,1,2.171,2.52h6.958c.678-.592,2.3-2.438,2.3-2.44.174-.377.349-.734.523-1.054h-.005a7.277,7.277,0,0,0-.512-8.366Z" fill="#0d134f"/>
            <g id="Grupo_878605" data-name="Grupo 878605">
              <path id="Trazado_617495" data-name="Trazado 617495" d="M262.052,419.122H257.94l-46.4-99.556-2.48-5.3-2.694-5.79h-9.416a1.865,1.865,0,0,1,0-3.729h10.6a1.847,1.847,0,0,1,1.687,1.081l3.431,7.356c.046.093.093.2.131.3Z" fill="#fdd247"/>
            </g>
            <g id="Grupo_878606" data-name="Grupo 878606">
              <path id="Trazado_617496" data-name="Trazado 617496" d="M195.616,301.655l-3.869,3.869v2.95H210.48l-3.179-6.819Z" fill="#0a3c5f"/>
            </g>
            <path id="Trazado_617497" data-name="Trazado 617497" d="M210.48,308.475l-1.375-2.95H191.747v2.95Z" fill="#0d134f"/>
            <path id="Trazado_617498" data-name="Trazado 617498" d="M210.476,308.475H206.37l1.372,2.951h4.109Z" fill="#f8a510"/>
            <rect id="Rectángulo_294015" data-name="Rectángulo 294015" width="9.469" height="1.833" transform="translate(179.215 417.289)" fill="#0a3c5f"/>
            <rect id="Rectángulo_294016" data-name="Rectángulo 294016" width="9.468" height="1.833" transform="translate(254.807 417.289)" fill="#0a3c5f"/>
            <path id="Trazado_617499" data-name="Trazado 617499" d="M261.2,417.289l-2.095-4.494h-4.11l2.094,4.494Z" fill="#62c1c5"/>
            <path id="Trazado_617500" data-name="Trazado 617500" d="M186.2,417.289l1.165-4.494H183.5l-1.166,4.494Z" fill="#62c1c5"/>
          </g>
        </g>
        <g id="Grupo_878614" data-name="Grupo 878614">
          <path id="Trazado_617501" data-name="Trazado 617501" d="M154.96,383.845c0,3.755-12.413,6.8-27.726,6.8s-27.725-3.045-27.725-6.8,12.413-6.8,27.725-6.8S154.96,380.089,154.96,383.845Z" fill="#bbe7f2"/>
          <g id="Grupo_878613" data-name="Grupo 878613">
            <rect id="Rectángulo_294017" data-name="Rectángulo 294017" width="8.828" height="5.765" transform="translate(159.691 291.642)" fill="#0d134f"/>
            <path id="Trazado_617502" data-name="Trazado 617502" d="M160.8,309.332s.264-2.875.463-3.73a8.721,8.721,0,0,1,2.483-3.057l1.048,2.537S162.888,309.33,160.8,309.332Z" fill="#fdb18d"/>
            <g id="Grupo_878609" data-name="Grupo 878609">
              <path id="Trazado_617503" data-name="Trazado 617503" d="M164.123,310.171a1.094,1.094,0,0,1-1.1-1.09L163,300.556a1.093,1.093,0,0,1,2.186-.007l.027,8.524A1.093,1.093,0,0,1,164.123,310.171Z" fill="#f8a510"/>
            </g>
            <path id="Trazado_617504" data-name="Trazado 617504" d="M165.185,300.549a1.093,1.093,0,0,0-2.186.007l0,1.251h2.185Z" fill="#ba7c0c"/>
            <path id="Trazado_617505" data-name="Trazado 617505" d="M165.188,301.854c-2.883,2.484-4.389,7.478-4.389,7.478l-1.6,1.411a2.7,2.7,0,0,1,2.612,3.278l1.583-2.431,3.63-2.877C167.949,303.164,165.188,301.854,165.188,301.854Z" fill="#fdb18d"/>
            <path id="Trazado_617506" data-name="Trazado 617506" d="M159.521,310.171l.865-1.079s1.719.24,3.262,2.986l-1.292,1.21Z" fill="#fff"/>
            <path id="Trazado_617507" data-name="Trazado 617507" d="M101.3,314.432A144.264,144.264,0,0,0,114.823,343.6l2.983,35,15.919-.457V376l-11.75-2.591,1.973-32.578L111.56,316.47Z" fill="#2466b4"/>
            <path id="Trazado_617508" data-name="Trazado 617508" d="M133.725,376l-11.75-2.591h-4.612l.443,5.194,15.919-.457Z" fill="#0d134f"/>
            <path id="Trazado_617509" data-name="Trazado 617509" d="M133.725,377.044l-16.013.459.094,1.1,15.919-.457Z" fill="#fdd247"/>
            <path id="Trazado_617510" data-name="Trazado 617510" d="M112.615,326.416a163.608,163.608,0,0,0,10.969,20.421l.364-6.007-3.851-7.573Z" fill="#0d134f"/>
            <g id="Grupo_878612" data-name="Grupo 878612">
              <path id="Trazado_617511" data-name="Trazado 617511" d="M144.746,291.324a13.291,13.291,0,0,0-6.028,1.788l-2.876-3.23,3.835-3.948,4.764,1.4Z" fill="#f09474"/>
              <g id="Grupo_878611" data-name="Grupo 878611">
                <path id="Trazado_617512" data-name="Trazado 617512" d="M138.692,283.114s1.752-12.121,11.7-8.468c0,0,9.532,2.644,2.445,17.149l-1.75-.864s-2.359,3.818-4.373,2.717l-7.481-7.246Z" fill="#fdb18d"/>
                <path id="Trazado_617513" data-name="Trazado 617513" d="M141.919,280.77l5.138-4.19,7.8,2.4c.856,2.2.992,5.454-.864,10.209Z" fill="#f09474"/>
                <path id="Trazado_617514" data-name="Trazado 617514" d="M138.692,283.114s1.752-12.121,11.7-8.468c0,0,6.5,1.8,4.773,10.6-.008.005-1.089.7-4.452-.7a5.4,5.4,0,0,0-3.316,2.962l-1.2-.725s1.526-3.7-.022-4.9l-2,.429s-1.318,3.126-3.63,3.228l-1.517-.4Z" fill="#0a3c5f"/>
                <g id="Grupo_878610" data-name="Grupo 878610">
                  <path id="Trazado_617515" data-name="Trazado 617515" d="M146.483,282.222c1.005,1.429-.283,4.567-.283,4.567l1.2.725a5.4,5.4,0,0,1,3.316-2.962c3.363,1.4,4.444.7,4.452.7a12.316,12.316,0,0,0,.079-4.868c-1.155.473-2.265,1.013-3.45,1.371A14.769,14.769,0,0,1,146.483,282.222Z" fill="#0d134f"/>
                  <path id="Trazado_617516" data-name="Trazado 617516" d="M144.175,282.32l1.185-.254a6.956,6.956,0,0,1-2.884-1.141,5.167,5.167,0,0,1-1.788-3.212,15.826,15.826,0,0,0-2,5.4l.336,2.036,1.517.4C142.857,285.446,144.175,282.32,144.175,282.32Z" fill="#0d134f"/>
                </g>
                <path id="Trazado_617517" data-name="Trazado 617517" d="M143.995,282.7c-.56,1.368-.32,2.762.538,3.112s2.006-.475,2.565-1.843.319-2.764-.538-3.115S144.555,281.333,143.995,282.7Z" fill="#fdb18d"/>
              </g>
            </g>
            <path id="Trazado_617518" data-name="Trazado 617518" d="M134.387,288.771l2.887-1.565,5.73,5.906-1.367,1.06Z" fill="#fff"/>
            <path id="Trazado_617519" data-name="Trazado 617519" d="M107.45,316.229s3.705,11.3,20.2,30.573l1.094,39.8h17.689v-1.936l-12.706-3.272,5.226-37.369-13.713-26.752Z" fill="#2466b4"/>
            <path id="Trazado_617520" data-name="Trazado 617520" d="M101.3,314.432s6.152-19.115,33.089-25.661c0,0,6.771,2.269,10.359,7.371,0,0-4.074,6.83-16,16.078l-2.393,7.215S106.19,324.341,101.3,314.432Z" fill="#222b5a"/>
            <path id="Trazado_617521" data-name="Trazado 617521" d="M126.349,319.435l2.393-7.215a93.682,93.682,0,0,0,11-9.887l-1.379-1.5-11.422,9.12A8.984,8.984,0,0,1,123.021,307a9.587,9.587,0,0,0,3.1,5.22l-2.177,5.524s-15.781,2.814-22.65-3.312C106.19,324.341,126.349,319.435,126.349,319.435Z" fill="#222b5a"/>
            <path id="Trazado_617522" data-name="Trazado 617522" d="M144.746,296.142s7.636,11.185,11.022,17.044l3.841-3.647s2.279.524,3.321,3.647l-6.772,6.578s-2.536,2.424-9.083-5.332l-8.756-10.619S137.046,294.984,144.746,296.142Z" fill="#222b5a"/>
            <path id="Trazado_617523" data-name="Trazado 617523" d="M146.431,384.664l-12.706-3.272H128.6l.144,5.208h17.688Z" fill="#0d134f"/>
            <path id="Trazado_617524" data-name="Trazado 617524" d="M128.742,386.6h17.688v-1.936H128.689Z" fill="#fdd247"/>
            <rect id="Rectángulo_294018" data-name="Rectángulo 294018" width="9.152" height="4.398" transform="translate(159.529 296.431)" fill="#f8a510"/>
            <path id="Trazado_617525" data-name="Trazado 617525" d="M168.682,298.3l-9.152.622v-1.247h9.152Z" fill="#ba7c0c"/>
            <path id="Trazado_617526" data-name="Trazado 617526" d="M159.691,293.433a2.334,2.334,0,0,0,.422.113,1.31,1.31,0,0,1,.86.356c.208.251.173.583.333.856.55.938.893-.2,1.142-.622a1.383,1.383,0,0,1,1.637-.463c.524.295.063,1.191.551,1.537.682.486.873-.96.947-1.35.094-.489.4-1.261,1.073-1.1.64.149.492,1.111.66,1.585.083.233.242.631.534.395.19-.153.117-.691.146-.916a1.284,1.284,0,0,1,.306-.8.774.774,0,0,1,.217-.157v-1.224h-8.828Z" fill="#e9f9f9"/>
          </g>
        </g>
        <g id="Grupo_878630" data-name="Grupo 878630">
          <path id="Trazado_617527" data-name="Trazado 617527" d="M330.96,432.5c0,3.756-12.413,6.8-27.727,6.8s-27.725-3.044-27.725-6.8,12.414-6.8,27.725-6.8S330.96,428.742,330.96,432.5Z" fill="#bbe7f2"/>
          <g id="Grupo_878619" data-name="Grupo 878619">
            <g id="Grupo_878616" data-name="Grupo 878616">
              <path id="Trazado_617528" data-name="Trazado 617528" d="M310.647,364.56s2.755,8.794-3.112,33.135l.786,28.072h-3.408s-6.353-13.9-5.61-26.827c0,0-4.835-20.2-2.533-32.382C296.77,366.558,303.075,360.635,310.647,364.56Z" fill="#2466b4"/>
              <path id="Trazado_617529" data-name="Trazado 617529" d="M296.15,373.965a25.977,25.977,0,0,0,3.926,13.779c1.179-5.455.3-12.736,1.091-23.122l-.346-.515a13.966,13.966,0,0,0-4.051,2.451c-.076.4-.138.8-.2,1.2A45,45,0,0,0,296.15,373.965Z" fill="#0d134f"/>
              <path id="Trazado_617530" data-name="Trazado 617530" d="M286.744,357.771s-6.37,13.073,1.709,37.623c0,0-3.573,5.439,0,32.317h3.108l4.35-31.851s4.372-19.088,5.371-32.228Z" fill="#2466b4"/>
              <path id="Trazado_617531" data-name="Trazado 617531" d="M323.469,330.969s3.067,2.774-3.225,20.371L319.2,370.108l1.049,3.627-1.049,4.16a3.42,3.42,0,0,1-.651-3.713s-3.205,1.793-4.165-.341l1.387-4.371-1.87-17.064,3.576-17.7S318.374,330.965,323.469,330.969Z" fill="#f09474"/>
              <g id="Grupo_878615" data-name="Grupo 878615">
                <path id="Trazado_617532" data-name="Trazado 617532" d="M319.44,389.434l-1.8-.469c1.721-6.613,1.3-11.479-1.242-14.463-3.207-3.755-8.8-3.256-8.858-3.252-11.33.4-12.161,16.23-12.169,16.389l-1.862-.082c.008-.176.933-17.714,13.909-18.166.211-.026,6.568-.584,10.4,3.9C320.777,376.766,321.324,382.2,319.44,389.434Z" fill="#fdd247"/>
              </g>
              <path id="Trazado_617533" data-name="Trazado 617533" d="M307.535,369.681l-1.67.5-2.28-.5a4.429,4.429,0,0,1,0,2.257l.012.005a1.379,1.379,0,0,0,.038.5c.23.871,1,.887,1.757.885a7.271,7.271,0,0,1,2.315.292,2.1,2.1,0,0,0,2.035-.315,3.129,3.129,0,0,0,.594-.716l1.151-1.627Z" fill="#f09474"/>
              <path id="Trazado_617534" data-name="Trazado 617534" d="M284.88,357.771" fill="#fff"/>
              <path id="Trazado_617535" data-name="Trazado 617535" d="M300.622,325.234s9.406-11.028,22.847,5.735c0,0-.673,4.478-4.775,11.09,0,0-2.264,4.8-6.649,5.012,0,0-2.783,11.837-1.4,17.489,0,0-14.848,8.817-25.767-6.789,0,0,5.825-8.83,7.957-16.109C292.837,341.662,294.651,331.445,300.622,325.234Z" fill="#fdb18d"/>
              <path id="Trazado_617536" data-name="Trazado 617536" d="M318.2,374.5c-.3-.173-.592.1-.838.207.293-.74-.155-2.136-1.149-1.879l-.111.037a.628.628,0,0,0-.737-.887c-.442.131-.7.568-.934.923a1.71,1.71,0,0,0-.444,1.369,1.085,1.085,0,0,0,1.075.818,1.242,1.242,0,0,0,.384,1.056c.258.216.577.333.835.051a1.464,1.464,0,0,0,.182,1.7c.558.489.887.019,1.22-.423a4.032,4.032,0,0,0,.756-1.321C318.55,375.738,318.686,374.78,318.2,374.5Z" fill="#f09474"/>
              <path id="Trazado_617537" data-name="Trazado 617537" d="M320.243,373.73,319.2,377.9a3.416,3.416,0,0,1-.653-3.719s.123-2-.232-1.863c.15-.549.092,1.052.558.763a3.268,3.268,0,0,1,1.035-.493h.01Z" fill="#f09474"/>
              <path id="Trazado_617538" data-name="Trazado 617538" d="M318.694,342.059a45.9,45.9,0,0,0,2.342-4.248c.017-.127.025-.254.045-.382a37.809,37.809,0,0,0,.251-5.166c.01-1.172.158-2.322.256-3.478-.366-.4-.728-.777-1.086-1.134,0,.3.009.593.009.89,0,2.613.272,5.581-.76,8.018-.738,1.744-1.8,3.85-3.913,3.978a3.306,3.306,0,0,1-4.027-4.041,67.47,67.47,0,0,0,.856-7.086c.1-2.091.523-5.455-1-7.043a5.067,5.067,0,0,0-.477-.423,11.235,11.235,0,0,0-3.548-.209l.174.047a3.51,3.51,0,0,1,2.712,4.354,20.853,20.853,0,0,1-3.155,5.989c-1.481,2.043-3.4,4.185-6.123,3.5-2.466-.621-3.037-3.1-3.345-5.271a9.537,9.537,0,0,1-.08-1.513,40.209,40.209,0,0,0-4.99,12.822c-2.132,7.279-7.957,16.109-7.957,16.109,10.919,15.606,25.767,6.789,25.767,6.789-1.385-5.652,1.4-17.489,1.4-17.489C316.43,346.856,318.694,342.059,318.694,342.059Z" fill="#222b5a"/>
              <path id="Trazado_617539" data-name="Trazado 617539" d="M310.647,364.56c-1.382-5.64,1.385-17.436,1.4-17.487-.893-.675-1.968-1.121-2.88-1.82a13.669,13.669,0,0,1-1.791-1.4,6.184,6.184,0,0,0-1.5-1.368c-.272,1.064.033,2.258-.114,3.374a5.785,5.785,0,0,1-1.526,2.63c-1.333,1.713-1.555,3.621-2.273,5.686-.963,2.771-3.707,7.207-7.129,7.059-3.15-.137-6.587-2.926-8.74-5.394-.726,1.194-1.208,1.928-1.208,1.928C295.8,373.377,310.647,364.56,310.647,364.56Z" fill="#222b5a"/>
              <path id="Trazado_617540" data-name="Trazado 617540" d="M327.3,325.676c-1.4,1.077-.148,4.785.24,6.07.564,1.868,1.521,4.343,1,6.42-.651,2.6-3.734,2.586-5.607,1.338-1.917-1.276-2.4-3.2-2.5-5.319-.063-1.323.071-2.658,0-3.979-.073-1.379-.836-2.26-1-3.54-.381-3.086,5.528-3.81,7.309-2.089" fill="#0d134f"/>
              <path id="Trazado_617541" data-name="Trazado 617541" d="M302.542,327.342s3.42-7.169,8.111-2.521c0,0,2.4,3.238-2.673,10.84,0,0-6.612,9.379-7.465,13.221,0,0,4.586,12.376,6.612,15.893,0,0,3.386,3.84,4.359,6.186,0,0-10.344,3.3-7.463-4.281l-10.867-17.722S295.5,340.137,302.542,327.342Z" fill="#fdb18d"/>
              <path id="Trazado_617542" data-name="Trazado 617542" d="M290.86,388.226s.044,8.532,10.422,16.011l3.024-8.5-4.587-5.819Z" fill="#f8a510"/>
              <path id="Trazado_617543" data-name="Trazado 617543" d="M320.532,391.612,308.655,399.4l-.121.074-2.993,1.959-1.528,1.006-2.732,1.789c-3.1-11.037-10.423-16.005-10.423-16.005l19.251-12.623S317.436,380.572,320.532,391.612Z" fill="#fdd247"/>
              <path id="Trazado_617544" data-name="Trazado 617544" d="M288.453,427.711s-.341,2.845-1.29,3.995c0,0-2.1,2.749,2,2.749h4.45s2.8-1.392-.349-3.372a4.252,4.252,0,0,1-1.7-3.372Z" fill="#fdb18d"/>
              <path id="Trazado_617545" data-name="Trazado 617545" d="M308.321,425.767l.326,2.718s10.525,2.154,11,3.636H305.7l.39-3.178-1.175-3.176Z" fill="#fdb18d"/>
              <path id="Trazado_617546" data-name="Trazado 617546" d="M287.365,417.862c.249,2.915.6,6.175,1.088,9.849h3.108l1.345-9.849Z" fill="#fdb18d"/>
              <path id="Trazado_617547" data-name="Trazado 617547" d="M304.913,425.767h3.408l-.221-7.9h-6.073A69.9,69.9,0,0,0,304.913,425.767Z" fill="#fdb18d"/>
              <path id="Trazado_617548" data-name="Trazado 617548" d="M293.493,431.243a1.167,1.167,0,0,1-.4.446c-1.064.689-2.789.348-3.91.039a2.1,2.1,0,0,1-1.4-1.187,4.238,4.238,0,0,1-.622,1.165s-2.1,2.749,2,2.749h4.45S296.246,433.136,293.493,431.243Z" fill="#62c1c5"/>
              <path id="Trazado_617549" data-name="Trazado 617549" d="M313.372,429.59c-.031.25,0,.457-.259.654a1.38,1.38,0,0,1-.955.169c-.739-.03-1.434-.16-2.185-.16-1.358,0-2.7,0-4.045,0l-.23,1.868h13.946C319.391,431.325,316.237,430.335,313.372,429.59Z" fill="#62c1c5"/>
            </g>
            <path id="Trazado_617550" data-name="Trazado 617550" d="M338.049,403.553l-8.735-2.424-20,1.035-5.3.28,1.528-1.007,2.993-1.958.121-.074,3.98-.326,15.178-1.249,1.957-3.338Z" fill="#fdd247"/>
            <path id="Trazado_617551" data-name="Trazado 617551" d="M312.636,399.079l-3.319,3.085-5.3.28,1.528-1.007,2.993-1.958.121-.074Z" fill="#f8a510"/>
            <path id="Trazado_617552" data-name="Trazado 617552" d="M318.694,318.582l3.712,6.477,2.088,4.229s-2.425-3.557-7.556.51l-4.94-7.65A5.308,5.308,0,0,0,318.694,318.582Z" fill="#fdb18d"/>
            <g id="Grupo_878618" data-name="Grupo 878618">
              <g id="Grupo_878617" data-name="Grupo 878617">
                <path id="Trazado_617553" data-name="Trazado 617553" d="M318.694,318.582s3.442-11.754,12.778-6.737c0,0,7.178,2.426,1,13.644-.467.849-.359,2.738-1,3.677l-1.611-1.1s-2.872,3.447-4.712,2.074l-6.386-8.226Z" fill="#fdb18d"/>
              </g>
            </g>
            <path id="Trazado_617554" data-name="Trazado 617554" d="M334.973,317.786a8.995,8.995,0,0,1-9.164,1.978,11.235,11.235,0,0,1-4.438,3.495,8.234,8.234,0,0,1-1.23.419c-2.182.589-4.932.439-8.139-1.53a5.3,5.3,0,0,0,6.693-3.57s3.441-11.746,12.782-6.729C331.477,311.849,335.084,313.07,334.973,317.786Z" fill="#0a3c5f"/>
            <path id="Trazado_617555" data-name="Trazado 617555" d="M333.459,313.262a7.751,7.751,0,0,1-.2,1.505c-.7,2.809-3.009,3.75-5.625,3.748-2.336,0-5.045,0-6.094-2.5a6.108,6.108,0,0,1-.453-2.08,16.073,16.073,0,0,0-2.4,4.642,5.3,5.3,0,0,1-6.693,3.57c3.207,1.969,5.957,2.119,8.139,1.53a8.234,8.234,0,0,0,1.23-.419,11.235,11.235,0,0,0,4.438-3.495,8.995,8.995,0,0,0,9.164-1.978A6.284,6.284,0,0,0,333.459,313.262Z" fill="#0d134f"/>
            <path id="Trazado_617556" data-name="Trazado 617556" d="M324,318.92c-.747,1.276-.706,2.691.1,3.157s2.052-.187,2.8-1.464.707-2.69-.093-3.159S324.749,317.642,324,318.92Z" fill="#fdb18d"/>
          </g>
          <g id="Grupo_878629" data-name="Grupo 878629">
            <path id="Trazado_617557" data-name="Trazado 617557" d="M365.049,393.273c3.018-10.193-7.174-16.792-11.141-24.42.068,3.912-.97,7.522.078,11.407,1.091,4.049,2.729,6.84,2.3,11.123-.375,3.753-1.211,8.411.19,12.126a37.224,37.224,0,0,0,4.413,7.531c.838-2.109,2.372-3.992,2.79-6.583.284-1.766-.359-4.052-.244-5.949C363.565,396.383,364.469,395.231,365.049,393.273Z" fill="#3d895b"/>
            <g id="Grupo_878620" data-name="Grupo 878620">
              <path id="Trazado_617558" data-name="Trazado 617558" d="M393.791,404.344c-1.92-1.44-4.256-1.377-6.587-1.5-2.939-.15-4.629.843-6.594,2.961a15.1,15.1,0,0,1-2.09,2.428c-.958.655-2.44.677-3.409,1.531-1.5,1.318-1.67,3.4-2.085,5.211,1.667-.185,3.823-.037,4.6-.16,2.515-.395,3.886-2.238,5.35-4.215.9-1.215,1.2-1.744,2.731-1.918a14.371,14.371,0,0,1,3.594.142,15.413,15.413,0,0,0,7-.444,3.921,3.921,0,0,1,2.9.692C398.275,407.119,395.362,405.522,393.791,404.344Z" fill="#73c176"/>
            </g>
            <g id="Grupo_878621" data-name="Grupo 878621">
              <path id="Trazado_617559" data-name="Trazado 617559" d="M385.262,390.271a20.376,20.376,0,0,0-2.889,5.086,10.56,10.56,0,0,1-3.136,4.793c-1.227.892-2.969,1.016-4.309,1.657-3.578,1.712-5.02,6.607-3.987,10.491,1.894-1.26,3.261-3.523,5.153-4.848,2.278-1.6,3.541-4.228,5.714-5.843,2.375-1.764,4.816-2.206,6.411-5.048a13.426,13.426,0,0,0,1.531-7.186c-.019-.351-.164-1.145-.244-1.926a5.713,5.713,0,0,0-.5.276C387.553,388.672,386.376,388.806,385.262,390.271Z" fill="#3d895b"/>
            </g>
            <g id="Grupo_878622" data-name="Grupo 878622">
              <path id="Trazado_617560" data-name="Trazado 617560" d="M350.644,399.754a15.119,15.119,0,0,0-5.532-7.186c-2.935-2.07-5.882-2.093-9.41-2.093.452,2.245.727,4.607,2.1,6.138,2.027,2.267,4.814,2.3,6.43,5.455,1.64,3.205,1.888,6.641,5.167,8.921,2.822,1.961,6.455,1.8,9.237,3.96-.8-2.88-.856-5.952-3-8.547C353.565,403.914,351.894,402.985,350.644,399.754Z" fill="#73c176"/>
            </g>
            <g id="Grupo_878623" data-name="Grupo 878623">
              <path id="Trazado_617561" data-name="Trazado 617561" d="M351.923,407.992c1.486,1.477,3.18,2.686,4.636,3.966a14.8,14.8,0,0,1,3.4,4.077l-.027-.044a24.3,24.3,0,0,1,1.122,2.542c.3.744.529,1.391.719,1.92a5.45,5.45,0,0,1,.5,1.694c-.068.038-.4-.505-.91-1.515l-.893-1.841c-.34-.723-.737-1.535-1.188-2.332l-.011-.018-.016-.028a15.1,15.1,0,0,0-3.334-3.713c-1.439-1.212-3.154-2.4-4.742-3.976a17.6,17.6,0,0,1-1.228-1.441c-.325-.539-.69-1.045-.96-1.593a16.307,16.307,0,0,1-1.023-3.277,9.433,9.433,0,0,0-.99-2.707,10.133,10.133,0,0,0-1.523-2.016,14.849,14.849,0,0,0-2.954-2.269c-.76-.476-1.187-.743-1.152-.813s.512.083,1.344.455a11.982,11.982,0,0,1,3.275,2.1,10.151,10.151,0,0,1,1.749,2.1,9.865,9.865,0,0,1,1.18,2.914,16.542,16.542,0,0,0,1.015,3.073c.247.488.586.939.877,1.425C351.107,407.14,351.546,407.542,351.923,407.992Z" fill="#f8a510"/>
            </g>
            <g id="Grupo_878624" data-name="Grupo 878624">
              <path id="Trazado_617562" data-name="Trazado 617562" d="M361.511,399.186c-1.638,6.533-.327,12.589.426,16.893.839,4.321,1.273,7.03,1.125,7.057a7,7,0,0,1-.587-1.834c-.3-1.2-.769-2.916-1.26-5.073a60.4,60.4,0,0,1-1.343-7.675q-.078-1.105-.161-2.265.024-1.164.049-2.379a18.624,18.624,0,0,1,.286-2.454c.108-.842.278-1.642.439-2.459a33.515,33.515,0,0,0,.562-4.785,19.562,19.562,0,0,0-.369-4.425,35.934,35.934,0,0,0-2.634-7.149,38.744,38.744,0,0,1-1.927-4.883,6.181,6.181,0,0,1-.358-1.9,7.81,7.81,0,0,1,.743,1.768c.459,1.136,1.2,2.734,2.208,4.7a32.9,32.9,0,0,1,2.906,7.264,19.593,19.593,0,0,1,.452,4.653A32.563,32.563,0,0,1,361.511,399.186Z" fill="#f8a510"/>
              <path id="Trazado_617563" data-name="Trazado 617563" d="M363.436,398.508a7.465,7.465,0,0,1,.2-1.317c-.187-.2-.37-.4-.579-.608-1.117-1.117-1.246-2.038-1.791-3.355-1.43,2.667-2.8,6.126-1.839,8.98.535,1.6,1.713,2.876,2.523,4.321a7.053,7.053,0,0,1,.551,1.279,11.425,11.425,0,0,0,1.178-3.351C363.964,402.691,363.321,400.4,363.436,398.508Z" fill="#0d134f"/>
            </g>
            <g id="Grupo_878625" data-name="Grupo 878625">
              <path id="Trazado_617564" data-name="Trazado 617564" d="M372.719,408.6c-1.067,2.14-1.345,4.541-2.021,6.642a19.6,19.6,0,0,1-1.168,2.929c-.449.855-.885,1.637-1.237,2.36-1.5,2.876-1.259,4.987-1.482,4.972a3.2,3.2,0,0,1-.141-1.441,10.291,10.291,0,0,1,.952-3.836c.322-.77.723-1.577,1.135-2.443a20.221,20.221,0,0,0,1.018-2.811c.608-2.022.842-4.46,2.007-6.831a12.222,12.222,0,0,1,1.006-1.652A15.546,15.546,0,0,1,374,405.067c.859-.846,1.738-1.588,2.589-2.276,1.72-1.341,3.28-2.482,4.519-3.526,2.478-2.082,3.607-3.778,3.765-3.668.06.039-.188.483-.693,1.263a18.029,18.029,0,0,1-2.58,2.954c-1.2,1.139-2.746,2.363-4.4,3.722A16.206,16.206,0,0,0,372.719,408.6Z" fill="#f8a510"/>
            </g>
            <g id="Grupo_878626" data-name="Grupo 878626">
              <path id="Trazado_617565" data-name="Trazado 617565" d="M377.314,413.175a10.5,10.5,0,0,0-2.947,1.559,14.749,14.749,0,0,0-2.241,2.168,28.784,28.784,0,0,0-2.9,4.524c-1.247,2.786-1.206,4.8-1.426,4.768-.072,0-.1-.488-.072-1.378a12.125,12.125,0,0,1,.823-3.687,24.966,24.966,0,0,1,2.828-4.83,14.79,14.79,0,0,1,2.371-2.377,11.065,11.065,0,0,1,3.17-1.71,9.131,9.131,0,0,0,2.868-1.591,16.851,16.851,0,0,0,2.012-2.411c1.182-1.7,2.911-3.1,4.6-3.265a9.239,9.239,0,0,1,3.786.268c.856.217,1.312.384,1.3.452s-.5.041-1.37-.052a10.68,10.68,0,0,0-3.571.056,6.545,6.545,0,0,0-3.974,3.11,16.5,16.5,0,0,1-2.093,2.6A9.8,9.8,0,0,1,377.314,413.175Z" fill="#f8a510"/>
            </g>
            <g id="Grupo_878627" data-name="Grupo 878627">
              <path id="Trazado_617566" data-name="Trazado 617566" d="M370.47,386.68c1.137-3.039,1.884-5.991.758-9.174-.476-1.344-1.179-2.593-1.615-3.943a9.743,9.743,0,0,0-.971,1.4,19.217,19.217,0,0,0-.746,3.333,21.8,21.8,0,0,1-1.988,5.685c-1.9,3.388-5.055,5.825-5.77,9.889-.7,3.944.773,8.226,3.005,11.343a10.125,10.125,0,0,1,2.054,3.809c.133.7.126,1.387.2,2.042a31.838,31.838,0,0,1,3.208-4.62c2.353-3.247,2.6-6.183,1.713-9.876A16.953,16.953,0,0,1,370.47,386.68Z" fill="#73c176"/>
            </g>
            <g id="Grupo_878628" data-name="Grupo 878628">
              <path id="Trazado_617567" data-name="Trazado 617567" d="M365.935,401.182a31.109,31.109,0,0,1,0,8.973c-.307,2.723-.647,5.142-.694,7.18-.171,4.088.7,6.53.486,6.59a5.9,5.9,0,0,1-.625-1.7,9.8,9.8,0,0,1-.408-2.087c-.049-.412-.127-.854-.159-1.325-.011-.47-.019-.966-.031-1.488a68.209,68.209,0,0,1,.475-7.267,32.3,32.3,0,0,0-.076-8.722c-.507-3.038-1.079-6.2-.232-9a20.883,20.883,0,0,1,.821-1.921l.946-1.629c.606-1.045,1.164-2.015,1.581-2.937a13.84,13.84,0,0,0,1.332-4.562,7.721,7.721,0,0,1,.126-1.782,5.005,5.005,0,0,1,.279,1.8,12.38,12.38,0,0,1-1.062,4.844,30.419,30.419,0,0,1-1.5,3.063q-.434.8-.9,1.647c-.253.569-.492,1.144-.7,1.752C364.88,395.134,365.41,398.064,365.935,401.182Z" fill="#f8a510"/>
            </g>
            <path id="Trazado_617568" data-name="Trazado 617568" d="M393.268,433.057H337.93c1.845-3.2,3.892-6.131,7.31-7.882a31.572,31.572,0,0,1,6.7-2.061c2.5-.654,4.156-2,6.441-2.986,5.465-2.346,9.668,1.737,14.883,2.058,2.37.144,4.536-1.332,7.012-1.119a11.537,11.537,0,0,1,7,3.811C390.042,427.771,391.137,430.592,393.268,433.057Z" fill="#1cdbc9"/>
          </g>
        </g>
      </g>
    </g>
  </g>
</svg>
