<svg xmlns="http://www.w3.org/2000/svg" width="135" height="135" viewBox="0 0 135 135">
  <g id="Grupo_887409" data-name="Grupo 887409" transform="translate(-733 -8985.63)">
    <circle id="Elipse_5385" data-name="Elipse 5385" cx="67.5" cy="67.5" r="67.5" transform="translate(733 8985.63)" fill="#222b5a"/>
    <g id="Grupo_887385" data-name="Grupo 887385" transform="translate(339 8037.148)">
      <path id="Trazado_621744" data-name="Trazado 621744" d="M496,1031.8a1.554,1.554,0,0,0-.117.238,3.736,3.736,0,0,1-3.85,2.837q-11.049.006-22.1,0h-.842v6.667h.744c2.2,0,4.4-.005,6.6,0a2.164,2.164,0,0,1,2.419,2.4c0,.583.012,1.166,0,1.748a2.125,2.125,0,0,1-2.2,2.219c-2.448.021-4.9.013-7.344,0-.737,0-1.188-.4-1.2-1-.015-.619.45-1.015,1.228-1.017,2.224,0,4.447,0,6.67,0h.779v-2.293H446.208v2.293h17.611a6.179,6.179,0,0,1,.673.012.932.932,0,0,1,.9.919.909.909,0,0,1-.709,1.01,2.956,2.956,0,0,1-.8.073q-8.59.007-17.18,0c-1.758,0-2.561-.8-2.564-2.537q0-.673,0-1.346a2.2,2.2,0,0,1,2.53-2.5q3.234,0,6.468,0h.771v-6.667h-.755q-5.794,0-11.588,0a2.728,2.728,0,0,1-.732-.065.92.92,0,0,1-.723-1,.931.931,0,0,1,.893-.93,7.366,7.366,0,0,1,.808-.015h49.857c1.735,0,2.306-.565,2.306-2.283v-4.382H429.022v.786c0,1.3-.005,2.6,0,3.9a1.771,1.771,0,0,0,2,1.977c1.6.007,3.19,0,4.784,0,.18,0,.36-.005.54,0a1,1,0,1,1,.009,2c-1.954.02-3.911.075-5.86-.022a3.586,3.586,0,0,1-3.337-2.607c-.053-.146-.107-.291-.161-.436V987.812c.984-2.452,1.913-3.076,4.574-3.076q23.58,0,47.16,0a3.849,3.849,0,0,1,.805.033.995.995,0,0,1-.127,1.976c-.247.018-.494.008-.742.008H431.309c-1.717,0-2.287.574-2.287,2.3V1024.1h64.957v-.56q0-17.382,0-34.764a1.782,1.782,0,0,0-2.028-2.022c-2.538-.007-5.075,0-7.613,0-.785,0-1.253-.388-1.247-1s.482-1.006,1.263-1.008c2.628-.006,5.255-.011,7.882,0a3.308,3.308,0,0,1,2.647,1.118A12.661,12.661,0,0,1,496,987.812Zm-29.023,9.709v-6.578H456.013v6.578Z" transform="translate(0 0)" fill="#fff"/>
      <path id="Trazado_621745" data-name="Trazado 621745" d="M459.686,1028.1c-.382,0-.766.027-1.144-.007a.908.908,0,0,1-.9-.985.873.873,0,0,1,.842-.962,20.134,20.134,0,0,1,2.486,0,.871.871,0,0,1,.83.971.911.911,0,0,1-.908.976C460.5,1028.125,460.09,1028.1,459.686,1028.1Z" transform="translate(1.774 2.395)" fill="#fff"/>
      <path id="Trazado_621746" data-name="Trazado 621746" d="M461.33,988.859q13.61,0,27.222,0a2.879,2.879,0,0,1,1.968.528,2.661,2.661,0,0,1,.9,2.218q-.011,10.021,0,20.041,0,3.6,0,7.2a2.451,2.451,0,0,1-2.732,2.753q-27.424,0-54.848,0a2.449,2.449,0,0,1-2.728-2.755q0-13.618,0-27.236a2.421,2.421,0,0,1,2.73-2.739Q447.584,988.855,461.33,988.859Zm-8.288,17.1c.107.038.168.064.233.08,3.027.772,4.494,2.646,4.5,5.745q0,3.531,0,7.06c0,.235.019.47.03.694h2.382V990.877H434.118c-.988,0-.989,0-.989,1.022v26.631a1.65,1.65,0,0,0,.023.6c.074.174.263.408.416.419.661.046,1.328.019,2.054.019v-.81c0-2.51-.026-5.022.015-7.532a5.262,5.262,0,0,1,4.171-5.111c.182-.042.358-.108.547-.165a7.553,7.553,0,1,1,12.687.01Zm36.353.334H462.315v13.24h6.662c0-.753.036-1.467-.006-2.178-.115-1.958.422-3.547,2.4-4.341a4.068,4.068,0,0,1,1.606-4.608,3.8,3.8,0,0,1,4.319-.187,4.061,4.061,0,0,1,1.915,4.8A3.738,3.738,0,0,1,481.6,1017c-.036.841-.006,1.684-.006,2.576,2.359,0,4.622,0,6.885,0,.891,0,.919-.026.919-.9q0-5.847,0-11.695Zm-7.805-2.124H489.4V991.832c0-.953,0-.954-.99-.954H462.274v8.87c0,1.3.014,2.6-.007,3.9-.006.434.129.59.577.581,1.189-.026,2.38-.01,3.57-.01h2.564c0-.823.035-1.579-.006-2.332-.108-1.925.487-3.441,2.4-4.227a4.059,4.059,0,0,1,1.707-4.673,3.8,3.8,0,0,1,4.324-.06,4.068,4.068,0,0,1,1.808,4.734,3.763,3.763,0,0,1,2.392,4.042C481.559,1002.5,481.591,1003.312,481.591,1004.169Zm-38.277,4.471c-.761-.831-1.712-.663-2.615-.618a3.194,3.194,0,0,0-3.02,2.985c-.057,2.8-.013,5.6-.007,8.4,0,.036.04.073.076.135H455.68a.921.921,0,0,0,.063-.215c0-2.755.045-5.512-.022-8.264a2.878,2.878,0,0,0-2.076-2.786,7.556,7.556,0,0,0-2.579-.235c-.7.027-.992.557-.863,1.222.282,1.449.574,2.9.851,4.347a2.2,2.2,0,0,1-.8,2.224c-.706.587-1.435,1.15-2.186,1.68a2.265,2.265,0,0,1-2.762-.012c-.73-.519-1.442-1.068-2.133-1.639a2.265,2.265,0,0,1-.827-2.338C442.673,1011.9,442.99,1010.277,443.314,1008.64Zm8.743-5.869c-.291,0-.576.016-.858,0a12.189,12.189,0,0,1-5.717-1.3,2.691,2.691,0,0,0-3.94.572,1.014,1.014,0,0,0-.263.716,5.5,5.5,0,0,0,6.762,4.409A5.372,5.372,0,0,0,452.058,1002.771Zm27.484,1.4c0-1.154.078-2.274-.022-3.377a1.284,1.284,0,0,0-2.065-.962,3.979,3.979,0,0,1-4.386-.025,1.208,1.208,0,0,0-1.932.715,29.5,29.5,0,0,0-.037,3.649Zm-8.518,15.362h8.519c0-1.152.076-2.272-.022-3.378a1.283,1.283,0,0,0-2.059-.972,3.971,3.971,0,0,1-4.333.014,1.289,1.289,0,0,0-2.086,1C470.953,1017.287,471.023,1018.386,471.023,1019.537Zm-18.962-18.767a5.446,5.446,0,0,0-4.683-4.424,5.366,5.366,0,0,0-5.394,2.759,3.451,3.451,0,0,1,3.709.271A13.226,13.226,0,0,0,452.062,1000.77Zm-6.805,8.53c-.171.833-.344,1.684-.523,2.534-.52,2.476-.527,2.485,1.588,3.9a.836.836,0,0,0,.747,0,15.936,15.936,0,0,0,1.708-1.3.788.788,0,0,0,.244-.616c-.27-1.514-.582-3.021-.877-4.508Zm32.075-12.938a2.048,2.048,0,1,0-2.015,2.095A2.071,2.071,0,0,0,477.332,996.362Zm-4.1,15.375a2.048,2.048,0,1,0,2.061-2.046A2.045,2.045,0,0,0,473.236,1011.737Z" transform="translate(0.238 0.239)" fill="#fff"/>
      <path id="Trazado_621747" data-name="Trazado 621747" d="M454.613,992.722c.448,0,.9-.017,1.342,0a1,1,0,0,1,.06,1.99c-.938.041-1.881.041-2.818,0a.987.987,0,0,1-.968-1.071,1.014,1.014,0,0,1,1.041-.927c.044,0,.09,0,.134,0h1.208Z" transform="translate(1.46 0.462)" fill="#fff"/>
      <path id="Trazado_621748" data-name="Trazado 621748" d="M482.123,1007.225c.448,0,.9-.017,1.343.005a1,1,0,1,1-.021,2q-1.308.032-2.618,0a1.006,1.006,0,1,1,.021-2.007C481.273,1007.212,481.7,1007.224,482.123,1007.225Z" transform="translate(3.054 1.302)" fill="#fff"/>
      <path id="Trazado_621749" data-name="Trazado 621749" d="M482.18,992.72c.424,0,.851-.013,1.275,0a1,1,0,0,1,.068,1.994c-.938.038-1.88.038-2.817,0a.992.992,0,0,1-.945-1.03,1.012,1.012,0,0,1,1.009-.963c.044,0,.09,0,.134,0Z" transform="translate(3.054 0.462)" fill="#fff"/>
    </g>
  </g>
</svg>
