<svg xmlns="http://www.w3.org/2000/svg" width="134" height="134" viewBox="0 0 134 134">
  <g id="Grupo_887399" data-name="Grupo 887399" transform="translate(-733 -5128)">
    <circle id="Elipse_5256" data-name="Elipse 5256" cx="67" cy="67" r="67" transform="translate(733 5128)" fill="#179587"/>
    <g id="Grupo_881836" data-name="Grupo 881836" transform="translate(360.432 4228.36)">
      <path id="Trazado_620538" data-name="Trazado 620538" d="M412.907,1015.882a3.825,3.825,0,0,1-2.766-2.653,3.022,3.022,0,0,1-.122-.744q-.016-3.717-.006-7.435a1.136,1.136,0,0,1,1.132-1.253,1.159,1.159,0,0,1,1.136,1.263c.016,2.3,0,4.6.009,6.9,0,1.191.456,1.64,1.662,1.64q17.222,0,34.443,0c.222,0,.445-.022.719-.037-.068-.722-.135-1.4-.194-2.07a7.138,7.138,0,0,1,.989-4.288l2.4-4.145c-.253-.028-.434-.066-.616-.066-1.672,0-3.345,0-5.018-.006-.826,0-1.341-.446-1.345-1.12a1.185,1.185,0,0,1,1.333-1.148c2.1-.012,4.208-.024,6.311.008a1,1,0,0,0,1.061-.628c.32-.646.714-1.256,1.142-2h-.968q-7.071,0-14.143,0a2.872,2.872,0,0,1-.9-.1.917.917,0,0,1-.691-1.176,2.281,2.281,0,0,1,.912-.953c.194-.131.542-.041.82-.041,5.2,0,10.392-.009,15.587.012a1.016,1.016,0,0,0,1.06-.624c.323-.646.707-1.262,1.136-2.016h-.951c-2,0-4,.01-6.007-.007-.909-.007-1.393-.437-1.385-1.156s.491-1.108,1.415-1.111c2.509-.007,5.018-.021,7.527.011a1.117,1.117,0,0,0,1.127-.66c2.145-3.752,4.326-7.485,6.468-11.239a2.71,2.71,0,0,0,.336-1.278c.022-5.994.014-11.988.016-17.982a5.264,5.264,0,0,1,.032-.832,1.113,1.113,0,0,1,2.145-.169,3.423,3.423,0,0,1,.1.973q.009,6.942,0,13.885v.6a12.223,12.223,0,0,1,1.893.633c1.45.775,2.86,1.625,4.284,2.447,1.162.671,1.286,1.113.626,2.253-2.138,3.7-4.289,7.389-6.4,11.1a3.012,3.012,0,0,0-.383,1.417c-.025,6.4-.064,12.8.009,19.2.026,2.233-.689,3.822-2.87,4.593Zm53.636-20.263-.137-.037c-.129.2-.266.4-.386.6-.573.983-1.125,1.977-1.717,2.949a1.114,1.114,0,0,1-1.558.487,1.143,1.143,0,0,1-.393-1.645c.115-.224.253-.437.379-.656l5.379-9.3-3.307-1.9c-.1.13-.164.2-.212.287q-6.382,11.025-12.762,22.051a6.211,6.211,0,0,0-.419,4.547,5.9,5.9,0,0,0,4.016-3.056c1.383-2.383,2.755-4.772,4.145-7.15a1.128,1.128,0,0,1,1.594-.554,1.11,1.11,0,0,1,.39,1.638c-2,3.228-3.509,6.759-6.035,9.73h.67q4.257,0,8.515,0c1.428,0,1.835-.412,1.836-1.867q0-7.738,0-15.476Zm5.168-13.825,1.62-2.8-3.34-1.924-1.62,2.8Zm-2.456,4.247,1.309-2.28-3.338-1.916-1.313,2.269Z" transform="translate(-0.003 -10.49)" fill="#fff"/>
      <path id="Trazado_620539" data-name="Trazado 620539" d="M410.005,960.034q0-14.148,0-28.3c0-2.612,1.423-4.041,4.026-4.041h50.784a3.641,3.641,0,0,1,4,4q.009,5.576,0,11.152a3.06,3.06,0,0,1-.086.823,1.111,1.111,0,0,1-2.164-.162,5.957,5.957,0,0,1-.026-.757q0-5.424,0-10.849c0-1.558-.375-1.935-1.918-1.935h-50.4c-1.571,0-1.932.355-1.932,1.9q0,28.3,0,56.593a3.645,3.645,0,0,1-.047.9,1.127,1.127,0,0,1-2.218-.133,5.518,5.518,0,0,1-.014-.758Q410,974.259,410.005,960.034Z" fill="#fff"/>
      <path id="Trazado_620540" data-name="Trazado 620540" d="M436.773,951.542c0,1.744.01,3.489,0,5.234a3.311,3.311,0,0,1-3.51,3.534q-5.283.031-10.564,0a3.355,3.355,0,0,1-3.562-3.58q-.02-5.233,0-10.466a3.319,3.319,0,0,1,3.57-3.548q5.244-.013,10.488,0a3.3,3.3,0,0,1,3.579,3.595C436.78,948.054,436.774,949.8,436.773,951.542Zm-2.281-.008c0-1.744.007-3.487,0-5.231-.005-.994-.324-1.31-1.328-1.311q-5.2-.009-10.408,0c-.972,0-1.335.356-1.338,1.322q-.013,5.194,0,10.387c0,.957.38,1.332,1.348,1.335q5.2.015,10.408,0c.966,0,1.313-.369,1.318-1.345C434.5,954.971,434.492,953.253,434.492,951.534Z" transform="translate(-3.154 -5.19)" fill="#fff"/>
      <path id="Trazado_620541" data-name="Trazado 620541" d="M427.919,1022.123c-1.748,0-3.5.008-5.244,0a3.315,3.315,0,0,1-3.54-3.5q-.027-5.271,0-10.542a3.343,3.343,0,0,1,3.514-3.549q5.319-.033,10.64,0a3.292,3.292,0,0,1,3.479,3.485q.025,5.347,0,10.693a3.259,3.259,0,0,1-3.452,3.414C431.516,1022.135,429.717,1022.123,427.919,1022.123Zm6.573-8.755c0-1.744.007-3.487,0-5.231,0-.972-.354-1.333-1.327-1.336q-5.2-.014-10.408,0c-.962,0-1.337.381-1.339,1.343q-.013,5.194,0,10.386c0,.962.37,1.313,1.347,1.315q5.2.009,10.408,0c1,0,1.314-.324,1.319-1.322C434.5,1016.8,434.492,1015.086,434.492,1013.368Z" transform="translate(-3.154 -26.557)" fill="#fff"/>
      <path id="Trazado_620542" data-name="Trazado 620542" d="M436.774,982.448c0,1.744.009,3.489,0,5.234a3.317,3.317,0,0,1-3.572,3.539q-5.245.008-10.489,0a3.345,3.345,0,0,1-3.576-3.557q-.021-5.234,0-10.467a3.355,3.355,0,0,1,3.634-3.576q5.206-.006,10.413,0a3.321,3.321,0,0,1,3.591,3.594C436.781,978.959,436.774,980.7,436.774,982.448Zm-2.281,0c0-1.744.007-3.489,0-5.232-.005-.972-.356-1.316-1.334-1.317q-5.167-.007-10.334,0c-1.051,0-1.406.354-1.407,1.417q-.009,5.119,0,10.237c0,1.049.363,1.394,1.432,1.394q5.129,0,10.258,0c1.056,0,1.384-.336,1.387-1.419C434.5,985.833,434.492,984.14,434.492,982.446Z" transform="translate(-3.155 -15.876)" fill="#fff"/>
      <path id="Trazado_620543" data-name="Trazado 620543" d="M463.594,956.2q-4.329,0-8.657,0c-.976,0-1.472-.387-1.473-1.127s.505-1.146,1.468-1.147q8.657,0,17.315,0c.926,0,1.471.457,1.447,1.178-.022.69-.543,1.093-1.442,1.094Q467.922,956.2,463.594,956.2Z" transform="translate(-15.026 -9.067)" fill="#fff"/>
      <path id="Trazado_620544" data-name="Trazado 620544" d="M463.6,987.13q-4.213,0-8.427,0a4.632,4.632,0,0,1-.757-.033,1.111,1.111,0,0,1-.015-2.194,4.215,4.215,0,0,1,.756-.045q8.389,0,16.778,0c1.208,0,1.782.386,1.76,1.172-.021.761-.559,1.1-1.743,1.1Q467.777,987.132,463.6,987.13Z" transform="translate(-15.03 -19.761)" fill="#fff"/>
      <path id="Trazado_620545" data-name="Trazado 620545" d="M477.121,979.624c-1.72,0-3.44,0-5.161,0-.858,0-1.334-.4-1.354-1.089-.022-.716.486-1.179,1.356-1.181q5.2-.013,10.4,0c.892,0,1.393.431,1.393,1.145s-.49,1.123-1.395,1.127C480.612,979.628,478.866,979.624,477.121,979.624Z" transform="translate(-20.953 -17.165)" fill="#fff"/>
      <path id="Trazado_620546" data-name="Trazado 620546" d="M477.2,946.454c1.72,0,3.441-.005,5.161,0,.907,0,1.394.408,1.392,1.129s-.5,1.14-1.394,1.142q-5.2.01-10.4,0c-.87,0-1.377-.465-1.354-1.182.022-.693.495-1.083,1.356-1.087C473.708,946.449,475.453,946.454,477.2,946.454Z" transform="translate(-20.953 -6.484)" fill="#fff"/>
      <path id="Trazado_620547" data-name="Trazado 620547" d="M468.145,992.379c.96,0,1.92-.014,2.879,0a1.131,1.131,0,0,1,1.242,1.133,1.143,1.143,0,0,1-1.189,1.126q-2.955.034-5.91,0a1.129,1.129,0,1,1,.024-2.255C466.175,992.363,467.16,992.379,468.145,992.379Z" transform="translate(-18.669 -22.361)" fill="#fff"/>
      <path id="Trazado_620548" data-name="Trazado 620548" d="M468.083,963.7c-.938,0-1.876.018-2.813,0a1.136,1.136,0,1,1-.012-2.257q2.888-.031,5.777,0a1.13,1.13,0,1,1,.012,2.251C470.059,963.717,469.071,963.7,468.083,963.7Z" transform="translate(-18.669 -11.66)" fill="#fff"/>
      <path id="Trazado_620549" data-name="Trazado 620549" d="M457.453,979.621c-.909,0-1.818.01-2.726,0-.788-.012-1.25-.426-1.262-1.1a1.115,1.115,0,0,1,1.21-1.163q2.84-.032,5.68,0a1.132,1.132,0,1,1-.024,2.26C459.372,979.633,458.412,979.621,457.453,979.621Z" transform="translate(-15.027 -17.163)" fill="#fff"/>
      <path id="Trazado_620550" data-name="Trazado 620550" d="M457.587,946.455c.909,0,1.818-.014,2.726,0a1.132,1.132,0,1,1,.059,2.258q-2.877.037-5.755,0a1.1,1.1,0,0,1-1.153-1.141,1.08,1.08,0,0,1,1.17-1.113C455.618,946.439,456.6,946.456,457.587,946.455Z" transform="translate(-15.027 -6.483)" fill="#fff"/>
      <path id="Trazado_620551" data-name="Trazado 620551" d="M457.5,1010.551c-.912,0-1.824.013-2.736,0-.828-.015-1.271-.4-1.3-1.07-.03-.709.426-1.178,1.267-1.189q2.773-.036,5.548,0c.806.01,1.256.448,1.266,1.117.01.705-.454,1.127-1.308,1.142C459.325,1010.564,458.413,1010.551,457.5,1010.551Z" transform="translate(-15.026 -27.857)" fill="#fff"/>
      <path id="Trazado_620552" data-name="Trazado 620552" d="M455.334,1025.532a7.75,7.75,0,0,1-.836,0,1.043,1.043,0,0,1-1.024-1.025,1.02,1.02,0,0,1,.92-1.19,7.356,7.356,0,0,1,1.892-.007,1.034,1.034,0,0,1,.961,1.165,1.063,1.063,0,0,1-1.078,1.063c-.277.021-.557,0-.836,0Z" transform="translate(-15.029 -33.035)" fill="#fff"/>
      <path id="Trazado_620553" data-name="Trazado 620553" d="M455.384,992.384c.253,0,.508-.016.76,0a1.11,1.11,0,0,1,1.113,1.11,1.079,1.079,0,0,1-1.02,1.127,7.683,7.683,0,0,1-1.818-.012,1.024,1.024,0,0,1-.945-1.171,1.046,1.046,0,0,1,1.076-1.052C454.826,992.366,455.106,992.384,455.384,992.384Z" transform="translate(-15.029 -22.362)" fill="#fff"/>
      <path id="Trazado_620554" data-name="Trazado 620554" d="M455.357,963.731a8.305,8.305,0,0,1-.984-.062,1.013,1.013,0,0,1-.9-1.049.959.959,0,0,1,.828-1.1,8.966,8.966,0,0,1,2.111,0,.973.973,0,0,1,.841,1.1,1.032,1.032,0,0,1-.91,1.053A8.621,8.621,0,0,1,455.357,963.731Z" transform="translate(-15.029 -11.672)" fill="#fff"/>
      <path id="Trazado_620555" data-name="Trazado 620555" d="M429.695,954.961c1.085-1.1,2-2.039,2.93-2.965.671-.669,1.345-.728,1.851-.191.484.514.411,1.14-.234,1.791q-1.71,1.723-3.436,3.43c-.784.775-1.3.776-2.071.021-.56-.548-1.122-1.1-1.659-1.666a1.142,1.142,0,0,1-.083-1.63,1.1,1.1,0,0,1,1.679.027C429.017,954.107,429.3,954.5,429.695,954.961Z" transform="translate(-5.77 -8.21)" fill="#fff"/>
      <path id="Trazado_620556" data-name="Trazado 620556" d="M429.693,1016.815c1.1-1.113,2.018-2.054,2.949-2.982.652-.65,1.272-.716,1.792-.219s.468,1.166-.205,1.843q-1.712,1.722-3.437,3.431c-.759.751-1.3.744-2.069-.013-.541-.533-1.084-1.063-1.61-1.611a1.151,1.151,0,0,1-.1-1.684,1.136,1.136,0,0,1,1.685.068C429.037,1015.98,429.318,1016.372,429.693,1016.815Z" transform="translate(-5.77 -29.591)" fill="#fff"/>
      <path id="Trazado_620557" data-name="Trazado 620557" d="M429.705,985.947c.951-.987,1.754-1.822,2.56-2.654.194-.2.386-.4.6-.582a1.13,1.13,0,0,1,1.574-.005,1.06,1.06,0,0,1,.043,1.563c-1.3,1.346-2.621,2.673-3.975,3.964a1.063,1.063,0,0,1-1.572-.067c-.641-.61-1.271-1.233-1.88-1.875a1.144,1.144,0,0,1-.041-1.632,1.128,1.128,0,0,1,1.63.036C429,985.041,429.3,985.456,429.705,985.947Z" transform="translate(-5.771 -18.909)" fill="#fff"/>
    </g>
  </g>
</svg>
