<svg xmlns="http://www.w3.org/2000/svg" xmlns:xlink="http://www.w3.org/1999/xlink" width="95" height="95" viewBox="0 0 95 95">
  <defs>
    <clipPath id="clip-path">
      <circle id="Elipse_5300" data-name="Elipse 5300" cx="47.5" cy="47.5" r="47.5" transform="translate(753 1584)" fill="#e8e8e8"/>
    </clipPath>
    <clipPath id="clip-path-2">
      <rect id="Rectángulo_294321" data-name="Rectángulo 294321" width="164.187" height="95.77" fill="none"/>
    </clipPath>
  </defs>
  <g id="Enmascarar_grupo_94" data-name="Enmascarar grupo 94" transform="translate(-753 -1584)" clip-path="url(#clip-path)">
    <g id="USA" transform="translate(158.516 911.75)">
      <g id="Grupo_882212" data-name="Grupo 882212" transform="translate(579.908 671.865)">
        <g id="Grupo_882211" data-name="Grupo 882211">
          <g id="Grupo_882210" data-name="Grupo 882210" clip-path="url(#clip-path-2)">
            <rect id="Rectángulo_294307" data-name="Rectángulo 294307" width="164.187" height="7.366" transform="translate(0 88.404)" fill="#cb001c"/>
            <rect id="Rectángulo_294308" data-name="Rectángulo 294308" width="164.187" height="7.368" transform="translate(0 81.036)" fill="#fff"/>
            <rect id="Rectángulo_294309" data-name="Rectángulo 294309" width="164.187" height="7.355" transform="translate(0 73.681)" fill="#cb001c"/>
            <rect id="Rectángulo_294310" data-name="Rectángulo 294310" width="164.187" height="7.375" transform="translate(0 66.305)" fill="#fff"/>
            <rect id="Rectángulo_294311" data-name="Rectángulo 294311" width="164.187" height="7.368" transform="translate(0 58.938)" fill="#cb001c"/>
            <rect id="Rectángulo_294312" data-name="Rectángulo 294312" width="164.187" height="7.364" transform="translate(0 51.573)" fill="#fff"/>
            <rect id="Rectángulo_294313" data-name="Rectángulo 294313" width="164.187" height="7.377" transform="translate(0 44.196)" fill="#cb001c"/>
            <rect id="Rectángulo_294314" data-name="Rectángulo 294314" width="164.187" height="7.357" transform="translate(0 36.839)" fill="#fff"/>
            <rect id="Rectángulo_294315" data-name="Rectángulo 294315" width="164.187" height="7.364" transform="translate(0 29.475)" fill="#cb001c"/>
            <rect id="Rectángulo_294316" data-name="Rectángulo 294316" width="164.187" height="7.368" transform="translate(0 22.107)" fill="#fff"/>
            <rect id="Rectángulo_294317" data-name="Rectángulo 294317" width="164.187" height="7.375" transform="translate(0 14.732)" fill="#cb001c"/>
            <rect id="Rectángulo_294318" data-name="Rectángulo 294318" width="164.187" height="7.357" transform="translate(0 7.375)" fill="#fff"/>
            <rect id="Rectángulo_294319" data-name="Rectángulo 294319" width="164.187" height="7.375" fill="#cb001c"/>
            <rect id="Rectángulo_294320" data-name="Rectángulo 294320" width="74.979" height="51.573" fill="#2a3560"/>
            <path id="Trazado_622302" data-name="Trazado 622302" d="M586.992,677.977l.641,1.961h2.052l-1.662,1.2.628,1.949-1.66-1.2-1.662,1.2.65-1.949-1.664-1.2h2.034Z" transform="translate(-580.217 -672.294)" fill="#fff"/>
            <path id="Trazado_622303" data-name="Trazado 622303" d="M586.992,687.236l.641,1.949h2.052l-1.662,1.2.628,1.951-1.66-1.2-1.662,1.2.65-1.951-1.664-1.2h2.034Z" transform="translate(-580.217 -672.944)" fill="#fff"/>
            <path id="Trazado_622304" data-name="Trazado 622304" d="M586.992,696.5l.641,1.94h2.052l-1.662,1.2.628,1.958-1.66-1.213-1.662,1.213.65-1.958-1.664-1.2h2.034Z" transform="translate(-580.217 -673.594)" fill="#fff"/>
            <path id="Trazado_622305" data-name="Trazado 622305" d="M586.992,705.752l.641,1.949h2.052l-1.662,1.2.628,1.949-1.66-1.2-1.662,1.2.65-1.949-1.664-1.2h2.034Z" transform="translate(-580.217 -674.243)" fill="#fff"/>
            <path id="Trazado_622306" data-name="Trazado 622306" d="M586.992,715.01l.641,1.958h2.052l-1.662,1.2.628,1.949-1.66-1.2-1.662,1.2.65-1.949-1.664-1.2h2.034Z" transform="translate(-580.217 -674.892)" fill="#fff"/>
            <path id="Trazado_622307" data-name="Trazado 622307" d="M593.442,682.859l.612,1.949h2.065l-1.653,1.206.621,1.947-1.645-1.2-1.653,1.2.623-1.947-1.656-1.206h2.058Z" transform="translate(-580.669 -672.637)" fill="#fff"/>
            <path id="Trazado_622308" data-name="Trazado 622308" d="M593.442,692.115l.612,1.941h2.065l-1.653,1.213.621,1.938-1.645-1.182-1.653,1.182.623-1.938-1.656-1.213h2.058Z" transform="translate(-580.669 -673.286)" fill="#fff"/>
            <path id="Trazado_622309" data-name="Trazado 622309" d="M593.442,701.375l.612,1.949h2.065l-1.653,1.2.621,1.949-1.645-1.2-1.653,1.2.623-1.949-1.656-1.2h2.058Z" transform="translate(-580.669 -673.936)" fill="#fff"/>
            <path id="Trazado_622310" data-name="Trazado 622310" d="M593.442,710.643l.612,1.941h2.065l-1.653,1.2.621,1.94-1.645-1.2-1.653,1.2.623-1.94-1.656-1.2h2.058Z" transform="translate(-580.669 -674.586)" fill="#fff"/>
            <path id="Trazado_622311" data-name="Trazado 622311" d="M599.956,677.977l.641,1.961h2.052l-1.66,1.2.641,1.949-1.674-1.2-1.642,1.2.63-1.949-1.663-1.2h2.047Z" transform="translate(-581.127 -672.294)" fill="#fff"/>
            <path id="Trazado_622312" data-name="Trazado 622312" d="M599.956,687.236l.641,1.949h2.052l-1.66,1.2.641,1.951-1.674-1.2-1.642,1.2.63-1.951-1.663-1.2h2.047Z" transform="translate(-581.127 -672.944)" fill="#fff"/>
            <path id="Trazado_622313" data-name="Trazado 622313" d="M599.956,696.5l.641,1.94h2.052l-1.66,1.2.641,1.958-1.674-1.213-1.642,1.213.63-1.958-1.663-1.2h2.047Z" transform="translate(-581.127 -673.594)" fill="#fff"/>
            <path id="Trazado_622314" data-name="Trazado 622314" d="M599.956,705.752l.641,1.949h2.052l-1.66,1.2.641,1.949-1.674-1.2-1.642,1.2.63-1.949-1.663-1.2h2.047Z" transform="translate(-581.127 -674.243)" fill="#fff"/>
            <path id="Trazado_622315" data-name="Trazado 622315" d="M599.956,715.01l.641,1.958h2.052l-1.66,1.2.641,1.949-1.674-1.2-1.642,1.2.63-1.949-1.663-1.2h2.047Z" transform="translate(-581.127 -674.892)" fill="#fff"/>
            <path id="Trazado_622316" data-name="Trazado 622316" d="M606.411,682.859l.63,1.949H609.1l-1.671,1.206.641,1.947-1.664-1.2-1.654,1.2.641-1.947-1.673-1.206h2.054Z" transform="translate(-581.579 -672.637)" fill="#fff"/>
            <path id="Trazado_622317" data-name="Trazado 622317" d="M606.411,692.115l.63,1.941H609.1l-1.671,1.213.641,1.938-1.664-1.182-1.654,1.182.641-1.938-1.673-1.213h2.054Z" transform="translate(-581.579 -673.286)" fill="#fff"/>
            <path id="Trazado_622318" data-name="Trazado 622318" d="M606.411,701.375l.63,1.949H609.1l-1.671,1.2.641,1.949-1.664-1.2-1.654,1.2.641-1.949-1.673-1.2h2.054Z" transform="translate(-581.579 -673.936)" fill="#fff"/>
            <path id="Trazado_622319" data-name="Trazado 622319" d="M606.411,710.643l.63,1.941H609.1l-1.671,1.2.641,1.94-1.664-1.2-1.654,1.2.641-1.94-1.673-1.2h2.054Z" transform="translate(-581.579 -674.586)" fill="#fff"/>
            <path id="Trazado_622320" data-name="Trazado 622320" d="M612.946,677.977l.641,1.961h2.032l-1.662,1.2.659,1.949-1.671-1.2-1.663,1.2.63-1.949-1.644-1.2h2.045Z" transform="translate(-582.038 -672.294)" fill="#fff"/>
            <path id="Trazado_622321" data-name="Trazado 622321" d="M612.946,687.236l.641,1.949h2.032l-1.662,1.2.659,1.951-1.671-1.2-1.663,1.2.63-1.951-1.644-1.2h2.045Z" transform="translate(-582.038 -672.944)" fill="#fff"/>
            <path id="Trazado_622322" data-name="Trazado 622322" d="M612.946,696.5l.641,1.94h2.032l-1.662,1.2.659,1.958-1.671-1.213-1.663,1.213.63-1.958-1.644-1.2h2.045Z" transform="translate(-582.038 -673.594)" fill="#fff"/>
            <path id="Trazado_622323" data-name="Trazado 622323" d="M612.946,705.752l.641,1.949h2.032l-1.662,1.2.659,1.949-1.671-1.2-1.663,1.2.63-1.949-1.644-1.2h2.045Z" transform="translate(-582.038 -674.243)" fill="#fff"/>
            <path id="Trazado_622324" data-name="Trazado 622324" d="M612.946,715.01l.641,1.958h2.032l-1.662,1.2.659,1.949-1.671-1.2-1.663,1.2.63-1.949-1.644-1.2h2.045Z" transform="translate(-582.038 -674.892)" fill="#fff"/>
            <path id="Trazado_622325" data-name="Trazado 622325" d="M619.4,682.859l.63,1.949h2.047l-1.653,1.206.619,1.947-1.644-1.2-1.653,1.2.619-1.947-1.653-1.206h2.045Z" transform="translate(-582.49 -672.637)" fill="#fff"/>
            <path id="Trazado_622326" data-name="Trazado 622326" d="M619.4,692.115l.63,1.941h2.047l-1.653,1.213.619,1.938-1.644-1.182-1.653,1.182.619-1.938-1.653-1.213h2.045Z" transform="translate(-582.49 -673.286)" fill="#fff"/>
            <path id="Trazado_622327" data-name="Trazado 622327" d="M619.4,701.375l.63,1.949h2.047l-1.653,1.2.619,1.949-1.644-1.2-1.653,1.2.619-1.949-1.653-1.2h2.045Z" transform="translate(-582.49 -673.936)" fill="#fff"/>
            <path id="Trazado_622328" data-name="Trazado 622328" d="M619.4,710.643l.63,1.941h2.047l-1.653,1.2.619,1.94-1.644-1.2-1.653,1.2.619-1.94-1.653-1.2h2.045Z" transform="translate(-582.49 -674.586)" fill="#fff"/>
            <path id="Trazado_622329" data-name="Trazado 622329" d="M625.912,677.977l.641,1.961H628.6l-1.653,1.2.641,1.949-1.674-1.2-1.644,1.2.623-1.949-1.653-1.2h2.045Z" transform="translate(-582.948 -672.294)" fill="#fff"/>
            <path id="Trazado_622330" data-name="Trazado 622330" d="M625.912,687.236l.641,1.949H628.6l-1.653,1.2.641,1.951-1.674-1.2-1.644,1.2.623-1.951-1.653-1.2h2.045Z" transform="translate(-582.948 -672.944)" fill="#fff"/>
            <path id="Trazado_622331" data-name="Trazado 622331" d="M625.912,696.5l.641,1.94H628.6l-1.653,1.2.641,1.958-1.674-1.213-1.644,1.213.623-1.958-1.653-1.2h2.045Z" transform="translate(-582.948 -673.594)" fill="#fff"/>
            <path id="Trazado_622332" data-name="Trazado 622332" d="M625.912,705.752l.641,1.949H628.6l-1.653,1.2.641,1.949-1.674-1.2-1.644,1.2.623-1.949-1.653-1.2h2.045Z" transform="translate(-582.948 -674.243)" fill="#fff"/>
            <path id="Trazado_622333" data-name="Trazado 622333" d="M625.912,715.01l.641,1.958H628.6l-1.653,1.2.641,1.949-1.674-1.2-1.644,1.2.623-1.949-1.653-1.2h2.045Z" transform="translate(-582.948 -674.892)" fill="#fff"/>
            <path id="Trazado_622334" data-name="Trazado 622334" d="M632.365,682.859l.632,1.949h2.063l-1.663,1.206.632,1.947-1.664-1.2-1.653,1.2.641-1.947-1.662-1.206h2.052Z" transform="translate(-583.401 -672.637)" fill="#fff"/>
            <path id="Trazado_622335" data-name="Trazado 622335" d="M632.365,692.115l.632,1.941h2.063L633.4,695.27l.632,1.938-1.664-1.182-1.653,1.182.641-1.938-1.662-1.213h2.052Z" transform="translate(-583.401 -673.286)" fill="#fff"/>
            <path id="Trazado_622336" data-name="Trazado 622336" d="M632.365,701.375l.632,1.949h2.063l-1.663,1.2.632,1.949-1.664-1.2-1.653,1.2.641-1.949-1.662-1.2h2.052Z" transform="translate(-583.401 -673.936)" fill="#fff"/>
            <path id="Trazado_622337" data-name="Trazado 622337" d="M632.365,710.643l.632,1.941h2.063l-1.663,1.2.632,1.94-1.664-1.2-1.653,1.2.641-1.94-1.662-1.2h2.052Z" transform="translate(-583.401 -674.586)" fill="#fff"/>
            <path id="Trazado_622338" data-name="Trazado 622338" d="M638.9,677.977l.639,1.961h2.047l-1.653,1.2.621,1.949-1.654-1.2-1.644,1.2.621-1.949-1.654-1.2h2.045Z" transform="translate(-583.859 -672.294)" fill="#fff"/>
            <path id="Trazado_622339" data-name="Trazado 622339" d="M638.9,687.236l.639,1.949h2.047l-1.653,1.2.621,1.951-1.654-1.2-1.644,1.2.621-1.951-1.654-1.2h2.045Z" transform="translate(-583.859 -672.944)" fill="#fff"/>
            <path id="Trazado_622340" data-name="Trazado 622340" d="M638.9,696.5l.639,1.94h2.047l-1.653,1.2.621,1.958-1.654-1.213-1.644,1.213.621-1.958-1.654-1.2h2.045Z" transform="translate(-583.859 -673.594)" fill="#fff"/>
            <path id="Trazado_622341" data-name="Trazado 622341" d="M638.9,705.752l.639,1.949h2.047l-1.653,1.2.621,1.949-1.654-1.2-1.644,1.2.621-1.949-1.654-1.2h2.045Z" transform="translate(-583.859 -674.243)" fill="#fff"/>
            <path id="Trazado_622342" data-name="Trazado 622342" d="M638.9,715.01l.639,1.958h2.047l-1.653,1.2.621,1.949-1.654-1.2-1.644,1.2.621-1.949-1.654-1.2h2.045Z" transform="translate(-583.859 -674.892)" fill="#fff"/>
            <path id="Trazado_622343" data-name="Trazado 622343" d="M645.353,682.859l.619,1.949h2.056l-1.643,1.206.612,1.947-1.644-1.2-1.671,1.2.638-1.947-1.642-1.206h2.034Z" transform="translate(-584.312 -672.637)" fill="#fff"/>
            <path id="Trazado_622344" data-name="Trazado 622344" d="M645.353,692.115l.619,1.941h2.056l-1.643,1.213.612,1.938-1.644-1.182-1.671,1.182.638-1.938-1.642-1.213h2.034Z" transform="translate(-584.312 -673.286)" fill="#fff"/>
            <path id="Trazado_622345" data-name="Trazado 622345" d="M645.353,701.375l.619,1.949h2.056l-1.643,1.2.612,1.949-1.644-1.2-1.671,1.2.638-1.949-1.642-1.2h2.034Z" transform="translate(-584.312 -673.936)" fill="#fff"/>
            <path id="Trazado_622346" data-name="Trazado 622346" d="M645.353,710.643l.619,1.941h2.056l-1.643,1.2.612,1.94-1.644-1.2-1.671,1.2.638-1.94-1.642-1.2h2.034Z" transform="translate(-584.312 -674.586)" fill="#fff"/>
            <path id="Trazado_622347" data-name="Trazado 622347" d="M651.867,677.977l.65,1.961h2.036l-1.653,1.2.639,1.949-1.673-1.2-1.644,1.2.621-1.949-1.653-1.2h2.045Z" transform="translate(-584.769 -672.294)" fill="#fff"/>
            <path id="Trazado_622348" data-name="Trazado 622348" d="M651.867,687.236l.65,1.949h2.036l-1.653,1.2.639,1.951-1.673-1.2-1.644,1.2.621-1.951-1.653-1.2h2.045Z" transform="translate(-584.769 -672.944)" fill="#fff"/>
            <path id="Trazado_622349" data-name="Trazado 622349" d="M651.867,696.5l.65,1.94h2.036l-1.653,1.2.639,1.958-1.673-1.213-1.644,1.213.621-1.958-1.653-1.2h2.045Z" transform="translate(-584.769 -673.594)" fill="#fff"/>
            <path id="Trazado_622350" data-name="Trazado 622350" d="M651.867,705.752l.65,1.949h2.036l-1.653,1.2.639,1.949-1.673-1.2-1.644,1.2.621-1.949-1.653-1.2h2.045Z" transform="translate(-584.769 -674.243)" fill="#fff"/>
            <path id="Trazado_622351" data-name="Trazado 622351" d="M651.867,715.01l.65,1.958h2.036l-1.653,1.2.639,1.949-1.673-1.2-1.644,1.2.621-1.949-1.653-1.2h2.045Z" transform="translate(-584.769 -674.892)" fill="#fff"/>
          </g>
        </g>
      </g>
    </g>
  </g>
</svg>
