<svg xmlns="http://www.w3.org/2000/svg" width="134" height="134" viewBox="0 0 134 134">
  <g id="Grupo_887403" data-name="Grupo 887403" transform="translate(-1083 -5641)">
    <circle id="Elipse_5259" data-name="Elipse 5259" cx="67" cy="67" r="67" transform="translate(1083 5641)" fill="#179587"/>
    <g id="Grupo_881837" data-name="Grupo 881837" transform="translate(937 4960.473)">
      <path id="Trazado_620558" data-name="Trazado 620558" d="M256.929,750.82a3.915,3.915,0,0,1-2.525,2.163c-1.931.689-3.833,1.464-5.728,2.249a2.993,2.993,0,0,1-3.265-.277.729.729,0,0,0-.664-.007c-1.545.96-3.07,1.953-4.585,2.926,1,4.926-1.275,7.644-6.06,7.313-.977,3.582-2.347,4.643-6.24,4.776a5.283,5.283,0,0,1-2.309,4.129,5.407,5.407,0,0,1-4.708.61,5.251,5.251,0,0,1-4.263,4.493c-2.468.529-4.174-.937-6-2.347-.406.464-.786.923-1.192,1.358a4.57,4.57,0,0,1-4.8,1.452,4.626,4.626,0,0,1-3.444-3.647.94.94,0,0,0-.585-.613c-2.758-.315-4.037-1.419-4.722-4.154a2.208,2.208,0,0,0-.085-.231c-3.333-.427-4.656-1.562-5.213-4.464-4.566-.746-6.283-3.452-4.556-7.345-.3-.216-.6-.466-.928-.675-1.683-1.072-3.363-2.15-5.072-3.179a1.964,1.964,0,0,0-.981-.056,6.766,6.766,0,0,1-2.251.076c-2.375-.816-4.688-1.809-7.033-2.716A3.429,3.429,0,0,1,168,750.82v-1.39c.511-1.216,1.045-2.424,1.53-3.65q3.683-9.311,7.344-18.629c.825-2.1,2.088-2.658,4.172-1.845,2.1.819,4.193,1.654,6.293,2.474a2.808,2.808,0,0,1,1.982,2.846.828.828,0,0,0,.4.6,12.049,12.049,0,0,0,5.244,1.246c3.631.065,7.3,0,10.834,1.147a.991.991,0,0,0,.741-.2,6.774,6.774,0,0,0,.875-.841,6.8,6.8,0,0,1,6.4-2.054c1.4.237,2.8.449,4.2.674.937.151,1.462.712,1.381,1.468-.087.8-.746,1.254-1.736,1.115-1.575-.221-3.143-.485-4.715-.728a3.8,3.8,0,0,0-3.411,1.111,80.824,80.824,0,0,1-12.174,10.168c-.769.51-.761,1-.047,1.586a5.08,5.08,0,0,0,5,.8,16.587,16.587,0,0,0,5.958-3.626c1.784-1.534,3.182-1.5,4.851.127a14.794,14.794,0,0,0,12.7,4.458,3.235,3.235,0,0,1,2.553.71c3.326,2.508,6.693,4.962,10.088,7.468l5.589-3.59L236.645,733.5c-.863.311-1.669.542-2.424.884a12.451,12.451,0,0,1-8.14.757c-.647-.147-1.314-.2-1.968-.322a1.309,1.309,0,0,1-1.236-1.491,1.264,1.264,0,0,1,1.585-1.083q1.807.223,3.6.553a7.5,7.5,0,0,0,4.006-.4c1.19-.434,2.376-.882,3.541-1.315.014-2.044.434-2.662,2.336-3.423q3.1-1.239,6.209-2.45a2.657,2.657,0,0,1,3.772,1.654q1.628,4.064,3.225,8.14c.374.95.148,1.655-.6,1.976-.765.328-1.432-.047-1.835-1.059-1.1-2.763-2.191-5.53-3.325-8.4l-7.184,2.83,8.943,22.673,7.184-2.83-3-7.643c-.085-.215-.191-.424-.254-.645a1.312,1.312,0,0,1,.732-1.653,1.268,1.268,0,0,1,1.662.7c.317.68.565,1.391.849,2.087q1.3,3.2,2.609,6.393Zm-48.387,15.706c4.669-.124,6.9,4.965,3.693,8.439a20.611,20.611,0,0,0,2.76,1.6,2.419,2.419,0,0,0,2.969-1.333,2.294,2.294,0,0,0-.752-2.983c-.709-.549-1.438-1.076-2.118-1.659a1.264,1.264,0,0,1,.079-2.126,1.373,1.373,0,0,1,1.679.209c1.376,1.058,2.739,2.136,4.151,3.144a2.611,2.611,0,0,0,3.762-.547,2.524,2.524,0,0,0-.728-3.561c-1.076-.831-2.165-1.647-3.229-2.494a1.3,1.3,0,1,1,1.592-2.048c.377.268.733.565,1.1.846,1.243.946,2.463,1.926,3.739,2.826a2.612,2.612,0,0,0,3.7-.561,2.564,2.564,0,0,0-.683-3.581,36.161,36.161,0,0,1-3.774-2.917,1.7,1.7,0,0,1-.508-1.336,1.462,1.462,0,0,1,.948-.947,1.9,1.9,0,0,1,1.321.418c1.8,1.315,3.538,2.709,5.335,4.023a3.677,3.677,0,0,0,1.561.665,2.5,2.5,0,0,0,2.624-1.586,2.719,2.719,0,0,0-1.063-3.214q-4.843-3.6-9.721-7.143a1.9,1.9,0,0,0-1.185-.32,17.668,17.668,0,0,1-14.438-5.223c-.538-.519-.852-.544-1.414-.044a18.646,18.646,0,0,1-6.687,4.086,7.693,7.693,0,0,1-7.267-.976c-2.486-1.82-2.373-4.392.122-6.189s4.855-3.738,7.271-5.623a6.022,6.022,0,0,0,.56-.587,11.59,11.59,0,0,0-1.335-.254c-2.741-.174-5.482-.388-8.226-.465a11.012,11.012,0,0,1-4.222-.806c-.6-.263-1.21-.5-1.871-.769l-7.573,19.2,7.006,4.447c.718-.831,1.37-1.644,2.084-2.4a4.742,4.742,0,0,1,8.092,2.2c.06.246.133.488.2.73a5,5,0,0,1,3.517,1.142,5.205,5.205,0,0,1,1.7,3.268C206.426,762.268,208,763.608,208.542,766.526Zm-30.761-13.5,8.945-22.674-7.188-2.831-8.944,22.672Zm12.512,10.853a2.992,2.992,0,0,0,1.133-.55c1.268-1.382,2.5-2.8,3.65-4.285a1.988,1.988,0,0,0-.445-2.723,2.027,2.027,0,0,0-2.764.075c-1.253,1.357-2.447,2.773-3.6,4.218a1.884,1.884,0,0,0-.082,2.135A2.205,2.205,0,0,0,190.292,763.874Zm10.482-1.368a2.464,2.464,0,0,0-1.4-2.05,2.108,2.108,0,0,0-2.448.563c-1.076,1.209-2.124,2.442-3.156,3.689a2.135,2.135,0,1,0,3.23,2.784c1.052-1.191,2.09-2.4,3.085-3.635A7.245,7.245,0,0,0,200.773,762.506Zm5.322,14.736a3.6,3.6,0,0,0,1.18-.641c1.214-1.315,2.383-2.676,3.491-4.081a2.108,2.108,0,0,0-3.178-2.742c-1.232,1.337-2.4,2.732-3.539,4.154a1.9,1.9,0,0,0-.087,2.208A2.245,2.245,0,0,0,206.1,777.243Zm-.072-10.322a2.445,2.445,0,0,0-1.443-2.026,2.021,2.021,0,0,0-2.37.546q-1.647,1.841-3.213,3.753a2.093,2.093,0,0,0,.2,3.087,2.157,2.157,0,0,0,3.082-.367c1.031-1.171,2.054-2.351,3.027-3.57A7.544,7.544,0,0,0,206.023,766.92Z" transform="translate(0)" fill="#fff"/>
    </g>
  </g>
</svg>
