<svg xmlns="http://www.w3.org/2000/svg" width="134" height="134" viewBox="0 0 134 134">
  <g id="Grupo_887400" data-name="Grupo 887400" transform="translate(-1083 -5128)">
    <circle id="Elipse_5257" data-name="Elipse 5257" cx="67" cy="67" r="67" transform="translate(1083 5128)" fill="#179587"/>
    <g id="Grupo_881839" data-name="Grupo 881839" transform="translate(735.142 4232.607)">
      <path id="Trazado_620563" data-name="Trazado 620563" d="M416.084,998.145h-25.13c-1.7,0-2.091-.4-2.091-2.132,0-3.087-.011-6.174,0-9.262a15.829,15.829,0,0,1,5.459-12.15,2.016,2.016,0,0,0,.6-1.123,127.232,127.232,0,0,0,1.319-17.913,1.4,1.4,0,0,0-.588-1.27,5.688,5.688,0,0,1-.781-8.294,1.991,1.991,0,0,0,.441-1.175c.021-3.175-.039-6.34.872-9.446a20.815,20.815,0,0,1,40.777,5.879c0,.629.023,1.26,0,1.888a5.442,5.442,0,0,0,1,3.724,5.443,5.443,0,0,1-1.339,7.447,1.311,1.311,0,0,0-.567,1.189,126.9,126.9,0,0,0,1.325,18,2.036,2.036,0,0,0,.619,1.116A15.819,15.819,0,0,1,443.43,986.7c.022,3.178.006,6.355,0,9.532,0,1.452-.472,1.913-1.95,1.913Q428.783,998.147,416.084,998.145Zm-17.822-53.919c2.041-.219,4.018-.321,5.952-.664a20.772,20.772,0,0,0,10.729-5.226c.895-.83,1.5-.8,2.43.006.361.314.709.645,1.083.942,4.553,3.614,9.876,4.739,15.577,4.822.541-7.177-1.545-13.282-7.582-17.468-6.256-4.338-12.967-4.607-19.5-.714C400.171,929.964,397.715,936.339,398.263,944.226Zm3.274,2.607c.218,1.491.413,2.849.616,4.206a24.026,24.026,0,0,0,1.786,7.1c4.678,9.669,17.092,9.756,22.465,3,.225-.283.433-.58.765-1.025-1.766,0-3.289.015-4.811-.008a1.008,1.008,0,0,0-1.046.606,4.059,4.059,0,0,1-3.655,2.208c-1.046.024-2.095.036-3.141-.005a4.281,4.281,0,0,1-.478-8.51,22.825,22.825,0,0,1,3.4-.094,4.391,4.391,0,0,1,3.971,2.344,1.316,1.316,0,0,0,.939.556c1.884.052,3.77-.006,5.654.043a.9.9,0,0,0,1.06-.812c.366-1.816.75-3.629,1.077-5.453.241-1.346.4-2.708.616-4.153a26.053,26.053,0,0,1-14.615-5.7A25.961,25.961,0,0,1,401.537,946.833Zm2.564,26.882a12.755,12.755,0,0,0-12.143,10.745,80.683,80.683,0,0,0-.22,8.071c-.017.889,0,1.778,0,2.667h18.338c-.309-.369-.533-.644-.764-.912q-3.51-4.085-7.021-8.171c-1.054-1.228-.971-1.909.346-2.876.6-.44,1.2-.877,1.846-1.348-1.189-1.073-2.328-2.086-3.449-3.119-1.006-.927-.975-1.752.081-2.622C402.053,975.375,403,974.609,404.1,973.715Zm36.461,21.507c0-2.935.041-5.806-.01-8.676a12.691,12.691,0,0,0-5.811-10.756,12.412,12.412,0,0,0-6.6-2.122c1.112.9,2.031,1.649,2.949,2.4,1.193.974,1.218,1.755.074,2.8-1.091,1-2.2,1.986-3.345,3.024.684.5,1.287.933,1.889,1.374,1.253.918,1.339,1.64.329,2.82q-2.394,2.795-4.8,5.584c-.984,1.146-1.964,2.295-3.04,3.551ZM427.178,985c-.75-.553-1.422-1.044-2.089-1.542-1.269-.947-1.317-1.774-.16-2.831,1.117-1.019,2.24-2.031,3.406-3.087l-4.426-3.587c-.17.366-.3.63-.418.9q-2.874,6.577-5.742,13.156c-.317.729-.615,1.479-1.575,1.494-1.014.016-1.312-.77-1.642-1.527q-2.862-6.581-5.741-13.156c-.118-.267-.249-.529-.408-.867l-4.42,3.59c1.221,1.1,2.4,2.154,3.563,3.23a1.473,1.473,0,0,1-.129,2.551c-.731.555-1.48,1.086-2.259,1.656.243.3.423.532.614.756q2.892,3.375,5.79,6.746c.8.927,1.459,2.189,2.476,2.652s2.4.124,3.629.136a.728.728,0,0,0,.267,0,2,2,0,0,0,.747-.366C421.484,991.64,424.287,988.366,427.178,985Zm-16.865-17.261a17.856,17.856,0,0,0,.336,4.01c.624,1.952,1.619,3.784,2.409,5.685a.831.831,0,0,0,.942.578c1.433-.026,2.867-.038,4.3.006a.885.885,0,0,0,.974-.671,37.514,37.514,0,0,1,1.806-4.095c.969-1.732.84-3.549.778-5.467A18.489,18.489,0,0,1,410.314,967.736ZM399.272,955.6c-.353,5.529-.7,11.011-1.058,16.577,2.915-1.434,6.164-1.356,9.317-1.868,0-1.234.024-2.372-.018-3.508a1.056,1.056,0,0,0-.393-.71,17.881,17.881,0,0,1-6.968-9.949C399.994,955.565,399.7,955.428,399.272,955.6Zm34.857,16.589c-.315-4.166-.621-8.205-.924-12.222-.733.052-1.447.058-2.143.173a1.3,1.3,0,0,0-.823.507,17.455,17.455,0,0,1-5.024,5.421,1.046,1.046,0,0,0-.428.689c-.044,1.163-.02,2.329-.02,3.557C427.945,970.794,431.177,970.764,434.129,972.186Zm-18.013-12.148c.538,0,1.078.036,1.612-.009A1.3,1.3,0,0,0,419,958.751a1.251,1.251,0,0,0-1.122-1.484,19.318,19.318,0,0,0-3.481.007,1.232,1.232,0,0,0-1.1,1.415,1.31,1.31,0,0,0,1.3,1.344C415.1,960.074,415.609,960.041,416.116,960.038ZM399.48,952.61l-.818-5.526a2.708,2.708,0,0,0-2.33,3.015A2.806,2.806,0,0,0,399.48,952.61Zm33.341-.018a2.782,2.782,0,0,0,3.161-2.65,2.611,2.611,0,0,0-2.356-2.813Zm-16.67,31.879,1.54-3.54H414.6Zm17.175-28.629c-1.083-.291-1.276-.021-1.1,1.427Z" transform="translate(0)" fill="#fff"/>
    </g>
  </g>
</svg>
