<svg xmlns="http://www.w3.org/2000/svg" width="135" height="135" viewBox="0 0 135 135">
  <g id="Grupo_887405" data-name="Grupo 887405" transform="translate(-390 -8560)">
    <circle id="Elipse_5381" data-name="Elipse 5381" cx="67.5" cy="67.5" r="67.5" transform="translate(390 8560)" fill="#222b5a"/>
    <g id="Grupo_882081" data-name="Grupo 882081" transform="translate(91.742 7717.278)">
      <path id="Trazado_621725" data-name="Trazado 621725" d="M374.1,897.435c3.223,1.1,4.486,2.867,4.486,6.226a28,28,0,0,1-.018,2.937,7.562,7.562,0,0,0,1.417,5.158c1.6,2.429,3.037,4.973,4.519,7.481a.928.928,0,0,0,.94.524c1.682-.029,3.364-.024,5.046,0a1.056,1.056,0,0,0,.878-.475c1.112-1.19.505-2.6.714-4.015-.434,0-.8.019-1.161,0a1.111,1.111,0,0,1-1.113-1.116,1.085,1.085,0,0,1,1.119-1.106q4.486-.026,8.972,0a1.085,1.085,0,0,1,1.113,1.112,1.116,1.116,0,0,1-1.121,1.11c-.345.021-.692,0-1.076,0v2.242c.6,0,1.218,0,1.838,0,1.107,0,1.484.369,1.486,1.455q.006,3.008,0,6.017c0,.963-.171,1.2-1.144,1.552a7.92,7.92,0,0,1,2.256,5.845,7.626,7.626,0,0,1-1.577,4.406,7.844,7.844,0,0,1-8.567,2.775c-3.59-1.108-5.373-3.855-5.551-8.616h-.749c-2.991,0-5.982-.015-8.972.01a1.494,1.494,0,0,1-1.54-.944,43.055,43.055,0,0,0-2.194-4.095v.718q0,5.876,0,11.754c0,1.148-.361,1.513-1.5,1.513q-17.559,0-35.117,0c-1.237,0-1.628-.487-1.44-1.7q1.514-9.774,3.011-19.549.658-4.283,1.315-8.566a6.662,6.662,0,0,0,.08-.972c.008-1.8.078-3.6-.013-5.387a5.849,5.849,0,0,1,4.5-6.292c0-1.546-.015-3.106,0-4.666.028-2.423-.082-4.862.149-7.267a14.554,14.554,0,0,1,28.812-.551,16.033,16.033,0,0,1,.188,2.646C374.114,890.86,374.1,894.124,374.1,897.435Zm16.65,24.554c-2,0-4.054-.024-6.108.013a1.681,1.681,0,0,1-1.645-.925c-1.912-3.229-3.865-6.434-5.782-9.66a1.029,1.029,0,0,0-1.085-.637,10.713,10.713,0,0,1-2.24,0,6.366,6.366,0,0,0-5.033,1.626c-1.093.873-1.741,1.685-1.492,3.092a2.835,2.835,0,0,1-.75,2.3c-1.9,2.454-3.75,4.943-5.592,7.439a1.944,1.944,0,0,0-.366,1.068c-.027,3.567-.017,7.135-.015,10.7,0,.2.023.4.036.6h11.178V921.546c0-.163.005-.327,0-.49a1.142,1.142,0,0,1,2.212-.522c1.271,2.542,2.555,5.078,3.806,7.631a.85.85,0,0,0,.905.552c2.874-.023,5.747-.035,8.621.006a1.418,1.418,0,0,0,1.369-.756,17.613,17.613,0,0,1,2.01-2.209,5.636,5.636,0,0,1,.831-.593l-.227-.007C391.178,924.131,390.973,923.1,390.752,921.989Zm-45.811,15.647V936.8q0-7.7,0-15.393a3.6,3.6,0,0,1,.022-.7,1.112,1.112,0,0,1,2.195-.021,3.37,3.37,0,0,1,.026.7q0,7.731,0,15.463v.771h11.183c.013-.131.03-.221.031-.311,0-3.732.009-7.463-.013-11.194a1.614,1.614,0,0,0-.349-.866c-1.555-2.1-3.053-4.249-4.727-6.25a5.957,5.957,0,0,1-1.66-4.886,1.057,1.057,0,0,0-.378-.8c-.983-.788-2-1.53-3.02-2.274a1.066,1.066,0,0,0-.557-.235c-1.7-.018-3.406-.01-5.155-.01-1.381,8.965-2.756,17.885-4.135,26.841Zm2.227-50.547c.885-.3,1.713-.581,2.541-.86a10.287,10.287,0,0,0,1.307-.441q6.079-3.01,12.143-6.05c.985-.491,1.381-.386,1.99.523,1.219,1.82,2.431,3.645,3.655,5.462a1.208,1.208,0,0,0,.474.475c.838.318,1.695.588,2.595.892a12,12,0,0,0-5.985-10.313,11.753,11.753,0,0,0-13.044.191A11.973,11.973,0,0,0,347.168,887.089ZM395.4,926.468A5.6,5.6,0,1,0,401.017,932,5.608,5.608,0,0,0,395.4,926.468Zm-40.37-17.948c0-1.03.016-2.027-.017-3.023,0-.15-.2-.341-.362-.433a10.04,10.04,0,0,1-5.119-7.375.7.7,0,0,0-.3-.47c-.648-.3-1.319-.547-2-.821.014-.01-.017,0-.017.015-.012.6-.02,1.21-.03,1.815-.014.935-.356,1.3-1.292,1.375a3.353,3.353,0,0,0-3.19,3.427c-.013,1.679,0,3.358,0,5.036a3.638,3.638,0,0,0,.056.453Zm21.271.009a2.749,2.749,0,0,0,.037-.277c0-1.748.016-3.5,0-5.246a3.352,3.352,0,0,0-3.213-3.4c-.894-.073-1.254-.444-1.267-1.326-.009-.636,0-1.273,0-1.982-.416.22-.714.4-1.03.538s-.67.213-.977.373a.711.711,0,0,0-.339.441,10.056,10.056,0,0,1-5.208,7.466.6.6,0,0,0-.283.411c-.024.993-.013,1.988-.013,3.005Zm-8.97-14.357v-5.724H351.67v5.721c1.438.238,2.827.419,4.19.713.633.137.957,0,1.145-.595.342-1.083,1.06-1.418,2.218-1.453,1.486-.044,2.554.247,3,1.8a.56.56,0,0,0,.437.315C364.225,894.707,365.782,894.434,367.335,894.172Zm-15.578,2.3a7.772,7.772,0,0,0,15.539.039c-.224.017-.451.019-.673.055-1.357.221-2.712.454-4.069.673s-1.466.151-2.068-1.05c-.062-.125-.121-.253-.191-.373-.187-.323-.236-.729-.8-.713-.531.016-.579.4-.735.7-.87,1.708-.866,1.711-2.742,1.369-.046-.009-.09-.025-.136-.032Zm6.5,25.325.143-.049c0-1.645,0-3.291-.005-4.936a.94.94,0,0,0-.118-.393c-.87-1.748-1.741-3.5-2.629-5.235-.081-.159-.278-.362-.427-.366-1.1-.031-2.211-.017-3.317-.017a7.037,7.037,0,0,0,1.337,1.162,1.469,1.469,0,0,1,.682,1.361c-.028.744-.018,1.49,0,2.234a1.2,1.2,0,0,0,.153.651C355.455,918.076,356.857,919.933,358.254,921.793Zm8.925-10.859-.054-.14c-1,0-2,.018-2.993-.009a.745.745,0,0,0-.805.485c-.643,1.342-1.275,2.693-2,3.99a5.342,5.342,0,0,0-.694,2.991c.058,1.17.013,2.344.013,3.516,1-1.117,1.788-2.338,2.751-3.4a5.82,5.82,0,0,0,1.736-5.1.122.122,0,0,1,0-.07,4.753,4.753,0,0,1,.624-1.163A11.306,11.306,0,0,1,367.179,910.934Zm32.669,13.29v-4.472c-1.888,0-3.726-.015-5.565.008a1.064,1.064,0,0,0-1.106,1.111c-.028.743-.027,1.489,0,2.233a1.067,1.067,0,0,0,1.106,1.112C396.121,924.24,397.961,924.225,399.848,924.225ZM357.3,906.212a10.621,10.621,0,0,0,.06,3.178,33.5,33.5,0,0,0,2.113,4.4c1.871-2.622,2.612-5.223,2.241-7.582Zm9.08-20.074-2.754-4.124-8.042,4.015.042.109ZM349.4,888.7a3.167,3.167,0,0,0-2.21,3.142,3.1,3.1,0,0,0,2.21,2.962Zm20.217,0v6.117a3.208,3.208,0,0,0,0-6.117ZM396.488,917.5v-2.174h-2.141V917.5Z" transform="translate(0)" fill="#fff"/>
      <path id="Trazado_621726" data-name="Trazado 621726" d="M457.7,931.007a3.361,3.361,0,1,1-3.314-3.365A3.373,3.373,0,0,1,457.7,931.007Zm-2.243,0a1.117,1.117,0,1,0-1.114,1.1A1.124,1.124,0,0,0,455.456,931.01Z" transform="translate(-63.415 -30.277)" fill="#fff"/>
      <path id="Trazado_621727" data-name="Trazado 621727" d="M477.707,945.984a3.36,3.36,0,1,1-3.314-3.364A3.373,3.373,0,0,1,477.707,945.984Zm-3.35,1.1A1.115,1.115,0,1,0,473.231,946,1.125,1.125,0,0,0,474.357,947.088Z" transform="translate(-74.45 -38.538)" fill="#fff"/>
      <path id="Trazado_621728" data-name="Trazado 621728" d="M477.088,927.643a1.114,1.114,0,1,1-1.095,1.134A1.126,1.126,0,0,1,477.088,927.643Z" transform="translate(-77.212 -30.278)" fill="#fff"/>
      <path id="Trazado_621729" data-name="Trazado 621729" d="M458.218,953.729a1.116,1.116,0,1,1-1.108-1.121A1.128,1.128,0,0,1,458.218,953.729Z" transform="translate(-66.177 -44.047)" fill="#fff"/>
    </g>
  </g>
</svg>
