<svg xmlns="http://www.w3.org/2000/svg" width="135" height="135" viewBox="0 0 135 135">
  <g id="Grupo_887406" data-name="Grupo 887406" transform="translate(-733 -8560)">
    <circle id="Elipse_5382" data-name="Elipse 5382" cx="67.5" cy="67.5" r="67.5" transform="translate(733 8560)" fill="#222b5a"/>
    <g id="Grupo_882082" data-name="Grupo 882082" transform="translate(423 7710.267)">
      <path id="Trazado_621730" data-name="Trazado 621730" d="M424.9,950.688c.243.12.448.213.646.318a3,3,0,0,1,1.535,3.632q-1.022,3.05-2.187,6.052a3.026,3.026,0,0,1-3.822,1.85q-6.854-2.212-13.667-4.55a2.965,2.965,0,0,1-1.812-3.813q1.026-3.009,2.177-5.976c.61-1.57,1.928-2.161,4.082-1.886.159-.778.261-1.585.494-2.351.58-1.9,1.151-3.809,1.867-5.659a7.517,7.517,0,0,1,1.517-2.287,7.322,7.322,0,0,0,1.478-2.638c.936-2.649,1.89-5.292,2.839-7.936a4.61,4.61,0,0,1,2.85-3.276q-1.244-2.744-2.492-5.5a3.823,3.823,0,0,1,6.637-3.776c1.647,3,3.095,6.106,4.612,9.175a2.074,2.074,0,0,1,.16.82c.213,5.395.409,10.789.631,16.183a2.675,2.675,0,0,1-.543,1.776c-2.2,3.048-4.374,6.115-6.555,9.178C425.2,950.231,425.066,950.441,424.9,950.688Zm-3.363-14.3c.5-1.37.97-2.688,1.448-4,.715-1.968,1.438-3.934,2.147-5.9.32-.89.1-1.54-.575-1.823a1.455,1.455,0,0,0-1.925.9c-.069.165-.12.337-.18.505-1.161,3.219-2.313,6.442-3.5,9.654a6.226,6.226,0,0,1-.709,1.158,20.475,20.475,0,0,0-2.317,3.658,57.6,57.6,0,0,0-1.587,6.062c-.125.492.113.66.545.8,2.3.756,4.606,1.525,6.895,2.329a.758.758,0,0,0,1.056-.337c2.25-3.2,4.54-6.373,6.794-9.572a1.843,1.843,0,0,0,.328-1.044c-.179-5.164-.387-10.328-.595-15.492a1.492,1.492,0,0,0-.127-.588q-2.1-4.223-4.216-8.434a1.185,1.185,0,0,0-1.337-.685,1.306,1.306,0,0,0-1.149,1.175,1.951,1.951,0,0,0,.182.956q1.391,3.2,2.83,6.373a1.56,1.56,0,0,0,.455.583,3.733,3.733,0,0,1,1.426,4.652c-.607,1.709-1.236,3.409-1.855,5.114-.574,1.579-1.147,3.16-1.741,4.8Zm.54,23.916a3.5,3.5,0,0,0,.643-.831c.667-1.738,1.268-3.5,1.93-5.243.246-.647.1-1-.56-1.223-4.257-1.426-8.508-2.869-12.764-4.3-.809-.271-1.107-.116-1.4.69-.606,1.653-1.2,3.31-1.8,4.965-.373,1.031-.32,1.143.7,1.489l12.323,4.164C421.395,960.105,421.639,960.174,422.077,960.309Z" transform="translate(-21.146 -11.9)" fill="#fff"/>
      <path id="Trazado_621731" data-name="Trazado 621731" d="M354.494,922.2c1.791.577,2.48,1.983,3.022,3.562,1,2.9,2.062,5.774,3.1,8.656a1.832,1.832,0,0,0,.331.678c2.471,2.464,3.452,5.616,4.147,8.9.157.745.3,1.493.465,2.28.387-.048.734-.121,1.082-.13a3.155,3.155,0,0,1,3.03,2.074c.735,1.935,1.448,3.878,2.124,5.833a2.974,2.974,0,0,1-1.855,3.92q-6.731,2.34-13.5,4.561a3.085,3.085,0,0,1-3.972-1.949q-1.1-2.861-2.1-5.76a3.07,3.07,0,0,1,1.676-3.9c.134-.065.271-.124.462-.211-.192-.285-.353-.536-.525-.778-2.166-3.042-4.352-6.071-6.482-9.137a2.862,2.862,0,0,1-.5-1.613q.264-7.979.645-15.954a4.61,4.61,0,0,1,.465-1.748c1.326-2.736,2.7-5.452,4.063-8.168a3.635,3.635,0,0,1,3.875-2.14,3.716,3.716,0,0,1,3.263,3.283,5.424,5.424,0,0,1-.428,2.438C356.181,918.645,355.34,920.343,354.494,922.2Zm-.945,15c-1.284-3.571-2.627-7.05-3.768-10.592a3.38,3.38,0,0,1,1.489-3.893,1.84,1.84,0,0,0,.572-.677c.945-2.04,1.868-4.089,2.789-6.139.435-.967.237-1.73-.522-2.113s-1.46-.068-1.948.9q-1.947,3.869-3.881,7.744a2.24,2.24,0,0,0-.259.863q-.31,7.784-.578,15.569a1.466,1.466,0,0,0,.243.842c2.309,3.253,4.646,6.486,6.953,9.741a.682.682,0,0,0,.952.276c1.394-.5,2.8-.955,4.208-1.429l3.381-1.144c-.194-1.05-.341-2.034-.562-3-.594-2.609-1.364-5.137-3.283-7.153a4.822,4.822,0,0,1-.983-1.6c-1.207-3.229-2.36-6.479-3.541-9.718a1.428,1.428,0,0,0-1.888-1.065c-.758.285-.971.935-.623,1.92.239.674.484,1.346.728,2.018l2.841,7.817Zm1.77,23.12c.308-.072.461-.093.6-.142q6.486-2.2,12.973-4.405c.62-.21.768-.556.532-1.171q-.988-2.572-1.91-5.17a.952.952,0,0,0-1.361-.691q-6.485,2.206-12.969,4.418c-.478.163-.662.464-.49.94.677,1.872,1.349,3.745,2.059,5.6C354.858,959.966,355.16,960.151,355.32,960.321Z" transform="translate(0 -11.914)" fill="#fff"/>
      <path id="Trazado_621732" data-name="Trazado 621732" d="M392.287,886.911h9.232c1.478,0,1.823.338,1.823,1.785q0,3.146,0,6.294c0,1.394-.363,1.748-1.784,1.748q-4.183,0-8.366,0h-.9v23.992c0,1.462-.344,1.8-1.805,1.806q-3.184,0-6.37,0c-1.257,0-1.651-.394-1.652-1.649q0-11.552,0-23.1v-1.044h-.826q-4.26,0-8.52,0c-1.321,0-1.708-.378-1.71-1.668q0-3.261,0-6.524c0-1.244.4-1.634,1.664-1.634,3.093,0,6.187,0,9.391,0v-.846c0-2.482,0-4.964,0-7.445,0-1.1.43-1.532,1.531-1.535q3.376-.009,6.754,0c1.1,0,1.535.43,1.538,1.53C392.291,881.349,392.287,884.082,392.287,886.911Zm8.564,2.457h-.894q-4.3,0-8.594,0c-1.1,0-1.529-.433-1.531-1.535-.006-2.481,0-4.962,0-7.444v-.81h-4.914v.858q0,3.684,0,7.367c0,1.145-.425,1.563-1.581,1.564q-4.3.007-8.595,0h-.826v4.914h9.251c1.4,0,1.752.359,1.752,1.778q0,11.548,0,23.1v.885h4.914v-.936q0-11.625,0-23.251c0-1.155.417-1.57,1.571-1.573,2.046,0,4.093,0,6.139,0h3.31Z" transform="translate(-9.24 0)" fill="#fff"/>
      <path id="Trazado_621733" data-name="Trazado 621733" d="M368.034,923.088l-1.5-1.483,9.748-9.749,1.472,1.515Z" transform="translate(-7.535 -12.17)" fill="#fff"/>
      <path id="Trazado_621734" data-name="Trazado 621734" d="M408.05,913.381l1.506-1.5,9.768,9.769-1.511,1.49Z" transform="translate(-22.066 -12.18)" fill="#fff"/>
      <path id="Trazado_621735" data-name="Trazado 621735" d="M356.354,897.929h7.268V900.3h-7.268Z" transform="translate(-3.974 -7.296)" fill="#fff"/>
      <path id="Trazado_621736" data-name="Trazado 621736" d="M424.394,897.894h7.261v2.391h-7.261Z" transform="translate(-27.786 -7.284)" fill="#fff"/>
      <path id="Trazado_621737" data-name="Trazado 621737" d="M409.546,885.026l-1.47-1.963,4.905-3.685,1.478,1.96Z" transform="translate(-22.075 -0.804)" fill="#fff"/>
      <path id="Trazado_621738" data-name="Trazado 621738" d="M380.443,883.038,378.969,885l-4.905-3.678,1.466-1.965Z" transform="translate(-10.172 -0.796)" fill="#fff"/>
    </g>
  </g>
</svg>
