<svg xmlns="http://www.w3.org/2000/svg" width="1030" height="411.546" viewBox="0 0 1030 411.546">
  <g id="Grupo_883147" data-name="Grupo 883147" transform="translate(-308.899 -357.26)">
    <path id="Trazado_623338" data-name="Trazado 623338" d="M5,0H211.238a5,5,0,0,1,5,5V70.153a5,5,0,0,1-5,5H5a5,5,0,0,1-5-5V5A5,5,0,0,1,5,0Z" transform="translate(1122.662 546.578)" fill="#b1dce0"/>
    <rect id="Rectángulo_294448" data-name="Rectángulo 294448" width="423.07" height="42.759" rx="5" transform="translate(664.531 357.26)" fill="#f1b62b"/>
    <g id="Grupo_883137" data-name="Grupo 883137" transform="translate(680.413 370.699)">
      <g id="Grupo_875877" data-name="Grupo 875877" transform="translate(0 0)">
        <text id="Planeación_y_promotoría_para_gestión_del_riesgo_en_comunidades_" data-name="Planeación y promotoría para gestión del riesgo en comunidades
" transform="translate(189 12)" fill="#0c1d30" font-size="13" font-family="Roboto-Regular, Roboto"><tspan x="-187.088" y="0">Planeación y promotoría para gestión del riesgo en comunidades</tspan><tspan font-family="Roboto-Regular"><tspan x="0" y="15"></tspan></tspan></text>
      </g>
    </g>
    <g id="Grupo_878491" data-name="Grupo 878491" transform="translate(1139.765 569.205)">
      <g id="Grupo_875877-2" data-name="Grupo 875877" transform="translate(0 0)">
        <text id="Instrumentos_de_capacitación_Y_sensibilización" data-name="Instrumentos de capacitación
Y sensibilización" transform="translate(87 12)" fill="#0c1d30" font-size="13" font-family="Roboto-Regular, Roboto"><tspan x="-85.817" y="0">Instrumentos de capacitación</tspan><tspan x="-48.233" y="15">Y sensibilización</tspan></text>
      </g>
    </g>
    <rect id="Rectángulo_293969" data-name="Rectángulo 293969" width="168.186" height="53.356" rx="5" transform="translate(308.899 630.143)" fill="#b1dce0"/>
    <rect id="Rectángulo_293970" data-name="Rectángulo 293970" width="168.186" height="53.356" rx="5" transform="translate(407.978 692.437)" fill="#b1dce0"/>
    <rect id="Rectángulo_294449" data-name="Rectángulo 294449" width="168.186" height="53.356" rx="5" transform="translate(580.895 671.668)" fill="#b1dce0"/>
    <rect id="Rectángulo_294450" data-name="Rectángulo 294450" width="168.186" height="53.356" rx="5" transform="translate(613.418 600.431)" fill="#b1dce0"/>
    <rect id="Rectángulo_294451" data-name="Rectángulo 294451" width="168.186" height="53.356" rx="5" transform="translate(856.742 627.742)" fill="#b1dce0"/>
    <rect id="Rectángulo_294452" data-name="Rectángulo 294452" width="168.186" height="53.356" rx="5" transform="translate(881.176 715.45)" fill="#b1dce0"/>
    <rect id="Rectángulo_293971" data-name="Rectángulo 293971" width="197.296" height="53.356" rx="5" transform="translate(768.374 526.013)" fill="#b1dce0"/>
    <path id="Trazado_624760" data-name="Trazado 624760" d="M-40.291-3.9V0H-41.6V-9.953h3.671a3.688,3.688,0,0,1,2.56.834,2.827,2.827,0,0,1,.926,2.208,2.79,2.79,0,0,1-.906,2.232,3.853,3.853,0,0,1-2.594.783Zm0-1.073h2.358a2.358,2.358,0,0,0,1.613-.5A1.815,1.815,0,0,0-35.759-6.9a1.875,1.875,0,0,0-.561-1.424,2.209,2.209,0,0,0-1.538-.555h-2.434ZM-28.479,0a2.657,2.657,0,0,1-.178-.779,2.822,2.822,0,0,1-2.105.916,2.611,2.611,0,0,1-1.794-.619,2,2,0,0,1-.7-1.569,2.091,2.091,0,0,1,.878-1.794,4.142,4.142,0,0,1,2.471-.639h1.23v-.581a1.42,1.42,0,0,0-.4-1.056,1.593,1.593,0,0,0-1.169-.393,1.844,1.844,0,0,0-1.135.342,1.007,1.007,0,0,0-.458.827h-1.271a1.745,1.745,0,0,1,.393-1.07,2.683,2.683,0,0,1,1.066-.817,3.588,3.588,0,0,1,1.48-.3,2.924,2.924,0,0,1,2,.639,2.306,2.306,0,0,1,.752,1.76v3.4a4.162,4.162,0,0,0,.26,1.62V0Zm-2.1-.964a2.223,2.223,0,0,0,1.128-.308,1.861,1.861,0,0,0,.772-.8V-3.589h-.991q-2.324,0-2.324,1.36a1.151,1.151,0,0,0,.4.93A1.524,1.524,0,0,0-30.577-.964Zm8.723-5.3a3.79,3.79,0,0,0-.622-.048,1.667,1.667,0,0,0-1.688,1.06V0H-25.43V-7.4h1.23l.021.854a1.969,1.969,0,0,1,1.764-.991,1.292,1.292,0,0,1,.561.1Zm3.22-2.926V-7.4h1.381v.978h-1.381v4.593a1.027,1.027,0,0,0,.185.667.777.777,0,0,0,.629.222,3.062,3.062,0,0,0,.6-.082V0a3.688,3.688,0,0,1-.971.136,1.575,1.575,0,0,1-1.278-.513A2.2,2.2,0,0,1-19.9-1.832V-6.419h-1.347V-7.4H-19.9V-9.187ZM-14.4,0h-1.265V-7.4H-14.4Zm-1.367-9.358a.755.755,0,0,1,.188-.52.706.706,0,0,1,.557-.212.717.717,0,0,1,.561.212.747.747,0,0,1,.191.52.722.722,0,0,1-.191.513.73.73,0,0,1-.561.205.718.718,0,0,1-.557-.205A.73.73,0,0,1-15.771-9.358ZM-9.413-.9a1.822,1.822,0,0,0,1.183-.41A1.443,1.443,0,0,0-7.67-2.331h1.2a2.293,2.293,0,0,1-.437,1.21,2.881,2.881,0,0,1-1.077.916A3.107,3.107,0,0,1-9.413.137a3.047,3.047,0,0,1-2.4-1.008,4.016,4.016,0,0,1-.892-2.758v-.212a4.453,4.453,0,0,1,.4-1.921,3.02,3.02,0,0,1,1.138-1.306A3.233,3.233,0,0,1-9.42-7.533a2.966,2.966,0,0,1,2.068.745,2.663,2.663,0,0,1,.878,1.935h-1.2a1.743,1.743,0,0,0-.543-1.179A1.691,1.691,0,0,0-9.42-6.494a1.77,1.77,0,0,0-1.494.694,3.259,3.259,0,0,0-.53,2.006v.239a3.194,3.194,0,0,0,.526,1.969A1.779,1.779,0,0,0-9.413-.9Zm5.735.9H-4.942V-7.4h1.265ZM-5.045-9.358a.755.755,0,0,1,.188-.52A.706.706,0,0,1-4.3-10.09a.717.717,0,0,1,.561.212.747.747,0,0,1,.191.52.722.722,0,0,1-.191.513.73.73,0,0,1-.561.205.718.718,0,0,1-.557-.205A.73.73,0,0,1-5.045-9.358ZM4.594-3.616A4.429,4.429,0,0,1,3.821-.9,2.476,2.476,0,0,1,1.729.137,2.713,2.713,0,0,1-.39-.718V2.844H-1.654V-7.4H-.5l.062.82a2.605,2.605,0,0,1,2.146-.957,2.522,2.522,0,0,1,2.109,1,4.477,4.477,0,0,1,.776,2.8ZM3.329-3.76A3.268,3.268,0,0,0,2.8-5.735,1.718,1.718,0,0,0,1.333-6.46,1.859,1.859,0,0,0-.39-5.441v3.534A1.863,1.863,0,0,0,1.347-.9a1.71,1.71,0,0,0,1.446-.721A3.567,3.567,0,0,0,3.329-3.76ZM10.767,0a2.657,2.657,0,0,1-.178-.779A2.822,2.822,0,0,1,8.483.137,2.611,2.611,0,0,1,6.689-.482a2,2,0,0,1-.7-1.569,2.091,2.091,0,0,1,.878-1.794,4.142,4.142,0,0,1,2.471-.639h1.23v-.581a1.42,1.42,0,0,0-.4-1.056A1.593,1.593,0,0,0,9-6.515a1.844,1.844,0,0,0-1.135.342,1.007,1.007,0,0,0-.458.827H6.139a1.745,1.745,0,0,1,.393-1.07A2.683,2.683,0,0,1,7.6-7.232a3.588,3.588,0,0,1,1.48-.3,2.924,2.924,0,0,1,2,.639,2.306,2.306,0,0,1,.752,1.76v3.4a4.162,4.162,0,0,0,.26,1.62V0Zm-2.1-.964A2.223,2.223,0,0,0,9.8-1.271a1.861,1.861,0,0,0,.772-.8V-3.589H9.577q-2.324,0-2.324,1.36a1.151,1.151,0,0,0,.4.93A1.524,1.524,0,0,0,8.668-.964ZM16.782-.9a1.822,1.822,0,0,0,1.183-.41,1.443,1.443,0,0,0,.561-1.025h1.2a2.293,2.293,0,0,1-.437,1.21,2.881,2.881,0,0,1-1.077.916,3.107,3.107,0,0,1-1.425.342,3.047,3.047,0,0,1-2.4-1.008,4.016,4.016,0,0,1-.892-2.758v-.212a4.453,4.453,0,0,1,.4-1.921,3.02,3.02,0,0,1,1.138-1.306,3.233,3.233,0,0,1,1.753-.465,2.966,2.966,0,0,1,2.068.745,2.663,2.663,0,0,1,.878,1.935h-1.2a1.743,1.743,0,0,0-.543-1.179,1.691,1.691,0,0,0-1.207-.461,1.77,1.77,0,0,0-1.494.694,3.259,3.259,0,0,0-.53,2.006v.239a3.194,3.194,0,0,0,.526,1.969A1.779,1.779,0,0,0,16.782-.9Zm5.735.9H21.253V-7.4h1.265ZM21.15-9.358a.755.755,0,0,1,.188-.52.706.706,0,0,1,.557-.212.717.717,0,0,1,.561.212.747.747,0,0,1,.191.52.722.722,0,0,1-.191.513.73.73,0,0,1-.561.205.718.718,0,0,1-.557-.205A.73.73,0,0,1,21.15-9.358Zm3.056,5.592a4.369,4.369,0,0,1,.427-1.955,3.187,3.187,0,0,1,1.189-1.34,3.238,3.238,0,0,1,1.74-.472,3.119,3.119,0,0,1,2.444,1.046,4.024,4.024,0,0,1,.933,2.782v.089a4.407,4.407,0,0,1-.414,1.938A3.14,3.14,0,0,1,29.343-.342a3.275,3.275,0,0,1-1.767.479A3.111,3.111,0,0,1,25.139-.909a4,4,0,0,1-.933-2.769Zm1.271.15a3.164,3.164,0,0,0,.571,1.976A1.827,1.827,0,0,0,27.576-.9a1.816,1.816,0,0,0,1.531-.755,3.46,3.46,0,0,0,.567-2.116A3.159,3.159,0,0,0,29.1-5.739a1.836,1.836,0,0,0-1.535-.755,1.816,1.816,0,0,0-1.511.745A3.434,3.434,0,0,0,25.478-3.616ZM28.137-10.5h1.531L27.836-8.49l-1.019,0Zm5.585,3.1.041.93a2.7,2.7,0,0,1,2.215-1.066q2.345,0,2.365,2.646V0H37.078V-4.895a1.7,1.7,0,0,0-.366-1.183,1.466,1.466,0,0,0-1.118-.383,1.825,1.825,0,0,0-1.08.328,2.228,2.228,0,0,0-.725.861V0H32.525V-7.4ZM-13.207,16.038a.931.931,0,0,0-.386-.8,3.718,3.718,0,0,0-1.347-.489,6.367,6.367,0,0,1-1.524-.492,2.169,2.169,0,0,1-.834-.684,1.635,1.635,0,0,1-.27-.943A1.919,1.919,0,0,1-16.8,11.1a3,3,0,0,1,1.965-.629,3.091,3.091,0,0,1,2.041.649,2.063,2.063,0,0,1,.783,1.661h-1.271a1.142,1.142,0,0,0-.441-.9,1.652,1.652,0,0,0-1.111-.376,1.729,1.729,0,0,0-1.08.3.947.947,0,0,0-.39.786.767.767,0,0,0,.362.69,4.458,4.458,0,0,0,1.309.444,6.821,6.821,0,0,1,1.535.506,2.239,2.239,0,0,1,.872.708,1.74,1.74,0,0,1,.284,1.008,1.893,1.893,0,0,1-.793,1.589,3.326,3.326,0,0,1-2.058.6,3.725,3.725,0,0,1-1.572-.314,2.557,2.557,0,0,1-1.07-.878,2.117,2.117,0,0,1-.386-1.22h1.265a1.309,1.309,0,0,0,.509,1.008,1.976,1.976,0,0,0,1.254.373,2.039,2.039,0,0,0,1.152-.291A.893.893,0,0,0-13.207,16.038Zm2.577-1.8a4.369,4.369,0,0,1,.427-1.955,3.187,3.187,0,0,1,1.189-1.34,3.238,3.238,0,0,1,1.74-.472A3.119,3.119,0,0,1-4.83,11.513,4.024,4.024,0,0,1-3.9,14.295v.089a4.407,4.407,0,0,1-.414,1.938,3.14,3.14,0,0,1-1.183,1.336,3.275,3.275,0,0,1-1.767.479A3.111,3.111,0,0,1-9.7,17.091a4,4,0,0,1-.933-2.769Zm1.271.15a3.164,3.164,0,0,0,.571,1.976A1.827,1.827,0,0,0-7.26,17.1a1.816,1.816,0,0,0,1.531-.755,3.46,3.46,0,0,0,.567-2.116,3.159,3.159,0,0,0-.578-1.972,1.836,1.836,0,0,0-1.535-.755,1.816,1.816,0,0,0-1.511.745A3.435,3.435,0,0,0-9.358,14.384ZM.656,17.1a1.822,1.822,0,0,0,1.183-.41A1.443,1.443,0,0,0,2.4,15.669H3.6a2.293,2.293,0,0,1-.437,1.21,2.881,2.881,0,0,1-1.077.916,3.107,3.107,0,0,1-1.425.342,3.047,3.047,0,0,1-2.4-1.008,4.016,4.016,0,0,1-.892-2.758v-.212a4.453,4.453,0,0,1,.4-1.921A3.02,3.02,0,0,1-1.1,10.932a3.233,3.233,0,0,1,1.753-.465,2.966,2.966,0,0,1,2.068.745A2.663,2.663,0,0,1,3.6,13.146H2.4a1.743,1.743,0,0,0-.543-1.179,1.691,1.691,0,0,0-1.207-.461A1.77,1.77,0,0,0-.844,12.2a3.259,3.259,0,0,0-.53,2.006v.239a3.194,3.194,0,0,0,.526,1.969A1.779,1.779,0,0,0,.656,17.1Zm5.735.9H5.127V10.6H6.392ZM5.024,8.642a.755.755,0,0,1,.188-.52A.706.706,0,0,1,5.77,7.91a.717.717,0,0,1,.561.212.747.747,0,0,1,.191.52.722.722,0,0,1-.191.513.73.73,0,0,1-.561.205.718.718,0,0,1-.557-.205A.73.73,0,0,1,5.024,8.642ZM12.981,18a2.657,2.657,0,0,1-.178-.779,2.822,2.822,0,0,1-2.105.916A2.611,2.611,0,0,1,8.9,17.518a2,2,0,0,1-.7-1.569,2.091,2.091,0,0,1,.878-1.794,4.142,4.142,0,0,1,2.471-.639h1.23v-.581a1.42,1.42,0,0,0-.4-1.056,1.593,1.593,0,0,0-1.169-.393,1.844,1.844,0,0,0-1.135.342,1.007,1.007,0,0,0-.458.827H8.354a1.745,1.745,0,0,1,.393-1.07,2.683,2.683,0,0,1,1.066-.817,3.588,3.588,0,0,1,1.48-.3,2.924,2.924,0,0,1,2,.639,2.306,2.306,0,0,1,.752,1.76v3.4a4.162,4.162,0,0,0,.26,1.62V18Zm-2.1-.964a2.223,2.223,0,0,0,1.128-.308,1.861,1.861,0,0,0,.772-.8V14.411h-.991q-2.324,0-2.324,1.36a1.151,1.151,0,0,0,.4.93A1.524,1.524,0,0,0,10.883,17.036ZM17.4,18H16.14V7.5H17.4Z" transform="translate(392.991 653.321)" fill="#0c1d30"/>
    <path id="Trazado_624761" data-name="Trazado 624761" d="M-40.291-3.9V0H-41.6V-9.953h3.671a3.688,3.688,0,0,1,2.56.834,2.827,2.827,0,0,1,.926,2.208,2.79,2.79,0,0,1-.906,2.232,3.853,3.853,0,0,1-2.594.783Zm0-1.073h2.358a2.358,2.358,0,0,0,1.613-.5A1.815,1.815,0,0,0-35.759-6.9a1.875,1.875,0,0,0-.561-1.424,2.209,2.209,0,0,0-1.538-.555h-2.434ZM-28.479,0a2.657,2.657,0,0,1-.178-.779,2.822,2.822,0,0,1-2.105.916,2.611,2.611,0,0,1-1.794-.619,2,2,0,0,1-.7-1.569,2.091,2.091,0,0,1,.878-1.794,4.142,4.142,0,0,1,2.471-.639h1.23v-.581a1.42,1.42,0,0,0-.4-1.056,1.593,1.593,0,0,0-1.169-.393,1.844,1.844,0,0,0-1.135.342,1.007,1.007,0,0,0-.458.827h-1.271a1.745,1.745,0,0,1,.393-1.07,2.683,2.683,0,0,1,1.066-.817,3.588,3.588,0,0,1,1.48-.3,2.924,2.924,0,0,1,2,.639,2.306,2.306,0,0,1,.752,1.76v3.4a4.162,4.162,0,0,0,.26,1.62V0Zm-2.1-.964a2.223,2.223,0,0,0,1.128-.308,1.861,1.861,0,0,0,.772-.8V-3.589h-.991q-2.324,0-2.324,1.36a1.151,1.151,0,0,0,.4.93A1.524,1.524,0,0,0-30.577-.964Zm8.723-5.3a3.79,3.79,0,0,0-.622-.048,1.667,1.667,0,0,0-1.688,1.06V0H-25.43V-7.4h1.23l.021.854a1.969,1.969,0,0,1,1.764-.991,1.292,1.292,0,0,1,.561.1Zm3.22-2.926V-7.4h1.381v.978h-1.381v4.593a1.027,1.027,0,0,0,.185.667.777.777,0,0,0,.629.222,3.062,3.062,0,0,0,.6-.082V0a3.688,3.688,0,0,1-.971.136,1.575,1.575,0,0,1-1.278-.513A2.2,2.2,0,0,1-19.9-1.832V-6.419h-1.347V-7.4H-19.9V-9.187ZM-14.4,0h-1.265V-7.4H-14.4Zm-1.367-9.358a.755.755,0,0,1,.188-.52.706.706,0,0,1,.557-.212.717.717,0,0,1,.561.212.747.747,0,0,1,.191.52.722.722,0,0,1-.191.513.73.73,0,0,1-.561.205.718.718,0,0,1-.557-.205A.73.73,0,0,1-15.771-9.358ZM-9.413-.9a1.822,1.822,0,0,0,1.183-.41A1.443,1.443,0,0,0-7.67-2.331h1.2a2.293,2.293,0,0,1-.437,1.21,2.881,2.881,0,0,1-1.077.916A3.107,3.107,0,0,1-9.413.137a3.047,3.047,0,0,1-2.4-1.008,4.016,4.016,0,0,1-.892-2.758v-.212a4.453,4.453,0,0,1,.4-1.921,3.02,3.02,0,0,1,1.138-1.306A3.233,3.233,0,0,1-9.42-7.533a2.966,2.966,0,0,1,2.068.745,2.663,2.663,0,0,1,.878,1.935h-1.2a1.743,1.743,0,0,0-.543-1.179A1.691,1.691,0,0,0-9.42-6.494a1.77,1.77,0,0,0-1.494.694,3.259,3.259,0,0,0-.53,2.006v.239a3.194,3.194,0,0,0,.526,1.969A1.779,1.779,0,0,0-9.413-.9Zm5.735.9H-4.942V-7.4h1.265ZM-5.045-9.358a.755.755,0,0,1,.188-.52A.706.706,0,0,1-4.3-10.09a.717.717,0,0,1,.561.212.747.747,0,0,1,.191.52.722.722,0,0,1-.191.513.73.73,0,0,1-.561.205.718.718,0,0,1-.557-.205A.73.73,0,0,1-5.045-9.358ZM4.594-3.616A4.429,4.429,0,0,1,3.821-.9,2.476,2.476,0,0,1,1.729.137,2.713,2.713,0,0,1-.39-.718V2.844H-1.654V-7.4H-.5l.062.82a2.605,2.605,0,0,1,2.146-.957,2.522,2.522,0,0,1,2.109,1,4.477,4.477,0,0,1,.776,2.8ZM3.329-3.76A3.268,3.268,0,0,0,2.8-5.735,1.718,1.718,0,0,0,1.333-6.46,1.859,1.859,0,0,0-.39-5.441v3.534A1.863,1.863,0,0,0,1.347-.9a1.71,1.71,0,0,0,1.446-.721A3.567,3.567,0,0,0,3.329-3.76ZM10.767,0a2.657,2.657,0,0,1-.178-.779A2.822,2.822,0,0,1,8.483.137,2.611,2.611,0,0,1,6.689-.482a2,2,0,0,1-.7-1.569,2.091,2.091,0,0,1,.878-1.794,4.142,4.142,0,0,1,2.471-.639h1.23v-.581a1.42,1.42,0,0,0-.4-1.056A1.593,1.593,0,0,0,9-6.515a1.844,1.844,0,0,0-1.135.342,1.007,1.007,0,0,0-.458.827H6.139a1.745,1.745,0,0,1,.393-1.07A2.683,2.683,0,0,1,7.6-7.232a3.588,3.588,0,0,1,1.48-.3,2.924,2.924,0,0,1,2,.639,2.306,2.306,0,0,1,.752,1.76v3.4a4.162,4.162,0,0,0,.26,1.62V0Zm-2.1-.964A2.223,2.223,0,0,0,9.8-1.271a1.861,1.861,0,0,0,.772-.8V-3.589H9.577q-2.324,0-2.324,1.36a1.151,1.151,0,0,0,.4.93A1.524,1.524,0,0,0,8.668-.964ZM16.782-.9a1.822,1.822,0,0,0,1.183-.41,1.443,1.443,0,0,0,.561-1.025h1.2a2.293,2.293,0,0,1-.437,1.21,2.881,2.881,0,0,1-1.077.916,3.107,3.107,0,0,1-1.425.342,3.047,3.047,0,0,1-2.4-1.008,4.016,4.016,0,0,1-.892-2.758v-.212a4.453,4.453,0,0,1,.4-1.921,3.02,3.02,0,0,1,1.138-1.306,3.233,3.233,0,0,1,1.753-.465,2.966,2.966,0,0,1,2.068.745,2.663,2.663,0,0,1,.878,1.935h-1.2a1.743,1.743,0,0,0-.543-1.179,1.691,1.691,0,0,0-1.207-.461,1.77,1.77,0,0,0-1.494.694,3.259,3.259,0,0,0-.53,2.006v.239a3.194,3.194,0,0,0,.526,1.969A1.779,1.779,0,0,0,16.782-.9Zm5.735.9H21.253V-7.4h1.265ZM21.15-9.358a.755.755,0,0,1,.188-.52.706.706,0,0,1,.557-.212.717.717,0,0,1,.561.212.747.747,0,0,1,.191.52.722.722,0,0,1-.191.513.73.73,0,0,1-.561.205.718.718,0,0,1-.557-.205A.73.73,0,0,1,21.15-9.358Zm3.056,5.592a4.369,4.369,0,0,1,.427-1.955,3.187,3.187,0,0,1,1.189-1.34,3.238,3.238,0,0,1,1.74-.472,3.119,3.119,0,0,1,2.444,1.046,4.024,4.024,0,0,1,.933,2.782v.089a4.407,4.407,0,0,1-.414,1.938A3.14,3.14,0,0,1,29.343-.342a3.275,3.275,0,0,1-1.767.479A3.111,3.111,0,0,1,25.139-.909a4,4,0,0,1-.933-2.769Zm1.271.15a3.164,3.164,0,0,0,.571,1.976A1.827,1.827,0,0,0,27.576-.9a1.816,1.816,0,0,0,1.531-.755,3.46,3.46,0,0,0,.567-2.116A3.159,3.159,0,0,0,29.1-5.739a1.836,1.836,0,0,0-1.535-.755,1.816,1.816,0,0,0-1.511.745A3.434,3.434,0,0,0,25.478-3.616ZM28.137-10.5h1.531L27.836-8.49l-1.019,0Zm5.585,3.1.041.93a2.7,2.7,0,0,1,2.215-1.066q2.345,0,2.365,2.646V0H37.078V-4.895a1.7,1.7,0,0,0-.366-1.183,1.466,1.466,0,0,0-1.118-.383,1.825,1.825,0,0,0-1.08.328,2.228,2.228,0,0,0-.725.861V0H32.525V-7.4ZM-15.6,14.384a4.429,4.429,0,0,1-.772,2.721,2.476,2.476,0,0,1-2.092,1.032,2.713,2.713,0,0,1-2.119-.854v3.562h-1.265V10.6h1.155l.062.82a2.605,2.605,0,0,1,2.146-.957,2.522,2.522,0,0,1,2.109,1,4.477,4.477,0,0,1,.776,2.8Zm-1.265-.144a3.268,3.268,0,0,0-.533-1.976,1.718,1.718,0,0,0-1.463-.725,1.859,1.859,0,0,0-1.723,1.019v3.534A1.863,1.863,0,0,0-18.847,17.1a1.71,1.71,0,0,0,1.446-.721A3.567,3.567,0,0,0-16.864,14.24Zm2.536-.007a4.369,4.369,0,0,1,.427-1.955,3.187,3.187,0,0,1,1.189-1.34,3.238,3.238,0,0,1,1.74-.472,3.119,3.119,0,0,1,2.444,1.046,4.024,4.024,0,0,1,.933,2.782v.089a4.407,4.407,0,0,1-.414,1.938,3.14,3.14,0,0,1-1.183,1.336,3.275,3.275,0,0,1-1.767.479A3.111,3.111,0,0,1-13.4,17.091a4,4,0,0,1-.933-2.769Zm1.271.15a3.164,3.164,0,0,0,.571,1.976,1.827,1.827,0,0,0,1.528.745,1.816,1.816,0,0,0,1.531-.755,3.46,3.46,0,0,0,.567-2.116,3.159,3.159,0,0,0-.578-1.972,1.836,1.836,0,0,0-1.535-.755,1.816,1.816,0,0,0-1.511.745A3.435,3.435,0,0,0-13.057,14.384ZM-4.635,18H-5.9V7.5h1.265Zm3.4,0H-2.509V10.6h1.271Zm.014-10.493H.308l-1.832,2.01-1.019,0ZM2.563,8.813V10.6H3.944v.978H2.563v4.593a1.027,1.027,0,0,0,.185.667.777.777,0,0,0,.629.222,3.062,3.062,0,0,0,.6-.082V18a3.688,3.688,0,0,1-.971.136,1.575,1.575,0,0,1-1.278-.513A2.2,2.2,0,0,1,1.3,16.168V11.581H-.048V10.6H1.3V8.813ZM6.795,18H5.53V10.6H6.795ZM5.428,8.642a.755.755,0,0,1,.188-.52.706.706,0,0,1,.557-.212.717.717,0,0,1,.561.212.747.747,0,0,1,.191.52.722.722,0,0,1-.191.513.73.73,0,0,1-.561.205.718.718,0,0,1-.557-.205A.73.73,0,0,1,5.428,8.642ZM11.785,17.1a1.822,1.822,0,0,0,1.183-.41,1.443,1.443,0,0,0,.561-1.025h1.2a2.293,2.293,0,0,1-.437,1.21,2.881,2.881,0,0,1-1.077.916,3.107,3.107,0,0,1-1.425.342,3.047,3.047,0,0,1-2.4-1.008A4.016,4.016,0,0,1,8.49,14.37v-.212a4.453,4.453,0,0,1,.4-1.921,3.02,3.02,0,0,1,1.138-1.306,3.233,3.233,0,0,1,1.753-.465,2.966,2.966,0,0,1,2.068.745,2.663,2.663,0,0,1,.878,1.935h-1.2a1.743,1.743,0,0,0-.543-1.179,1.691,1.691,0,0,0-1.207-.461,1.77,1.77,0,0,0-1.494.694,3.259,3.259,0,0,0-.53,2.006v.239a3.194,3.194,0,0,0,.526,1.969A1.779,1.779,0,0,0,11.785,17.1Zm8.928.9a2.657,2.657,0,0,1-.178-.779,2.822,2.822,0,0,1-2.105.916,2.611,2.611,0,0,1-1.794-.619,2,2,0,0,1-.7-1.569,2.091,2.091,0,0,1,.878-1.794,4.142,4.142,0,0,1,2.471-.639h1.23v-.581a1.42,1.42,0,0,0-.4-1.056,1.593,1.593,0,0,0-1.169-.393,1.844,1.844,0,0,0-1.135.342,1.007,1.007,0,0,0-.458.827H16.085a1.745,1.745,0,0,1,.393-1.07,2.683,2.683,0,0,1,1.066-.817,3.588,3.588,0,0,1,1.48-.3,2.924,2.924,0,0,1,2,.639,2.306,2.306,0,0,1,.752,1.76v3.4a4.162,4.162,0,0,0,.26,1.62V18Zm-2.1-.964a2.223,2.223,0,0,0,1.128-.308,1.861,1.861,0,0,0,.772-.8V14.411h-.991q-2.324,0-2.324,1.36a1.151,1.151,0,0,0,.4.93A1.524,1.524,0,0,0,18.614,17.036Z" transform="translate(496.238 713.903)" fill="#0c1d30"/>
    <path id="Trazado_624762" data-name="Trazado 624762" d="M-40.291-3.9V0H-41.6V-9.953h3.671a3.688,3.688,0,0,1,2.56.834,2.827,2.827,0,0,1,.926,2.208,2.79,2.79,0,0,1-.906,2.232,3.853,3.853,0,0,1-2.594.783Zm0-1.073h2.358a2.358,2.358,0,0,0,1.613-.5A1.815,1.815,0,0,0-35.759-6.9a1.875,1.875,0,0,0-.561-1.424,2.209,2.209,0,0,0-1.538-.555h-2.434ZM-28.479,0a2.657,2.657,0,0,1-.178-.779,2.822,2.822,0,0,1-2.105.916,2.611,2.611,0,0,1-1.794-.619,2,2,0,0,1-.7-1.569,2.091,2.091,0,0,1,.878-1.794,4.142,4.142,0,0,1,2.471-.639h1.23v-.581a1.42,1.42,0,0,0-.4-1.056,1.593,1.593,0,0,0-1.169-.393,1.844,1.844,0,0,0-1.135.342,1.007,1.007,0,0,0-.458.827h-1.271a1.745,1.745,0,0,1,.393-1.07,2.683,2.683,0,0,1,1.066-.817,3.588,3.588,0,0,1,1.48-.3,2.924,2.924,0,0,1,2,.639,2.306,2.306,0,0,1,.752,1.76v3.4a4.162,4.162,0,0,0,.26,1.62V0Zm-2.1-.964a2.223,2.223,0,0,0,1.128-.308,1.861,1.861,0,0,0,.772-.8V-3.589h-.991q-2.324,0-2.324,1.36a1.151,1.151,0,0,0,.4.93A1.524,1.524,0,0,0-30.577-.964Zm8.723-5.3a3.79,3.79,0,0,0-.622-.048,1.667,1.667,0,0,0-1.688,1.06V0H-25.43V-7.4h1.23l.021.854a1.969,1.969,0,0,1,1.764-.991,1.292,1.292,0,0,1,.561.1Zm3.22-2.926V-7.4h1.381v.978h-1.381v4.593a1.027,1.027,0,0,0,.185.667.777.777,0,0,0,.629.222,3.062,3.062,0,0,0,.6-.082V0a3.688,3.688,0,0,1-.971.136,1.575,1.575,0,0,1-1.278-.513A2.2,2.2,0,0,1-19.9-1.832V-6.419h-1.347V-7.4H-19.9V-9.187ZM-14.4,0h-1.265V-7.4H-14.4Zm-1.367-9.358a.755.755,0,0,1,.188-.52.706.706,0,0,1,.557-.212.717.717,0,0,1,.561.212.747.747,0,0,1,.191.52.722.722,0,0,1-.191.513.73.73,0,0,1-.561.205.718.718,0,0,1-.557-.205A.73.73,0,0,1-15.771-9.358ZM-9.413-.9a1.822,1.822,0,0,0,1.183-.41A1.443,1.443,0,0,0-7.67-2.331h1.2a2.293,2.293,0,0,1-.437,1.21,2.881,2.881,0,0,1-1.077.916A3.107,3.107,0,0,1-9.413.137a3.047,3.047,0,0,1-2.4-1.008,4.016,4.016,0,0,1-.892-2.758v-.212a4.453,4.453,0,0,1,.4-1.921,3.02,3.02,0,0,1,1.138-1.306A3.233,3.233,0,0,1-9.42-7.533a2.966,2.966,0,0,1,2.068.745,2.663,2.663,0,0,1,.878,1.935h-1.2a1.743,1.743,0,0,0-.543-1.179A1.691,1.691,0,0,0-9.42-6.494a1.77,1.77,0,0,0-1.494.694,3.259,3.259,0,0,0-.53,2.006v.239a3.194,3.194,0,0,0,.526,1.969A1.779,1.779,0,0,0-9.413-.9Zm5.735.9H-4.942V-7.4h1.265ZM-5.045-9.358a.755.755,0,0,1,.188-.52A.706.706,0,0,1-4.3-10.09a.717.717,0,0,1,.561.212.747.747,0,0,1,.191.52.722.722,0,0,1-.191.513.73.73,0,0,1-.561.205.718.718,0,0,1-.557-.205A.73.73,0,0,1-5.045-9.358ZM4.594-3.616A4.429,4.429,0,0,1,3.821-.9,2.476,2.476,0,0,1,1.729.137,2.713,2.713,0,0,1-.39-.718V2.844H-1.654V-7.4H-.5l.062.82a2.605,2.605,0,0,1,2.146-.957,2.522,2.522,0,0,1,2.109,1,4.477,4.477,0,0,1,.776,2.8ZM3.329-3.76A3.268,3.268,0,0,0,2.8-5.735,1.718,1.718,0,0,0,1.333-6.46,1.859,1.859,0,0,0-.39-5.441v3.534A1.863,1.863,0,0,0,1.347-.9a1.71,1.71,0,0,0,1.446-.721A3.567,3.567,0,0,0,3.329-3.76ZM10.767,0a2.657,2.657,0,0,1-.178-.779A2.822,2.822,0,0,1,8.483.137,2.611,2.611,0,0,1,6.689-.482a2,2,0,0,1-.7-1.569,2.091,2.091,0,0,1,.878-1.794,4.142,4.142,0,0,1,2.471-.639h1.23v-.581a1.42,1.42,0,0,0-.4-1.056A1.593,1.593,0,0,0,9-6.515a1.844,1.844,0,0,0-1.135.342,1.007,1.007,0,0,0-.458.827H6.139a1.745,1.745,0,0,1,.393-1.07A2.683,2.683,0,0,1,7.6-7.232a3.588,3.588,0,0,1,1.48-.3,2.924,2.924,0,0,1,2,.639,2.306,2.306,0,0,1,.752,1.76v3.4a4.162,4.162,0,0,0,.26,1.62V0Zm-2.1-.964A2.223,2.223,0,0,0,9.8-1.271a1.861,1.861,0,0,0,.772-.8V-3.589H9.577q-2.324,0-2.324,1.36a1.151,1.151,0,0,0,.4.93A1.524,1.524,0,0,0,8.668-.964ZM16.782-.9a1.822,1.822,0,0,0,1.183-.41,1.443,1.443,0,0,0,.561-1.025h1.2a2.293,2.293,0,0,1-.437,1.21,2.881,2.881,0,0,1-1.077.916,3.107,3.107,0,0,1-1.425.342,3.047,3.047,0,0,1-2.4-1.008,4.016,4.016,0,0,1-.892-2.758v-.212a4.453,4.453,0,0,1,.4-1.921,3.02,3.02,0,0,1,1.138-1.306,3.233,3.233,0,0,1,1.753-.465,2.966,2.966,0,0,1,2.068.745,2.663,2.663,0,0,1,.878,1.935h-1.2a1.743,1.743,0,0,0-.543-1.179,1.691,1.691,0,0,0-1.207-.461,1.77,1.77,0,0,0-1.494.694,3.259,3.259,0,0,0-.53,2.006v.239a3.194,3.194,0,0,0,.526,1.969A1.779,1.779,0,0,0,16.782-.9Zm5.735.9H21.253V-7.4h1.265ZM21.15-9.358a.755.755,0,0,1,.188-.52.706.706,0,0,1,.557-.212.717.717,0,0,1,.561.212.747.747,0,0,1,.191.52.722.722,0,0,1-.191.513.73.73,0,0,1-.561.205.718.718,0,0,1-.557-.205A.73.73,0,0,1,21.15-9.358Zm3.056,5.592a4.369,4.369,0,0,1,.427-1.955,3.187,3.187,0,0,1,1.189-1.34,3.238,3.238,0,0,1,1.74-.472,3.119,3.119,0,0,1,2.444,1.046,4.024,4.024,0,0,1,.933,2.782v.089a4.407,4.407,0,0,1-.414,1.938A3.14,3.14,0,0,1,29.343-.342a3.275,3.275,0,0,1-1.767.479A3.111,3.111,0,0,1,25.139-.909a4,4,0,0,1-.933-2.769Zm1.271.15a3.164,3.164,0,0,0,.571,1.976A1.827,1.827,0,0,0,27.576-.9a1.816,1.816,0,0,0,1.531-.755,3.46,3.46,0,0,0,.567-2.116A3.159,3.159,0,0,0,29.1-5.739a1.836,1.836,0,0,0-1.535-.755,1.816,1.816,0,0,0-1.511.745A3.434,3.434,0,0,0,25.478-3.616ZM28.137-10.5h1.531L27.836-8.49l-1.019,0Zm5.585,3.1.041.93a2.7,2.7,0,0,1,2.215-1.066q2.345,0,2.365,2.646V0H37.078V-4.895a1.7,1.7,0,0,0-.366-1.183,1.466,1.466,0,0,0-1.118-.383,1.825,1.825,0,0,0-1.08.328,2.228,2.228,0,0,0-.725.861V0H32.525V-7.4ZM-33.257,17.1a1.822,1.822,0,0,0,1.183-.41,1.443,1.443,0,0,0,.561-1.025h1.2a2.293,2.293,0,0,1-.437,1.21,2.881,2.881,0,0,1-1.077.916,3.107,3.107,0,0,1-1.425.342,3.047,3.047,0,0,1-2.4-1.008,4.016,4.016,0,0,1-.892-2.758v-.212a4.453,4.453,0,0,1,.4-1.921,3.02,3.02,0,0,1,1.138-1.306,3.233,3.233,0,0,1,1.753-.465,2.966,2.966,0,0,1,2.068.745,2.663,2.663,0,0,1,.878,1.935h-1.2a1.743,1.743,0,0,0-.543-1.179,1.691,1.691,0,0,0-1.207-.461,1.77,1.77,0,0,0-1.494.694,3.259,3.259,0,0,0-.53,2.006v.239a3.194,3.194,0,0,0,.526,1.969A1.779,1.779,0,0,0-33.257,17.1Zm4.026-2.871a4.369,4.369,0,0,1,.427-1.955,3.187,3.187,0,0,1,1.189-1.34,3.238,3.238,0,0,1,1.74-.472,3.119,3.119,0,0,1,2.444,1.046,4.024,4.024,0,0,1,.933,2.782v.089a4.407,4.407,0,0,1-.414,1.938,3.14,3.14,0,0,1-1.183,1.336,3.275,3.275,0,0,1-1.767.479A3.111,3.111,0,0,1-28.3,17.091a4,4,0,0,1-.933-2.769Zm1.271.15a3.164,3.164,0,0,0,.571,1.976,1.827,1.827,0,0,0,1.528.745,1.816,1.816,0,0,0,1.531-.755,3.46,3.46,0,0,0,.567-2.116,3.159,3.159,0,0,0-.578-1.972,1.836,1.836,0,0,0-1.535-.755,1.816,1.816,0,0,0-1.511.745A3.435,3.435,0,0,0-27.959,14.384Zm8.237-3.78.034.82a2.732,2.732,0,0,1,2.194-.957,2.115,2.115,0,0,1,2.112,1.189,2.8,2.8,0,0,1,.96-.861,2.837,2.837,0,0,1,1.4-.328q2.434,0,2.475,2.577V18h-1.265V13.119a1.7,1.7,0,0,0-.362-1.186,1.6,1.6,0,0,0-1.217-.393,1.677,1.677,0,0,0-1.169.42,1.706,1.706,0,0,0-.54,1.131V18h-1.271V13.153a1.411,1.411,0,0,0-1.579-1.613,1.692,1.692,0,0,0-1.7,1.06V18h-1.265V10.6Zm15.647,6.665a2.686,2.686,0,0,1-2.167.868,2.3,2.3,0,0,1-1.8-.687,2.974,2.974,0,0,1-.625-2.034V10.6H-7.4v4.778q0,1.682,1.367,1.682a1.893,1.893,0,0,0,1.928-1.08V10.6h1.265V18h-1.2ZM.273,10.6l.041.93a2.7,2.7,0,0,1,2.215-1.066q2.345,0,2.365,2.646V18H3.63V13.105a1.7,1.7,0,0,0-.366-1.183,1.466,1.466,0,0,0-1.118-.383,1.825,1.825,0,0,0-1.08.328,2.228,2.228,0,0,0-.725.861V18H-.923V10.6Zm7.9,7.4H6.911V10.6H8.176ZM6.809,8.642A.755.755,0,0,1,7,8.122a.706.706,0,0,1,.557-.212.717.717,0,0,1,.561.212.747.747,0,0,1,.191.52.722.722,0,0,1-.191.513.73.73,0,0,1-.561.205A.718.718,0,0,1,7,9.154.73.73,0,0,1,6.809,8.642Zm5.106.171V10.6H13.3v.978H11.915v4.593a1.027,1.027,0,0,0,.185.667.777.777,0,0,0,.629.222,3.062,3.062,0,0,0,.6-.082V18a3.688,3.688,0,0,1-.971.136,1.575,1.575,0,0,1-1.278-.513,2.2,2.2,0,0,1-.431-1.456V11.581H9.3V10.6H10.65V8.813ZM19.339,18a2.657,2.657,0,0,1-.178-.779,2.822,2.822,0,0,1-2.105.916,2.611,2.611,0,0,1-1.794-.619,2,2,0,0,1-.7-1.569,2.091,2.091,0,0,1,.878-1.794,4.142,4.142,0,0,1,2.471-.639h1.23v-.581a1.42,1.42,0,0,0-.4-1.056,1.593,1.593,0,0,0-1.169-.393,1.844,1.844,0,0,0-1.135.342,1.007,1.007,0,0,0-.458.827H14.711a1.745,1.745,0,0,1,.393-1.07,2.683,2.683,0,0,1,1.066-.817,3.588,3.588,0,0,1,1.48-.3,2.924,2.924,0,0,1,2,.639,2.306,2.306,0,0,1,.752,1.76v3.4a4.162,4.162,0,0,0,.26,1.62V18Zm-2.1-.964a2.223,2.223,0,0,0,1.128-.308,1.861,1.861,0,0,0,.772-.8V14.411h-.991q-2.324,0-2.324,1.36a1.151,1.151,0,0,0,.4.93A1.524,1.524,0,0,0,17.24,17.036Zm8.723-5.3a3.79,3.79,0,0,0-.622-.048,1.667,1.667,0,0,0-1.688,1.06V18H22.388V10.6h1.23l.021.854a1.969,1.969,0,0,1,1.764-.991,1.292,1.292,0,0,1,.561.1ZM28.5,18H27.234V10.6H28.5ZM27.132,8.642a.755.755,0,0,1,.188-.52.706.706,0,0,1,.557-.212.717.717,0,0,1,.561.212.747.747,0,0,1,.191.52.722.722,0,0,1-.191.513.73.73,0,0,1-.561.205.718.718,0,0,1-.557-.205A.73.73,0,0,1,27.132,8.642ZM35.089,18a2.657,2.657,0,0,1-.178-.779,2.822,2.822,0,0,1-2.105.916,2.611,2.611,0,0,1-1.794-.619,2,2,0,0,1-.7-1.569,2.091,2.091,0,0,1,.878-1.794,4.142,4.142,0,0,1,2.471-.639h1.23v-.581a1.42,1.42,0,0,0-.4-1.056,1.593,1.593,0,0,0-1.169-.393,1.844,1.844,0,0,0-1.135.342,1.007,1.007,0,0,0-.458.827H30.461a1.745,1.745,0,0,1,.393-1.07,2.683,2.683,0,0,1,1.066-.817,3.588,3.588,0,0,1,1.48-.3,2.924,2.924,0,0,1,2,.639,2.306,2.306,0,0,1,.752,1.76v3.4a4.162,4.162,0,0,0,.26,1.62V18Zm-2.1-.964a2.223,2.223,0,0,0,1.128-.308,1.861,1.861,0,0,0,.772-.8V14.411H33.9q-2.324,0-2.324,1.36a1.151,1.151,0,0,0,.4.93A1.524,1.524,0,0,0,32.99,17.036Z" transform="translate(664.531 695.801)" fill="#0c1d30"/>
    <path id="Trazado_624763" data-name="Trazado 624763" d="M-40.291-3.9V0H-41.6V-9.953h3.671a3.688,3.688,0,0,1,2.56.834,2.827,2.827,0,0,1,.926,2.208,2.79,2.79,0,0,1-.906,2.232,3.853,3.853,0,0,1-2.594.783Zm0-1.073h2.358a2.358,2.358,0,0,0,1.613-.5A1.815,1.815,0,0,0-35.759-6.9a1.875,1.875,0,0,0-.561-1.424,2.209,2.209,0,0,0-1.538-.555h-2.434ZM-28.479,0a2.657,2.657,0,0,1-.178-.779,2.822,2.822,0,0,1-2.105.916,2.611,2.611,0,0,1-1.794-.619,2,2,0,0,1-.7-1.569,2.091,2.091,0,0,1,.878-1.794,4.142,4.142,0,0,1,2.471-.639h1.23v-.581a1.42,1.42,0,0,0-.4-1.056,1.593,1.593,0,0,0-1.169-.393,1.844,1.844,0,0,0-1.135.342,1.007,1.007,0,0,0-.458.827h-1.271a1.745,1.745,0,0,1,.393-1.07,2.683,2.683,0,0,1,1.066-.817,3.588,3.588,0,0,1,1.48-.3,2.924,2.924,0,0,1,2,.639,2.306,2.306,0,0,1,.752,1.76v3.4a4.162,4.162,0,0,0,.26,1.62V0Zm-2.1-.964a2.223,2.223,0,0,0,1.128-.308,1.861,1.861,0,0,0,.772-.8V-3.589h-.991q-2.324,0-2.324,1.36a1.151,1.151,0,0,0,.4.93A1.524,1.524,0,0,0-30.577-.964Zm8.723-5.3a3.79,3.79,0,0,0-.622-.048,1.667,1.667,0,0,0-1.688,1.06V0H-25.43V-7.4h1.23l.021.854a1.969,1.969,0,0,1,1.764-.991,1.292,1.292,0,0,1,.561.1Zm3.22-2.926V-7.4h1.381v.978h-1.381v4.593a1.027,1.027,0,0,0,.185.667.777.777,0,0,0,.629.222,3.062,3.062,0,0,0,.6-.082V0a3.688,3.688,0,0,1-.971.136,1.575,1.575,0,0,1-1.278-.513A2.2,2.2,0,0,1-19.9-1.832V-6.419h-1.347V-7.4H-19.9V-9.187ZM-14.4,0h-1.265V-7.4H-14.4Zm-1.367-9.358a.755.755,0,0,1,.188-.52.706.706,0,0,1,.557-.212.717.717,0,0,1,.561.212.747.747,0,0,1,.191.52.722.722,0,0,1-.191.513.73.73,0,0,1-.561.205.718.718,0,0,1-.557-.205A.73.73,0,0,1-15.771-9.358ZM-9.413-.9a1.822,1.822,0,0,0,1.183-.41A1.443,1.443,0,0,0-7.67-2.331h1.2a2.293,2.293,0,0,1-.437,1.21,2.881,2.881,0,0,1-1.077.916A3.107,3.107,0,0,1-9.413.137a3.047,3.047,0,0,1-2.4-1.008,4.016,4.016,0,0,1-.892-2.758v-.212a4.453,4.453,0,0,1,.4-1.921,3.02,3.02,0,0,1,1.138-1.306A3.233,3.233,0,0,1-9.42-7.533a2.966,2.966,0,0,1,2.068.745,2.663,2.663,0,0,1,.878,1.935h-1.2a1.743,1.743,0,0,0-.543-1.179A1.691,1.691,0,0,0-9.42-6.494a1.77,1.77,0,0,0-1.494.694,3.259,3.259,0,0,0-.53,2.006v.239a3.194,3.194,0,0,0,.526,1.969A1.779,1.779,0,0,0-9.413-.9Zm5.735.9H-4.942V-7.4h1.265ZM-5.045-9.358a.755.755,0,0,1,.188-.52A.706.706,0,0,1-4.3-10.09a.717.717,0,0,1,.561.212.747.747,0,0,1,.191.52.722.722,0,0,1-.191.513.73.73,0,0,1-.561.205.718.718,0,0,1-.557-.205A.73.73,0,0,1-5.045-9.358ZM4.594-3.616A4.429,4.429,0,0,1,3.821-.9,2.476,2.476,0,0,1,1.729.137,2.713,2.713,0,0,1-.39-.718V2.844H-1.654V-7.4H-.5l.062.82a2.605,2.605,0,0,1,2.146-.957,2.522,2.522,0,0,1,2.109,1,4.477,4.477,0,0,1,.776,2.8ZM3.329-3.76A3.268,3.268,0,0,0,2.8-5.735,1.718,1.718,0,0,0,1.333-6.46,1.859,1.859,0,0,0-.39-5.441v3.534A1.863,1.863,0,0,0,1.347-.9a1.71,1.71,0,0,0,1.446-.721A3.567,3.567,0,0,0,3.329-3.76ZM10.767,0a2.657,2.657,0,0,1-.178-.779A2.822,2.822,0,0,1,8.483.137,2.611,2.611,0,0,1,6.689-.482a2,2,0,0,1-.7-1.569,2.091,2.091,0,0,1,.878-1.794,4.142,4.142,0,0,1,2.471-.639h1.23v-.581a1.42,1.42,0,0,0-.4-1.056A1.593,1.593,0,0,0,9-6.515a1.844,1.844,0,0,0-1.135.342,1.007,1.007,0,0,0-.458.827H6.139a1.745,1.745,0,0,1,.393-1.07A2.683,2.683,0,0,1,7.6-7.232a3.588,3.588,0,0,1,1.48-.3,2.924,2.924,0,0,1,2,.639,2.306,2.306,0,0,1,.752,1.76v3.4a4.162,4.162,0,0,0,.26,1.62V0Zm-2.1-.964A2.223,2.223,0,0,0,9.8-1.271a1.861,1.861,0,0,0,.772-.8V-3.589H9.577q-2.324,0-2.324,1.36a1.151,1.151,0,0,0,.4.93A1.524,1.524,0,0,0,8.668-.964ZM16.782-.9a1.822,1.822,0,0,0,1.183-.41,1.443,1.443,0,0,0,.561-1.025h1.2a2.293,2.293,0,0,1-.437,1.21,2.881,2.881,0,0,1-1.077.916,3.107,3.107,0,0,1-1.425.342,3.047,3.047,0,0,1-2.4-1.008,4.016,4.016,0,0,1-.892-2.758v-.212a4.453,4.453,0,0,1,.4-1.921,3.02,3.02,0,0,1,1.138-1.306,3.233,3.233,0,0,1,1.753-.465,2.966,2.966,0,0,1,2.068.745,2.663,2.663,0,0,1,.878,1.935h-1.2a1.743,1.743,0,0,0-.543-1.179,1.691,1.691,0,0,0-1.207-.461,1.77,1.77,0,0,0-1.494.694,3.259,3.259,0,0,0-.53,2.006v.239a3.194,3.194,0,0,0,.526,1.969A1.779,1.779,0,0,0,16.782-.9Zm5.735.9H21.253V-7.4h1.265ZM21.15-9.358a.755.755,0,0,1,.188-.52.706.706,0,0,1,.557-.212.717.717,0,0,1,.561.212.747.747,0,0,1,.191.52.722.722,0,0,1-.191.513.73.73,0,0,1-.561.205.718.718,0,0,1-.557-.205A.73.73,0,0,1,21.15-9.358Zm3.056,5.592a4.369,4.369,0,0,1,.427-1.955,3.187,3.187,0,0,1,1.189-1.34,3.238,3.238,0,0,1,1.74-.472,3.119,3.119,0,0,1,2.444,1.046,4.024,4.024,0,0,1,.933,2.782v.089a4.407,4.407,0,0,1-.414,1.938A3.14,3.14,0,0,1,29.343-.342a3.275,3.275,0,0,1-1.767.479A3.111,3.111,0,0,1,25.139-.909a4,4,0,0,1-.933-2.769Zm1.271.15a3.164,3.164,0,0,0,.571,1.976A1.827,1.827,0,0,0,27.576-.9a1.816,1.816,0,0,0,1.531-.755,3.46,3.46,0,0,0,.567-2.116A3.159,3.159,0,0,0,29.1-5.739a1.836,1.836,0,0,0-1.535-.755,1.816,1.816,0,0,0-1.511.745A3.434,3.434,0,0,0,25.478-3.616ZM28.137-10.5h1.531L27.836-8.49l-1.019,0Zm5.585,3.1.041.93a2.7,2.7,0,0,1,2.215-1.066q2.345,0,2.365,2.646V0H37.078V-4.895a1.7,1.7,0,0,0-.366-1.183,1.466,1.466,0,0,0-1.118-.383,1.825,1.825,0,0,0-1.08.328,2.228,2.228,0,0,0-.725.861V0H32.525V-7.4Zm-62.2,24.5a1.822,1.822,0,0,0,1.183-.41,1.443,1.443,0,0,0,.561-1.025h1.2a2.293,2.293,0,0,1-.437,1.21,2.881,2.881,0,0,1-1.077.916,3.107,3.107,0,0,1-1.425.342,3.047,3.047,0,0,1-2.4-1.008,4.016,4.016,0,0,1-.892-2.758v-.212a4.453,4.453,0,0,1,.4-1.921,3.02,3.02,0,0,1,1.138-1.306,3.233,3.233,0,0,1,1.753-.465,2.966,2.966,0,0,1,2.068.745,2.663,2.663,0,0,1,.878,1.935h-1.2a1.743,1.743,0,0,0-.543-1.179,1.691,1.691,0,0,0-1.207-.461,1.77,1.77,0,0,0-1.494.694,3.259,3.259,0,0,0-.53,2.006v.239a3.194,3.194,0,0,0,.526,1.969A1.779,1.779,0,0,0-28.479,17.1Zm5.735.9h-1.265V10.6h1.265ZM-24.11,8.642a.755.755,0,0,1,.188-.52.706.706,0,0,1,.557-.212.717.717,0,0,1,.561.212.747.747,0,0,1,.191.52.722.722,0,0,1-.191.513.73.73,0,0,1-.561.205.718.718,0,0,1-.557-.205A.73.73,0,0,1-24.11,8.642Zm7.957,8.627a2.686,2.686,0,0,1-2.167.868,2.3,2.3,0,0,1-1.8-.687,2.974,2.974,0,0,1-.625-2.034V10.6h1.265v4.778q0,1.682,1.367,1.682a1.893,1.893,0,0,0,1.928-1.08V10.6h1.265V18h-1.2Zm2.844-3.028A4.333,4.333,0,0,1-12.5,11.5a2.551,2.551,0,0,1,2.112-1.036,2.565,2.565,0,0,1,2.058.889V7.5h1.265V18H-8.23l-.062-.793a2.575,2.575,0,0,1-2.112.93,2.526,2.526,0,0,1-2.1-1.053,4.382,4.382,0,0,1-.81-2.748Zm1.265.144a3.281,3.281,0,0,0,.52,1.969,1.68,1.68,0,0,0,1.436.711,1.845,1.845,0,0,0,1.757-1.08v-3.4a1.859,1.859,0,0,0-1.743-1.046,1.687,1.687,0,0,0-1.449.718A3.612,3.612,0,0,0-12.045,14.384ZM-.54,18a2.657,2.657,0,0,1-.178-.779,2.822,2.822,0,0,1-2.105.916,2.611,2.611,0,0,1-1.794-.619,2,2,0,0,1-.7-1.569,2.091,2.091,0,0,1,.878-1.794,4.142,4.142,0,0,1,2.471-.639h1.23v-.581a1.42,1.42,0,0,0-.4-1.056A1.593,1.593,0,0,0-2.3,11.485a1.844,1.844,0,0,0-1.135.342,1.007,1.007,0,0,0-.458.827H-5.168a1.745,1.745,0,0,1,.393-1.07,2.683,2.683,0,0,1,1.066-.817,3.588,3.588,0,0,1,1.48-.3,2.924,2.924,0,0,1,2,.639,2.306,2.306,0,0,1,.752,1.76v3.4a4.162,4.162,0,0,0,.26,1.62V18Zm-2.1-.964a2.223,2.223,0,0,0,1.128-.308,1.861,1.861,0,0,0,.772-.8V14.411h-.991q-2.324,0-2.324,1.36a1.151,1.151,0,0,0,.4.93A1.524,1.524,0,0,0-2.639,17.036Zm4.84-2.8A4.333,4.333,0,0,1,3.008,11.5,2.551,2.551,0,0,1,5.12,10.467a2.565,2.565,0,0,1,2.058.889V7.5H8.442V18H7.28l-.062-.793a2.575,2.575,0,0,1-2.112.93,2.526,2.526,0,0,1-2.1-1.053,4.382,4.382,0,0,1-.81-2.748Zm1.265.144a3.281,3.281,0,0,0,.52,1.969,1.68,1.68,0,0,0,1.436.711,1.845,1.845,0,0,0,1.757-1.08v-3.4A1.859,1.859,0,0,0,5.435,11.54a1.687,1.687,0,0,0-1.449.718A3.612,3.612,0,0,0,3.466,14.384ZM14.971,18a2.657,2.657,0,0,1-.178-.779,2.822,2.822,0,0,1-2.105.916,2.611,2.611,0,0,1-1.794-.619,2,2,0,0,1-.7-1.569,2.091,2.091,0,0,1,.878-1.794,4.142,4.142,0,0,1,2.471-.639h1.23v-.581a1.42,1.42,0,0,0-.4-1.056,1.593,1.593,0,0,0-1.169-.393,1.844,1.844,0,0,0-1.135.342,1.007,1.007,0,0,0-.458.827H10.343a1.745,1.745,0,0,1,.393-1.07,2.683,2.683,0,0,1,1.066-.817,3.588,3.588,0,0,1,1.48-.3,2.924,2.924,0,0,1,2,.639,2.306,2.306,0,0,1,.752,1.76v3.4a4.162,4.162,0,0,0,.26,1.62V18Zm-2.1-.964A2.223,2.223,0,0,0,14,16.729a1.861,1.861,0,0,0,.772-.8V14.411h-.991q-2.324,0-2.324,1.36a1.151,1.151,0,0,0,.4.93A1.524,1.524,0,0,0,12.872,17.036ZM19.216,10.6l.041.93a2.7,2.7,0,0,1,2.215-1.066q2.345,0,2.365,2.646V18H22.572V13.105a1.7,1.7,0,0,0-.366-1.183,1.466,1.466,0,0,0-1.118-.383,1.825,1.825,0,0,0-1.08.328,2.228,2.228,0,0,0-.725.861V18H18.02V10.6ZM30.311,18a2.657,2.657,0,0,1-.178-.779,2.822,2.822,0,0,1-2.105.916,2.611,2.611,0,0,1-1.794-.619,2,2,0,0,1-.7-1.569,2.091,2.091,0,0,1,.878-1.794,4.142,4.142,0,0,1,2.471-.639h1.23v-.581a1.42,1.42,0,0,0-.4-1.056,1.593,1.593,0,0,0-1.169-.393,1.844,1.844,0,0,0-1.135.342,1.007,1.007,0,0,0-.458.827H25.683a1.745,1.745,0,0,1,.393-1.07,2.683,2.683,0,0,1,1.066-.817,3.588,3.588,0,0,1,1.48-.3,2.924,2.924,0,0,1,2,.639,2.306,2.306,0,0,1,.752,1.76v3.4a4.162,4.162,0,0,0,.26,1.62V18Zm-2.1-.964a2.223,2.223,0,0,0,1.128-.308,1.861,1.861,0,0,0,.772-.8V14.411h-.991q-2.324,0-2.324,1.36a1.151,1.151,0,0,0,.4.93A1.524,1.524,0,0,0,28.212,17.036Z" transform="translate(700.948 624.901)" fill="#0c1d30"/>
    <text id="Educación_Ambiental" data-name="Educación Ambiental" transform="translate(936.503 659.5)" fill="#0c1d30" font-size="14" font-family="Roboto-Regular, Roboto"><tspan x="-65.898" y="0">Educación Ambiental</tspan></text>
    <text id="Técnicas_Educativas" data-name="Técnicas Educativas" transform="translate(961.38 747.208)" fill="#0c1d30" font-size="14" font-family="Roboto-Regular, Roboto"><tspan x="-63.923" y="0">Técnicas Educativas</tspan></text>
    <text id="Programas_de_capacitación_y_sensibilización_" data-name="Programas de capacitación 
y sensibilización 
" transform="translate(865.038 547.998)" fill="#0c1d30" font-size="14" font-family="Roboto-Regular, Roboto"><tspan x="-86.963" y="0">Programas de capacitación </tspan><tspan x="-52.784" y="18">y sensibilización </tspan><tspan font-family="Roboto-Regular"><tspan x="0" y="36"></tspan></tspan></text>
    <g id="Grupo_878511" data-name="Grupo 878511" transform="translate(440.524 552.691) rotate(38)">
      <g id="Grupo_875986" data-name="Grupo 875986" transform="translate(2.695 0)">
        <rect id="Rectángulo_293354" data-name="Rectángulo 293354" width="1.953" height="89.06" fill="#0c1d30"/>
      </g>
      <g id="Grupo_875988" data-name="Grupo 875988" transform="translate(0 85.204)">
        <g id="Grupo_875987" data-name="Grupo 875987">
          <circle id="Elipse_4909" data-name="Elipse 4909" cx="3.673" cy="3.673" r="3.673" fill="#0c1d30"/>
        </g>
      </g>
    </g>
    <g id="Grupo_883140" data-name="Grupo 883140" transform="matrix(0.999, 0.035, -0.035, 0.999, 494.983, 555.533)">
      <g id="Grupo_875986-2" data-name="Grupo 875986" transform="translate(2.695 0)">
        <rect id="Rectángulo_293354-2" data-name="Rectángulo 293354" width="1.953" height="134.898" transform="translate(0 0)" fill="#0c1d30"/>
      </g>
      <g id="Grupo_875988-2" data-name="Grupo 875988" transform="translate(0 131.042)">
        <g id="Grupo_875987-2" data-name="Grupo 875987">
          <circle id="Elipse_4909-2" data-name="Elipse 4909" cx="3.673" cy="3.673" r="3.673" fill="#0c1d30"/>
        </g>
      </g>
    </g>
    <g id="Grupo_883141" data-name="Grupo 883141" transform="translate(570.625 536.828) rotate(-13)">
      <g id="Grupo_875986-3" data-name="Grupo 875986" transform="translate(2.695 0)">
        <rect id="Rectángulo_293354-3" data-name="Rectángulo 293354" width="1.953" height="134.898" transform="translate(0)" fill="#0c1d30"/>
      </g>
      <g id="Grupo_875988-3" data-name="Grupo 875988" transform="translate(0 131.042)">
        <g id="Grupo_875987-3" data-name="Grupo 875987">
          <circle id="Elipse_4909-3" data-name="Elipse 4909" cx="3.673" cy="3.673" r="3.673" fill="#0c1d30"/>
        </g>
      </g>
    </g>
    <g id="Grupo_883138" data-name="Grupo 883138" transform="translate(865.449 400.019)">
      <g id="Grupo_875986-4" data-name="Grupo 875986" transform="translate(2.695 0)">
        <rect id="Rectángulo_293354-4" data-name="Rectángulo 293354" width="1.953" height="18.28" fill="#0c1d30"/>
      </g>
      <g id="Grupo_875988-4" data-name="Grupo 875988" transform="translate(0 14.423)">
        <g id="Grupo_875987-4" data-name="Grupo 875987">
          <circle id="Elipse_4909-4" data-name="Elipse 4909" cx="3.673" cy="3.673" r="3.673" fill="#0c1d30"/>
        </g>
      </g>
    </g>
    <g id="Grupo_883145" data-name="Grupo 883145" transform="translate(956.618 680.801)">
      <g id="Grupo_875986-5" data-name="Grupo 875986" transform="translate(2.695 0)">
        <rect id="Rectángulo_293354-5" data-name="Rectángulo 293354" width="1.953" height="27.642" fill="#0c1d30"/>
      </g>
      <g id="Grupo_875988-5" data-name="Grupo 875988" transform="translate(0 23.785)">
        <g id="Grupo_875987-5" data-name="Grupo 875987">
          <circle id="Elipse_4909-5" data-name="Elipse 4909" cx="3.673" cy="3.673" r="3.673" fill="#0c1d30"/>
        </g>
      </g>
    </g>
    <g id="Grupo_883139" data-name="Grupo 883139" transform="translate(861.784 470.514)">
      <g id="Grupo_875986-6" data-name="Grupo 875986" transform="translate(2.695 0)">
        <rect id="Rectángulo_293354-6" data-name="Rectángulo 293354" width="1.953" height="52.229" fill="#0c1d30"/>
      </g>
      <g id="Grupo_875988-6" data-name="Grupo 875988" transform="translate(0 48.372)">
        <g id="Grupo_875987-6" data-name="Grupo 875987">
          <circle id="Elipse_4909-6" data-name="Elipse 4909" cx="3.673" cy="3.673" r="3.673" fill="#0c1d30"/>
        </g>
      </g>
    </g>
    <g id="Grupo_878528" data-name="Grupo 878528" transform="translate(1153.45 618.649) rotate(40)">
      <g id="Grupo_875986-7" data-name="Grupo 875986" transform="translate(2.695 0)">
        <rect id="Rectángulo_293354-7" data-name="Rectángulo 293354" width="1.953" height="158.446" fill="#0c1d30"/>
      </g>
      <g id="Grupo_875988-7" data-name="Grupo 875988" transform="translate(0 154.59)">
        <g id="Grupo_875987-7" data-name="Grupo 875987">
          <circle id="Elipse_4909-7" data-name="Elipse 4909" cx="3.673" cy="3.673" r="3.673" fill="#0c1d30"/>
        </g>
      </g>
    </g>
    <g id="Grupo_878513" data-name="Grupo 878513" transform="translate(790.539 467.077) rotate(72)">
      <g id="Grupo_875986-8" data-name="Grupo 875986" transform="translate(2.695 0)">
        <rect id="Rectángulo_293354-8" data-name="Rectángulo 293354" width="1.953" height="142.62" transform="translate(0 0)" fill="#0c1d30"/>
      </g>
      <g id="Grupo_875988-8" data-name="Grupo 875988" transform="translate(0 138.764)">
        <g id="Grupo_875987-8" data-name="Grupo 875987">
          <circle id="Elipse_4909-8" data-name="Elipse 4909" cx="3.673" cy="3.673" r="3.673" fill="#0c1d30"/>
        </g>
      </g>
    </g>
    <g id="Grupo_878514" data-name="Grupo 878514" transform="translate(926.799 465.554) rotate(-66)">
      <g id="Grupo_875986-9" data-name="Grupo 875986" transform="translate(2.695 0)">
        <rect id="Rectángulo_293354-9" data-name="Rectángulo 293354" width="1.953" height="210.745" fill="#0c1d30"/>
      </g>
      <g id="Grupo_875988-9" data-name="Grupo 875988" transform="translate(0 206.888)">
        <g id="Grupo_875987-9" data-name="Grupo 875987">
          <circle id="Elipse_4909-9" data-name="Elipse 4909" cx="3.673" cy="3.673" r="3.673" fill="#0c1d30"/>
        </g>
      </g>
    </g>
    <rect id="Rectángulo_293964" data-name="Rectángulo 293964" width="268.41" height="42.759" rx="5" transform="translate(735.822 429.021)" fill="#dee4f0"/>
    <g id="Grupo_878484" data-name="Grupo 878484" transform="translate(749.08 442.46)">
      <g id="Grupo_875877-3" data-name="Grupo 875877" transform="translate(0 0)">
        <text id="Diagnóstico_y_planificación_participativa_" data-name="Diagnóstico y planificación participativa
" transform="translate(117 12)" fill="#0c1d30" font-size="13" font-family="Roboto-Regular, Roboto"><tspan x="-114.854" y="0">Diagnóstico y planificación participativa</tspan><tspan font-family="Roboto-Regular"><tspan x="0" y="15"></tspan></tspan></text>
      </g>
    </g>
    <rect id="Rectángulo_293968" data-name="Rectángulo 293968" width="258.59" height="68.016" rx="5" transform="translate(392.991 488.835)" fill="#b1dce0"/>
    <text id="Identificación_de_las_instituciones_y_organizaciones_comunitarias" data-name="Identificación de las instituciones y 
organizaciones comunitarias" transform="translate(517.535 518.129)" fill="#0c1d30" font-size="14" font-family="Roboto-Regular, Roboto"><tspan x="-110.558" y="0">Identificación de las instituciones y </tspan><tspan x="-89.992" y="18">organizaciones comunitarias</tspan></text>
    <g id="Grupo_883142" data-name="Grupo 883142" transform="translate(440.524 552.691) rotate(38)">
      <g id="Grupo_875986-10" data-name="Grupo 875986" transform="translate(2.695 0)">
        <rect id="Rectángulo_293354-10" data-name="Rectángulo 293354" width="1.953" height="89.06" fill="#0c1d30"/>
      </g>
      <g id="Grupo_875988-10" data-name="Grupo 875988" transform="translate(0 85.204)">
        <g id="Grupo_875987-10" data-name="Grupo 875987">
          <circle id="Elipse_4909-10" data-name="Elipse 4909" cx="3.673" cy="3.673" r="3.673" fill="#0c1d30"/>
        </g>
      </g>
    </g>
    <g id="Grupo_883143" data-name="Grupo 883143" transform="translate(615.784 558.739) rotate(-62)">
      <g id="Grupo_875986-11" data-name="Grupo 875986" transform="translate(2.695 0)">
        <rect id="Rectángulo_293354-11" data-name="Rectángulo 293354" width="1.953" height="89.06" fill="#0c1d30"/>
      </g>
      <g id="Grupo_875988-11" data-name="Grupo 875988" transform="translate(0 85.204)">
        <g id="Grupo_875987-11" data-name="Grupo 875987">
          <circle id="Elipse_4909-11" data-name="Elipse 4909" cx="3.673" cy="3.673" r="3.673" fill="#0c1d30"/>
        </g>
      </g>
    </g>
    <g id="Grupo_883144" data-name="Grupo 883144" transform="translate(861.784 584.292) rotate(-62)">
      <g id="Grupo_875986-12" data-name="Grupo 875986" transform="translate(2.695 0)">
        <rect id="Rectángulo_293354-12" data-name="Rectángulo 293354" width="1.953" height="89.06" fill="#0c1d30"/>
      </g>
      <g id="Grupo_875988-12" data-name="Grupo 875988" transform="translate(0 85.204)">
        <g id="Grupo_875987-12" data-name="Grupo 875987">
          <circle id="Elipse_4909-12" data-name="Elipse 4909" cx="3.673" cy="3.673" r="3.673" fill="#0c1d30"/>
        </g>
      </g>
    </g>
  </g>
</svg>
